<?xml version="1.0" encoding="utf-8"?>
<!-- Generator: Adobe Illustrator 23.0.0, SVG Export Plug-In . SVG Version: 6.00 Build 0)  -->
<svg version="1.1" id="图层_1" xmlns="http://www.w3.org/2000/svg" xmlns:xlink="http://www.w3.org/1999/xlink" x="0px" y="0px"
     viewBox="0 0 40 40" style="enable-background:new 0 0 40 40;" xml:space="preserve">
<style type="text/css">
	.st0{clip-path:url(#SVGID_2_);fill:#C65EDB;}
	.st1{fill:#FFFFFF;}
	.st2{fill:#505266;}
	.st3{fill:#E5E5EA;}
	.st4{opacity:0.7;}
	.st5{opacity:0.5;}
	.st6{fill:#783887;}
</style>
  <g>
	<path class="st6" d="M12.51,35H2.45C1.1,35,0,33.9,0,32.55V7.45C0,6.1,1.1,5,2.45,5h10.06V35z"/>
    <path class="st3" d="M37.55,35H12.51V5h25.04C38.9,5,40,6.1,40,7.45v25.1C40,33.9,38.9,35,37.55,35z"/>
    <rect x="15.1" y="7.69" class="st1" width="22.32" height="6.76"/>
    <rect x="15.1" y="17.05" class="st1" width="22.32" height="15.1"/>
    <g>
		<g class="st5">
			<circle class="st1" cx="3.68" cy="10.23" r="0.79"/>
      <path class="st1" d="M9.24,10.88H5.67c-0.21,0-0.38-0.17-0.38-0.38V9.95c0-0.21,0.17-0.38,0.38-0.38h3.57
				c0.21,0,0.38,0.17,0.38,0.38v0.55C9.62,10.71,9.45,10.88,9.24,10.88z"/>
		</g>
      <g class="st5">
			<circle class="st1" cx="3.68" cy="14.46" r="0.79"/>
        <path class="st1" d="M9.24,15.11H5.67c-0.21,0-0.38-0.17-0.38-0.38v-0.55c0-0.21,0.17-0.38,0.38-0.38h3.57
				c0.21,0,0.38,0.17,0.38,0.38v0.55C9.62,14.94,9.45,15.11,9.24,15.11z"/>
		</g>
      <g class="st5">
			<circle class="st1" cx="3.68" cy="18.68" r="0.79"/>
        <path class="st1" d="M9.24,19.34H5.67c-0.21,0-0.38-0.17-0.38-0.38v-0.55c0-0.21,0.17-0.38,0.38-0.38h3.57
				c0.21,0,0.38,0.17,0.38,0.38v0.55C9.62,19.17,9.45,19.34,9.24,19.34z"/>
		</g>
	</g>
</g>
</svg>
