<svg width="80" height="45" viewBox="0 0 80 45" fill="none" xmlns="http://www.w3.org/2000/svg">
<g clip-path="url(#clip0_6101_511794)">
<rect width="80" height="45" fill="white"/>
<path d="M0 2C0 0.89543 0.895431 0 2 0H78C79.1046 0 80 0.895431 80 2V43C80 44.1046 79.1046 45 78 45H2C0.895429 45 0 44.1046 0 43V2Z" fill="#F9F9FE"/>
<path d="M0 2C0 0.895431 0.895431 0 2 0H78C79.1046 0 80 0.895431 80 2V7H0V2Z" fill="#EDEDF1"/>
<circle cx="9.5" cy="3.5" r="1.5" fill="white"/>
<circle cx="14.5" cy="3.5" r="1.5" fill="white"/>
<circle cx="4.5" cy="3.5" r="1.5" fill="white"/>
<rect x="26.1" y="9.1" width="50.8" height="33.8" rx="0.9" fill="white" stroke="#EDEDF1" stroke-width="0.2"/>
<rect x="28" y="11" width="47" height="4" rx="0.5" fill="#F9F4FA"/>
<rect x="2.1" y="9.1" width="21.8" height="33.8" rx="0.9" fill="white" stroke="#EDEDF1" stroke-width="0.2"/>
<rect x="4.1" y="11.1" width="17.8" height="3.8" rx="0.4" fill="#F9F4FA" stroke="#959598" stroke-width="0.2" stroke-dasharray="0.4 0.4"/>
<rect x="4" y="16" width="18" height="4" rx="0.5" fill="#F9F9FE"/>
<rect x="4" y="21" width="18" height="4" rx="0.5" fill="#F9F9FE"/>
<rect x="4" y="26" width="18" height="4" rx="0.5" fill="#F9F9FE"/>
<rect x="4" y="31" width="18" height="4" rx="0.5" fill="#F9F9FE"/>
<rect x="4" y="36" width="18" height="4" rx="0.5" fill="#F9F9FE"/>
<g filter="url(#filter0_d_6101_511794)">
<rect x="17" y="24" width="22" height="6" rx="0.5" fill="white"/>
</g>
<rect x="22" y="26" width="14" height="2" rx="1" fill="#F2E9F6"/>
<circle cx="20" cy="27" r="1" fill="#F2E9F6"/>
</g>
<defs>
<filter id="filter0_d_6101_511794" x="16" y="24" width="24" height="8" filterUnits="userSpaceOnUse" color-interpolation-filters="sRGB">
<feFlood flood-opacity="0" result="BackgroundImageFix"/>
<feColorMatrix in="SourceAlpha" type="matrix" values="0 0 0 0 0 0 0 0 0 0 0 0 0 0 0 0 0 0 127 0" result="hardAlpha"/>
<feMorphology radius="1" operator="erode" in="SourceAlpha" result="effect1_dropShadow_6101_511794"/>
<feOffset dy="1"/>
<feGaussianBlur stdDeviation="1"/>
<feColorMatrix type="matrix" values="0 0 0 0 0.392157 0 0 0 0 0.392157 0 0 0 0 0.4 0 0 0 0.3 0"/>
<feBlend mode="normal" in2="BackgroundImageFix" result="effect1_dropShadow_6101_511794"/>
<feBlend mode="normal" in="SourceGraphic" in2="effect1_dropShadow_6101_511794" result="shape"/>
</filter>
<clipPath id="clip0_6101_511794">
<rect width="80" height="45" rx="4" fill="white"/>
</clipPath>
</defs>
</svg>
