<svg width="16" height="16" viewBox="0 0 16 16" fill="none" xmlns="http://www.w3.org/2000/svg">
<path d="M8.66602 0.666504L8.72002 0.668504L8.76532 0.67385C8.77665 0.675589 8.78827 0.677639 8.79983 0.679997C8.81451 0.68293 8.82897 0.686393 8.84324 0.690318C8.85366 0.693236 8.86392 0.696323 8.87411 0.699663C8.88721 0.703919 8.9004 0.708714 8.91339 0.713907L8.94816 0.728953C8.96194 0.735422 8.97554 0.742367 8.98887 0.749754C8.99694 0.75417 9.00509 0.758909 9.01315 0.763834C9.0302 0.774316 9.04677 0.785497 9.06279 0.79738L9.07736 0.808456C9.07912 0.809885 9.08106 0.811419 9.08298 0.812963L9.13742 0.861766L12.4708 4.1951L12.516 4.2465L12.5351 4.26963C12.547 4.28575 12.5582 4.30232 12.5686 4.3194L12.5829 4.3438C12.5902 4.35697 12.5971 4.37058 12.6036 4.38444L12.6185 4.41895C12.6238 4.43212 12.6286 4.44531 12.633 4.45868C12.6362 4.4686 12.6393 4.47886 12.6421 4.48917C12.6461 4.50355 12.6496 4.51801 12.6526 4.53264C12.6549 4.54425 12.6569 4.55587 12.6587 4.56753C12.6597 4.57435 12.6607 4.58153 12.6615 4.58876L12.6635 4.60902C12.6646 4.62099 12.6653 4.63299 12.6657 4.645L12.666 4.6665V7.99984H11.3327V5.33317H8.66602C8.32412 5.33317 8.04234 5.07581 8.00383 4.74425L7.99935 4.6665V1.99984H1.99935V13.9998H7.99935V15.3332H1.99935C1.26297 15.3332 0.666016 14.7362 0.666016 13.9998V1.99984C0.666016 1.26346 1.26297 0.666504 1.99935 0.666504H8.66602ZM12.5381 8.8665C13.7153 8.8665 14.5574 9.64206 14.666 10.637H13.2444C13.1629 10.2923 12.9727 10.0259 12.5291 10.0259H11.5783C11.0531 10.0259 10.7181 10.4098 10.7181 10.872L10.7271 13.3277C10.7271 13.7899 11.0622 14.1737 11.5874 14.1737H12.5381C12.9727 14.1737 13.1538 13.9231 13.2444 13.5862H14.6751C14.5664 14.5654 13.7153 15.3332 12.5472 15.3332H11.5783C10.3468 15.3332 9.34174 14.4636 9.34174 13.3982L9.33268 10.8093C9.33268 9.73607 10.3378 8.8665 11.5692 8.8665H12.5381ZM9.33268 2.94317V3.99984H10.3893L9.33268 2.94317Z" fill="#3370FF"/>
</svg>
