<svg width="24" height="24" viewBox="0 0 24 24" fill="none" xmlns="http://www.w3.org/2000/svg">
<rect width="24" height="24" rx="4" fill="#F02929"/>
<path fill-rule="evenodd" clip-rule="evenodd" d="M9.33261 9.33317H8.00008L8.00008 12.9998L8.00008 13.3332C8.00008 13.8183 8.14793 14.848 8.72526 15.7338C9.20136 16.4643 9.9862 17.129 11.3334 17.2941V9.33317L9.33341 9.33317C9.33315 9.33317 9.33288 9.33317 9.33261 9.33317ZM12.6667 9.33317V17.2944C14.0157 17.1306 14.8002 16.4699 15.2755 15.7432C15.8518 14.8619 16.0001 13.833 16.0001 13.3332V12.9998V9.33317H14.6676C14.6673 9.33317 14.667 9.33317 14.6667 9.33317L12.6667 9.33317ZM15.3317 7.99984H16.3906L18.1953 6.1951C18.4557 5.93475 18.8778 5.93475 19.1382 6.1951C19.3985 6.45545 19.3985 6.87756 19.1382 7.13791L17.3334 8.94265V12.3332H18.6667C19.0349 12.3332 19.3334 12.6316 19.3334 12.9998C19.3334 13.368 19.0349 13.6665 18.6667 13.6665H17.3205C17.2677 14.3838 17.0405 15.4728 16.4011 16.458L18.1382 18.1951C18.3985 18.4554 18.3985 18.8776 18.1382 19.1379C17.8778 19.3983 17.4557 19.3983 17.1953 19.1379L15.5267 17.4693C14.7128 18.1766 13.5689 18.6665 12.0001 18.6665C10.4328 18.6665 9.29011 18.1742 8.47693 17.4658L6.80482 19.1379C6.54447 19.3983 6.12236 19.3983 5.86201 19.1379C5.60166 18.8776 5.60166 18.4554 5.86201 18.1951L7.60312 16.454C6.96249 15.4671 6.73371 14.3777 6.68008 13.6665H5.33341C4.96522 13.6665 4.66675 13.368 4.66675 12.9998C4.66675 12.6316 4.96522 12.3332 5.33341 12.3332H6.66675V8.94265L4.86201 7.13791C4.60166 6.87756 4.60166 6.45545 4.86201 6.1951C5.12236 5.93475 5.54447 5.93475 5.80482 6.1951L7.60956 7.99984H8.66847C8.725 6.17306 10.1707 4.6665 12.0001 4.6665C13.8295 4.6665 15.2752 6.17306 15.3317 7.99984ZM13.9974 7.99984C13.9423 6.86245 13.0455 5.99984 12.0001 5.99984C10.9547 5.99984 10.0579 6.86245 10.0028 7.99984L12.0001 7.99984L13.9974 7.99984Z" fill="white"/>
</svg>
