<svg width="24" height="24" viewBox="0 0 24 24" fill="none" xmlns="http://www.w3.org/2000/svg">
<rect width="24" height="24" rx="4" fill="#9441B1"/>
<path d="M12.6667 4.66666L12.7207 4.66866L12.7661 4.674C12.7774 4.67574 12.789 4.67779 12.8006 4.68015C12.8152 4.68308 12.8297 4.68655 12.844 4.69047C12.8544 4.69339 12.8646 4.69648 12.8748 4.69982C12.8879 4.70407 12.9011 4.70887 12.9141 4.71406L12.9489 4.72911C12.9627 4.73557 12.9763 4.74252 12.9896 4.74991C12.9977 4.75432 13.0058 4.75906 13.0139 4.76399C13.0309 4.77447 13.0475 4.78565 13.0635 4.79753L13.0781 4.80861C13.0799 4.81004 13.0818 4.81157 13.0837 4.81312L13.1382 4.86192L16.4715 8.19525L16.5167 8.24666L16.5359 8.26979C16.5478 8.2859 16.5589 8.30247 16.5694 8.31955L16.5836 8.34395C16.5909 8.35713 16.5978 8.37073 16.6043 8.38459L16.6193 8.4191C16.6245 8.43227 16.6293 8.44546 16.6337 8.45883C16.6369 8.46876 16.64 8.47901 16.6429 8.48933C16.6469 8.5037 16.6503 8.51816 16.6533 8.53279C16.6556 8.54441 16.6577 8.55602 16.6594 8.56768C16.6605 8.5745 16.6614 8.58169 16.6623 8.58891L16.6643 8.60917C16.6653 8.62115 16.666 8.63315 16.6664 8.64515L16.6667 8.66666V12H15.3334V9.33332H12.6667C12.3249 9.33332 12.0431 9.07596 12.0046 8.7444L12.0001 8.66666V5.99999H6.00008V18H12.0001V19.3333H6.00008C5.2637 19.3333 4.66675 18.7364 4.66675 18V5.99999C4.66675 5.26361 5.2637 4.66666 6.00008 4.66666H12.6667ZM16.5388 12.8667C17.716 12.8667 18.5581 13.6422 18.6667 14.6371H17.2451C17.1636 14.2924 16.9735 14.0261 16.5298 14.0261H15.579C15.0538 14.0261 14.7188 14.4099 14.7188 14.8721L14.7279 17.3278C14.7279 17.79 15.0629 18.1739 15.5881 18.1739H16.5388C16.9735 18.1739 17.1546 17.9232 17.2451 17.5864H18.6758C18.5671 18.5656 17.716 19.3333 16.5479 19.3333H15.579C14.3476 19.3333 13.3425 18.4638 13.3425 17.3983L13.3334 14.8095C13.3334 13.7362 14.3385 12.8667 15.57 12.8667H16.5388ZM13.3334 6.94332V7.99999H14.3901L13.3334 6.94332Z" fill="white"/>
</svg>
