<svg width="64" height="46" viewBox="0 0 64 46" fill="none" xmlns="http://www.w3.org/2000/svg">
<rect width="64" height="46" rx="4" fill="url(#paint0_linear_2120_250922)"/>
<g opacity="0.3" filter="url(#filter0_f_2120_250922)">
<rect x="20" y="39" width="24" height="2" rx="1" fill="#811FA3"/>
</g>
<path d="M37 36L45.5 27.5L43.5 25.5L35 34V36H37Z" fill="#811FA3"/>
<path fill-rule="evenodd" clip-rule="evenodd" d="M19 6C17.8954 6 17 6.89543 17 8V32C17 33.1046 17.8954 34 19 34H28.5563L42 20.5563V8C42 6.89543 41.1046 6 40 6H19Z" fill="#811FA3"/>
<path fill-rule="evenodd" clip-rule="evenodd" d="M21 8C19.8954 8 19 8.89543 19 10V34C19 35.1046 19.8954 36 21 36H30.5563L44 22.5563V10C44 8.89543 43.1046 8 42 8H21Z" fill="#811FA3"/>
<g filter="url(#filter1_i_2120_250922)">
<path fill-rule="evenodd" clip-rule="evenodd" d="M21 8C19.8954 8 19 8.89543 19 10V34C19 35.1046 19.8954 36 21 36H30.5563L44 22.5563V10C44 8.89543 43.1046 8 42 8H21Z" fill="url(#paint1_linear_2120_250922)"/>
</g>
<g filter="url(#filter2_d_2120_250922)">
<rect x="21" y="12" width="17" height="3" rx="1.5" fill="white"/>
</g>
<g filter="url(#filter3_d_2120_250922)">
<rect x="21" y="19" width="13" height="3" rx="1.5" fill="white"/>
</g>
<g filter="url(#filter4_d_2120_250922)">
<rect x="21" y="26" width="9" height="3" rx="1.5" fill="white"/>
</g>
<defs>
<filter id="filter0_f_2120_250922" x="16" y="35" width="32" height="10" filterUnits="userSpaceOnUse" color-interpolation-filters="sRGB">
<feFlood flood-opacity="0" result="BackgroundImageFix"/>
<feBlend mode="normal" in="SourceGraphic" in2="BackgroundImageFix" result="shape"/>
<feGaussianBlur stdDeviation="2" result="effect1_foregroundBlur_2120_250922"/>
</filter>
<filter id="filter1_i_2120_250922" x="19" y="8" width="25" height="28" filterUnits="userSpaceOnUse" color-interpolation-filters="sRGB">
<feFlood flood-opacity="0" result="BackgroundImageFix"/>
<feBlend mode="normal" in="SourceGraphic" in2="BackgroundImageFix" result="shape"/>
<feColorMatrix in="SourceAlpha" type="matrix" values="0 0 0 0 0 0 0 0 0 0 0 0 0 0 0 0 0 0 127 0" result="hardAlpha"/>
<feOffset/>
<feGaussianBlur stdDeviation="0.5"/>
<feComposite in2="hardAlpha" operator="arithmetic" k2="-1" k3="1"/>
<feColorMatrix type="matrix" values="0 0 0 0 1 0 0 0 0 1 0 0 0 0 1 0 0 0 1 0"/>
<feBlend mode="normal" in2="shape" result="effect1_innerShadow_2120_250922"/>
</filter>
<filter id="filter2_d_2120_250922" x="20" y="12" width="19" height="5" filterUnits="userSpaceOnUse" color-interpolation-filters="sRGB">
<feFlood flood-opacity="0" result="BackgroundImageFix"/>
<feColorMatrix in="SourceAlpha" type="matrix" values="0 0 0 0 0 0 0 0 0 0 0 0 0 0 0 0 0 0 127 0" result="hardAlpha"/>
<feOffset dy="1"/>
<feGaussianBlur stdDeviation="0.5"/>
<feComposite in2="hardAlpha" operator="out"/>
<feColorMatrix type="matrix" values="0 0 0 0 0.505882 0 0 0 0 0.121569 0 0 0 0 0.639216 0 0 0 0.24 0"/>
<feBlend mode="normal" in2="BackgroundImageFix" result="effect1_dropShadow_2120_250922"/>
<feBlend mode="normal" in="SourceGraphic" in2="effect1_dropShadow_2120_250922" result="shape"/>
</filter>
<filter id="filter3_d_2120_250922" x="20" y="19" width="15" height="5" filterUnits="userSpaceOnUse" color-interpolation-filters="sRGB">
<feFlood flood-opacity="0" result="BackgroundImageFix"/>
<feColorMatrix in="SourceAlpha" type="matrix" values="0 0 0 0 0 0 0 0 0 0 0 0 0 0 0 0 0 0 127 0" result="hardAlpha"/>
<feOffset dy="1"/>
<feGaussianBlur stdDeviation="0.5"/>
<feComposite in2="hardAlpha" operator="out"/>
<feColorMatrix type="matrix" values="0 0 0 0 0.505882 0 0 0 0 0.121569 0 0 0 0 0.639216 0 0 0 0.24 0"/>
<feBlend mode="normal" in2="BackgroundImageFix" result="effect1_dropShadow_2120_250922"/>
<feBlend mode="normal" in="SourceGraphic" in2="effect1_dropShadow_2120_250922" result="shape"/>
</filter>
<filter id="filter4_d_2120_250922" x="20" y="26" width="11" height="5" filterUnits="userSpaceOnUse" color-interpolation-filters="sRGB">
<feFlood flood-opacity="0" result="BackgroundImageFix"/>
<feColorMatrix in="SourceAlpha" type="matrix" values="0 0 0 0 0 0 0 0 0 0 0 0 0 0 0 0 0 0 127 0" result="hardAlpha"/>
<feOffset dy="1"/>
<feGaussianBlur stdDeviation="0.5"/>
<feComposite in2="hardAlpha" operator="out"/>
<feColorMatrix type="matrix" values="0 0 0 0 0.505882 0 0 0 0 0.121569 0 0 0 0 0.639216 0 0 0 0.24 0"/>
<feBlend mode="normal" in2="BackgroundImageFix" result="effect1_dropShadow_2120_250922"/>
<feBlend mode="normal" in="SourceGraphic" in2="effect1_dropShadow_2120_250922" result="shape"/>
</filter>
<linearGradient id="paint0_linear_2120_250922" x1="62.4941" y1="1.50001" x2="-31.3204" y2="32.2514" gradientUnits="userSpaceOnUse">
<stop stop-color="#F2E9F6"/>
<stop offset="1" stop-color="#F9F4FA" stop-opacity="0.12"/>
</linearGradient>
<linearGradient id="paint1_linear_2120_250922" x1="37" y1="29" x2="20.5" y2="9.5" gradientUnits="userSpaceOnUse">
<stop stop-color="white"/>
<stop offset="1" stop-color="white" stop-opacity="0.8"/>
</linearGradient>
</defs>
</svg>
