<svg width="16" height="16" viewBox="0 0 16 16" fill="none" xmlns="http://www.w3.org/2000/svg">
<path d="M10.1118 1.33333C10.5538 1.33333 10.9777 1.50892 11.2903 1.82148L12.5764 3.10753L14.1782 4.70939C14.4907 5.02195 14.6663 5.44586 14.6663 5.8879V13C14.6663 13.9205 13.9202 14.6667 12.9997 14.6667H2.99967C2.0792 14.6667 1.33301 13.9205 1.33301 13V2.99999C1.33301 2.07952 2.0792 1.33333 2.99967 1.33333H10.1118ZM10.1118 2.66666H2.99967C2.81558 2.66666 2.66634 2.8159 2.66634 2.99999V13C2.66634 13.1841 2.81557 13.3333 2.99967 13.3333H12.9997C13.1838 13.3333 13.333 13.1841 13.333 13V5.8879C13.333 5.79949 13.2979 5.71472 13.2354 5.65219L10.3475 2.76429C10.285 2.70177 10.2002 2.66666 10.1118 2.66666ZM6.24054 6.66666V7.37835H4.42034V7.90814H6.10882V8.58799H4.42034V9.24511H6.29323V10H3.33301V6.66666H6.24054ZM8.64034 7.53069C8.91018 7.53069 9.12134 7.60686 9.27382 7.7592C9.4263 7.91155 9.50254 8.14688 9.50254 8.46521V10H8.52298V8.67212C8.52298 8.52053 8.49344 8.41329 8.43437 8.35038C8.37529 8.28747 8.29226 8.25602 8.18529 8.25602C8.06713 8.25602 7.97133 8.29846 7.89789 8.38335C7.82444 8.46824 7.78772 8.62058 7.78772 8.84038V10H6.81295V7.58526H7.72066V7.97862C7.85637 7.81794 7.99369 7.70312 8.1326 7.63415C8.27151 7.56518 8.44075 7.53069 8.64034 7.53069ZM10.6785 7.58526L11.1719 9.1155L11.682 7.58526H12.6663L11.5862 10H10.7216L9.66301 7.58526H10.6785Z" fill="#959598"/>
</svg>
