<svg width="474" height="77" viewBox="0 0 474 77" fill="none" xmlns="http://www.w3.org/2000/svg">
<path d="M0 12C0 5.37258 5.37258 0 12 0H462C468.627 0 474 5.37258 474 12V77H0V12Z" fill="#F9F9FE"/>
<g opacity="0.02">
<path d="M176.439 58.1398L174.36 37.3458L168.518 58.1398H161.715L156.008 37.3458L153.855 58.1398L144.451 58.0603L149.041 27.3673H161.021L165.129 41.9723L169.276 27.3673H180.976L185.644 58.1424H176.439V58.1398Z" fill="#783887"/>
<path d="M208.393 45.2589V49.1465H196.018L195.994 49.8536C195.994 51.3366 196.584 52.192 197.493 52.5125C198.2 52.7137 199.002 52.8117 199.897 52.8117H200.438C202.842 52.8117 206.356 52.2688 208.88 51.7498H208.92L207.903 57.2395C207.903 57.3057 206.722 57.8089 204.426 58.1823C202.983 58.3439 201.327 58.4233 199.458 58.4233C194.649 58.4233 191.545 56.7999 190.141 53.5559C189.62 52.2741 189.14 50.9368 189.14 49.5358V44.287C189.14 40.4392 190.978 37.8757 194.209 36.6072C195.639 36.1411 197.167 35.9054 198.798 35.9054C203.327 35.9054 206.264 37.3805 207.614 40.3332C208.133 41.4905 208.393 43.1351 208.393 45.2589ZM201.91 44.2367C201.91 42.714 201.455 41.6971 200.8 41.4164C200.305 41.0827 199.543 41.0324 198.835 41.0324C197.032 41.0324 196.132 41.8798 196.132 43.5773L196.02 44.5995H201.913V44.2367H201.91Z" fill="#783887"/>
<path d="M250.098 45.2589V49.1465H237.723L237.699 49.8536C237.699 51.3366 238.289 52.192 239.198 52.5125C239.905 52.7137 240.707 52.8117 241.602 52.8117H242.142C244.547 52.8117 248.061 52.2688 250.585 51.7498H250.625L249.608 57.2395C249.608 57.3057 248.427 57.8089 246.131 58.1823C244.687 58.3439 243.032 58.4233 241.163 58.4233C236.353 58.4233 233.25 56.7999 231.846 53.5559C231.324 52.2741 230.845 50.9368 230.845 49.5358V44.287C230.845 40.4392 232.683 37.8757 235.914 36.6072C237.344 36.1411 238.872 35.9054 240.503 35.9054C245.032 35.9054 247.969 37.3805 249.319 40.3332C249.838 41.4905 250.098 43.1351 250.098 45.2589ZM243.615 44.2367C243.615 42.714 243.159 41.6971 242.505 41.4164C242.01 41.0827 241.247 41.0324 240.54 41.0324C238.737 41.0324 237.836 41.8798 237.836 43.5773L237.725 44.5995H243.618V44.2367H243.615Z" fill="#783887"/>
<path d="M365.202 45.2589V49.1465H352.826L352.802 49.8536C352.802 51.3366 353.393 52.192 354.301 52.5125C355.008 52.7137 355.811 52.8117 356.706 52.8117H357.246C359.651 52.8117 363.165 52.2688 365.689 51.7498H365.729L364.712 57.2395C364.712 57.3057 363.53 57.8089 361.234 58.1823C359.791 58.3439 358.136 58.4233 356.266 58.4233C351.457 58.4233 348.353 56.7999 346.95 53.5559C346.428 52.2741 345.949 50.9368 345.949 49.5358V44.287C345.949 40.4392 347.784 37.8757 351.018 36.6072C352.448 36.1411 353.976 35.9054 355.607 35.9054C360.135 35.9054 363.072 37.3805 364.423 40.3332C364.942 41.4905 365.202 43.1351 365.202 45.2589ZM358.719 44.2367C358.719 42.714 358.263 41.6971 357.609 41.4164C357.114 41.0827 356.351 41.0324 355.644 41.0324C353.841 41.0324 352.94 41.8798 352.94 43.5773L352.829 44.5995H358.721V44.2367H358.719Z" fill="#783887"/>
<path d="M406.911 45.2589V49.1465H394.536L394.512 49.8536C394.512 51.3366 395.102 52.192 396.011 52.5125C396.718 52.7137 397.52 52.8117 398.415 52.8117H398.956C401.36 52.8117 404.874 52.2688 407.398 51.7498H407.438L406.421 57.2395C406.421 57.3057 405.24 57.8089 402.944 58.1823C401.501 58.3439 399.845 58.4233 397.976 58.4233C393.167 58.4233 390.063 56.7999 388.659 53.5559C388.138 52.2741 387.658 50.9368 387.658 49.5358V44.287C387.658 40.4392 389.496 37.8757 392.727 36.6072C394.157 36.1411 395.685 35.9054 397.316 35.9054C401.845 35.9054 404.782 37.3805 406.132 40.3332C406.649 41.4905 406.911 43.1351 406.911 45.2589ZM400.428 44.2367C400.428 42.714 399.972 41.6971 399.318 41.4164C398.823 41.0827 398.06 41.0324 397.353 41.0324C395.55 41.0324 394.65 41.8798 394.65 43.5773L394.538 44.5995H400.431V44.2367H400.428Z" fill="#783887"/>
<path d="M228.151 58.2221H224.168C223.475 58.2221 222.879 58.2009 222.386 58.1612C221.065 58.0685 219.981 57.8195 219.139 57.4197C218.112 56.9271 217.331 56.1697 216.796 55.1554C216.195 54.0061 215.895 52.4701 215.895 50.5475L215.856 41.8931H212.569V36.2629H215.856V31.904L219.145 31.8113L222.587 31.377V36.2629H227.717L227.015 41.8931H222.587V50.1688C222.587 50.3568 222.593 50.5157 222.609 50.6508C222.635 50.9977 222.688 51.2864 222.77 51.5115C222.971 52.0596 223.398 52.441 224.052 52.6528C224.56 52.8674 227.598 52.825 227.598 52.825L228.151 58.2221Z" fill="#783887"/>
<path d="M269.807 36.2999L269.709 41.5275C269.132 41.4984 267.493 41.5037 265.782 41.8956C264.251 42.2452 262.662 42.9602 261.754 43.2939V58.1399H255.062V36.1013H261.201C261.201 36.1013 261.052 37.2507 261.171 37.7035L262.734 37.1235C263.669 36.8031 264.678 36.5806 265.93 36.4218C267.824 36.1808 268.963 36.284 269.807 36.2999Z" fill="#783887"/>
<path d="M385.425 36.2999L385.327 41.5275C384.749 41.4984 383.11 41.5037 381.399 41.8956C379.869 42.2452 378.28 42.9602 377.371 43.2939V58.1399H370.679V36.1013H376.818C376.818 36.1013 376.67 37.2507 376.789 37.7035L378.351 37.1235C379.286 36.8031 380.295 36.5806 381.548 36.4218C383.438 36.1808 384.58 36.284 385.425 36.2999Z" fill="#783887"/>
<path d="M282.847 59.072C281.272 59.072 279.542 58.9713 277.66 58.7727C276.939 58.6933 276.198 58.5979 275.435 58.492L272.488 58.2113L272.551 50.6268L277.172 51.3497C277.172 51.3497 278.989 51.6093 279.818 51.6914C280.806 51.784 281.701 51.8317 282.503 51.8317C285.414 51.8317 287.098 51.1697 287.553 49.8482C287.808 49.3 287.794 48.7651 287.514 48.246C287.233 47.6713 286.64 47.1788 285.731 46.763C285.345 46.5909 284.857 46.4081 284.27 46.2228L282.546 45.7011C281.783 45.513 281.102 45.3277 280.501 45.1396C279.725 44.8986 279.018 44.6444 278.377 44.3769C276.788 43.7096 275.552 42.9337 274.67 42.0518C273.828 41.1567 273.287 40.063 273.046 38.7653C272.872 37.8438 272.853 36.7951 272.985 35.6192C273.346 32.2269 274.794 29.8964 277.334 28.6279C278.282 28.1194 279.423 27.754 280.761 27.5262C281.282 27.4468 281.876 27.3806 282.543 27.325L284.267 27.2058H285.429C286.751 27.2058 288.207 27.2853 289.796 27.4468L291.74 27.6666L293.999 27.9659L294.044 34.6209C293.176 34.4063 292.082 34.213 290.758 34.0409C289.06 33.7999 287.524 33.6807 286.15 33.6807C283.104 33.6807 282.053 34.3269 281.518 35.704C281.317 36.2786 281.304 36.856 281.362 37.42C281.433 38.09 281.391 38.2675 282.744 38.9693C283.157 39.1573 283.679 39.3559 284.307 39.5704L288.274 40.7515C289.036 40.9925 289.717 41.2388 290.318 41.493C291.775 42.1074 292.876 42.8145 293.623 43.6169C294.505 44.4988 295.072 45.6004 295.326 46.9219C295.498 47.87 295.519 48.9001 295.387 50.0071C295.027 53.373 293.345 56.3946 290.805 57.6896C289.871 58.1981 288.729 58.5582 287.379 58.7727C286.857 58.8522 286.264 58.9184 285.596 58.974L284.052 59.0746H282.847V59.072Z" fill="#783887"/>
<path d="M299.737 36.1834H305.831L305.648 37.6267C306.263 37.3063 306.864 37.0335 307.452 36.8058C308.172 36.525 308.887 36.3185 309.597 36.1834C311.334 35.8233 313.01 35.8974 314.626 36.4032C315.666 36.7369 316.562 37.3248 317.311 38.1669C317.592 38.4741 317.846 38.8211 318.071 39.2077L318.331 39.6685C318.397 39.8009 318.463 39.9413 318.532 40.0896C318.813 40.8496 319.104 41.7103 319.226 42.6319C319.371 43.6726 319.512 44.9967 319.512 46.6784V47.9257C319.512 51.1989 319.316 52.9653 318.685 54.1729C317.817 56.2173 315.73 57.2554 311.697 57.3825C311.154 57.3984 310.293 57.3852 309.398 57.3587L307.902 57.3189C307.348 57.3216 306.956 57.2925 306.514 57.3057V66.797L299.743 67.2419V36.1834H299.737ZM306.509 51.657C307.796 51.898 308.532 51.8795 309.623 51.8159L310.751 51.6703C312.007 51.3896 312.542 50.5395 312.542 49.1889V44.9755C312.542 44.3612 312.489 43.9083 312.38 43.6144C311.98 42.2532 310.87 41.7182 309.054 42.0122L308.312 42.1313L307.031 42.4915L306.509 42.6716V51.657Z" fill="#783887"/>
<path d="M342.984 46.2071V58.1824H336.173V45.1663C336.173 44.348 335.696 43.1616 334.742 42.6028C334.062 42.2029 332.915 42.2718 332.539 42.3327C331.633 42.4783 330.617 43.0265 330.142 43.4635V58.1824H323.371V26.5254L330.142 26.483V37.6718C330.971 37.3911 331.859 37.0415 332.807 36.8959C333.58 36.7767 334.398 36.6416 335.052 36.6416C338.94 36.6416 341.006 37.7407 341.954 39.7719C342.473 40.5319 342.984 42.7617 342.984 46.2071Z" fill="#783887"/>
<g clip-path="url(#clip0_690_192478)">
<path d="M96.682 3.94158L126.511 21.1642V55.6064L96.682 72.829L66.8533 55.6064V21.1642L96.682 3.94158ZM96.682 3L66.0366 20.6919V56.0757L96.682 73.7675L127.327 56.0757V20.6919L96.682 3Z" fill="#783887"/>
<path d="M70.845 22.9042L96.6789 7.98828L122.516 22.9042L96.6789 37.8201L70.845 22.9042Z" fill="#783887"/>
<path d="M70.3574 23.7512V53.583L96.1914 68.4989V38.6671L70.3574 23.7512ZM88.0798 57.5809L88.0645 47.0712L84.2921 55.3565L81.0378 53.449L79.2887 41.9215L77.2806 51.2428L72.786 48.5674L76.4274 35.2055L82.1561 38.5666L83.4328 46.6903L86.1052 40.8824L91.6998 44.1642L92.4829 60.1619L88.0798 57.5809Z" fill="#783887"/>
<path d="M97.1696 38.6671V68.4989L123.003 53.583V23.7512L97.1696 38.6671ZM117.531 48.8081C117.381 50.8101 116.464 52.9218 115.023 54.2504C114.493 54.7562 113.841 55.2285 113.067 55.6612C112.768 55.8288 112.427 56.0025 112.043 56.1884L111.156 56.6028L110.464 56.8831C109.556 57.2488 108.557 57.5931 107.469 57.9161C107.052 58.038 106.622 58.1568 106.183 58.2726L104.48 58.7968L104.385 54.4606L107.061 53.7994C107.061 53.7994 108.112 53.5251 108.59 53.3789C109.16 53.2021 109.678 53.0224 110.141 52.8365C111.82 52.16 112.78 51.3921 113.018 50.5328C113.155 50.1611 113.137 49.8594 112.966 49.6278C112.795 49.3658 112.442 49.2225 111.912 49.1982C111.686 49.189 111.4 49.2012 111.059 49.2286L110.056 49.3322C109.614 49.4023 109.218 49.4541 108.868 49.4876C108.417 49.5303 108.005 49.5516 107.63 49.5455C106.704 49.5333 105.976 49.3779 105.455 49.0824C104.955 48.7685 104.623 48.2688 104.461 47.5862C104.346 47.1017 104.315 46.5075 104.373 45.8067C104.522 43.7894 105.318 42.1257 106.759 40.8123C107.298 40.3035 107.95 39.8281 108.715 39.3893C109.014 39.2217 109.355 39.048 109.739 38.8621L110.729 38.3929L111.4 38.1217C112.162 37.8139 113.003 37.5214 113.923 37.2441L115.047 36.9181L116.355 36.5646L116.495 40.3461C115.989 40.4253 115.355 40.5686 114.59 40.7788C113.609 41.0348 112.719 41.3243 111.927 41.6442C110.172 42.3512 109.575 42.9636 109.291 43.8717C109.185 44.2465 109.188 44.5786 109.23 44.8864C109.282 45.2521 109.261 45.3618 110.053 45.4501C110.294 45.4593 110.598 45.4532 110.964 45.4288L113.271 45.182C113.713 45.1424 114.112 45.1241 114.462 45.1302C115.312 45.1424 115.958 45.2886 116.403 45.572C116.927 45.8706 117.272 46.3673 117.442 47.059C117.558 47.5649 117.589 48.1438 117.531 48.8081Z" fill="#783887"/>
</g>
</g>
<defs>
<clipPath id="clip0_690_192478">
<rect width="61.3487" height="70.8955" fill="white" transform="translate(66 3)"/>
</clipPath>
</defs>
</svg>
