<svg width="64" height="46" viewBox="0 0 64 46" fill="none" xmlns="http://www.w3.org/2000/svg">
<rect width="64" height="46" rx="4" fill="url(#paint0_linear_5116_233479)"/>
<g opacity="0.3" filter="url(#filter0_f_5116_233479)">
<rect x="20" y="39" width="24" height="2" rx="1" fill="#811FA3"/>
</g>
<path fill-rule="evenodd" clip-rule="evenodd" d="M20.6667 7C19.1939 7 18 8.16406 18 9.6V32.4C18 33.836 19.1939 35 20.6667 35H41.3333C42.8061 35 44 33.836 44 32.4V13.5C44 12.064 42.8061 10.9 41.3333 10.9H32.6245L29.691 7.46776C29.4376 7.17137 29.0624 7 28.6667 7H20.6667Z" fill="#811FA3"/>
<path d="M22.6341 15.5368C22.8486 14.6358 23.6536 14 24.5797 14H46.4679C47.7598 14 48.7127 15.2065 48.4135 16.4632L44.3659 33.4632C44.1514 34.3642 43.3464 35 42.4203 35H20.5321C19.2402 35 18.2873 33.7935 18.5865 32.5368L22.6341 15.5368Z" fill="#811FA3"/>
<g filter="url(#filter1_i_5116_233479)">
<path d="M22.6341 15.5368C22.8486 14.6358 23.6536 14 24.5797 14H46.4679C47.7598 14 48.7127 15.2065 48.4135 16.4632L44.3659 33.4632C44.1514 34.3642 43.3464 35 42.4203 35H20.5321C19.2402 35 18.2873 33.7935 18.5865 32.5368L22.6341 15.5368Z" fill="url(#paint1_linear_5116_233479)"/>
</g>
<g filter="url(#filter2_d_5116_233479)">
<path d="M29.1439 25.6719C29.1439 26.4826 28.8773 27.0879 28.3439 27.4879C27.8106 27.8826 27.0986 28.0799 26.2079 28.0799C25.5679 28.0799 25.0213 27.9786 24.5679 27.7759C24.1199 27.5679 23.7813 27.3066 23.5519 26.9919C23.3279 26.6772 23.2159 26.3599 23.2159 26.0399C23.2159 25.9919 23.2319 25.9519 23.2639 25.9199C23.3013 25.8826 23.3439 25.8639 23.3919 25.8639H25.1999C25.2479 25.8639 25.2879 25.8799 25.3199 25.9119C25.3573 25.9439 25.3839 25.9866 25.3999 26.0399C25.5013 26.3599 25.7573 26.5199 26.1679 26.5199C26.4186 26.5199 26.6159 26.4612 26.7599 26.3439C26.9093 26.2266 26.9839 26.0586 26.9839 25.8399V24.0399H24.0639C24.0053 24.0399 23.9546 24.0186 23.9119 23.9759C23.8693 23.9332 23.8479 23.8826 23.8479 23.8239V22.6159C23.8479 22.5572 23.8693 22.5066 23.9119 22.4639C23.9546 22.4212 24.0053 22.3999 24.0639 22.3999H28.9279C28.9866 22.3999 29.0373 22.4212 29.0799 22.4639C29.1226 22.5066 29.1439 22.5572 29.1439 22.6159V25.6719Z" fill="white"/>
<path d="M32.0448 27.7279C31.9755 27.9092 31.8555 27.9999 31.6848 27.9999H30.1728C30.1248 27.9999 30.0822 27.9839 30.0448 27.9519C30.0128 27.9146 29.9968 27.8719 29.9968 27.8239L30.0048 27.7759L31.7488 22.6639C31.7702 22.5946 31.8102 22.5332 31.8688 22.4799C31.9275 22.4266 32.0075 22.3999 32.1088 22.3999H34.3328C34.4342 22.3999 34.5142 22.4266 34.5728 22.4799C34.6315 22.5332 34.6715 22.5946 34.6928 22.6639L36.4368 27.7759L36.4448 27.8239C36.4448 27.8719 36.4262 27.9146 36.3888 27.9519C36.3568 27.9839 36.3168 27.9999 36.2688 27.9999H34.7568C34.5862 27.9999 34.4662 27.9092 34.3968 27.7279L34.1968 27.1679H32.2448L32.0448 27.7279ZM33.2208 23.9439L32.6528 25.6079H33.7888L33.2208 23.9439Z" fill="white"/>
<path d="M43.1697 27.7519C43.1804 27.7732 43.1857 27.7972 43.1857 27.8239C43.1857 27.8719 43.167 27.9146 43.1297 27.9519C43.0977 27.9839 43.0577 27.9999 43.0097 27.9999H41.1937C41.119 27.9999 41.0497 27.9812 40.9857 27.9439C40.927 27.9066 40.8844 27.8586 40.8577 27.7999L40.1537 26.2159H39.4817V27.7839C39.4817 27.8426 39.4604 27.8932 39.4177 27.9359C39.375 27.9786 39.3244 27.9999 39.2657 27.9999H37.5377C37.479 27.9999 37.4284 27.9786 37.3857 27.9359C37.343 27.8932 37.3217 27.8426 37.3217 27.7839V22.6159C37.3217 22.5572 37.343 22.5066 37.3857 22.4639C37.4284 22.4212 37.479 22.3999 37.5377 22.3999H40.6497C41.1297 22.3999 41.5484 22.4772 41.9057 22.6319C42.2684 22.7866 42.5457 23.0106 42.7377 23.3039C42.9297 23.5972 43.0257 23.9412 43.0257 24.3359C43.0257 25.0612 42.7457 25.5866 42.1857 25.9119L43.1697 27.7519ZM40.4817 24.7359C40.599 24.7359 40.6897 24.6986 40.7537 24.6239C40.8177 24.5439 40.8497 24.4452 40.8497 24.3279C40.8497 24.2106 40.8177 24.1092 40.7537 24.0239C40.695 23.9332 40.6044 23.8879 40.4817 23.8879H39.4817V24.7359H40.4817Z" fill="white"/>
</g>
<defs>
<filter id="filter0_f_5116_233479" x="16" y="35" width="32" height="10" filterUnits="userSpaceOnUse" color-interpolation-filters="sRGB">
<feFlood flood-opacity="0" result="BackgroundImageFix"/>
<feBlend mode="normal" in="SourceGraphic" in2="BackgroundImageFix" result="shape"/>
<feGaussianBlur stdDeviation="2" result="effect1_foregroundBlur_5116_233479"/>
</filter>
<filter id="filter1_i_5116_233479" x="18.5311" y="14" width="29.9376" height="21" filterUnits="userSpaceOnUse" color-interpolation-filters="sRGB">
<feFlood flood-opacity="0" result="BackgroundImageFix"/>
<feBlend mode="normal" in="SourceGraphic" in2="BackgroundImageFix" result="shape"/>
<feColorMatrix in="SourceAlpha" type="matrix" values="0 0 0 0 0 0 0 0 0 0 0 0 0 0 0 0 0 0 127 0" result="hardAlpha"/>
<feOffset/>
<feGaussianBlur stdDeviation="0.5"/>
<feComposite in2="hardAlpha" operator="arithmetic" k2="-1" k3="1"/>
<feColorMatrix type="matrix" values="0 0 0 0 1 0 0 0 0 1 0 0 0 0 1 0 0 0 1 0"/>
<feBlend mode="normal" in2="shape" result="effect1_innerShadow_5116_233479"/>
</filter>
<filter id="filter2_d_5116_233479" x="22.2159" y="22.3999" width="21.9697" height="7.67993" filterUnits="userSpaceOnUse" color-interpolation-filters="sRGB">
<feFlood flood-opacity="0" result="BackgroundImageFix"/>
<feColorMatrix in="SourceAlpha" type="matrix" values="0 0 0 0 0 0 0 0 0 0 0 0 0 0 0 0 0 0 127 0" result="hardAlpha"/>
<feOffset dy="1"/>
<feGaussianBlur stdDeviation="0.5"/>
<feComposite in2="hardAlpha" operator="out"/>
<feColorMatrix type="matrix" values="0 0 0 0 0.505882 0 0 0 0 0.121569 0 0 0 0 0.639216 0 0 0 0.24 0"/>
<feBlend mode="normal" in2="BackgroundImageFix" result="effect1_dropShadow_5116_233479"/>
<feBlend mode="normal" in="SourceGraphic" in2="effect1_dropShadow_5116_233479" result="shape"/>
</filter>
<linearGradient id="paint0_linear_5116_233479" x1="62.4941" y1="1.50001" x2="-31.3204" y2="32.2514" gradientUnits="userSpaceOnUse">
<stop stop-color="#F2E9F6"/>
<stop offset="1" stop-color="#F9F4FA" stop-opacity="0.12"/>
</linearGradient>
<linearGradient id="paint1_linear_5116_233479" x1="34.2045" y1="35" x2="34.2045" y2="14" gradientUnits="userSpaceOnUse">
<stop stop-color="white"/>
<stop offset="1" stop-color="white" stop-opacity="0.8"/>
</linearGradient>
</defs>
</svg>
