<svg width="160" height="98" viewBox="0 0 160 98" fill="none" xmlns="http://www.w3.org/2000/svg">
<ellipse cx="80" cy="71.7019" rx="80" ry="26.2982" fill="url(#paint0_linear_21747_135084)"/>
<path d="M31.4929 0.5H128.096C130.029 0.5 131.596 2.067 131.596 4V78.9921C131.596 80.9251 130.029 82.4921 128.096 82.4921H31.4929C29.5599 82.4921 27.9929 80.9251 27.9929 78.9921V4C27.9929 2.067 29.5599 0.5 31.4929 0.5Z" fill="#F9F9FE" stroke="white"/>
<path d="M27.9438 3.44958C27.9438 1.79273 29.287 0.449585 30.9438 0.449585H128.606C130.263 0.449585 131.606 1.79273 131.606 3.44959V8.99087H27.9438V3.44958Z" fill="#EDEDF1"/>
<ellipse cx="39.8736" cy="4.54967" rx="1.95486" ry="1.94982" fill="white"/>
<ellipse cx="46.3899" cy="4.54967" rx="1.95486" ry="1.94982" fill="white"/>
<ellipse cx="33.3572" cy="4.54967" rx="1.95486" ry="1.94982" fill="white"/>
<path d="M31.5493 15.0367C31.5493 13.9322 32.4447 13.0367 33.5493 13.0367H126C127.105 13.0367 128 13.9322 128 15.0367V76.2202C128 77.3248 127.105 78.2202 126 78.2202H33.5493C32.4447 78.2202 31.5493 77.3248 31.5493 76.2202V15.0367Z" fill="white"/>
<path fill-rule="evenodd" clip-rule="evenodd" d="M76.615 34.2401C76.615 32.387 78.1232 30.8716 80 30.8716C81.8767 30.8716 83.3849 32.387 83.3849 34.2401V38.4358H76.615V34.2401ZM70.615 38.4358V34.2401C70.615 29.0587 74.8241 24.8716 80 24.8716C85.1758 24.8716 89.3849 29.0587 89.3849 34.2401V38.4358H90.216C91.4191 38.4358 92.3944 39.4086 92.3944 40.6086V52.0719C92.3944 53.2719 91.4191 54.2447 90.216 54.2447H69.7841C68.581 54.2447 67.6057 53.2719 67.6057 52.0719V40.6086C67.6057 39.4086 68.581 38.4358 69.7841 38.4358H70.615ZM80.0002 42.4297C81.1048 42.4297 82.0002 43.3251 82.0002 44.4297V48.2508C82.0002 49.3554 81.1048 50.2508 80.0002 50.2508C78.8957 50.2508 78.0002 49.3554 78.0002 48.2508V44.4297C78.0002 43.3251 78.8957 42.4297 80.0002 42.4297Z" fill="#F2E9F6"/>
<defs>
<linearGradient id="paint0_linear_21747_135084" x1="80.2254" y1="45.4037" x2="80.2253" y2="98" gradientUnits="userSpaceOnUse">
<stop stop-color="#EDEDF1"/>
<stop offset="1" stop-color="white" stop-opacity="0"/>
</linearGradient>
</defs>
</svg>
