<svg width="24" height="24" viewBox="0 0 24 24" fill="none" xmlns="http://www.w3.org/2000/svg">
<rect width="24" height="24" rx="4" fill="#00C261"/>
<path d="M12.0001 17.9998C15.3138 17.9998 18.0001 15.3135 18.0001 11.9998C18.0001 8.68613 15.3138 5.99984 12.0001 5.99984C8.68637 5.99984 6.00008 8.68613 6.00008 11.9998C6.00008 15.3135 8.68637 17.9998 12.0001 17.9998ZM12.0001 19.3332C7.94999 19.3332 4.66675 16.0499 4.66675 11.9998C4.66675 7.94975 7.94999 4.6665 12.0001 4.6665C16.0502 4.6665 19.3334 7.94975 19.3334 11.9998C19.3334 16.0499 16.0502 19.3332 12.0001 19.3332ZM11.2267 13.5198L14.7623 9.98427C14.8925 9.85409 15.1035 9.85409 15.2337 9.98427L15.7051 10.4557C15.8353 10.5858 15.8353 10.7969 15.7051 10.9271L11.4625 15.1697C11.3323 15.2999 11.1212 15.2999 10.991 15.1697L8.55077 12.7294C8.42059 12.5993 8.42059 12.3882 8.55077 12.258L9.02217 11.7866C9.15235 11.6565 9.3634 11.6565 9.49358 11.7866L11.2267 13.5198Z" fill="white"/>
</svg>
