<svg width="24" height="24" viewBox="0 0 24 24" fill="none" xmlns="http://www.w3.org/2000/svg">
<rect width="24" height="24" rx="4" fill="#3370FF"/>
<g clip-path="url(#clip0_2905_27805)">
<path d="M15.3334 5.33334C15.7016 5.33334 16.0001 5.63182 16.0001 6.00001V6.66668H18.0001C18.7365 6.66668 19.3334 7.26363 19.3334 8.00001V17.3333C19.3334 18.0697 18.7365 18.6667 18.0001 18.6667H6.00008C5.2637 18.6667 4.66675 18.0697 4.66675 17.3333V8.00001C4.66675 7.26363 5.2637 6.66668 6.00008 6.66668H8.00008V6.00001C8.00008 5.63182 8.29856 5.33334 8.66675 5.33334C9.03494 5.33334 9.33341 5.63182 9.33341 6.00001V6.66668H14.6667V6.00001C14.6667 5.63182 14.9652 5.33334 15.3334 5.33334ZM8.00008 8.00001H6.00008V17.3333H18.0001V8.00001H16.0001V8.66668C16.0001 9.03487 15.7016 9.33334 15.3334 9.33334C14.9652 9.33334 14.6667 9.03487 14.6667 8.66668V8.00001H9.33341V8.66668C9.33341 9.03487 9.03494 9.33334 8.66675 9.33334C8.29856 9.33334 8.00008 9.03487 8.00008 8.66668V8.00001ZM15.3334 13.6667C15.7016 13.6667 16.0001 13.9652 16.0001 14.3333C16.0001 14.7015 15.7016 15 15.3334 15H8.66675C8.29856 15 8.00008 14.7015 8.00008 14.3333C8.00008 13.9652 8.29856 13.6667 8.66675 13.6667H15.3334ZM12.3334 11C12.7016 11 13.0001 11.2985 13.0001 11.6667C13.0001 12.0349 12.7016 12.3333 12.3334 12.3333H8.66675C8.29856 12.3333 8.00008 12.0349 8.00008 11.6667C8.00008 11.2985 8.29856 11 8.66675 11H12.3334Z" fill="white"/>
</g>
<defs>
<clipPath id="clip0_2905_27805">
<rect width="16" height="16" fill="white" transform="translate(4 4)"/>
</clipPath>
</defs>
</svg>
