<svg width="20" height="20" viewBox="0 0 20 20" fill="none" xmlns="http://www.w3.org/2000/svg">
    <path d="M6.25033 1.6665C6.71056 1.6665 7.08366 2.0396 7.08366 2.49984C7.08366 2.96007 6.71056 3.33317 6.25033 3.33317H3.33366V6.24984C3.33366 6.6772 3.01196 7.02943 2.59751 7.07756L2.50033 7.08317C2.04009 7.08317 1.66699 6.71007 1.66699 6.24984V2.49984C1.66699 2.0396 2.04009 1.6665 2.50033 1.6665H6.25033ZM2.50033 12.9165C2.96056 12.9165 3.33366 13.2896 3.33366 13.7498V16.6665H6.25033C6.67769 16.6665 7.02991 16.9882 7.07805 17.4027L7.08366 17.4998C7.08366 17.9601 6.71056 18.3332 6.25033 18.3332H2.50033C2.04009 18.3332 1.66699 17.9601 1.66699 17.4998V13.7498C1.66699 13.2896 2.04009 12.9165 2.50033 12.9165ZM17.5003 1.6665C17.9606 1.6665 18.3337 2.0396 18.3337 2.49984V6.24984C18.3337 6.71007 17.9606 7.08317 17.5003 7.08317C17.0401 7.08317 16.667 6.71007 16.667 6.24984V3.33317H13.7503C13.323 3.33317 12.9707 3.01147 12.9226 2.59702L12.917 2.49984C12.917 2.0396 13.2901 1.6665 13.7503 1.6665H17.5003ZM15.8337 9.1665C16.2939 9.1665 16.667 9.5396 16.667 9.99984C16.667 10.4601 16.2939 10.8332 15.8337 10.8332H4.16699C3.70675 10.8332 3.33366 10.4601 3.33366 9.99984C3.33366 9.5396 3.70675 9.1665 4.16699 9.1665H15.8337ZM17.5003 12.9165C17.9606 12.9165 18.3337 13.2896 18.3337 13.7498V17.4998C18.3337 17.9601 17.9606 18.3332 17.5003 18.3332H13.7503C13.2901 18.3332 12.917 17.9601 12.917 17.4998C12.917 17.0396 13.2901 16.6665 13.7503 16.6665H16.667V13.7498C16.667 13.3225 16.9887 12.9702 17.4031 12.9221L17.5003 12.9165Z" fill="#811FA3"/>
</svg>
