<svg width="568" height="85" viewBox="0 0 568 85" fill="none" xmlns="http://www.w3.org/2000/svg">
<mask id="mask0_2108_249992" style="mask-type:alpha" maskUnits="userSpaceOnUse" x="0" y="0" width="568" height="78">
<path d="M1.5 6C1.5 3.51472 3.51472 1.5 6 1.5H562C564.485 1.5 566.5 3.51472 566.5 6V72C566.5 74.4853 564.485 76.5 562 76.5H6C3.51472 76.5 1.5 74.4853 1.5 72V6Z" fill="url(#paint0_linear_2108_249992)" stroke="white" stroke-width="3"/>
</mask>
<g mask="url(#mask0_2108_249992)">
<path opacity="0.05" d="M482.28 103.12C473.267 103.12 466.307 100.56 461.4 95.44C456.547 90.32 454.12 82.1333 454.12 70.88C454.12 59.6267 456.547 51.44 461.4 46.32C466.307 41.2 473.267 38.64 482.28 38.64C491.293 38.64 498.227 41.2 503.08 46.32C507.987 51.44 510.44 59.6267 510.44 70.88C510.44 81.28 508.173 89.2533 503.64 94.8C499.16 100.347 492.04 103.12 482.28 103.12ZM482.28 88.88C485.907 88.88 487.72 86.9067 487.72 82.96V58.8C487.72 54.8533 485.907 52.88 482.28 52.88C478.653 52.88 476.84 54.8533 476.84 58.8V82.96C476.84 86.9067 478.653 88.88 482.28 88.88ZM512.554 95.12C512.554 90.5333 513.22 86.48 514.554 82.96C515.94 79.44 518.18 76.1333 521.274 73.04C524.367 69.8933 528.634 66.64 534.074 63.28C535.674 62.2667 536.794 61.4133 537.434 60.72C538.127 59.9733 538.474 59.0933 538.474 58.08C538.474 55.8933 536.9 54.8 533.754 54.8C531.407 54.8 528.714 55.4133 525.674 56.64C522.634 57.8667 519.887 59.4133 517.434 61.28L512.714 44.24C516.127 42.5333 520.047 41.0933 524.474 39.92C528.9 38.6933 533.354 38.08 537.834 38.08C545.194 38.08 550.9 39.7067 554.954 42.96C559.007 46.2133 561.034 50.8267 561.034 56.8C561.034 60 560.314 62.8267 558.874 65.28C557.487 67.68 555.78 69.7067 553.754 71.36C551.78 73.0133 549.194 74.9067 545.994 77.04C542.42 79.3867 539.78 81.4133 538.074 83.12C536.42 84.7733 535.594 86.6933 535.594 88.88H545.274V84.32H561.674V102H512.554V95.12Z" fill="#783887"/>
</g>
<defs>
<linearGradient id="paint0_linear_2108_249992" x1="-830.5" y1="39" x2="592" y2="39" gradientUnits="userSpaceOnUse">
<stop offset="0.0336452" stop-color="#F2E9F6"/>
<stop offset="1" stop-color="white"/>
</linearGradient>
</defs>
</svg>
