<svg width="568" height="85" viewBox="0 0 568 85" fill="none" xmlns="http://www.w3.org/2000/svg">
<mask id="mask0_2108_249979" style="mask-type:alpha" maskUnits="userSpaceOnUse" x="0" y="0" width="568" height="78">
<path d="M1.5 6C1.5 3.51472 3.51472 1.5 6 1.5H562C564.485 1.5 566.5 3.51472 566.5 6V72C566.5 74.4853 564.485 76.5 562 76.5H6C3.51472 76.5 1.5 74.4853 1.5 72V6Z" fill="url(#paint0_linear_2108_249979)" stroke="white" stroke-width="3"/>
</mask>
<g mask="url(#mask0_2108_249979)">
<path opacity="0.05" d="M482.28 103.12C473.267 103.12 466.307 100.56 461.4 95.44C456.547 90.32 454.12 82.1333 454.12 70.88C454.12 59.6267 456.547 51.44 461.4 46.32C466.307 41.2 473.267 38.64 482.28 38.64C491.293 38.64 498.227 41.2 503.08 46.32C507.987 51.44 510.44 59.6267 510.44 70.88C510.44 81.28 508.173 89.2533 503.64 94.8C499.16 100.347 492.04 103.12 482.28 103.12ZM482.28 88.88C485.907 88.88 487.72 86.9067 487.72 82.96V58.8C487.72 54.8533 485.907 52.88 482.28 52.88C478.653 52.88 476.84 54.8533 476.84 58.8V82.96C476.84 86.9067 478.653 88.88 482.28 88.88ZM515.114 102V88.88H522.794V52.88H512.714V43.84L530.474 39.76H543.914V88.88H550.634V102H515.114Z" fill="#783887"/>
</g>
<defs>
<linearGradient id="paint0_linear_2108_249979" x1="-830.5" y1="39" x2="592" y2="39" gradientUnits="userSpaceOnUse">
<stop offset="0.0336452" stop-color="#F2E9F6"/>
<stop offset="1" stop-color="white"/>
</linearGradient>
</defs>
</svg>
