<svg width="60" height="60" viewBox="0 0 60 60" fill="none" xmlns="http://www.w3.org/2000/svg">
<circle cx="30" cy="30" r="30" fill="#E5F9EF"/>
<path fill-rule="evenodd" clip-rule="evenodd" d="M4.33333 30C4.33333 44.1769 15.8232 55.6667 30 55.6667C44.1768 55.6667 55.6667 44.1769 55.6667 30C55.6667 15.8232 44.1768 4.33337 30 4.33337C15.8232 4.33337 4.33333 15.8232 4.33333 30Z" fill="#00C261"/>
<path d="M42.5924 24.9124C43.2189 24.2859 43.2189 23.2702 42.5924 22.6437L41.4581 21.5094C40.8316 20.8829 39.8159 20.8829 39.1894 21.5094L26.4368 34.2607L21.7048 29.5302C21.0784 28.9038 20.0627 28.9038 19.4362 29.5302L18.3019 30.6646C17.6754 31.291 17.6754 32.3067 18.3019 32.9332L25.1078 39.7391C25.552 40.1833 26.1919 40.3125 26.7506 40.1279C27.1481 40.1183 27.5429 39.9619 27.8463 39.6585L42.5924 24.9124Z" fill="white"/>
</svg>
