<svg width="24" height="24" viewBox="0 0 24 24" fill="none" xmlns="http://www.w3.org/2000/svg">
<rect width="24" height="24" rx="4" fill="#00C261"/>
<path fill-rule="evenodd" clip-rule="evenodd" d="M4.66675 11.9998C4.66675 7.94975 7.94999 4.6665 12.0001 4.6665C13.3382 4.6665 14.5946 5.02553 15.6758 5.65296C15.9943 5.83775 16.1026 6.24572 15.9178 6.56417C15.733 6.88263 15.3251 6.99099 15.0066 6.80619C14.1232 6.29356 13.0969 5.99984 12.0001 5.99984C8.68637 5.99984 6.00008 8.68613 6.00008 11.9998C6.00008 15.3135 8.68637 17.9998 12.0001 17.9998C15.3138 17.9998 18.0001 15.3135 18.0001 11.9998C18.0001 10.9105 17.7104 9.8909 17.2043 9.01164C17.0207 8.69253 17.1304 8.28495 17.4495 8.10128C17.7687 7.91761 18.1762 8.0274 18.3599 8.3465C18.9794 9.42271 19.3334 10.6709 19.3334 11.9998C19.3334 16.0499 16.0502 19.3332 12.0001 19.3332C7.94999 19.3332 4.66675 16.0499 4.66675 11.9998Z" fill="white"/>
<path fill-rule="evenodd" clip-rule="evenodd" d="M15.2743 9.58379L14.65 9.34995L14.4162 8.72564C14.6609 8.63398 14.9366 8.69376 15.1214 8.87855C15.3062 9.06334 15.366 9.33906 15.2743 9.58379ZM13.4568 10.5432C13.4174 10.5597 13.3777 10.5765 13.3379 10.5934C12.9342 10.7646 12.5235 10.9482 12.1863 11.1179C12.0174 11.2029 11.8743 11.2807 11.7631 11.3485C11.7078 11.3823 11.6645 11.4111 11.6322 11.4346C11.6 11.4581 11.5859 11.4712 11.5859 11.4712C11.3256 11.7316 11.3255 12.1537 11.5859 12.4141C11.8462 12.6744 12.2683 12.6744 12.5287 12.4141C12.5287 12.4141 12.5419 12.4 12.5653 12.3678C12.5889 12.3355 12.6176 12.2922 12.6514 12.2368C12.7193 12.1256 12.7971 11.9826 12.8821 11.8137C13.0518 11.4764 13.2353 11.0657 13.4066 10.6621C13.4235 10.6223 13.4402 10.5826 13.4568 10.5432ZM14.65 9.34995C14.4162 8.72564 14.4162 8.72564 14.4162 8.72564L14.4066 8.72925L14.3802 8.73919C14.3573 8.74784 14.324 8.76051 14.2815 8.77675C14.1965 8.80923 14.0749 8.85607 13.9275 8.91386C13.6331 9.02928 13.2339 9.1891 12.8171 9.36593C12.402 9.54205 11.9614 9.73843 11.5869 9.92688C11.3999 10.021 11.222 10.1168 11.0686 10.2104C10.9246 10.2983 10.7656 10.4059 10.6431 10.5284C9.86203 11.3095 9.86203 12.5758 10.6431 13.3569C11.4241 14.1379 12.6905 14.1379 13.4715 13.3569C13.594 13.2344 13.7017 13.0754 13.7896 12.9313C13.8832 12.778 13.979 12.6001 14.0731 12.4131C14.2615 12.0386 14.4579 11.598 14.634 11.1828C14.8109 10.7661 14.9707 10.3669 15.0861 10.0725C15.1439 9.9251 15.1907 9.8035 15.2232 9.71851C15.2395 9.67601 15.2521 9.64263 15.2608 9.61974L15.2707 9.59341L15.2743 9.58379C15.2743 9.58379 15.2743 9.58379 14.65 9.34995Z" fill="white"/>
</svg>
