<svg width="24" height="24" viewBox="0 0 24 24" fill="none" xmlns="http://www.w3.org/2000/svg">
<rect width="24" height="24" rx="4" fill="#3370FF"/>
<path d="M11.3334 9.00008C11.3334 8.81599 11.4826 8.66675 11.6667 8.66675H12.3334C12.5174 8.66675 12.6667 8.81599 12.6667 9.00008V11.3334H15C15.1841 11.3334 15.3334 11.4827 15.3334 11.6667V12.3334C15.3334 12.5175 15.1841 12.6667 15 12.6667H11.6667C11.4826 12.6667 11.3334 12.5175 11.3334 12.3334V9.00008Z" fill="white"/>
<path d="M12 19.3334C16.0501 19.3334 19.3334 16.0502 19.3334 12.0001C19.3334 7.94999 16.0501 4.66675 12 4.66675C7.94993 4.66675 4.66669 7.94999 4.66669 12.0001C4.66669 16.0502 7.94993 19.3334 12 19.3334ZM12 18.0001C8.68631 18.0001 6.00002 15.3138 6.00002 12.0001C6.00002 8.68637 8.68631 6.00008 12 6.00008C15.3137 6.00008 18 8.68637 18 12.0001C18 15.3138 15.3137 18.0001 12 18.0001Z" fill="white"/>
</svg>
