<svg width="33" height="30" viewBox="0 0 33 30" fill="none" xmlns="http://www.w3.org/2000/svg">
<path d="M14.9333 7.27246C15.5224 7.27246 16 7.63063 16 8.07246L16 22.4725C16 22.9143 15.5224 23.2725 14.9333 23.2725L1.06667 23.2725C0.477563 23.2725 2.69948e-07 22.9143 2.89261e-07 22.4725L9.18705e-07 8.07246C9.38018e-07 7.63063 0.477564 7.27246 1.06667 7.27246L14.9333 7.27246Z" fill="#3370FF"/>
<g filter="url(#filter0_i_11927_97606)">
<path fill-rule="evenodd" clip-rule="evenodd" d="M15.9993 0H11.6357C10.029 0 8.72656 1.30245 8.72656 2.90909V26.1818C8.72656 27.7885 10.029 29.0909 11.6357 29.0909H29.0902C30.6968 29.0909 31.9993 27.7885 31.9993 26.1818V2.90909C31.9993 1.30244 30.6968 0 29.0902 0H24.7266V1.90909C24.7266 2.46137 24.2788 2.90909 23.7266 2.90909H16.9993C16.447 2.90909 15.9993 2.46138 15.9993 1.90909V0Z" fill="#F5F8FF"/>
</g>
<g filter="url(#filter1_f_11927_97606)">
<path d="M25.2731 5.81836C26.5785 5.81836 27.6367 6.26393 27.6367 6.81357L27.6367 23.7322C27.6367 24.2819 26.5785 24.7275 25.2731 24.7275L11.0913 24.7275C9.78586 24.7275 8.72763 24.2819 8.72763 23.7322L8.72763 6.81357C8.72763 6.26393 9.78586 5.81836 11.0913 5.81836L25.2731 5.81836Z" fill="#3370FF"/>
</g>
<g filter="url(#filter2_d_11927_97606)">
<path fill-rule="evenodd" clip-rule="evenodd" d="M16.7297 7.02636C16.7297 6.3592 17.2705 5.81836 17.9377 5.81836C18.6048 5.81836 19.1457 6.3592 19.1457 7.02636V10.49C19.1457 10.9533 19.0726 11.3916 18.9265 11.8049C18.784 12.2147 18.5577 12.5746 18.2477 12.8846C17.9412 13.1911 17.6187 13.4067 17.2802 13.5314C16.8098 13.706 16.245 13.7933 15.5858 13.7933C15.2045 13.7933 14.7876 13.7666 14.335 13.7131C13.886 13.6597 13.5101 13.5546 13.2072 13.3978C12.9043 13.2374 12.6264 13.0111 12.3734 12.7189C12.1239 12.4267 11.9529 12.1256 11.8602 11.8156C11.7106 11.3167 11.6357 10.8749 11.6357 10.49V7.02636C11.6357 6.3592 12.1766 5.81836 12.8437 5.81836C13.5109 5.81836 14.0517 6.3592 14.0517 7.02636V10.6023C14.0517 11.0299 14.1693 11.3648 14.4045 11.6071C14.6433 11.8459 14.9729 11.9653 15.3934 11.9653C15.8103 11.9653 16.1363 11.8477 16.3715 11.6125C16.6103 11.3737 16.7297 11.037 16.7297 10.6023V7.02636ZM20.8445 7.03171C20.8445 6.36159 21.3878 5.81836 22.0579 5.81836C22.728 5.81836 23.2712 6.36159 23.2712 7.03171V12.441C23.2712 13.1111 22.728 13.6543 22.0579 13.6543C21.3878 13.6543 20.8445 13.1111 20.8445 12.441V7.03171ZM11.6361 17.4547C11.6361 16.6514 12.2873 16.0002 13.0906 16.0002H17.4543C18.2576 16.0002 18.9088 16.6514 18.9088 17.4547C18.9088 18.258 18.2576 18.9093 17.4543 18.9093H13.0906C12.2873 18.9093 11.6361 18.258 11.6361 17.4547ZM11.6361 21.8183C11.6361 21.015 12.2873 20.3638 13.0906 20.3638H27.6361C28.4394 20.3638 29.0906 21.015 29.0906 21.8183C29.0906 22.6217 28.4394 23.2729 27.6361 23.2729H13.0906C12.2873 23.2729 11.6361 22.6217 11.6361 21.8183Z" fill="white"/>
</g>
<defs>
<filter id="filter0_i_11927_97606" x="8.72656" y="0" width="23.2725" height="30.0908" filterUnits="userSpaceOnUse" color-interpolation-filters="sRGB">
<feFlood flood-opacity="0" result="BackgroundImageFix"/>
<feBlend mode="normal" in="SourceGraphic" in2="BackgroundImageFix" result="shape"/>
<feColorMatrix in="SourceAlpha" type="matrix" values="0 0 0 0 0 0 0 0 0 0 0 0 0 0 0 0 0 0 127 0" result="hardAlpha"/>
<feOffset dy="1"/>
<feGaussianBlur stdDeviation="1"/>
<feComposite in2="hardAlpha" operator="arithmetic" k2="-1" k3="1"/>
<feColorMatrix type="matrix" values="0 0 0 0 0.2 0 0 0 0 0.439216 0 0 0 0 1 0 0 0 0.1 0"/>
<feBlend mode="normal" in2="shape" result="effect1_innerShadow_11927_97606"/>
</filter>
<filter id="filter1_f_11927_97606" x="3.72754" y="0.818359" width="28.9092" height="28.9092" filterUnits="userSpaceOnUse" color-interpolation-filters="sRGB">
<feFlood flood-opacity="0" result="BackgroundImageFix"/>
<feBlend mode="normal" in="SourceGraphic" in2="BackgroundImageFix" result="shape"/>
<feGaussianBlur stdDeviation="2.5" result="effect1_foregroundBlur_11927_97606"/>
</filter>
<filter id="filter2_d_11927_97606" x="11.6357" y="5.81836" width="17.4551" height="17.5541" filterUnits="userSpaceOnUse" color-interpolation-filters="sRGB">
<feFlood flood-opacity="0" result="BackgroundImageFix"/>
<feColorMatrix in="SourceAlpha" type="matrix" values="0 0 0 0 0 0 0 0 0 0 0 0 0 0 0 0 0 0 127 0" result="hardAlpha"/>
<feOffset dy="0.1"/>
<feComposite in2="hardAlpha" operator="out"/>
<feColorMatrix type="matrix" values="0 0 0 0 0.00986111 0 0 0 0 0.0953724 0 0 0 0 0.295833 0 0 0 0.22 0"/>
<feBlend mode="normal" in2="BackgroundImageFix" result="effect1_dropShadow_11927_97606"/>
<feBlend mode="normal" in="SourceGraphic" in2="effect1_dropShadow_11927_97606" result="shape"/>
</filter>
</defs>
</svg>
