<svg width="20" height="20" viewBox="0 0 20 20" fill="none" xmlns="http://www.w3.org/2000/svg">
<path fill-rule="evenodd" clip-rule="evenodd" d="M19.1663 10C19.1663 15.0627 15.0623 19.1667 9.99967 19.1667C4.93706 19.1667 0.833008 15.0627 0.833008 10C0.833008 4.93743 4.93706 0.833374 9.99967 0.833374C15.0623 0.833374 19.1663 4.93743 19.1663 10ZM13.333 7.50004C13.333 9.34097 11.8406 10.8334 9.99967 10.8334C8.15874 10.8334 6.66634 9.34097 6.66634 7.50004C6.66634 5.65911 8.15874 4.16671 9.99967 4.16671C11.8406 4.16671 13.333 5.65911 13.333 7.50004ZM16.5818 16.38C14.9157 18.0986 12.5824 19.1667 9.99965 19.1667C7.41662 19.1667 5.08311 18.0983 3.41693 16.3794C4.40968 14.2666 6.0481 12.0834 7.49964 12.0834H12.4996C13.9504 12.0834 15.5889 14.2682 16.5818 16.38Z" fill="#D9BCE3"/>
</svg>
