<svg width="24" height="24" viewBox="0 0 24 24" fill="none" xmlns="http://www.w3.org/2000/svg">
<g clip-path="url(#clip0_40_79316)">
<path d="M15 1C15.3038 1 15.5911 1.13809 15.7809 1.3753L19.7727 6.3652L19.8149 6.42032L19.82 6.428L19.8294 6.4414L19.84 6.459L19.82 6.428L19.7809 6.37531L19.845 6.467L19.8722 6.51088C19.8862 6.53547 19.8991 6.56083 19.9109 6.58679C19.9167 6.60014 19.9224 6.61347 19.9278 6.62692C19.9395 6.65535 19.9497 6.68443 19.9585 6.71409C19.9612 6.72378 19.964 6.73385 19.9667 6.74397C19.9789 6.78946 19.9878 6.83591 19.9933 6.88338L20 7V9H21C22.1046 9 23 9.89543 23 11V18C23 19.1046 22.1046 20 21 20H20V22C20 22.5523 19.5523 23 19 23H5C4.44772 23 4 22.5523 4 22V20H3C1.89543 20 1 19.1046 1 18V11C1 9.89543 1.89543 9 3 9H4V2C4 1.44772 4.44772 1 5 1H15ZM18 20H6V21H18V20ZM21 11H3V18H21V11ZM6.18333 11.4478C6.87042 11.4478 7.41055 11.5867 7.8037 11.8645C8.19686 12.1423 8.48894 12.5689 8.67994 13.1444L7.19164 13.4755C7.13955 13.3094 7.08498 13.1878 7.02793 13.1109C6.93367 12.9819 6.81833 12.8827 6.68191 12.8133C6.54548 12.7438 6.39293 12.7091 6.22426 12.7091C5.84226 12.7091 5.54956 12.8629 5.34616 13.1705C5.19237 13.3987 5.11548 13.7571 5.11548 14.2457C5.11548 14.851 5.20726 15.2658 5.39081 15.4903C5.57437 15.7148 5.83234 15.827 6.16472 15.827C6.48719 15.827 6.7309 15.7365 6.89585 15.5554C7.0608 15.3744 7.18048 15.1114 7.2549 14.7666L8.73203 15.2131C8.63281 15.6274 8.47654 15.9734 8.26321 16.2512C8.04989 16.529 7.7851 16.7386 7.46884 16.88C7.15258 17.0214 6.75012 17.0921 6.26146 17.0921C5.66863 17.0921 5.18431 17.0059 4.80852 16.8335C4.43273 16.6611 4.1084 16.3579 3.83555 15.9238C3.5627 15.4897 3.42627 14.9341 3.42627 14.2569C3.42627 13.354 3.66626 12.6601 4.14623 12.1752C4.6262 11.6902 5.30524 11.4478 6.18333 11.4478ZM11.7793 11.4478C12.4763 11.4478 13.0078 11.5774 13.3736 11.8366C13.7395 12.0958 13.9572 12.5082 14.0266 13.0737L12.4379 13.1667C12.3957 12.9212 12.307 12.7426 12.1718 12.6309C12.0367 12.5193 11.85 12.4635 11.6119 12.4635C11.4159 12.4635 11.2683 12.5051 11.1691 12.5882C11.0699 12.6713 11.0203 12.7723 11.0203 12.8914C11.0203 12.9782 11.0612 13.0563 11.1431 13.1258C11.2224 13.1977 11.4109 13.2647 11.7086 13.3267C12.4453 13.4855 12.973 13.6461 13.2918 13.8086C13.6105 13.971 13.8424 14.1726 13.9876 14.4132C14.1327 14.6538 14.2052 14.9229 14.2052 15.2206C14.2052 15.5703 14.1085 15.8928 13.915 16.188C13.7215 16.4831 13.4511 16.707 13.1039 16.8596C12.7566 17.0121 12.3188 17.0884 11.7905 17.0884C10.8628 17.0884 10.2203 16.9098 9.86313 16.5526C9.50594 16.1954 9.30378 15.7415 9.25665 15.1908L10.8603 15.0903C10.895 15.3508 10.9657 15.5492 11.0724 15.6857C11.246 15.9064 11.494 16.0168 11.8165 16.0168C12.0571 16.0168 12.2425 15.9604 12.3728 15.8475C12.503 15.7347 12.5681 15.6038 12.5681 15.455C12.5681 15.3136 12.5061 15.1871 12.3821 15.0755C12.258 14.9638 11.9703 14.8584 11.5189 14.7592C10.7797 14.593 10.2526 14.3722 9.93754 14.0969C9.62004 13.8216 9.46129 13.4706 9.46129 13.0439C9.46129 12.7637 9.54252 12.4989 9.705 12.2496C9.86747 12.0003 10.1118 11.8043 10.438 11.6617C10.7642 11.5191 11.2113 11.4478 11.7793 11.4478ZM16.2777 11.5408L17.5055 15.4661L18.7147 11.5408H20.4263L18.4022 16.9954H16.5753L14.514 11.5408H16.2777ZM13 3H6V9H18V8H14C13.4477 8 13 7.55228 13 7V3ZM15 3.6V6H16.92L15 3.6Z" fill="#00C261"/>
</g>
<defs>
<clipPath id="clip0_40_79316">
<rect width="24" height="24" fill="white"/>
</clipPath>
</defs>
</svg>
