<svg width="16" height="16" viewBox="0 0 16 16" fill="none" xmlns="http://www.w3.org/2000/svg">
<circle cx="8" cy="8" r="7.5" fill="url(#paint0_linear_9153_382902)" stroke="white"/>
<path d="M8.12 9.272V9.728C7.32 9.808 6.12 9.88 4.52 9.936L4.456 9.448C5.016 9.44 5.544 9.424 6.032 9.408V8.72H4.592V8.256H6.032V7.6H4.552V4.76H8.064V7.6H6.544V8.256H8V8.72H6.544V9.384C7.136 9.352 7.664 9.32 8.12 9.272ZM4.704 10.232L5.184 10.288C5.136 10.872 5.032 11.392 4.856 11.84L4.376 11.688C4.552 11.264 4.656 10.776 4.704 10.232ZM6.008 10.288C6.088 10.624 6.144 11.096 6.176 11.688L5.688 11.744C5.672 11.136 5.624 10.672 5.56 10.336L6.008 10.288ZM7.784 10.128C7.968 10.56 8.112 10.96 8.216 11.328C8.928 10.128 9.336 8.744 9.448 7.184H8.44V6.632H9.472C9.488 5.696 9.496 4.984 9.496 4.488H10.048C10.048 5.08 10.04 5.8 10.032 6.632H11.44V7.184H10.064C10.312 9 10.856 10.4 11.696 11.384L11.304 11.816C10.592 10.912 10.104 9.776 9.848 8.408C9.592 9.752 9.152 10.896 8.528 11.824L8.16 11.416C8.168 11.4 8.176 11.384 8.184 11.376L7.8 11.52C7.688 11.08 7.544 10.656 7.376 10.24L7.784 10.128ZM6.896 10.2C7.04 10.584 7.16 11.016 7.272 11.512L6.808 11.632C6.72 11.184 6.608 10.752 6.48 10.336L6.896 10.2ZM10.72 4.752C11.072 5.2 11.336 5.6 11.52 5.936L11.12 6.224C10.928 5.856 10.664 5.44 10.328 4.992L10.72 4.752ZM7.6 7.152V5.208H6.504V7.152H7.6ZM6.088 7.152V5.208H5.016V7.152H6.088ZM7.008 5.624L7.312 5.696C7.264 6.08 7.176 6.456 7.048 6.824L6.744 6.72C6.872 6.376 6.96 6.008 7.008 5.624ZM5.544 5.656C5.664 5.976 5.768 6.336 5.864 6.744L5.568 6.824C5.48 6.456 5.368 6.096 5.24 5.752L5.544 5.656Z" fill="#783887"/>
<defs>
<linearGradient id="paint0_linear_9153_382902" x1="0" y1="8" x2="16" y2="8" gradientUnits="userSpaceOnUse">
<stop offset="0.0336452" stop-color="#F2E9F6"/>
<stop offset="1" stop-color="white"/>
</linearGradient>
</defs>
</svg>
