<svg width="24" height="24" viewBox="0 0 24 24" fill="none" xmlns="http://www.w3.org/2000/svg">
<g clip-path="url(#clip0_40_79317)">
<path  d="M6 21H21V3H6V7H11C11.5523 7 12 7.44772 12 8V17C12 17.5523 11.5523 18 11 18H6V21ZM19 15C19.5523 15 20 15.4477 20 16C20 16.5523 19.5523 17 19 17H15C14.4477 17 14 16.5523 14 16C14 15.4477 14.4477 15 15 15H19ZM5.18361 9H4.10783C3.75234 9 3.46416 9.28818 3.46416 9.64367C3.46416 9.76901 3.50075 9.89163 3.56945 9.99646L5.11295 12.352L3.36391 14.9928C3.16602 15.2916 3.24782 15.6942 3.5466 15.8921C3.65285 15.9625 3.77746 16 3.9049 16H5.00122C5.07065 16 5.13512 15.964 5.17153 15.9049L6.49767 13.751L7.81907 15.9046C7.85545 15.9639 7.92 16 7.98954 16H9.09282C9.45399 16 9.74678 15.7072 9.74678 15.346C9.74678 15.218 9.70917 15.0927 9.63861 14.9858L7.92536 12.3902L9.46537 9.99236C9.65764 9.69299 9.57082 9.29444 9.27145 9.10217C9.16759 9.03546 9.04675 9 8.92331 9H7.86127C7.78881 9 7.72202 9.03919 7.68667 9.10244L6.54064 11.1535L5.35688 9.10011C5.32117 9.03817 5.25511 9 5.18361 9ZM19 11C19.5523 11 20 11.4477 20 12C20 12.5523 19.5523 13 19 13H15C14.4477 13 14 12.5523 14 12C14 11.4477 14.4477 11 15 11H19ZM19 7C19.5523 7 20 7.44772 20 8C20 8.55228 19.5523 9 19 9H15C14.4477 9 14 8.55228 14 8C14 7.44772 14.4477 7 15 7H19ZM2 18C1.44772 18 1 17.5523 1 17V8C1 7.44772 1.44772 7 2 7H4V3C4 1.89543 4.89543 1 6 1H21C22.1046 1 23 1.89543 23 3V21C23 22.1046 22.1046 23 21 23H6C4.89543 23 4 22.1046 4 21V18H2Z" fill="#00C261"/>
</g>
<defs>
<clipPath id="clip0_40_79317">
<rect width="24" height="24" fill="white"/>
</clipPath>
</defs>
</svg>
