<svg width="24" height="24" viewBox="0 0 24 24" fill="none" xmlns="http://www.w3.org/2000/svg">
<g clip-path="url(#clip0_40_79318)">
<path d="M20.3333 1C21.8061 1 23 2.1939 23 3.66667V20.3333C23 21.8061 21.8061 23 20.3333 23H3.66667C2.1939 23 1 21.8061 1 20.3333V3.66667C1 2.19391 2.19391 1 3.66667 1H20.3333ZM15.885 14.4591L11.0023 18.8544C10.66 19.1625 10.1568 19.1939 9.78151 18.9452L9.68254 18.8704L6.402 16.0581L2.99994 18.611L3 20.3333C3 20.7015 3.29847 21 3.66667 21H20.3333C20.7015 21 21 20.7015 21 20.3333L20.9999 19.109L15.885 14.4591ZM20.3333 3H3.66667C3.29848 3 3 3.29848 3 3.66667L2.99994 16.111L5.84444 13.9778C6.2194 13.6966 6.73937 13.7135 7.09524 14.0185L10.317 16.7791L15.2199 12.3678C15.6017 12.0243 16.1816 12.0257 16.5616 12.3712L20.9999 16.406L21 3.66667C21 3.29847 20.7015 3 20.3333 3ZM8.66667 4.88889C10.7531 4.88889 12.4444 6.58027 12.4444 8.66667C12.4444 10.7531 10.7531 12.4444 8.66667 12.4444C6.58027 12.4444 4.88889 10.7531 4.88889 8.66667C4.88889 6.58027 6.58027 4.88889 8.66667 4.88889ZM8.66667 6.88889C7.68484 6.88889 6.88889 7.68484 6.88889 8.66667C6.88889 9.64849 7.68484 10.4444 8.66667 10.4444C9.64849 10.4444 10.4444 9.64849 10.4444 8.66667C10.4444 7.68484 9.64849 6.88889 8.66667 6.88889Z" fill="#FFC14E"/>
</g>
<defs>
<clipPath id="clip0_40_79318">
<rect width="24" height="24" fill="white"/>
</clipPath>
</defs>
</svg>
