<svg width="24" height="24" viewBox="0 0 24 24" fill="none" xmlns="http://www.w3.org/2000/svg">
<g clip-path="url(#clip0_40_79319)">
<path d="M15 1C15.3038 1 15.5911 1.13809 15.7809 1.3753L19.7727 6.3652L19.8149 6.42032L19.82 6.428L19.8294 6.4414L19.84 6.459L19.82 6.428L19.7809 6.37531L19.845 6.467L19.8722 6.51088C19.8862 6.53547 19.8991 6.56083 19.9109 6.58679C19.9167 6.60014 19.9224 6.61347 19.9278 6.62692C19.9395 6.65535 19.9497 6.68443 19.9585 6.71409C19.9612 6.72378 19.964 6.73385 19.9667 6.74397C19.9789 6.78946 19.9878 6.83591 19.9933 6.88338L20 7V9H21C22.1046 9 23 9.89543 23 11V18C23 19.1046 22.1046 20 21 20H20V22C20 22.5523 19.5523 23 19 23H5C4.44772 23 4 22.5523 4 22V20H3C1.89543 20 1 19.1046 1 18V11C1 9.89543 1.89543 9 3 9H4V2C4 1.44772 4.44772 1 5 1H15ZM18 20H6V21H18V20ZM21 11H3V18H21V11ZM11.5 11.5C13.1568 11.5 14.5 12.8432 14.5 14.5C14.5 16.1568 13.1568 17.5 11.5 17.5H10.5C9.94771 17.5 9.5 17.0523 9.5 16.5V12.5C9.5 11.9477 9.94771 11.5 10.5 11.5H11.5ZM6.75 11.5C7.99263 11.5 9 12.5074 9 13.75C9 14.9926 7.99263 16 6.75 16H6V16.5C6 17.0523 5.55228 17.5 5 17.5C4.44772 17.5 4 17.0523 4 16.5V12.5C4 11.9477 4.44772 11.5 5 11.5H6.75ZM18.5 11.5C19.0523 11.5 19.5 11.9477 19.5 12.5C19.5 13.0523 19.0523 13.5 18.5 13.5H17V14H18.5C19.0523 14 19.5 14.4477 19.5 15C19.5 15.5523 19.0523 16 18.5 16H17V16.5C17 17.0128 16.614 17.4355 16.1166 17.4933L16 17.5C15.4477 17.5 15 17.0523 15 16.5V12.5C15 11.9477 15.4477 11.5 16 11.5H18.5ZM11.5 13.5V15.5C12.0523 15.5 12.5 15.0523 12.5 14.5C12.5 13.9477 12.0523 13.5 11.5 13.5ZM6.75 13.5H6V14H6.75C6.88807 14 7 13.8881 7 13.75C7 13.6119 6.88807 13.5 6.75 13.5ZM13 3H6V9H18V8H14C13.4477 8 13 7.55228 13 7V3ZM15 3.6V6H16.92L15 3.6Z" fill="#F02929"/>
</g>
<defs>
<clipPath id="clip0_40_79319">
<rect width="24" height="24" fill="white"/>
</clipPath>
</defs>
</svg>
