<svg width="24" height="24" viewBox="0 0 24 24" fill="none" xmlns="http://www.w3.org/2000/svg">
<g clip-path="url(#clip0_40_79322)">
<path d="M15 1C15.3038 1 15.5911 1.13809 15.7809 1.3753L19.7727 6.3652L19.8149 6.42032L19.82 6.428L19.8294 6.4414L19.84 6.459L19.82 6.428L19.7809 6.37531L19.845 6.467L19.8722 6.51088C19.8862 6.53547 19.8991 6.56083 19.9109 6.58679C19.9167 6.60014 19.9224 6.61347 19.9278 6.62692C19.9395 6.65535 19.9497 6.68443 19.9585 6.71409C19.9612 6.72378 19.964 6.73385 19.9667 6.74397C19.9789 6.78946 19.9878 6.83591 19.9933 6.88338L20 7V9H21C22.1046 9 23 9.89543 23 11V18C23 19.1046 22.1046 20 21 20H20V22C20 22.5523 19.5523 23 19 23H5C4.44772 23 4 22.5523 4 22V20H3C1.89543 20 1 19.1046 1 18V11C1 9.89543 1.89543 9 3 9H4V2C4 1.44772 4.44772 1 5 1H15ZM18 20H6V21H18V20ZM21 11H3V18H21V11ZM11.9888 11.4478C12.9238 11.4478 13.6456 11.6988 14.1541 12.2009C14.6626 12.703 14.9169 13.4216 14.9169 14.3567C14.9169 15.1892 14.712 15.8553 14.3021 16.3549C14.5198 16.506 14.662 16.6008 14.7286 16.6392C14.8285 16.6956 14.963 16.7609 15.1321 16.8352L14.6479 17.8112C14.4045 17.6934 14.1637 17.5531 13.9255 17.3905C13.6872 17.2278 13.5207 17.1055 13.4259 17.0235C13.0417 17.19 12.5601 17.2733 11.9811 17.2733C11.1255 17.2733 10.4504 17.0504 9.956 16.6046C9.37191 16.0769 9.07987 15.3353 9.07987 14.3797C9.07987 13.4523 9.33541 12.7318 9.84648 12.2182C10.3576 11.7046 11.0717 11.4478 11.9888 11.4478ZM5.91735 11.4478C6.63721 11.4478 7.18607 11.5816 7.56393 11.8493C7.9418 12.117 8.16659 12.5429 8.23832 13.127L6.5975 13.2231C6.55395 12.9695 6.46237 12.785 6.32275 12.6697C6.18313 12.5544 5.99036 12.4968 5.74443 12.4968C5.54204 12.4968 5.38962 12.5397 5.28715 12.6255C5.18468 12.7114 5.13344 12.8157 5.13344 12.9387C5.13344 13.0284 5.17571 13.1091 5.26025 13.1808C5.34223 13.2551 5.53692 13.3243 5.84434 13.3883C6.60519 13.5523 7.1502 13.7181 7.47939 13.8859C7.80858 14.0537 8.04811 14.2619 8.19797 14.5104C8.34784 14.7589 8.42277 15.0368 8.42277 15.3442C8.42277 15.7054 8.32286 16.0385 8.12304 16.3433C7.92322 16.6482 7.64399 16.8794 7.28534 17.0369C6.92669 17.1945 6.47453 17.2733 5.92887 17.2733C4.97077 17.2733 4.30726 17.0888 3.93837 16.7199C3.56947 16.351 3.36069 15.8822 3.31201 15.3135L4.9682 15.2097C5.00407 15.4787 5.07708 15.6837 5.18724 15.8246C5.36656 16.0526 5.62274 16.1666 5.95577 16.1666C6.20427 16.1666 6.39576 16.1083 6.53025 15.9917C6.66475 15.8752 6.73199 15.74 6.73199 15.5863C6.73199 15.4403 6.66795 15.3096 6.53986 15.1944C6.41177 15.0791 6.1146 14.9702 5.64836 14.8677C4.88495 14.6961 4.34057 14.4681 4.01522 14.1837C3.68731 13.8994 3.52336 13.5369 3.52336 13.0963C3.52336 12.8068 3.60726 12.5333 3.77505 12.2759C3.94285 12.0184 4.19519 11.816 4.53206 11.6687C4.86894 11.5214 5.3307 11.4478 5.91735 11.4478ZM17.5952 11.5438V15.79H20.312V17.1772H15.8545V11.5438H17.5952ZM11.9849 12.7658C11.6391 12.7658 11.3586 12.89 11.1434 13.1385C10.9282 13.387 10.8206 13.7751 10.8206 14.3029C10.8206 14.9177 10.9256 15.3494 11.1357 15.5978C11.3458 15.8463 11.634 15.9706 12.0003 15.9706C12.1181 15.9706 12.2296 15.9591 12.3346 15.936C12.1886 15.7951 11.958 15.6619 11.6429 15.5364L11.9158 14.91C12.0695 14.9382 12.1892 14.9728 12.2751 15.0138C12.3609 15.0547 12.528 15.1623 12.7765 15.3365C12.8354 15.3775 12.8995 15.4198 12.9687 15.4634C13.107 15.2149 13.1762 14.8434 13.1762 14.349C13.1762 13.7803 13.0705 13.3742 12.8591 13.1308C12.6478 12.8875 12.3564 12.7658 11.9849 12.7658ZM13 3H6V9H18V8H14C13.4477 8 13 7.55228 13 7V3ZM15 3.6V6H16.92L15 3.6Z" fill="#3370FF"/>
</g>
<defs>
<clipPath id="clip0_40_79322">
<rect width="24" height="24" fill="white"/>
</clipPath>
</defs>
</svg>
