<svg width="24" height="24" viewBox="0 0 24 24" fill="none" xmlns="http://www.w3.org/2000/svg">
<g clip-path="url(#clip0_40_79323)">
<path d="M20.5 1C21.8807 1 23 2.11929 23 3.5V20.5C23 21.8807 21.8807 23 20.5 23H3.5C2.11929 23 1 21.8807 1 20.5V3.5C1 2.11929 2.11929 1 3.5 1H20.5ZM20.5 3H3.5C3.22386 3 3 3.22386 3 3.5V20.5C3 20.7761 3.22386 21 3.5 21H20.5C20.7761 21 21 20.7761 21 20.5V3.5C21 3.22386 20.7761 3 20.5 3ZM10.8889 18.5556C10.3366 18.5556 9.88889 18.1078 9.88889 17.5556C9.88889 17.0033 10.3366 16.5556 10.8889 16.5556L11 16.555V8.66667L11.006 8.555L8.55556 8.55556V9.22222C8.55556 9.73506 8.16952 10.1577 7.67218 10.2155L7.55556 10.2222C7.00327 10.2222 6.55556 9.77451 6.55556 9.22222V7.55556C6.55556 7.00327 7.00327 6.55556 7.55556 6.55556H16.4444C16.9967 6.55556 17.4444 7.00327 17.4444 7.55556V9.22222C17.4444 9.77451 16.9967 10.2222 16.4444 10.2222C15.8922 10.2222 15.4444 9.77451 15.4444 9.22222L15.4436 8.55556L12.9938 8.555C12.9979 8.59166 13 8.62892 13 8.66667V16.555L13.1111 16.5556C13.6634 16.5556 14.1111 17.0033 14.1111 17.5556C14.1111 18.1078 13.6634 18.5556 13.1111 18.5556H10.8889Z" fill="#3370FF"/>
</g>
<defs>
<clipPath id="clip0_40_79323">
<rect width="24" height="24" fill="white"/>
</clipPath>
</defs>
</svg>
