<svg width="24" height="24" viewBox="0 0 24 24" fill="none" xmlns="http://www.w3.org/2000/svg">
<g clip-path="url(#clip0_40_79325)">
<path d="M20.3333 1C21.8061 1 23 2.1939 23 3.66667V20.3333C23 21.8061 21.8061 23 20.3333 23H3.66667C2.1939 23 1 21.8061 1 20.3333V3.66667C1 2.19391 2.19391 1 3.66667 1H20.3333ZM21 7.99989H3V20.3333C3 20.7015 3.29847 21 3.66667 21H20.3333C20.7015 21 21 20.7015 21 20.3333V7.99989ZM10.5556 9.98831L13.4722 11.6723L16.3889 13.3562C17.0556 13.7411 17.0556 14.7033 16.3889 15.0882L13.4722 16.7722L10.5556 18.4561C9.88889 18.841 9.05556 18.3599 9.05556 17.5901V10.8543C9.05556 10.0845 9.88889 9.60341 10.5556 9.98831ZM11.0556 12.5863V15.8573L12.4722 15.0401L13.8886 14.2213L12.4722 13.4043L11.0556 12.5863ZM8.464 2.99989L3.66667 3C3.29848 3 3 3.29848 3 3.66667V5.99989H6.464L8.464 2.99989ZM20.3333 3L17.535 2.99989L15.534 5.99989H21V3.66667C21 3.29847 20.7015 3 20.3333 3ZM15.13 2.99989H10.868L8.868 5.99989H13.131L15.13 2.99989Z" fill="#3370FF"/>
</g>
<defs>
<clipPath id="clip0_40_79325">
<rect width="24" height="24" fill="white"/>
</clipPath>
</defs>
</svg>
