<svg width="24" height="24" viewBox="0 0 24 24" fill="none" xmlns="http://www.w3.org/2000/svg">
<g clip-path="url(#clip0_40_79326)">
<path d="M21 1C22.1046 1 23 1.89543 23 3V21C23 22.1046 22.1046 23 21 23H6C4.89543 23 4 22.1046 4 21V17H6V21H21V3H6V6H4V3C4 1.89543 4.89543 1 6 1H21Z" fill="#3370FF"/>
<path d="M19 7H15C14.4477 7 14 7.44772 14 8C14 8.55228 14.4477 9 15 9H19C19.5523 9 20 8.55228 20 8C20 7.44772 19.5523 7 19 7Z" fill="#3370FF"/>
<path d="M19 11H15C14.4477 11 14 11.4477 14 12C14 12.5523 14.4477 13 15 13H19C19.5523 13 20 12.5523 20 12C20 11.4477 19.5523 11 19 11Z" fill="#3370FF"/>
<path d="M19 15H15C14.4477 15 14 15.4477 14 16C14 16.5523 14.4477 17 15 17H19C19.5523 17 20 16.5523 20 16C20 15.4477 19.5523 15 19 15Z" fill="#3370FF"/>
<path fill-rule="evenodd" clip-rule="evenodd" d="M11 6C11.5523 6 12 6.44772 12 7V16C12 16.5523 11.5523 17 11 17H2C1.44772 17 1 16.5523 1 16V7C1 6.44772 1.44772 6 2 6H11ZM3.16495 8H2.91675C2.85625 8 2.796 8.00776 2.73747 8.02309C2.35945 8.1221 2.13327 8.50882 2.23229 8.88684L3.67706 14.4027C3.76923 14.7546 4.08719 15 4.45095 15H4.8904C5.2632 15 5.58658 14.7425 5.67008 14.3792L6.49535 10.7881L7.34975 14.3849C7.4354 14.7455 7.75748 15 8.12809 15H8.56182C8.92613 15 9.24444 14.7539 9.33609 14.4013L10.7711 8.88051C10.7861 8.82272 10.7938 8.76324 10.7938 8.70352C10.7938 8.31498 10.4788 8 10.0902 8H9.84901C9.46198 8 9.13046 8.27705 9.06173 8.65793L8.3847 12.4096L7.4879 8.61596C7.40257 8.25498 7.08029 8 6.70936 8H6.2726C5.89927 8 5.57558 8.25821 5.49261 8.6222L4.62927 12.4096L3.95224 8.65793C3.8835 8.27705 3.55198 8 3.16495 8Z" fill="#3370FF"/>
</g>
<defs>
<clipPath id="clip0_40_79326">
<rect width="24" height="24" fill="white"/>
</clipPath>
</defs>
</svg>
