<svg width="24" height="24" viewBox="0 0 24 24" fill="none" xmlns="http://www.w3.org/2000/svg">
<g clip-path="url(#clip0_40_79314)">
<path d="M21 1C22.1046 1 23 1.89543 23 3V21C23 22.1046 22.1046 23 21 23H6C4.89543 23 4 22.1046 4 21V17H6V21H21V3H6V6H4V3C4 1.89543 4.89543 1 6 1H21Z" fill="#F02929"/>
<path d="M19 7H15C14.4477 7 14 7.44772 14 8C14 8.55228 14.4477 9 15 9H19C19.5523 9 20 8.55228 20 8C20 7.44772 19.5523 7 19 7Z" fill="#F02929"/>
<path d="M19 11H15C14.4477 11 14 11.4477 14 12C14 12.5523 14.4477 13 15 13H19C19.5523 13 20 12.5523 20 12C20 11.4477 19.5523 11 19 11Z" fill="#F02929"/>
<path d="M19 15H15C14.4477 15 14 15.4477 14 16C14 16.5523 14.4477 17 15 17H19C19.5523 17 20 16.5523 20 16C20 15.4477 19.5523 15 19 15Z" fill="#F02929"/>
<path fill-rule="evenodd" clip-rule="evenodd" d="M11 6C11.5523 6 12 6.44772 12 7V16C12 16.5523 11.5523 17 11 17H2C1.44772 17 1 16.5523 1 16V7C1 6.44772 1.44772 6 2 6H11ZM2.71745 9.9353C2.48734 9.9353 2.26138 9.95311 2.04087 9.9874C2.01392 10.1836 2 10.3839 2 10.5876C2 11.3447 2.19253 12.0568 2.53131 12.6776C2.78225 12.6328 3.04062 12.6094 3.30445 12.6094C3.77602 12.6094 4.23013 12.6841 4.65789 12.8223C4.66843 12.9461 4.67381 13.0714 4.67381 13.198C4.67381 13.7722 4.56303 14.3206 4.36168 14.823C5.00855 15.4287 5.83972 15.84 6.76206 15.9636C6.91803 15.5831 7.02188 15.1759 7.0648 14.7519C7.0674 14.7263 7.06978 14.7007 7.07175 14.6748C7.08186 14.5534 7.08702 14.4307 7.08738 14.3053C7.08738 11.8918 5.13094 9.9353 2.71745 9.9353ZM9.77795 12.9988C9.94349 13.0178 10.1118 13.0276 10.2825 13.0276C10.5126 13.0276 10.7386 13.0098 10.9591 12.9755C10.9861 12.7793 11 12.579 11 12.3754C11 11.6182 10.8074 10.9061 10.4687 10.2853C10.2177 10.3301 9.95932 10.3535 9.69546 10.3535C9.22356 10.3535 8.76912 10.2787 8.34178 10.1412C8.33124 10.0174 8.32586 9.89212 8.32586 9.76557C8.32586 9.19132 8.43665 8.64291 8.63796 8.14057C7.99109 7.53485 7.15992 7.12359 6.23758 7C6.08173 7.3801 5.97792 7.78702 5.93512 8.21103C5.93217 8.23994 5.92952 8.26893 5.92715 8.29777C5.91752 8.41619 5.91262 8.53595 5.91262 8.65686C5.91262 8.85462 5.92575 9.04931 5.95108 9.24C5.98955 9.52892 6.05625 9.80892 6.1513 10.085C6.20306 10.2347 6.26274 10.3808 6.32956 10.5229C6.43197 10.7396 6.55166 10.9465 6.68686 11.1418L6.69639 11.1547C6.74469 11.2239 6.79494 11.2916 6.84679 11.3583C6.9543 11.4949 7.06977 11.6249 7.19252 11.7477L7.20795 11.7622C7.21801 11.7722 7.22812 11.7821 7.23827 11.7919L7.33516 11.8841C7.77226 12.2836 8.29082 12.5955 8.86304 12.7919L8.89654 12.8024L8.91884 12.8106C9.10058 12.8703 9.28757 12.9183 9.47936 12.9531L9.586 12.971L9.77795 12.9988Z" fill="#F02929"/>
</g>
<defs>
<clipPath id="clip0_40_79314">
<rect width="24" height="24" fill="white"/>
</clipPath>
</defs>
</svg>
