<svg width="24" height="24" viewBox="0 0 24 24" fill="none" xmlns="http://www.w3.org/2000/svg">
<g clip-path="url(#clip0_40_79315)">
<path d="M15 1C15.3038 1 15.5911 1.13809 15.7809 1.3753L19.7727 6.3652L19.8149 6.42032L19.82 6.428L19.8294 6.4414L19.84 6.459L19.82 6.428L19.7809 6.37531L19.845 6.467L19.8722 6.51088C19.8862 6.53547 19.8991 6.56083 19.9109 6.58679C19.9167 6.60014 19.9224 6.61347 19.9278 6.62692C19.9395 6.65535 19.9497 6.68443 19.9585 6.71409C19.9612 6.72378 19.964 6.73385 19.9667 6.74397C19.9789 6.78946 19.9878 6.83591 19.9933 6.88338L20 7V9H21C22.1046 9 23 9.89543 23 11V18C23 19.1046 22.1046 20 21 20H20V22C20 22.5523 19.5523 23 19 23H5C4.44772 23 4 22.5523 4 22V20H3C1.89543 20 1 19.1046 1 18V11C1 9.89543 1.89543 9 3 9H4V2C4 1.44772 4.44772 1 5 1H15ZM18 20H6V21H18V20ZM21 11H3V18H21V11ZM8.5 11.5C9.32405 11.5 9.79443 12.4408 9.3 13.1L7.5 15.5H8.5C9.01284 15.5 9.43551 15.886 9.49327 16.3834L9.5 16.5C9.5 17.0523 9.05229 17.5 8.5 17.5H5.5C4.67595 17.5 4.20557 16.5592 4.7 15.9L6.5 13.5H5.5C4.98716 13.5 4.56449 13.114 4.50673 12.6166L4.5 12.5C4.5 11.9477 4.94772 11.5 5.5 11.5H8.5ZM12 11.5C12.5523 11.5 13 11.9477 13 12.5V16.5C13 17.0523 12.5523 17.5 12 17.5C11.4477 17.5 11 17.0523 11 16.5V12.5C11 11.9477 11.4477 11.5 12 11.5ZM17.25 11.5C18.4926 11.5 19.5 12.5074 19.5 13.75C19.5 14.9926 18.4926 16 17.25 16H16.5V16.5C16.5 17.0523 16.0523 17.5 15.5 17.5C14.9477 17.5 14.5 17.0523 14.5 16.5V12.5C14.5 11.9477 14.9477 11.5 15.5 11.5H17.25ZM17.25 13.5H16.5V14H17.25C17.3881 14 17.5 13.8881 17.5 13.75C17.5 13.6119 17.3881 13.5 17.25 13.5ZM13 3H6V9H18V8H14C13.4477 8 13 7.55228 13 7V3ZM15 3.6V6H16.92L15 3.6Z" fill="#3370FF"/>
</g>
<defs>
<clipPath id="clip0_40_79315">
<rect width="24" height="24" fill="white"/>
</clipPath>
</defs>
</svg>
