<svg width="24" height="24" viewBox="0 0 24 24" fill="none" xmlns="http://www.w3.org/2000/svg">
<path d="M11.9422 10.4787L18.6598 3.76119C18.855 3.56593 19.1716 3.56593 19.3669 3.76119L20.074 4.4683C20.2692 4.66356 20.2692 4.98014 20.074 5.17541L13.3564 11.8929L20.074 18.6104C20.2692 18.8057 20.2692 19.1223 20.074 19.3175L19.3669 20.0246C19.1716 20.2199 18.855 20.2199 18.6598 20.0246L11.9422 13.3071L5.22472 20.0246C5.02946 20.2199 4.71288 20.2199 4.51762 20.0246L3.81051 19.3175C3.61525 19.1223 3.61525 18.8057 3.81051 18.6104L10.528 11.8929L3.81051 5.17541C3.61525 4.98014 3.61525 4.66356 3.81051 4.4683L4.51762 3.76119C4.71288 3.56593 5.02946 3.56593 5.22472 3.76119L11.9422 10.4787Z" fill="#1F2329"/>
</svg>
