<svg width="24" height="24" viewBox="0 0 24 24" fill="none" xmlns="http://www.w3.org/2000/svg">
<path d="M3.33317 2.66675H20.6665C21.0347 2.66675 21.3332 2.96522 21.3332 3.33341V20.6667C21.3332 21.0349 21.0347 21.3334 20.6665 21.3334H3.33317C2.96498 21.3334 2.6665 21.0349 2.6665 20.6667V3.33341C2.6665 2.96522 2.96498 2.66675 3.33317 2.66675ZM4.6665 4.66675V19.3334H19.3332V4.66675H4.6665ZM8.78915 9.33342H7.78915C7.51301 9.33342 7.28915 9.55727 7.28915 9.83342V16.8334C7.28915 17.1096 7.51301 17.3334 7.78915 17.3334H8.78915C9.0653 17.3334 9.28915 17.1096 9.28915 16.8334V9.83342C9.28915 9.55727 9.0653 9.33342 8.78915 9.33342ZM12.5274 6.66675H11.5274C11.2513 6.66675 11.0274 6.88382 11.0274 7.1516V16.8486C11.0274 17.1163 11.2513 17.3334 11.5274 17.3334H12.5274C12.8035 17.3334 13.0274 17.1163 13.0274 16.8486V7.1516C13.0274 6.88382 12.8035 6.66675 12.5274 6.66675ZM16.1763 12.0001H15.1763C14.9002 12.0001 14.6763 12.2389 14.6763 12.5334V16.8001C14.6763 17.0946 14.9002 17.3334 15.1763 17.3334H16.1763C16.4525 17.3334 16.6763 17.0946 16.6763 16.8001V12.5334C16.6763 12.2389 16.4525 12.0001 16.1763 12.0001Z" fill="#3370FF"/>
<path d="M1 4C1 1.79086 2.79086 0 5 0H19C21.2091 0 23 1.79086 23 4V20C23 22.2091 21.2091 24 19 24H5C2.79086 24 1 22.2091 1 20V4Z" fill="#3370FF"/>
<path d="M6.45833 16.6667V11.7349C6.45833 11.3981 6.73816 11.1251 7.08333 11.1251H9.66667V6.78078C9.66667 6.44166 9.96514 6.16675 10.3333 6.16675H13.6667C14.0349 6.16675 14.3333 6.44166 14.3333 6.78078V9.66675H16.9167C17.2618 9.66675 17.5417 9.92792 17.5417 10.2501V16.6667H17.8333C17.9944 16.6667 18.125 16.7973 18.125 16.9584V17.5417C18.125 17.7028 17.9944 17.8334 17.8333 17.8334H6.16667C6.00558 17.8334 5.875 17.7028 5.875 17.5417V16.9584C5.875 16.7973 6.00558 16.6667 6.16667 16.6667H6.45833ZM16.375 16.6667V10.8334H14.3333V16.6667H16.375ZM13.1667 16.6667V7.33341H10.8333V16.6667H13.1667ZM9.66667 16.6667V12.2917H7.625V16.6667H9.66667Z" fill="white"/>
</svg>
