<svg width="24" height="24" viewBox="0 0 24 24" fill="none" xmlns="http://www.w3.org/2000/svg">
<path d="M2.92492 2.95422C3.17169 2.70744 3.52927 2.60717 3.86838 2.68966L9.9876 4.17811L14.7513 1.05709C15.0543 0.858576 15.4409 0.839443 15.7621 1.00708C16.0832 1.17471 16.2885 1.5029 16.2989 1.865L16.463 7.60962L21.0766 11.5641C21.3429 11.7924 21.4701 12.1434 21.412 12.4893C21.3538 12.8351 21.1186 13.1252 20.7923 13.2538L15.3632 15.3925L13.2245 20.8216C13.0959 21.1479 12.8058 21.3831 12.46 21.4412C12.1141 21.4994 11.7631 21.3722 11.5348 21.1059L7.58032 16.4923L1.8357 16.3282C1.4736 16.3178 1.14541 16.1125 0.97778 15.7914C0.810145 15.4702 0.829279 15.0836 1.0278 14.7806L4.14882 10.0169L2.66036 3.89767C2.57787 3.55857 2.67814 3.20099 2.92492 2.95422ZM4.99199 5.02128L6.19468 9.96571C6.26009 10.2346 6.21114 10.5186 6.05948 10.7501L3.6812 14.3801L8.08 14.5058C8.36185 14.5138 8.6272 14.6405 8.8107 14.8546L11.9724 18.5433L13.6618 14.255C13.7634 13.9969 13.9676 13.7927 14.2257 13.6911L18.514 12.0017L14.8253 8.84C14.6112 8.6565 14.4845 8.39115 14.4765 8.1093L14.3508 3.7105L10.7208 6.08877C10.4893 6.24044 10.2053 6.28939 9.93641 6.22398L4.99199 5.02128Z" fill="#1F2329"/>
<path d="M16.3777 17.8213L20.9563 22.3998C21.1516 22.5951 21.4682 22.5951 21.6634 22.3998L22.3705 21.6927C22.5658 21.4975 22.5658 21.1809 22.3705 20.9856L17.792 16.407L16.7774 16.8067L16.3777 17.8213Z" fill="#1F2329"/>
</svg>
