<svg width="24" height="24" viewBox="0 0 24 24" fill="none" xmlns="http://www.w3.org/2000/svg">
<path d="M18.1579 9.173L12.3232 1.89877C12.111 1.63423 11.7664 1.63389 11.5543 1.89843L5.71953 9.173C5.64313 9.2684 5.6001 9.39719 5.6001 9.53195C5.6001 9.81252 5.78259 10.04 6.00743 10.04H17.8701C17.9778 10.04 18.0815 9.98666 18.1579 9.89123C18.3171 9.69274 18.3171 9.37116 18.1579 9.173Z" fill="#1F2329"/>
<path d="M5.71944 14.8671L11.5542 22.1414C11.7664 22.406 12.111 22.4062 12.3231 22.1416L18.158 14.8671C18.2342 14.7717 18.2773 14.6429 18.2773 14.5081C18.2773 14.2276 18.0949 14.0001 17.8699 14.0001H6.00734C5.89959 14.0001 5.79583 14.0534 5.71944 14.1489C5.56032 14.3474 5.56032 14.6689 5.71944 14.8671Z" fill="#1F2329"/>
</svg>
