<svg width="24" height="24" viewBox="0 0 24 24" fill="none" xmlns="http://www.w3.org/2000/svg">
<g clip-path="url(#clip0_94_9248)">
<path d="M1 4C1 1.79086 2.79086 0 5 0H19C21.2091 0 23 1.79086 23 4V20C23 22.2091 21.2091 24 19 24H5C2.79086 24 1 22.2091 1 20V4Z" fill="#D136D1"/>
<path d="M12.5445 10.0557C12.6734 10.0557 12.7778 10.1601 12.7778 10.289V10.989C12.7778 11.1179 12.6734 11.2223 12.5445 11.2223H11.0278C10.9324 11.2223 10.853 11.2911 10.8365 11.3818L10.8334 11.4168V16.0834C10.8334 16.1789 10.9022 16.2583 10.9929 16.2748L11.0278 16.2779H17.2501C17.3455 16.2779 17.4249 16.2091 17.4414 16.1184L17.4445 16.0834V11.4168C17.4445 11.3213 17.3757 11.2419 17.285 11.2255L17.2501 11.2223H15.7334C15.6045 11.2223 15.5001 11.1179 15.5001 10.989V10.289C15.5001 10.1601 15.6045 10.0557 15.7334 10.0557H17.2501C17.9767 10.0557 18.5704 10.6251 18.6091 11.3421L18.6112 11.4168V16.0834C18.6112 16.8101 18.0417 17.4038 17.3247 17.4425L17.2501 17.4446H11.0278C10.3012 17.4446 9.7075 16.8751 9.66873 16.1581L9.66672 16.0834V11.4168C9.66672 10.6901 10.2362 10.0964 10.9532 10.0577L11.0278 10.0557H12.5445ZM13.3612 6.55566C14.0878 6.55566 14.6815 7.12511 14.7203 7.84209L14.7223 7.91678V12.5834C14.7223 13.3101 14.1528 13.9038 13.4358 13.9425L13.3612 13.9446H11.8445C11.7156 13.9446 11.6112 13.8401 11.6112 13.7112V13.0112C11.6112 12.8824 11.7156 12.7779 11.8445 12.7779H13.3612C13.4566 12.7779 13.536 12.7091 13.5525 12.6184L13.5556 12.5834V7.91678C13.5556 7.82132 13.4868 7.74193 13.3961 7.72546L13.3612 7.72233H7.13894C7.04349 7.72233 6.9641 7.79112 6.94763 7.88182L6.9445 7.91678V12.5834C6.9445 12.6789 7.01328 12.7583 7.10399 12.7748L7.13894 12.7779H8.65561C8.78448 12.7779 8.88894 12.8824 8.88894 13.0112V13.7112C8.88894 13.8401 8.78448 13.9446 8.65561 13.9446H7.13894C6.41228 13.9446 5.81862 13.3751 5.77985 12.6581L5.77783 12.5834V7.91678C5.77783 7.19011 6.34727 6.59645 7.06426 6.55768L7.13894 6.55566H13.3612Z" fill="white"/>
</g>
<defs>
<clipPath id="clip0_94_9248">
<rect width="24" height="24" fill="white"/>
</clipPath>
</defs>
</svg>
