<svg width="24" height="24" viewBox="0 0 24 24" fill="none" xmlns="http://www.w3.org/2000/svg">
<g clip-path="url(#clip0_94_9342)">
<path fill-rule="evenodd" clip-rule="evenodd" d="M12 22.9998C5.925 22.9998 1 18.0748 1 11.9998C1 5.92476 5.925 0.999756 12 0.999756C18.075 0.999756 23 5.92476 23 11.9998C23 18.0748 18.075 22.9998 12 22.9998ZM12 20.9998C16.9705 20.9998 21 16.9703 21 11.9998C21 7.02926 16.9705 2.99976 12 2.99976C7.0295 2.99976 3 7.02926 3 11.9998C3 16.9703 7.0295 20.9998 12 20.9998ZM12.998 8.49951C12.998 8.77565 12.7742 8.99951 12.498 8.99951H11.498C11.2219 8.99951 10.998 8.77565 10.998 8.49951V7.49951C10.998 7.22337 11.2219 6.99951 11.498 6.99951H12.498C12.7742 6.99951 12.998 7.22337 12.998 7.49951V8.49951ZM12.998 16.4995C12.998 16.7757 12.7742 16.9995 12.498 16.9995H11.498C11.2219 16.9995 10.998 16.7757 10.998 16.4995V10.4995C10.998 10.2234 11.2219 9.99951 11.498 9.99951H12.498C12.7742 9.99951 12.998 10.2234 12.998 10.4995V16.4995Z" fill="#1F2329"/>
</g>
<defs>
<clipPath id="clip0_94_9342">
<rect width="24" height="24" rx="4" fill="white"/>
</clipPath>
</defs>
</svg>
