<svg width="24" height="24" viewBox="0 0 24 24" fill="none" xmlns="http://www.w3.org/2000/svg">
<path d="M16.3099 15.6811C16.2219 14.8371 16.4954 13.9954 17.0627 13.3644L19.614 10.5262L15.8817 9.72966C15.0519 9.55256 14.3358 9.03234 13.911 8.29787L12.0001 4.99439L10.0892 8.29787C9.66435 9.03234 8.94834 9.55256 8.11852 9.72966L4.38623 10.5262L6.93752 13.3644C7.50476 13.9954 7.77825 14.8371 7.69026 15.6811L7.29447 19.4768L10.7821 17.9275C11.5576 17.583 12.4426 17.583 13.2181 17.9275L16.7057 19.4768L16.3099 15.6811ZM11.5941 19.7552L6.52656 22.0064C6.02183 22.2307 5.43091 22.0033 5.20669 21.4985C5.13565 21.3386 5.10782 21.1629 5.12597 20.9888L5.70104 15.4736C5.73038 15.1923 5.63921 14.9118 5.45013 14.7014L1.74313 10.5776C1.37392 10.1668 1.40758 9.53455 1.81831 9.16534C1.94844 9.04836 2.10698 8.96758 2.27811 8.93106L7.70108 7.7737C7.97769 7.71467 8.21636 7.54126 8.35798 7.29644L11.1345 2.49652C11.411 2.01846 12.0227 1.85509 12.5008 2.13162C12.6523 2.21924 12.7781 2.34506 12.8657 2.49652L15.6422 7.29644C15.7838 7.54126 16.0225 7.71467 16.2991 7.7737L21.7221 8.93106C22.2622 9.04633 22.6066 9.57763 22.4914 10.1178C22.4548 10.2889 22.374 10.4474 22.2571 10.5776L18.5501 14.7014C18.361 14.9118 18.2698 15.1923 18.2992 15.4736L18.8742 20.9888C18.9315 21.5382 18.5326 22.0299 17.9833 22.0872C17.8093 22.1053 17.6336 22.0775 17.4736 22.0064L12.4061 19.7552C12.1476 19.6404 11.8526 19.6404 11.5941 19.7552Z" fill="#1F2329"/>
</svg>
