<svg width="24" height="24" viewBox="0 0 24 24" fill="none" xmlns="http://www.w3.org/2000/svg">
<path fill-rule="evenodd" clip-rule="evenodd" d="M12 2.5C17.2466 2.5 21.5 6.75343 21.5 12C21.5 17.2466 17.2466 21.5 12 21.5C6.75343 21.5 2.5 17.2466 2.5 12C2.5 6.75343 6.75343 2.5 12 2.5ZM12 1C18.075 1 23 5.925 23 12C23 18.075 18.075 23 12 23C5.925 23 1 18.075 1 12C1 5.925 5.925 1 12 1ZM10.2864 17.1139L17.2074 12.7594C17.3354 12.6782 17.4408 12.5661 17.5139 12.4333C17.5869 12.3005 17.6252 12.1515 17.6252 11.9999C17.6252 11.8484 17.5869 11.6993 17.5139 11.5665C17.4408 11.4337 17.3354 11.3216 17.2074 11.2405L10.2867 6.88626C10.1451 6.79716 9.98191 6.75006 9.81511 6.75006C9.6979 6.75045 9.58192 6.77393 9.47379 6.81915C9.36566 6.86436 9.26749 6.93043 9.18489 7.01359C9.10229 7.09674 9.03688 7.19535 8.9924 7.30379C8.94791 7.41222 8.92521 7.52836 8.92561 7.64556V16.3549C8.92572 16.5224 8.97257 16.6865 9.06091 16.8289C9.12234 16.9284 9.20287 17.0148 9.29785 17.083C9.39283 17.1513 9.50038 17.2001 9.6143 17.2266C9.72823 17.2531 9.84627 17.2568 9.96162 17.2374C10.077 17.2181 10.1874 17.1761 10.2864 17.1139Z" fill="#1F2329"/>
</svg>
