<svg width="24" height="24" viewBox="0 0 24 24" fill="none" xmlns="http://www.w3.org/2000/svg">
<path d="M21 12C21 7.02951 16.9705 3.00001 12 3.00001C9.72001 3.00001 7.63851 3.84751 6.05251 5.24501L5.03601 3.48501C6.99921 1.87464 9.46084 0.996247 12 1.00001C18.075 1.00001 23 5.92501 23 12C23 14.038 22.446 15.9465 21.48 17.583L20.287 15.517L20.2905 15.5085L18.2685 12H21ZM4.64501 6.81101L6.21801 9.50252H3.35101C3.11744 10.3144 2.99928 11.1552 3.00001 12C3.00001 16.9705 7.02951 21 12 21C14.8985 21 17.477 19.63 19.1235 17.5015L20.188 19.3455C18.174 21.589 15.252 23 12 23C5.92501 23 1.00001 18.075 1.00001 12C0.996129 9.41713 1.90495 6.91593 3.56601 4.93801L4.64651 6.80951L4.64551 6.81101H4.64501ZM14.5 10.5H9.50001H14.5ZM8.53501 9.50002C8.65542 8.66691 9.07195 7.90508 9.70831 7.35407C10.3447 6.80307 11.1583 6.49979 12 6.49979C12.8418 6.49979 13.6554 6.80307 14.2917 7.35407C14.9281 7.90508 15.3446 8.66691 15.465 9.50002H16.25C16.3813 9.50002 16.5114 9.52588 16.6327 9.57614C16.754 9.62639 16.8643 9.70005 16.9571 9.79291C17.05 9.88577 17.1236 9.99601 17.1739 10.1173C17.2242 10.2387 17.25 10.3687 17.25 10.5V16.5C17.25 16.7652 17.1447 17.0196 16.9571 17.2071C16.7696 17.3947 16.5152 17.5 16.25 17.5H7.75001C7.61869 17.5 7.48866 17.4742 7.36733 17.4239C7.246 17.3736 7.13577 17.3 7.04291 17.2071C6.95005 17.1143 6.87639 17.004 6.82613 16.8827C6.77588 16.7614 6.75001 16.6313 6.75001 16.5V10.5C6.75001 10.3687 6.77588 10.2387 6.82613 10.1173C6.87639 9.99601 6.95005 9.88577 7.04291 9.79291C7.13577 9.70005 7.246 9.62639 7.36733 9.57614C7.48866 9.52588 7.61869 9.50002 7.75001 9.50002H8.53501V9.50002ZM15.25 15.5V11.5H8.75001V15.5H15.25ZM12 8.50002C11.6897 8.49993 11.387 8.59604 11.1336 8.77514C10.8802 8.95423 10.6885 9.20748 10.585 9.50002H13.415C13.3115 9.20748 13.1199 8.95423 12.8664 8.77514C12.613 8.59604 12.3103 8.49993 12 8.50002V8.50002Z" fill="#1F2329"/>
</svg>
