<svg width="24" height="24" viewBox="0 0 24 24" fill="none" xmlns="http://www.w3.org/2000/svg">
<path d="M11 8.49993C11 8.22378 11.2239 7.99993 11.5 7.99993H12.5C12.7762 7.99993 13 8.22378 13 8.49993V10.9999H15.5C15.7762 10.9999 16 11.2238 16 11.4999V12.4999C16 12.7761 15.7762 12.9999 15.5 12.9999H13V15.4999C13 15.7761 12.7762 15.9999 12.5 15.9999H11.5C11.2239 15.9999 11 15.7761 11 15.4999V12.9999H8.50001C8.22387 12.9999 8.00001 12.7761 8.00001 12.4999V11.4999C8.00001 11.2238 8.22387 10.9999 8.50001 10.9999H11V8.49993Z" fill="#1F2329"/>
<path d="M3.33105 3.66737C3.33098 3.11503 3.77872 2.66724 4.33105 2.66724H19.6644C20.2166 2.66724 20.6643 3.11487 20.6644 3.66711L20.6665 20.333C20.6666 20.8853 20.2189 21.3331 19.6665 21.3331H4.33322C3.78098 21.3331 3.33329 20.8855 3.33322 20.3333L3.33105 3.66737ZM5.33092 4.66724L5.33335 19.3331H18.6667L18.6643 4.66724H5.33092Z" fill="#1F2329"/>
</svg>
