<svg width="24" height="24" viewBox="0 0 24 24" fill="none" xmlns="http://www.w3.org/2000/svg">
<path d="M4.8565 11.0003H16.5005C16.7766 11.0003 17.0005 11.2241 17.0005 11.5003V12.4998C17.0005 12.7759 16.7766 12.9998 16.5005 12.9998H4.8145L9.83859 18.0245C10.0338 18.2198 10.0338 18.5363 9.83866 18.7315L9.1318 19.4388C8.93656 19.6341 8.6199 19.6342 8.4246 19.4389L2.42125 13.4355L2.4145 13.443L1 12.0285L1.0075 12.021L1 12.0143L2.4145 10.5998L2.422 10.6073L8.42479 4.60376C8.62001 4.40851 8.93654 4.40846 9.13182 4.60364L9.83901 5.31045C10.0344 5.5057 10.0344 5.82235 9.8391 6.01765L4.8565 11.0003ZM21.5002 20.0003C21.2241 20.0003 21.0002 19.7764 21.0002 19.5003V4.49976C21.0002 4.22361 21.2241 3.99976 21.5002 3.99976H22.5005C22.7766 3.99976 23.0005 4.22361 23.0005 4.49976V19.5003C23.0005 19.7764 22.7766 20.0003 22.5005 20.0003H21.5002Z" fill="#1F2329"/>
</svg>
