<svg width="100" height="100" viewBox="0 0 100 100" fill="none" xmlns="http://www.w3.org/2000/svg">
<path fill-rule="evenodd" clip-rule="evenodd" d="M22.5377 31.9616C23.608 31.0903 24.9458 30.6145 26.3259 30.6145L88.3375 30.6145L75.3307 41.204H11.1855L22.5377 31.9616Z" fill="#B5BEC8"/>
<path d="M9.67285 44.4475C9.67285 42.2384 11.4637 40.4475 13.6729 40.4475H73.4789C74.5835 40.4475 75.4789 41.3429 75.4789 42.4475V85.613C75.4789 87.8221 73.6881 89.613 71.4789 89.613H13.6728C11.4637 89.613 9.67285 87.8221 9.67285 85.613V44.4475Z" fill="#E7EBED"/>
<path opacity="0.476586" fill-rule="evenodd" clip-rule="evenodd" d="M76.7036 39.2644L87.113 30.9523C87.7894 30.4122 88.3377 30.5327 88.3377 31.2213V77.9819C88.3377 78.6706 87.7894 79.6667 87.113 80.2068L76.7036 88.5189C76.0273 89.059 75.479 88.9385 75.479 88.2498V41.4892C75.479 40.8006 76.0273 39.8045 76.7036 39.2644Z" fill="#B5BEC8"/>
<path fill-rule="evenodd" clip-rule="evenodd" d="M87.3828 30.0223L75.0748 41.0795L80.2773 49.3612C81.563 51.4079 84.3562 51.8555 86.2171 50.313L92.738 44.9077C94.2926 43.6191 94.643 41.3739 93.5551 39.6729L87.3828 30.0223Z" fill="#E4E9F0"/>
<path fill-rule="evenodd" clip-rule="evenodd" d="M9.60277 41.0892C9.47477 41.2241 9.38472 41.3889 9.31538 41.5615L4.4352 53.7051C4.36587 53.8776 4.26671 54.0363 4.17237 54.1965C3.83689 54.7664 3.99826 55.1972 4.59409 55.1972L66.7464 55.1972C67.349 55.1972 68.1919 54.7566 68.7417 54.1773C68.8697 54.0424 68.9597 53.8776 69.0291 53.7051L73.9092 41.5615C73.9786 41.3889 74.0777 41.2302 74.1721 41.07C74.5076 40.5002 74.3462 40.0693 73.7504 40.0693L11.598 40.0693C10.9955 40.0693 10.1526 40.5099 9.60277 41.0892Z" fill="#F4F5F9"/>
<path d="M34.5908 9.70618L40.975 22.8236L40.2949 23.1546L33.9107 10.0372L34.5908 9.70618Z" fill="#050B3C"/>
<path d="M49.1124 10.0691L49.4161 20.4695L48.6601 20.4916L48.3563 10.0912L49.1124 10.0691Z" fill="#050B3C"/>
<path d="M61.2661 15.4309L57.215 22.9196L56.5497 22.5597L60.6008 15.071L61.2661 15.4309Z" fill="#050B3C"/>
</svg>
