<svg width="24" height="24" viewBox="0 0 24 24" fill="none" xmlns="http://www.w3.org/2000/svg">
<path d="M7.08563 7.71428C6.97517 7.71428 6.88563 7.80382 6.88563 7.91428V10.9429C6.88563 11.0533 6.97517 11.1428 7.08563 11.1428H10.1142C10.2247 11.1428 10.3142 11.0533 10.3142 10.9429V7.91428C10.3142 7.80382 10.2247 7.71428 10.1142 7.71428H7.08563Z" fill="#2B2F36"/>
<path d="M17.5178 10.7685C17.5178 10.5904 17.3023 10.5011 17.1763 10.6271L12.078 15.7255L10.5021 14.1497C10.424 14.0716 10.2974 14.0716 10.2193 14.1497L5.85341 18.5156C5.72742 18.6416 5.81665 18.857 5.99483 18.857H9.42152L9.42918 18.8571H17.3178C17.4282 18.8571 17.5178 18.7676 17.5178 18.6571V10.7685Z" fill="#2B2F36"/>
<path d="M17.6736 0H3.45724C2.98385 0 2.6001 0.383756 2.6001 0.857143V23.1429C2.6001 23.6162 2.98385 24 3.45724 24H20.6001C21.0735 24 21.4572 23.6162 21.4572 23.1429V3.78361C21.4572 3.55628 21.3669 3.33827 21.2062 3.17752L18.2797 0.251051C18.119 0.0903059 17.901 0 17.6736 0ZM19.4001 21.943H4.65721V2.05728H16.3144V4.84286C16.3144 5.00854 16.4487 5.14286 16.6144 5.14286H19.4001V21.943Z" fill="#2B2F36"/>
</svg>
