<svg width="24" height="24" viewBox="0 0 24 24" fill="none" xmlns="http://www.w3.org/2000/svg">
<path d="M12.2686 2.67094L22.3373 9.07829C22.6461 9.27477 22.6461 9.72547 22.3373 9.92195L12.2686 16.3293C12.1049 16.4335 11.8955 16.4335 11.7318 16.3293L1.66308 9.92195C1.35433 9.72547 1.35433 9.27477 1.66308 9.07829L11.7318 2.67094C11.8955 2.56672 12.1049 2.56672 12.2686 2.67094ZM4.72546 9.50012L12.0002 14.1295L19.2749 9.50012L12.0002 4.87074L4.72546 9.50012Z" fill="#1F2329"/>
<path d="M2.59664 13.8862C2.36123 13.7419 2.05337 13.8157 1.90903 14.0511L1.38632 14.9036C1.24197 15.1391 1.3158 15.4469 1.55121 15.5912L10.7064 21.2047C11.3487 21.5986 12.1516 21.5986 12.794 21.2047L21.9491 15.5912C22.1846 15.4469 22.2584 15.1391 22.114 14.9036L21.5913 14.0511C21.447 13.8157 21.1391 13.7419 20.9037 13.8862L11.8809 19.4186C11.8007 19.4677 11.6997 19.4677 11.6195 19.4186L2.59664 13.8862Z" fill="#1F2329"/>
</svg>
