<svg width="24" height="24" viewBox="0 0 24 24" fill="none" xmlns="http://www.w3.org/2000/svg">
<path d="M12.65 10.6423H3.36753V3.12289C3.36753 2.87097 3.15604 2.66675 2.89514 2.66675H1.80588C1.54499 2.66675 1.3335 2.87097 1.3335 3.12289V20.8605C1.3335 21.1124 1.54499 21.3166 1.80588 21.3166H2.89514C3.15604 21.3166 3.36753 21.1124 3.36753 20.8605V12.6431H12.65V20.8605C12.65 21.1124 12.8615 21.3166 13.1223 21.3166H14.219C14.4798 21.3166 14.6913 21.1124 14.6913 20.8605V3.12289C14.6913 2.87097 14.4798 2.66675 14.219 2.66675H13.1223C12.8615 2.66675 12.65 2.87097 12.65 3.12289V10.6423ZM23.9971 17.651C23.9971 17.1407 23.8891 16.6537 23.6738 16.1898C23.4791 15.7909 23.1862 15.4436 22.7962 15.1462C23.1731 14.8493 23.446 14.5157 23.6124 14.145C23.7816 13.7057 23.8643 13.2595 23.8643 12.7975C23.8532 11.8813 23.5376 11.084 22.921 10.4122C22.2712 9.71806 21.3959 9.36625 20.3069 9.35531C19.4333 9.36638 18.6812 9.67837 18.056 10.287C17.4765 10.8464 17.1365 11.7112 17.0158 12.5372C17.0048 12.6129 17.0158 12.7631 17.2342 12.7631H18.7178C18.917 12.7631 18.9645 12.6212 18.9923 12.5382C18.994 12.5332 18.9956 12.5284 18.9971 12.5238C19.1168 12.1761 19.3214 11.8419 19.5334 11.6847C19.7891 11.4848 20.0636 11.3881 20.3674 11.3881C20.7988 11.3974 21.1462 11.5323 21.4159 11.7929C21.6833 12.0603 21.8222 12.4041 21.8315 12.8331C21.8314 13.25 21.6986 13.5831 21.4316 13.8411C21.1622 14.1105 20.7811 14.2459 20.2736 14.2459H20.1111C19.8902 14.2459 19.7111 14.425 19.7111 14.6459V15.6912C19.7111 15.9121 19.8902 16.0912 20.1111 16.0912H20.3986C20.8546 16.0912 21.2221 16.2268 21.5119 16.4982C21.8026 16.7752 21.9548 17.1719 21.9643 17.6995C21.9548 18.2084 21.8035 18.5937 21.5131 18.8614C21.2169 19.1573 20.8643 19.3006 20.4377 19.3006C20.0369 19.3006 19.7255 19.1946 19.4937 18.985C19.2891 18.8045 19.0948 18.4852 18.9582 18.1788C18.9157 18.0834 18.8782 18.0115 18.6891 18.0115H17.1621C16.9851 18.0115 16.9597 18.0297 16.9014 18.1865C16.8432 18.3433 17.5254 19.9613 18.1623 20.493C18.7972 21.0229 19.5132 21.3334 20.3361 21.3334C21.3937 21.3225 22.2664 20.9828 22.9451 20.3151C23.6349 19.664 23.9861 18.7706 23.9971 17.651Z" fill="#1F2329"/>
</svg>
