<svg width="24" height="24" viewBox="0 0 24 24" fill="none" xmlns="http://www.w3.org/2000/svg">
<path d="M18.874 6.99951C18.4299 8.72474 16.8638 9.99951 15 9.99951C13.1362 9.99951 11.5701 8.72474 11.126 6.99951H2.64097C2.41809 6.99951 2.33727 6.97631 2.25579 6.93273C2.17431 6.88915 2.11036 6.8252 2.06678 6.74372C2.02321 6.66224 2 6.58142 2 6.35854V5.64048C2 5.4176 2.02321 5.33678 2.06678 5.2553C2.11036 5.17382 2.17431 5.10987 2.25579 5.06629C2.33727 5.02272 2.41809 4.99951 2.64097 4.99951H11.126C11.5701 3.27428 13.1362 1.99951 15 1.99951C16.8638 1.99951 18.4299 3.27428 18.874 4.99951H21.359C21.5819 4.99951 21.6627 5.02272 21.7442 5.06629C21.8257 5.10987 21.8896 5.17382 21.9332 5.2553C21.9768 5.33678 22 5.4176 22 5.64048V6.35854C22 6.58142 21.9768 6.66224 21.9332 6.74372C21.8896 6.8252 21.8257 6.88915 21.7442 6.93273C21.6627 6.97631 21.5819 6.99951 21.359 6.99951H18.874ZM15 7.99951C16.1046 7.99951 17 7.10408 17 5.99951C17 4.89494 16.1046 3.99951 15 3.99951C13.8954 3.99951 13 4.89494 13 5.99951C13 7.10408 13.8954 7.99951 15 7.99951Z" fill="#1F2329"/>
<path d="M12.874 18.9995C12.4299 20.7247 10.8638 21.9995 9 21.9995C7.13616 21.9995 5.57006 20.7247 5.12602 18.9995H2.64097C2.41809 18.9995 2.33727 18.9763 2.25579 18.9327C2.17431 18.8892 2.11036 18.8252 2.06678 18.7437C2.02321 18.6622 2 18.5814 2 18.3585V17.6405C2 17.4176 2.02321 17.3368 2.06678 17.2553C2.11036 17.1738 2.17431 17.1099 2.25579 17.0663C2.33727 17.0227 2.41809 16.9995 2.64097 16.9995H5.12602C5.57006 15.2743 7.13616 13.9995 9 13.9995C10.8638 13.9995 12.4299 15.2743 12.874 16.9995H21.359C21.5819 16.9995 21.6627 17.0227 21.7442 17.0663C21.8257 17.1099 21.8896 17.1738 21.9332 17.2553C21.9768 17.3368 22 17.4176 22 17.6405V18.3585C22 18.5814 21.9768 18.6622 21.9332 18.7437C21.8896 18.8252 21.8257 18.8892 21.7442 18.9327C21.6627 18.9763 21.5819 18.9995 21.359 18.9995H12.874ZM9 19.9995C10.1046 19.9995 11 19.1041 11 17.9995C11 16.8949 10.1046 15.9995 9 15.9995C7.89543 15.9995 7 16.8949 7 17.9995C7 19.1041 7.89543 19.9995 9 19.9995Z" fill="#1F2329"/>
</svg>
