<svg width="24" height="24" viewBox="0 0 24 24" fill="none" xmlns="http://www.w3.org/2000/svg">
<path d="M6.95091 15.6162H5.9375L5.95573 15.8832C5.98553 16.3197 6.18734 16.6871 6.52018 16.9407C6.84888 17.1911 7.29057 17.3203 7.79304 17.3203C8.30672 17.3203 8.75785 17.1876 9.08589 16.9223C9.41954 16.6524 9.60456 16.2616 9.60456 15.7988C9.60456 15.4454 9.49851 15.1372 9.24184 14.8943C8.9962 14.6619 8.63646 14.5127 8.17752 14.412L7.70866 14.3095C7.43859 14.2505 7.28623 14.1743 7.20394 14.1009C7.13293 14.0376 7.10261 13.967 7.10261 13.8652C7.10261 13.7396 7.15774 13.6403 7.26623 13.5638C7.38141 13.4826 7.56075 13.4268 7.78718 13.4268C8.02098 13.4268 8.19229 13.487 8.3049 13.5743C8.41393 13.6588 8.48537 13.7817 8.50232 13.949L8.52509 14.1738H9.53669L9.52826 13.9157C9.49929 13.0284 8.7429 12.4521 7.80183 12.4521C7.31908 12.4521 6.88805 12.5869 6.57209 12.8383C6.25237 13.0926 6.06062 13.4598 6.06062 13.8887C6.06062 14.2452 6.17192 14.5593 6.42428 14.8074C6.66871 15.0478 7.02352 15.2045 7.47026 15.3019L7.93869 15.4044C8.21301 15.4647 8.36925 15.5429 8.45462 15.62C8.52884 15.687 8.56257 15.7642 8.56257 15.8779C8.56257 15.9938 8.50735 16.1025 8.38604 16.1904C8.26129 16.2809 8.06809 16.3457 7.82234 16.3457C7.27863 16.3457 7.01776 16.1096 6.98023 15.8326L6.95091 15.6162Z" fill="#1F2329"/>
<path fill-rule="evenodd" clip-rule="evenodd" d="M14.4552 14.8877C14.4552 15.6591 14.2217 16.3093 13.7749 16.746L14.4877 17.7275H13.2781L12.9183 17.2335C12.7115 17.292 12.4905 17.3203 12.2569 17.3203C11.596 17.3203 11.0376 17.0864 10.6469 16.6486C10.2591 16.2141 10.0587 15.6038 10.0587 14.8877C10.0587 14.1716 10.2591 13.5607 10.6468 13.1255C11.0373 12.687 11.5958 12.4521 12.2569 12.4521C12.918 12.4521 13.4765 12.687 13.8671 13.1255C14.2547 13.5607 14.4552 14.1716 14.4552 14.8877ZM11.6874 15.54L12.2637 16.334L12.2569 16.334C11.8934 16.334 11.6146 16.1987 11.4222 15.9664C11.2255 15.7288 11.1007 15.3667 11.1007 14.8877C11.1007 14.4071 11.2256 14.0442 11.4223 13.8063C11.6147 13.5737 11.8934 13.4385 12.2569 13.4385C12.6204 13.4385 12.8991 13.5737 13.0915 13.8063C13.2882 14.0442 13.4132 14.4071 13.4132 14.8877C13.4132 15.3172 13.3132 15.6522 13.1511 15.8879L12.8964 15.54H11.6874Z" fill="#1F2329"/>
<path d="M18.1778 17.25V16.2754H16.1387V12.5225H15.1114V17.25H18.1778Z" fill="#1F2329"/>
<path fill-rule="evenodd" clip-rule="evenodd" d="M3.45675 1H17.6731C17.9005 1 18.1185 1.09031 18.2792 1.25105L21.2057 4.17752C21.3664 4.33827 21.4567 4.55628 21.4567 4.78361V22.1429C21.4567 22.6162 21.073 23 20.5996 23H3.45675C2.98336 23 2.59961 22.6162 2.59961 22.1429V1.85714C2.59961 1.38376 2.98336 1 3.45675 1ZM4.65671 20.943H19.3996V6.14286H16.6139C16.4482 6.14286 16.3139 6.00854 16.3139 5.84286V3.05728H4.65671V20.943Z" fill="#1F2329"/>
</svg>
