<svg width="24" height="24" viewBox="0 0 24 24" fill="none" xmlns="http://www.w3.org/2000/svg">
<path fill-rule="evenodd" clip-rule="evenodd" d="M16.5 17H21.359C21.5819 17 21.6627 17.0232 21.7442 17.0668C21.8257 17.1104 21.8896 17.1743 21.9332 17.2558C21.9768 17.3373 22 17.4181 22 17.641V18.359C22 18.5819 21.9768 18.6627 21.9332 18.7442C21.8896 18.8257 21.8257 18.8896 21.7442 18.9332C21.6627 18.9768 21.5819 19 21.359 19H16.5V21.359C16.5 21.5819 16.4768 21.6627 16.4332 21.7442C16.3896 21.8257 16.3257 21.8896 16.2442 21.9332C16.1627 21.9768 16.0819 22 15.859 22H15.141C14.9181 22 14.8373 21.9768 14.7558 21.9332C14.6743 21.8896 14.6104 21.8257 14.5668 21.7442C14.5232 21.6627 14.5 21.5819 14.5 21.359V19H2.64097C2.41809 19 2.33727 18.9768 2.25579 18.9332C2.17431 18.8896 2.11036 18.8257 2.06678 18.7442C2.02321 18.6627 2 18.5819 2 18.359V17.641C2 17.4181 2.02321 17.3373 2.06678 17.2558C2.11036 17.1743 2.17431 17.1104 2.25579 17.0668C2.33727 17.0232 2.41809 17 2.64097 17H14.5V14.641C14.5 14.4181 14.5232 14.3373 14.5668 14.2558C14.6104 14.1743 14.6743 14.1104 14.7558 14.0668C14.8373 14.0232 14.9181 14 15.141 14H15.859C16.0819 14 16.1627 14.0232 16.2442 14.0668C16.3257 14.1104 16.3896 14.1743 16.4332 14.2558C16.4768 14.3373 16.5 14.4181 16.5 14.641V17ZM7.5 5V2.64097C7.5 2.41809 7.52321 2.33727 7.56678 2.25579C7.61036 2.17431 7.67431 2.11036 7.75579 2.06678C7.83727 2.02321 7.91809 2 8.14097 2H8.85903C9.08191 2 9.16273 2.02321 9.24421 2.06678C9.32569 2.11036 9.38964 2.17431 9.43322 2.25579C9.47679 2.33727 9.5 2.41809 9.5 2.64097V5H21.359C21.5819 5 21.6627 5.02321 21.7442 5.06678C21.8257 5.11036 21.8896 5.17431 21.9332 5.25579C21.9768 5.33727 22 5.41809 22 5.64097V6.35903C22 6.58191 21.9768 6.66273 21.9332 6.74421C21.8896 6.82569 21.8257 6.88964 21.7442 6.93322C21.6627 6.97679 21.5819 7 21.359 7H9.5V9.35903C9.5 9.58191 9.47679 9.66273 9.43322 9.74421C9.38964 9.82569 9.32569 9.88964 9.24421 9.93322C9.16273 9.97679 9.08191 10 8.85903 10H8.14097C7.91809 10 7.83727 9.97679 7.75579 9.93322C7.67431 9.88964 7.61036 9.82569 7.56678 9.74421C7.52321 9.66273 7.5 9.58191 7.5 9.35903V7H2.64097C2.41809 7 2.33727 6.97679 2.25579 6.93322C2.17431 6.88964 2.11036 6.82569 2.06678 6.74421C2.02321 6.66273 2 6.58191 2 6.35903V5.64097C2 5.41809 2.02321 5.33727 2.06678 5.25579C2.11036 5.17431 2.17431 5.11036 2.25579 5.06678C2.33727 5.02321 2.41809 5 2.64097 5H7.5Z" fill="#1F2329"/>
</svg>
