<svg width="24" height="24" viewBox="0 0 24 24" fill="none" xmlns="http://www.w3.org/2000/svg">
<path d="M8 4V3C8 2.44772 8.44772 2 9 2H15C15.5523 2 16 2.44772 16 3V4H21.359C21.5819 4 21.6627 4.02321 21.7442 4.06678C21.8257 4.11036 21.8896 4.17431 21.9332 4.25579C21.9768 4.33727 22 4.41809 22 4.64097V5.35903C22 5.58191 21.9768 5.66273 21.9332 5.74421C21.8896 5.82569 21.8257 5.88964 21.7442 5.93322C21.6627 5.97679 21.5819 6 21.359 6H20V21C20 21.5523 19.5523 22 19 22H5C4.44772 22 4 21.5523 4 21V6H2.64097C2.41809 6 2.33727 5.97679 2.25579 5.93322C2.17431 5.88964 2.11036 5.82569 2.06678 5.74421C2.02321 5.66273 2 5.58191 2 5.35903V4.64097C2 4.41809 2.02321 4.33727 2.06678 4.25579C2.11036 4.17431 2.17431 4.11036 2.25579 4.06678C2.33727 4.02321 2.41809 4 2.64097 4H8ZM6 6V20H18V6H6ZM9.5 8H10.5C10.7761 8 11 8.22386 11 8.5V17.5C11 17.7761 10.7761 18 10.5 18H9.5C9.22386 18 9 17.7761 9 17.5V8.5C9 8.22386 9.22386 8 9.5 8ZM13.5 8H14.5C14.7761 8 15 8.22386 15 8.5V17.5C15 17.7761 14.7761 18 14.5 18H13.5C13.2239 18 13 17.7761 13 17.5V8.5C13 8.22386 13.2239 8 13.5 8Z" fill="#1F2329"/>
</svg>
