<svg width="24" height="24" viewBox="0 0 24 24" fill="none" xmlns="http://www.w3.org/2000/svg">
<path d="M12.4244 10.4756H3.14194V2.95614C3.14194 2.70422 2.93045 2.5 2.66956 2.5H1.5803C1.31941 2.5 1.10791 2.70422 1.10791 2.95614V20.6937C1.10791 20.9456 1.31941 21.1499 1.5803 21.1499H2.66956C2.93045 21.1499 3.14194 20.9456 3.14194 20.6937V12.4763H12.4244V20.6937C12.4244 20.9456 12.6359 21.1499 12.8968 21.1499H13.9934C14.2543 21.1499 14.4658 20.9456 14.4658 20.6937V2.95614C14.4658 2.70422 14.2543 2.5 13.9934 2.5H12.8968C12.6359 2.5 12.4244 2.70422 12.4244 2.95614V10.4756ZM23.7758 19.4182C23.7758 19.1973 23.5967 19.0182 23.3758 19.0182H19.8639L23.269 14.7492C23.756 14.1294 24.0001 13.4192 24.0001 12.6245C23.9891 11.633 23.6533 10.8088 22.995 10.1615C22.349 9.51003 21.5042 9.17763 20.4741 9.16667C19.5425 9.17771 18.7552 9.50596 18.119 10.1477C17.4883 10.806 17.1518 11.6362 17.1081 12.6313C17.1081 12.7466 17.2016 12.8401 17.3169 12.8401H18.9536C19.052 12.8401 19.1317 12.7603 19.1317 12.662C19.184 12.1862 19.3462 11.8271 19.6162 11.5754C19.8774 11.3235 20.1997 11.1995 20.597 11.1995C21.0442 11.2087 21.381 11.3502 21.6179 11.6228C21.8507 11.9014 21.9673 12.2283 21.9673 12.6088C21.9673 12.7547 21.9483 12.9117 21.9098 13.0799C21.8597 13.2317 21.7535 13.4206 21.5946 13.6277L17.1955 19.1305C17.1388 19.2014 17.1079 19.2895 17.1079 19.3803V20.651C17.1079 20.8719 17.287 21.051 17.5079 21.051H23.3758C23.5967 21.051 23.7758 20.8719 23.7758 20.651V19.4182Z" fill="#1F2329"/>
</svg>
