<svg width="24" height="24" viewBox="0 0 24 24" fill="none" xmlns="http://www.w3.org/2000/svg">
<path fill-rule="evenodd" clip-rule="evenodd" d="M4.32881 19.7335L4.01769 19.3947C2.92844 18.2082 2.11122 16.7931 1.63213 15.2477L1.49707 14.812L3.54513 11.9999L1.49707 9.18782L1.63213 8.75214C2.11122 7.2067 2.92844 5.7916 4.01769 4.60516L4.32881 4.26627L7.77063 4.64247L9.16859 1.45563L9.61685 1.35472C10.3936 1.17984 11.1916 1.09082 12.0005 1.09082C12.8093 1.09082 13.6073 1.17984 14.3841 1.35472L14.8323 1.45563L16.2303 4.64247L19.6721 4.26627L19.9832 4.60516C21.0725 5.7916 21.8897 7.2067 22.3688 8.75214L22.5038 9.18782L20.4558 11.9999L22.5038 14.812L22.3688 15.2477C21.8897 16.7931 21.0725 18.2082 19.9832 19.3947L19.6721 19.7335L16.2303 19.3574L14.8323 22.5442L14.3841 22.6451C13.6073 22.82 12.8093 22.909 12.0005 22.909C11.1916 22.909 10.3936 22.82 9.61685 22.6451L9.16859 22.5442L7.77063 19.3574L4.32881 19.7335ZM7.8139 17.5236C8.46003 17.4529 9.07723 17.8098 9.33833 18.405L10.4588 20.9592C10.9641 21.0465 11.4792 21.0908 12.0005 21.0908C12.5217 21.0908 13.0368 21.0465 13.5421 20.9592L14.6626 18.405C14.9237 17.8098 15.5409 17.4529 16.187 17.5236L18.9412 17.8246C19.6064 17.0239 20.1309 16.1142 20.4889 15.1337L18.8445 12.8759C18.4643 12.3538 18.4643 11.6459 18.8445 11.1238L20.4889 8.86597C20.1309 7.88556 19.6064 6.97578 18.9412 6.17511L16.187 6.47615C15.5409 6.54677 14.9237 6.18988 14.6626 5.59466L13.5421 3.04048C13.0368 2.95321 12.5217 2.90895 12.0005 2.90895C11.4792 2.90895 10.9641 2.95321 10.4588 3.04048L9.33833 5.59466C9.07723 6.18988 8.46003 6.54677 7.8139 6.47615L5.05969 6.17511C4.39449 6.97578 3.87002 7.88556 3.51199 8.86597L5.15637 11.1238C5.53664 11.6459 5.53664 12.3538 5.15637 12.8759L3.51199 15.1337C3.87002 16.1142 4.39449 17.0239 5.05969 17.8246L7.8139 17.5236ZM12.0005 16.5454C9.49866 16.5454 7.47232 14.5093 7.47232 11.9999C7.47232 9.49048 9.49866 7.45445 12.0005 7.45445C14.5023 7.45445 16.5286 9.49048 16.5286 11.9999C16.5286 14.5093 14.5023 16.5454 12.0005 16.5454ZM12.0005 14.7272C13.4961 14.7272 14.7104 13.5072 14.7104 12C14.7104 10.4928 13.4961 9.27269 12.0005 9.27269C10.5048 9.27269 9.2905 10.4928 9.2905 12C9.2905 13.5072 10.5048 14.7272 12.0005 14.7272Z" fill="#1F2329"/>
</svg>
