<svg width="24" height="24" viewBox="0 0 24 24" fill="none" xmlns="http://www.w3.org/2000/svg">
<path d="M22.4001 12C22.4001 17.5228 17.9229 22 12.4001 22C9.22031 22 6.3872 20.5159 4.55559 18.2026L6.14465 16.9875C7.61052 18.8236 9.8679 20 12.4001 20C16.8183 20 20.4001 16.4183 20.4001 12C20.4001 7.58172 16.8183 4 12.4001 4C8.43606 4 5.14543 6.88305 4.51066 10.6667H5.21628C5.64225 10.6667 5.89632 11.1414 5.66004 11.4958L3.98991 14.001C3.77881 14.3177 3.3135 14.3177 3.10239 14.001L1.43227 11.4958C1.19598 11.1414 1.45006 10.6667 1.87603 10.6667H2.48817C3.14002 5.77419 7.32928 2 12.4001 2C17.9229 2 22.4001 6.47715 22.4001 12Z" fill="#1F2329"/>
<path d="M13.0001 11.6667V8.53333C13.0001 8.23878 12.7613 8 12.4667 8H11.5334C11.2388 8 11.0001 8.23878 11.0001 8.53333V13.1333C11.0001 13.4279 11.2388 13.6667 11.5334 13.6667H15.8001C16.0946 13.6667 16.3334 13.4279 16.3334 13.1333V12.2C16.3334 11.9054 16.0946 11.6667 15.8001 11.6667H13.0001Z" fill="#1F2329"/>
</svg>
