<svg width="24" height="24" viewBox="0 0 24 24" fill="none" xmlns="http://www.w3.org/2000/svg">
<path d="M5.3095 21.4559C5.51621 21.763 5.99559 21.6167 5.99559 21.2465V2.8501C5.99559 2.64299 5.82769 2.4751 5.62059 2.4751H4.37059C4.16348 2.4751 3.99559 2.64299 3.99559 2.8501V15.4751H1.43487C1.25147 15.4751 1.14512 15.6827 1.25228 15.8316L5.22721 21.3524C5.24356 21.3751 5.2614 21.3952 5.28042 21.4127L5.3095 21.4559Z" fill="#1F2329"/>
<path d="M8.38418 16.6836C8.17708 16.6836 8.00918 16.8514 8.00918 17.0586V18.3086C8.00918 18.5157 8.17708 18.6835 8.38418 18.6835H15.6342C15.8413 18.6835 16.0092 18.5157 16.0092 18.3086V17.0586C16.0092 16.8514 15.8413 16.6836 15.6342 16.6836H8.38418Z" fill="#1F2329"/>
<path d="M8.00918 10.722C8.00918 10.5149 8.17708 10.347 8.38418 10.347H18.6342C18.8413 10.347 19.0092 10.5149 19.0092 10.722V11.972C19.0092 12.1791 18.8413 12.347 18.6342 12.347H8.38418C8.17708 12.347 8.00918 12.1791 8.00918 11.972V10.722Z" fill="#1F2329"/>
<path d="M8.38418 4.01688C8.17708 4.01688 8.00918 4.18478 8.00918 4.39188V5.64188C8.00918 5.84899 8.17708 6.01688 8.38418 6.01688H21.6342C21.8413 6.01688 22.0092 5.84899 22.0092 5.64188V4.39188C22.0092 4.18478 21.8413 4.01688 21.6342 4.01688H8.38418Z" fill="#1F2329"/>
</svg>
