<svg width="24" height="24" viewBox="0 0 24 24" fill="none" xmlns="http://www.w3.org/2000/svg">
<path d="M8.58249 13.9163C8.77775 13.721 9.09434 13.721 9.2896 13.9163L9.9967 14.6234C10.192 14.8186 10.192 15.1352 9.9967 15.3305L5.99537 19.3305H8.83978C9.11593 19.3305 9.33978 19.5543 9.33978 19.8305V20.8305C9.33978 21.1066 9.11593 21.3305 8.83978 21.3305H3.66699C3.39085 21.3305 3.14085 21.2186 2.95989 21.0376C2.77892 20.8566 2.66699 20.6066 2.66699 20.3305V15.1707C2.66699 14.8946 2.89085 14.6707 3.16699 14.6707H4.16699C4.44313 14.6707 4.66699 14.8946 4.66699 15.1707V17.8304L8.58249 13.9163ZM20.3243 2.66675C20.6005 2.66675 20.8505 2.77868 21.0315 2.95964C21.2124 3.14061 21.3243 3.39061 21.3243 3.66675V8.82652C21.3243 9.10266 21.1005 9.32652 20.8243 9.32652H19.8243C19.5482 9.32652 19.3243 9.10266 19.3243 8.82652V6.1668L15.4088 10.081C15.2136 10.2762 14.897 10.2762 14.7017 10.081L13.9946 9.37385C13.7994 9.17859 13.7994 8.86201 13.9946 8.66675L17.996 4.66675H15.1516C14.8754 4.66675 14.6516 4.44289 14.6516 4.16675V3.16675C14.6516 2.89061 14.8754 2.66675 15.1516 2.66675H20.3243Z" fill="#1F2329"/>
</svg>
