<svg width="24" height="24" viewBox="0 0 24 24" fill="none" xmlns="http://www.w3.org/2000/svg">
<g clip-path="url(#clip0_94_9263)">
<path d="M1 4C1 1.79086 2.79086 0 5 0H19C21.2091 0 23 1.79086 23 4V20C23 22.2091 21.2091 24 19 24H5C2.79086 24 1 22.2091 1 20V4Z" fill="#3370FF"/>
<path fill-rule="evenodd" clip-rule="evenodd" d="M17.8332 15.5001C17.8332 15.997 17.5305 16.3777 17.1983 16.6394C16.8596 16.9064 16.4056 17.1212 15.8966 17.2909C14.8725 17.6323 13.4948 17.8334 11.9998 17.8334C10.5048 17.8334 9.12716 17.6323 8.10306 17.2909C7.59406 17.1212 7.14007 16.9064 6.80134 16.6394C6.46919 16.3777 6.1665 15.997 6.1665 15.5001V8.50008C6.1665 8.00311 6.46919 7.62251 6.80134 7.36075C7.14007 7.0938 7.59406 6.87891 8.10306 6.70925C9.12716 6.36788 10.5048 6.16675 11.9998 6.16675C13.4948 6.16675 14.8725 6.36788 15.8966 6.70925C16.4056 6.87891 16.8596 7.0938 17.1983 7.36075C17.5305 7.62251 17.8332 8.00311 17.8332 8.50008V15.5001ZM7.33317 8.50004C7.33317 8.49953 7.33316 8.49704 7.33495 8.49116C7.33693 8.48466 7.34182 8.47182 7.35363 8.45258C7.37839 8.41225 7.42888 8.35161 7.52348 8.27706C7.71608 8.12527 8.03093 7.96306 8.47199 7.81604C9.34802 7.52403 10.5953 7.33341 11.9998 7.33341C13.4043 7.33341 14.6517 7.52403 15.5277 7.81604C15.9687 7.96306 16.2836 8.12527 16.4762 8.27706C16.5708 8.35161 16.6213 8.41225 16.646 8.45258C16.6579 8.47182 16.6627 8.48466 16.6647 8.49116C16.6665 8.49704 16.6665 8.49952 16.6665 8.50004C16.6665 8.50007 16.6665 8.50001 16.6665 8.50004C16.6665 8.50073 16.6664 8.50341 16.6647 8.509C16.6627 8.5155 16.6579 8.52834 16.646 8.54758C16.6213 8.58792 16.5708 8.64856 16.4762 8.7231C16.2836 8.87489 15.9687 9.0371 15.5277 9.18412C14.6517 9.47613 13.4043 9.66675 11.9998 9.66675C10.5953 9.66675 9.34802 9.47613 8.47199 9.18412C8.03093 9.0371 7.71608 8.87489 7.52348 8.7231C7.42888 8.64856 7.37839 8.58792 7.35363 8.54758C7.34182 8.52834 7.33693 8.5155 7.33495 8.509C7.33326 8.50346 7.33317 8.50075 7.33317 8.50004ZM16.6665 9.97393C16.4325 10.0936 16.1726 10.1989 15.8966 10.2909C14.8725 10.6323 13.4948 10.8334 11.9998 10.8334C10.5048 10.8334 9.12716 10.6323 8.10306 10.2909C7.82705 10.1989 7.56722 10.0936 7.33317 9.97393V12.0001C7.33317 12.0008 7.33326 12.0035 7.33495 12.009C7.33693 12.0155 7.34182 12.0283 7.35363 12.0476C7.37839 12.0879 7.42888 12.1486 7.52348 12.2231C7.71608 12.3749 8.03093 12.5371 8.47199 12.6841C9.34802 12.9761 10.5953 13.1667 11.9998 13.1667C13.4043 13.1667 14.6517 12.9761 15.5277 12.6841C15.9687 12.5371 16.2836 12.3749 16.4762 12.2231C16.5708 12.1486 16.6213 12.0879 16.646 12.0476C16.6579 12.0283 16.6627 12.0155 16.6647 12.009C16.6664 12.0034 16.6665 12.0009 16.6665 12.0002C16.6665 12.0002 16.6665 12.0002 16.6665 12.0002V9.97393ZM16.6665 13.4739C16.4325 13.5936 16.1726 13.6989 15.8966 13.7909C14.8725 14.1323 13.4948 14.3334 11.9998 14.3334C10.5048 14.3334 9.12716 14.1323 8.10306 13.7909C7.82705 13.6989 7.56722 13.5936 7.33317 13.4739V15.5001C7.33317 15.5006 7.33316 15.5031 7.33495 15.509C7.33693 15.5155 7.34182 15.5283 7.35363 15.5476C7.37839 15.5879 7.42888 15.6486 7.52348 15.7231C7.71608 15.8749 8.03093 16.0371 8.47199 16.1841C9.34802 16.4761 10.5953 16.6667 11.9998 16.6667C13.4043 16.6667 14.6517 16.4761 15.5277 16.1841C15.9687 16.0371 16.2836 15.8749 16.4762 15.7231C16.5708 15.6486 16.6213 15.5879 16.646 15.5476C16.6579 15.5283 16.6627 15.5155 16.6647 15.509C16.6665 15.5031 16.6665 15.5006 16.6665 15.5001V13.4739Z" fill="white"/>
</g>
<defs>
<clipPath id="clip0_94_9263">
<rect width="24" height="24" fill="white"/>
</clipPath>
</defs>
</svg>
