<svg width="100" height="100" viewBox="0 0 100 100" fill="none" xmlns="http://www.w3.org/2000/svg">
<path fill-rule="evenodd" clip-rule="evenodd" d="M11.9999 15.2H88.7999C89.6836 15.2 90.3999 15.9163 90.3999 16.8V83.1238C90.3999 84.0074 89.6836 84.7238 88.7999 84.7238H11.9999C11.1162 84.7238 10.3999 84.0074 10.3999 83.1238V16.8C10.3999 15.9163 11.1162 15.2 11.9999 15.2Z" fill="#D6DAE1"/>
<mask id="mask0_437_31443" style="mask-type:alpha" maskUnits="userSpaceOnUse" x="10" y="15" width="81" height="70">
<path fill-rule="evenodd" clip-rule="evenodd" d="M11.9999 15.2H88.7999C89.6836 15.2 90.3999 15.9163 90.3999 16.8V83.1238C90.3999 84.0074 89.6836 84.7238 88.7999 84.7238H11.9999C11.1162 84.7238 10.3999 84.0074 10.3999 83.1238V16.8C10.3999 15.9163 11.1162 15.2 11.9999 15.2Z" fill="white"/>
</mask>
<g mask="url(#mask0_437_31443)">
<path fill-rule="evenodd" clip-rule="evenodd" d="M7.54297 9.48572H92.3049V26.6286H7.54297V9.48572Z" fill="#B5BEC8"/>
</g>
<path fill-rule="evenodd" clip-rule="evenodd" d="M17.0669 22.819C18.1188 22.819 18.9716 21.9663 18.9716 20.9143C18.9716 19.8623 18.1188 19.0095 17.0669 19.0095C16.0149 19.0095 15.1621 19.8623 15.1621 20.9143C15.1621 21.9663 16.0149 22.819 17.0669 22.819Z" fill="white"/>
<path fill-rule="evenodd" clip-rule="evenodd" d="M22.7812 22.819C23.8332 22.819 24.686 21.9663 24.686 20.9143C24.686 19.8623 23.8332 19.0095 22.7812 19.0095C21.7293 19.0095 20.8765 19.8623 20.8765 20.9143C20.8765 21.9663 21.7293 22.819 22.7812 22.819Z" fill="white"/>
<path fill-rule="evenodd" clip-rule="evenodd" d="M28.4956 22.819C29.5476 22.819 30.4003 21.9663 30.4003 20.9143C30.4003 19.8623 29.5476 19.0095 28.4956 19.0095C27.4436 19.0095 26.5908 19.8623 26.5908 20.9143C26.5908 21.9663 27.4436 22.819 28.4956 22.819Z" fill="white"/>
<path fill-rule="evenodd" clip-rule="evenodd" d="M45.6383 33.2952H20.5717C19.688 33.2952 18.9717 34.0115 18.9717 34.8952V74.5523C18.9717 75.436 19.688 76.1523 20.5717 76.1523H51.7013L43.2881 67.4712L49.6666 59.3727L43.2881 52.5497L50.7489 42.3428L45.6383 33.2952Z" fill="#F4F5F9"/>
<mask id="mask1_437_31443" style="mask-type:alpha" maskUnits="userSpaceOnUse" x="18" y="33" width="34" height="44">
<path fill-rule="evenodd" clip-rule="evenodd" d="M45.6383 33.2952H20.5717C19.688 33.2952 18.9717 34.0115 18.9717 34.8952V74.5523C18.9717 75.436 19.688 76.1523 20.5717 76.1523H51.7013L43.2881 67.4712L49.6666 59.3727L43.2881 52.5497L50.7489 42.3428L45.6383 33.2952Z" fill="white"/>
</mask>
<g mask="url(#mask1_437_31443)">
<rect x="24.3232" y="49.6" width="50.4" height="4.8" rx="1" fill="#E0E4E8"/>
<rect x="24.3232" y="40.8" width="50.4" height="4.8" rx="1" fill="#E0E4E8"/>
</g>
<path fill-rule="evenodd" clip-rule="evenodd" d="M48.4133 33.2952H79.2762C80.1599 33.2952 80.8762 34.0115 80.8762 34.8952V74.5523C80.8762 75.436 80.1599 76.1523 79.2762 76.1523H54.4907L46.4663 67.5695L53.2571 58.4662L46.4663 52.4425L53.2571 42.3428L48.4133 33.2952Z" fill="#F4F5F9"/>
<mask id="mask2_437_31443" style="mask-type:alpha" maskUnits="userSpaceOnUse" x="46" y="33" width="35" height="44">
<path fill-rule="evenodd" clip-rule="evenodd" d="M48.4133 33.2952H79.2762C80.1599 33.2952 80.8762 34.0115 80.8762 34.8952V74.5523C80.8762 75.436 80.1599 76.1523 79.2762 76.1523H54.4907L46.4663 67.5695L53.2571 58.4662L46.4663 52.4425L53.2571 42.3428L48.4133 33.2952Z" fill="white"/>
</mask>
<g mask="url(#mask2_437_31443)">
<path fill-rule="evenodd" clip-rule="evenodd" d="M25.1228 40.8H73.9228C74.3646 40.8 74.7228 41.1582 74.7228 41.6V44.8C74.7228 45.2419 74.3646 45.6 73.9228 45.6H25.1228C24.6809 45.6 24.3228 45.2419 24.3228 44.8V41.6C24.3228 41.1582 24.6809 40.8 25.1228 40.8Z" fill="#E0E4E8"/>
<path fill-rule="evenodd" clip-rule="evenodd" d="M25.1228 49.6H73.9228C74.3646 49.6 74.7228 49.9581 74.7228 50.4V53.6C74.7228 54.0418 74.3646 54.4 73.9228 54.4H25.1228C24.6809 54.4 24.3228 54.0418 24.3228 53.6V50.4C24.3228 49.9581 24.6809 49.6 25.1228 49.6Z" fill="#E0E4E8"/>
<path fill-rule="evenodd" clip-rule="evenodd" d="M55.5227 61.6H73.9227C74.3645 61.6 74.7227 61.9581 74.7227 62.4V65.6C74.7227 66.0418 74.3645 66.4 73.9227 66.4H55.5227C55.0808 66.4 54.7227 66.0418 54.7227 65.6V62.4C54.7227 61.9581 55.0808 61.6 55.5227 61.6Z" fill="#E0E4E8"/>
</g>
<path d="M46.08 33.8301L46.7967 33.4746L51.2151 42.3827L43.8014 52.524L50.0446 59.5168L43.819 67.4424L52.0577 75.8728L51.4856 76.4319L42.7568 67.5L49.0014 59.5488L42.7742 52.5749L50.2822 42.3024L46.08 33.8301Z" fill="#050B3C"/>
</svg>
