<svg width="24" height="24" viewBox="0 0 24 24" fill="none" xmlns="http://www.w3.org/2000/svg">
<path d="M1.85351 1.14644L1.14644 1.85351C0.951187 2.04876 0.951187 2.36533 1.14644 2.56058L20.9444 22.3586C21.1397 22.5538 21.4562 22.5538 21.6515 22.3586L22.3586 21.6515C22.5538 21.4562 22.5538 21.1397 22.3586 20.9444L2.56058 1.14644C2.36533 0.951187 2.04876 0.951187 1.85351 1.14644Z" fill="#1F2329"/>
<path d="M14.6663 10.4237V5.00008C14.6663 4.83644 14.5484 4.70034 14.3929 4.67212L14.333 4.66675H8.90939L6.90939 2.66675H14.333C15.5787 2.66675 16.5964 3.64293 16.6629 4.87206L16.6663 5.00008V12.4237L14.6663 10.4237Z" fill="#1F2329"/>
<path d="M1.33301 5.57565V13.0001L1.33646 13.1281C1.40292 14.3572 2.42063 15.3334 3.66634 15.3334H6.26634C6.48725 15.3334 6.66634 15.1543 6.66634 14.9334V13.7334C6.66634 13.5125 6.48725 13.3334 6.26634 13.3334H3.66634L3.60642 13.328C3.45092 13.2998 3.33301 13.1637 3.33301 13.0001V7.57565L1.33301 5.57565Z" fill="#1F2329"/>
<path d="M7.99967 12.2423V19.0001L8.00313 19.1281C8.06959 20.3572 9.0873 21.3334 10.333 21.3334H17.0908L15.0908 19.3334H10.333L10.2731 19.328C10.1176 19.2998 9.99967 19.1637 9.99967 19.0001V14.2423L7.99967 12.2423Z" fill="#1F2329"/>
<path d="M12.9094 8.66675L13.333 9.09037V9.06675C13.333 8.84583 13.1539 8.66675 12.933 8.66675H12.9094Z" fill="#1F2329"/>
<path d="M23.3314 19.0887L21.333 17.0904V11.0001C21.333 10.8364 21.2151 10.7003 21.0596 10.6721L20.9997 10.6667H18.3997C18.1788 10.6667 17.9997 10.4877 17.9997 10.2667V9.06675C17.9997 8.84583 18.1788 8.66675 18.3997 8.66675H20.9997C22.2454 8.66675 23.2631 9.64293 23.3296 10.8721L23.333 11.0001V19.0001C23.333 19.0298 23.3325 19.0593 23.3314 19.0887Z" fill="#1F2329"/>
</svg>
