<svg width="24" height="24" viewBox="0 0 24 24" fill="none" xmlns="http://www.w3.org/2000/svg">
<g clip-path="url(#clip0_94_9255)">
<path d="M1 4C1 1.79086 2.79086 0 5 0H19C21.2091 0 23 1.79086 23 4V20C23 22.2091 21.2091 24 19 24H5C2.79086 24 1 22.2091 1 20V4Z" fill="#FF8800"/>
<path d="M9.05486 14.1094H8.4637L8.47434 14.2651C8.49172 14.5197 8.60945 14.734 8.8036 14.882C8.99534 15.0281 9.25299 15.1034 9.5461 15.1034C9.84575 15.1034 10.1089 15.026 10.3003 14.8712C10.4949 14.7138 10.6028 14.4859 10.6028 14.2159C10.6028 14.0097 10.541 13.8299 10.3912 13.6883C10.2479 13.5527 10.0381 13.4656 9.77038 13.4069L9.49688 13.3471C9.33934 13.3127 9.25046 13.2682 9.20246 13.2254C9.16104 13.1885 9.14335 13.1473 9.14335 13.088C9.14335 13.0147 9.17551 12.9568 9.23879 12.9121C9.30598 12.8648 9.4106 12.8322 9.54269 12.8322C9.67907 12.8322 9.779 12.8673 9.84469 12.9183C9.90829 12.9676 9.94996 13.0392 9.95985 13.1368L9.97313 13.268H10.5632L10.5583 13.1174C10.5414 12.5998 10.1002 12.2637 9.55123 12.2637C9.26963 12.2637 9.01819 12.3423 8.83388 12.4889C8.64738 12.6373 8.53552 12.8515 8.53552 13.1016C8.53552 13.3096 8.60045 13.4928 8.74766 13.6376C8.89024 13.7778 9.09721 13.8692 9.35782 13.926L9.63107 13.9858C9.79108 14.021 9.88222 14.0666 9.93202 14.1116C9.97532 14.1507 9.995 14.1957 9.995 14.262C9.995 14.3296 9.96278 14.393 9.89202 14.4443C9.81925 14.4971 9.70655 14.5349 9.56319 14.5349C9.24603 14.5349 9.09386 14.3972 9.07196 14.2356L9.05486 14.1094Z" fill="white"/>
<path fill-rule="evenodd" clip-rule="evenodd" d="M13.4323 13.6844C13.4323 14.1344 13.2962 14.5137 13.0355 14.7684L13.4513 15.341H12.7457L12.5359 15.0528C12.4152 15.0869 12.2863 15.1034 12.15 15.1034C11.7645 15.1034 11.4388 14.967 11.2109 14.7116C10.9847 14.4581 10.8677 14.1021 10.8677 13.6844C10.8677 13.2667 10.9846 12.9103 11.2108 12.6564C11.4386 12.4007 11.7644 12.2637 12.15 12.2637C12.5357 12.2637 12.8614 12.4007 13.0893 12.6564C13.3154 12.9103 13.4323 13.2667 13.4323 13.6844ZM11.8178 14.0649L12.154 14.5281L12.15 14.5281C11.938 14.5281 11.7754 14.4492 11.6631 14.3137C11.5484 14.1751 11.4755 13.9638 11.4755 13.6844C11.4755 13.4041 11.5484 13.1924 11.6632 13.0536C11.7754 12.9179 11.938 12.839 12.15 12.839C12.3621 12.839 12.5246 12.9179 12.6369 13.0536C12.7516 13.1924 12.8245 13.4041 12.8245 13.6844C12.8245 13.935 12.7662 14.1304 12.6717 14.2679L12.5231 14.0649H11.8178Z" fill="white"/>
<path d="M15.6039 15.0624V14.4939H14.4144V12.3047H13.8151V15.0624H15.6039Z" fill="white"/>
<path fill-rule="evenodd" clip-rule="evenodd" d="M7.0166 5.58325H15.3095C15.4421 5.58325 15.5693 5.63593 15.663 5.7297L17.3702 7.43681C17.4639 7.53058 17.5166 7.65775 17.5166 7.79036V17.9166C17.5166 18.1927 17.2927 18.4166 17.0166 18.4166H7.0166C6.74046 18.4166 6.5166 18.1927 6.5166 17.9166V6.08325C6.5166 5.80711 6.74046 5.58325 7.0166 5.58325ZM7.71658 17.2167H16.3166V8.58325H14.6916C14.5949 8.58325 14.5166 8.5049 14.5166 8.40825V6.78333H7.71658V17.2167Z" fill="white"/>
<path d="M9.05486 14.1094H8.4637L8.47434 14.2651C8.49172 14.5197 8.60945 14.734 8.8036 14.882C8.99534 15.0281 9.25299 15.1034 9.5461 15.1034C9.84575 15.1034 10.1089 15.026 10.3003 14.8712C10.4949 14.7138 10.6028 14.4859 10.6028 14.2159C10.6028 14.0097 10.541 13.8299 10.3912 13.6883C10.2479 13.5527 10.0381 13.4656 9.77038 13.4069L9.49688 13.3471C9.33934 13.3127 9.25046 13.2682 9.20246 13.2254C9.16104 13.1885 9.14335 13.1473 9.14335 13.088C9.14335 13.0147 9.17551 12.9568 9.23879 12.9121C9.30598 12.8648 9.4106 12.8322 9.54269 12.8322C9.67907 12.8322 9.779 12.8673 9.84469 12.9183C9.90829 12.9676 9.94996 13.0392 9.95985 13.1368L9.97313 13.268H10.5632L10.5583 13.1174C10.5414 12.5998 10.1002 12.2637 9.55123 12.2637C9.26963 12.2637 9.01819 12.3423 8.83388 12.4889C8.64738 12.6373 8.53552 12.8515 8.53552 13.1016C8.53552 13.3096 8.60045 13.4928 8.74766 13.6376C8.89024 13.7778 9.09721 13.8692 9.35782 13.926L9.63107 13.9858C9.79108 14.021 9.88222 14.0666 9.93202 14.1116C9.97532 14.1507 9.995 14.1957 9.995 14.262C9.995 14.3296 9.96278 14.393 9.89202 14.4443C9.81925 14.4971 9.70655 14.5349 9.56319 14.5349C9.24603 14.5349 9.09386 14.3972 9.07196 14.2356L9.05486 14.1094Z" fill="white"/>
<path fill-rule="evenodd" clip-rule="evenodd" d="M13.4323 13.6844C13.4323 14.1344 13.2962 14.5137 13.0355 14.7684L13.4513 15.341H12.7457L12.5359 15.0528C12.4152 15.0869 12.2863 15.1034 12.15 15.1034C11.7645 15.1034 11.4388 14.967 11.2109 14.7116C10.9847 14.4581 10.8677 14.1021 10.8677 13.6844C10.8677 13.2667 10.9846 12.9103 11.2108 12.6564C11.4386 12.4007 11.7644 12.2637 12.15 12.2637C12.5357 12.2637 12.8614 12.4007 13.0893 12.6564C13.3154 12.9103 13.4323 13.2667 13.4323 13.6844ZM11.8178 14.0649L12.154 14.5281L12.15 14.5281C11.938 14.5281 11.7754 14.4492 11.6631 14.3137C11.5484 14.1751 11.4755 13.9638 11.4755 13.6844C11.4755 13.4041 11.5484 13.1924 11.6632 13.0536C11.7754 12.9179 11.938 12.839 12.15 12.839C12.3621 12.839 12.5246 12.9179 12.6369 13.0536C12.7516 13.1924 12.8245 13.4041 12.8245 13.6844C12.8245 13.935 12.7662 14.1304 12.6717 14.2679L12.5231 14.0649H11.8178Z" fill="white"/>
<path d="M15.6039 15.0624V14.4939H14.4144V12.3047H13.8151V15.0624H15.6039Z" fill="white"/>
<path fill-rule="evenodd" clip-rule="evenodd" d="M7.0166 5.58325H15.3095C15.4421 5.58325 15.5693 5.63593 15.663 5.7297L17.3702 7.43681C17.4639 7.53058 17.5166 7.65775 17.5166 7.79036V17.9166C17.5166 18.1927 17.2927 18.4166 17.0166 18.4166H7.0166C6.74046 18.4166 6.5166 18.1927 6.5166 17.9166V6.08325C6.5166 5.80711 6.74046 5.58325 7.0166 5.58325ZM7.71658 17.2167H16.3166V8.58325H14.6916C14.5949 8.58325 14.5166 8.5049 14.5166 8.40825V6.78333H7.71658V17.2167Z" fill="white"/>
</g>
<defs>
<clipPath id="clip0_94_9255">
<rect width="24" height="24" fill="white"/>
</clipPath>
</defs>
</svg>
