<svg width="24" height="24" viewBox="0 0 24 24" fill="none" xmlns="http://www.w3.org/2000/svg">
<path d="M10.975 3.31808L11.6821 4.02518C11.8774 4.22045 11.8774 4.53703 11.6821 4.73229L5.41426 10.9996L22.5001 11.0001C22.7763 11.0001 23.0001 11.2239 23.0001 11.5001V12.5001C23.0001 12.7762 22.7763 13.0001 22.5001 13.0001L5.41376 12.9996L11.6821 19.2678C11.8623 19.4481 11.8762 19.7317 11.7237 19.9278L11.6821 19.9749L10.975 20.682C10.7947 20.8623 10.5111 20.8761 10.315 20.7236L10.2679 20.682L1.98971 12.4039C1.87922 12.2934 1.83125 12.144 1.8458 11.9998C1.83132 11.8558 1.8793 11.7067 1.98971 11.5963L10.2679 3.31808C10.4631 3.12282 10.7797 3.12282 10.975 3.31808Z" fill="#1F2329"/>
</svg>
