<svg width="24" height="24" viewBox="0 0 24 24" fill="none" xmlns="http://www.w3.org/2000/svg">
<path d="M7.5 2C7.77614 2 8 2.22386 8 2.5V3H16V2.5C16 2.22386 16.2239 2 16.5 2H17.5C17.7761 2 18 2.22386 18 2.5V3H21C21.5523 3 22 3.44772 22 4V21C22 21.5523 21.5523 22 21 22H3C2.44772 22 2 21.5523 2 21L2 4C2 3.44772 2.44772 3 3 3H6V2.5C6 2.22386 6.22386 2 6.5 2H7.5ZM16 5H8V5.5C8 5.77614 7.77614 6 7.5 6H6.5C6.22386 6 6 5.77614 6 5.5V5H4V20H20V5H18V5.5C18 5.77614 17.7761 6 17.5 6H16.5C16.2239 6 16 5.77614 16 5.5V5ZM9 10C9 9.72386 8.77614 9.5 8.5 9.5H6.5C6.22386 9.5 6 9.72386 6 10V12C6 12.2761 6.22386 12.5 6.5 12.5H8.5C8.77614 12.5 9 12.2761 9 12V10ZM10.5 10C10.5 9.72386 10.7239 9.5 11 9.5H13C13.2761 9.5 13.5 9.72386 13.5 10V12C13.5 12.2761 13.2761 12.5 13 12.5H11C10.7239 12.5 10.5 12.2761 10.5 12V10ZM9 14.5C9 14.2239 8.77614 14 8.5 14H6.5C6.22386 14 6 14.2239 6 14.5V16.5C6 16.7761 6.22386 17 6.5 17H8.5C8.77614 17 9 16.7761 9 16.5V14.5ZM10.5 14.5C10.5 14.2239 10.7239 14 11 14H13C13.2761 14 13.5 14.2239 13.5 14.5V16.5C13.5 16.7761 13.2761 17 13 17H11C10.7239 17 10.5 16.7761 10.5 16.5V14.5ZM18 10C18 9.72386 17.7761 9.5 17.5 9.5H15.5C15.2239 9.5 15 9.72386 15 10V12C15 12.2761 15.2239 12.5 15.5 12.5H17.5C17.7761 12.5 18 12.2761 18 12V10Z" fill="#1F2329"/>
<path d="M18 14.5C18 14.2239 17.7761 14 17.5 14H15.5C15.2239 14 15 14.2239 15 14.5V16.5C15 16.7761 15.2239 17 15.5 17H17.5C17.7761 17 18 16.7761 18 16.5V14.5Z" fill="#1F2329"/>
</svg>
