<svg width="24" height="24" viewBox="0 0 24 24" fill="none" xmlns="http://www.w3.org/2000/svg">
<path d="M7.72532 2.71627L2.82271 7.61888C2.61443 7.82716 2.61443 8.16484 2.82271 8.37312L8.19673 13.7471C8.40501 13.9554 8.74269 13.9554 8.95097 13.7471L9.61094 13.0872C9.81922 12.8789 9.81922 12.5412 9.61094 12.3329L5.9505 8.67073L14.6665 8.66673V8.67248C17.4279 8.67248 19.6665 10.9111 19.6665 13.6725C19.6665 16.4339 17.4279 18.6725 14.6665 18.6725V18.6667L10.7633 18.6718C10.4691 18.6722 10.2307 18.9108 10.2307 19.2051V20.1385C10.2307 20.3962 10.4135 20.6112 10.6566 20.661L10.7647 20.6718L14.3998 20.6658L14.6665 20.6725V20.6725C18.5325 20.6725 21.6665 17.5385 21.6665 13.6725C21.6665 9.80649 18.5325 6.67248 14.6665 6.67248V6.66673L6.5985 6.67073L9.13953 4.13048C9.34781 3.9222 9.34781 3.58451 9.13953 3.37623L8.47957 2.71627C8.27129 2.50799 7.9336 2.50799 7.72532 2.71627Z" fill="#1F2329"/>
</svg>
