<svg width="24" height="24" viewBox="0 0 24 24" fill="none" xmlns="http://www.w3.org/2000/svg">
<g clip-path="url(#clip0_94_9274)">
<path d="M1 4C1 1.79086 2.79086 0 5 0H19C21.2091 0 23 1.79086 23 4V20C23 22.2091 21.2091 24 19 24H5C2.79086 24 1 22.2091 1 20V4Z" fill="#34C724"/>
<path d="M7.0166 5.58325H15.3095C15.4421 5.58325 15.5693 5.63593 15.663 5.7297L17.3702 7.43681C17.4639 7.53058 17.5166 7.65775 17.5166 7.79036V17.9166C17.5166 18.1927 17.2927 18.4166 17.0166 18.4166H7.0166C6.74046 18.4166 6.5166 18.1927 6.5166 17.9166V6.08325C6.5166 5.80711 6.74046 5.58325 7.0166 5.58325ZM7.71658 17.2167H16.3166V8.58325H14.6916C14.5949 8.58325 14.5166 8.5049 14.5166 8.40825V6.78333H7.71658V17.2167ZM15.063 9.85459C15.1222 9.7779 15.0676 9.66659 14.9706 9.66659H13.8072C13.771 9.66659 13.737 9.68333 13.7149 9.71192L11.9076 11.8118L12.7291 12.8749L15.063 9.85459ZM11.9076 11.8118L11.9092 11.8139L12.7291 12.8749L11.9092 13.9359L11.9076 13.938L10.2849 16.0379C10.2628 16.0665 10.2287 16.0833 10.1926 16.0833H9.02916C8.93224 16.0833 8.87758 15.972 8.93684 15.8952L11.2156 12.9463C11.2481 12.9042 11.2481 12.8456 11.2156 12.8036L8.93686 9.85459C8.87761 9.7779 8.93227 9.66659 9.02918 9.66659H10.1926C10.2287 9.66659 10.2628 9.68333 10.2849 9.71192L11.9076 11.8118ZM13.7149 16.0379L11.9076 13.938L12.7291 12.8749L15.063 15.8952C15.1222 15.972 15.0676 16.0833 14.9707 16.0833H13.8072C13.771 16.0833 13.737 16.0665 13.7149 16.0379Z" fill="white"/>
</g>
<defs>
<clipPath id="clip0_94_9274">
<rect width="24" height="24" fill="white"/>
</clipPath>
</defs>
</svg>
