<svg width="24" height="24" viewBox="0 0 24 24" fill="none" xmlns="http://www.w3.org/2000/svg">
<path d="M9.00839 13.9973C9.28453 13.9973 9.53453 14.1093 9.71549 14.2902C9.89646 14.4712 10.0084 14.7212 10.0084 14.9973V20.1571C10.0084 20.4332 9.78453 20.6571 9.50839 20.6571H8.50839C8.23224 20.6571 8.00839 20.4332 8.00839 20.1571V17.4974L4.09289 21.4115C3.89762 21.6068 3.58104 21.6068 3.38578 21.4115L2.67867 20.7044C2.48341 20.5092 2.48341 20.1926 2.67867 19.9973L6.68001 15.9973H3.83559C3.55945 15.9973 3.33559 15.7735 3.33559 15.4973V14.4973C3.33559 14.2212 3.55945 13.9973 3.83559 13.9973H9.00839ZM19.919 2.58859C20.1142 2.39332 20.4308 2.39332 20.6261 2.58859L21.3332 3.29569C21.5284 3.49095 21.5284 3.80754 21.3332 4.0028L17.3318 8.0028H20.1763C20.4524 8.0028 20.6763 8.22666 20.6763 8.5028V9.5028C20.6763 9.77894 20.4524 10.0028 20.1763 10.0028H15.0035C14.7273 10.0028 14.4773 9.89087 14.2964 9.70991C14.1154 9.52894 14.0035 9.27894 14.0035 9.0028V3.84303C14.0035 3.56689 14.2273 3.34303 14.5035 3.34303H15.5035C15.7796 3.34303 16.0035 3.56689 16.0035 3.84303V6.50275L19.919 2.58859Z" fill="#2B2F36"/>
</svg>
