<svg width="24" height="24" viewBox="0 0 24 24" fill="none" xmlns="http://www.w3.org/2000/svg">
<path d="M3 21.9279C3 22.52 3.47727 23 4.06602 23H11.9952V20.9897H4.9988V2.99999L18.9904 2.99999V13H20.9892V2.06187C20.9892 1.46975 20.5119 0.989746 19.9231 0.989746H4.06602C3.47727 0.989746 3 1.46975 3 2.06187V21.9279Z" fill="#1F2329"/>
<path d="M7.00602 11.268C7.00602 11.12 7.12534 11 7.27253 11H16.7335C16.8807 11 17 11.12 17 11.268V12.7422C17 12.8902 16.8807 13.0102 16.7335 13.0102H7.27253C7.12534 13.0102 7.00602 12.8902 7.00602 12.7422V11.268Z" fill="#1F2329"/>
<path d="M7.27494 6.99999C7.12775 6.99999 7.00843 7.11999 7.00843 7.26802V8.74219C7.00843 8.89022 7.12775 9.01023 7.27494 9.01023H11.7335C11.8807 9.01023 12 8.89022 12 8.74219V7.26802C12 7.11999 11.8807 6.99999 11.7335 6.99999H7.27494Z" fill="#1F2329"/>
<path d="M17 15.5C17 15.2239 17.2239 15 17.5 15H18.5C18.7761 15 19 15.2239 19 15.5V18H21.5C21.7761 18 22 18.2239 22 18.5V19.5C22 19.7761 21.7761 20 21.5 20H19V22.5C19 22.7761 18.7761 23 18.5 23H17.5C17.2239 23 17 22.7761 17 22.5V20H14.5C14.2239 20 14 19.7761 14 19.5V18.5C14 18.2239 14.2239 18 14.5 18H17V15.5Z" fill="#1F2329"/>
</svg>
