<svg width="24" height="24" viewBox="0 0 24 24" fill="none" xmlns="http://www.w3.org/2000/svg">
<path d="M12.933 8.66675C13.1539 8.66675 13.333 8.84583 13.333 9.06675V10.2667C13.333 10.4877 13.1539 10.6667 12.933 10.6667H10.333C10.1694 10.6667 10.0333 10.7847 10.005 10.9402L9.99967 11.0001V19.0001C9.99967 19.1637 10.1176 19.2998 10.2731 19.328L10.333 19.3334H20.9997C21.1633 19.3334 21.2994 19.2155 21.3276 19.06L21.333 19.0001V11.0001C21.333 10.8364 21.2151 10.7003 21.0596 10.6721L20.9997 10.6667H18.3997C18.1788 10.6667 17.9997 10.4877 17.9997 10.2667V9.06675C17.9997 8.84583 18.1788 8.66675 18.3997 8.66675H20.9997C22.2454 8.66675 23.2631 9.64293 23.3296 10.8721L23.333 11.0001V19.0001C23.333 20.2458 22.3568 21.2635 21.1277 21.33L20.9997 21.3334H10.333C9.0873 21.3334 8.06959 20.3572 8.00313 19.1281L7.99967 19.0001V11.0001C7.99967 9.75437 8.97586 8.73666 10.205 8.6702L10.333 8.66675H12.933ZM14.333 2.66675C15.5787 2.66675 16.5964 3.64293 16.6629 4.87206L16.6663 5.00008V13.0001C16.6663 14.2458 15.6902 15.2635 14.461 15.33L14.333 15.3334H11.733C11.5121 15.3334 11.333 15.1543 11.333 14.9334V13.7334C11.333 13.5125 11.5121 13.3334 11.733 13.3334H14.333C14.4966 13.3334 14.6327 13.2155 14.661 13.06L14.6663 13.0001V5.00008C14.6663 4.83644 14.5484 4.70034 14.3929 4.67212L14.333 4.66675H3.66634C3.5027 4.66675 3.3666 4.78467 3.33838 4.94016L3.33301 5.00008V13.0001C3.33301 13.1637 3.45092 13.2998 3.60642 13.328L3.66634 13.3334H6.26634C6.48725 13.3334 6.66634 13.5125 6.66634 13.7334V14.9334C6.66634 15.1543 6.48725 15.3334 6.26634 15.3334H3.66634C2.42063 15.3334 1.40292 14.3572 1.33646 13.1281L1.33301 13.0001V5.00008C1.33301 3.75437 2.30919 2.73666 3.53832 2.6702L3.66634 2.66675H14.333Z" fill="#1F2329"/>
</svg>
