<svg width="24" height="24" viewBox="0 0 24 24" fill="none" xmlns="http://www.w3.org/2000/svg">
<path d="M12.9335 8.66675C13.1544 8.66675 13.3335 8.84583 13.3335 9.06675V10.2667C13.3335 10.4877 13.1544 10.6667 12.9335 10.6667H10.3335C10.1699 10.6667 10.0338 10.7847 10.0055 10.9402L10.0002 11.0001V19.0001C10.0002 19.1637 10.1181 19.2998 10.2736 19.328L10.3335 19.3334H21.0002C21.1638 19.3334 21.2999 19.2155 21.3281 19.06L21.3335 19.0001V11.0001C21.3335 10.8364 21.2156 10.7003 21.0601 10.6721L21.0002 10.6667H18.4002C18.1792 10.6667 18.0002 10.4877 18.0002 10.2667V9.06675C18.0002 8.84583 18.1792 8.66675 18.4002 8.66675H21.0002C22.2459 8.66675 23.2636 9.64293 23.33 10.8721L23.3335 11.0001V19.0001C23.3335 20.2458 22.3573 21.2635 21.1282 21.33L21.0002 21.3334H10.3335C9.08779 21.3334 8.07008 20.3572 8.00361 19.1281L8.00016 19.0001V11.0001C8.00016 9.75437 8.97635 8.73666 10.2055 8.6702L10.3335 8.66675H12.9335ZM14.3335 2.66675C15.5792 2.66675 16.5969 3.64293 16.6634 4.87206L16.6668 5.00008V13.0001C16.6668 14.2458 15.6906 15.2635 14.4615 15.33L14.3335 15.3334H11.7335C11.5126 15.3334 11.3335 15.1543 11.3335 14.9334V13.7334C11.3335 13.5125 11.5126 13.3334 11.7335 13.3334H14.3335C14.4971 13.3334 14.6332 13.2155 14.6615 13.06L14.6668 13.0001V5.00008C14.6668 4.83644 14.5489 4.70034 14.3934 4.67212L14.3335 4.66675H3.66683C3.50319 4.66675 3.36709 4.78467 3.33887 4.94016L3.3335 5.00008V13.0001C3.3335 13.1637 3.45141 13.2998 3.60691 13.328L3.66683 13.3334H6.26683C6.48774 13.3334 6.66683 13.5125 6.66683 13.7334V14.9334C6.66683 15.1543 6.48774 15.3334 6.26683 15.3334H3.66683C2.42112 15.3334 1.40341 14.3572 1.33695 13.1281L1.3335 13.0001V5.00008C1.3335 3.75437 2.30968 2.73666 3.53881 2.6702L3.66683 2.66675H14.3335Z" fill="#1F2329"/>
</svg>
