<svg width="24" height="24" viewBox="0 0 24 24" fill="none" xmlns="http://www.w3.org/2000/svg">
<path d="M11.9487 2.68062C13.7079 2.68212 15.433 3.02311 17.0075 3.66531L15.7715 5.19086C14.7141 4.82176 13.5862 4.6058 12.4328 4.55758L11.9371 4.54722L11.3988 4.55801C10.2365 4.60835 9.09259 4.83472 7.98861 5.23529C6.79836 5.66682 5.72608 6.27793 4.80234 7.05332C3.89762 7.8143 3.18653 8.68986 2.69207 9.6535C2.19127 10.627 1.93662 11.6505 1.93662 12.6874C1.93662 13.7179 2.18951 14.7223 2.68673 15.6716C3.1766 16.6006 3.88294 17.4424 4.78365 18.1714C5.70142 18.9118 6.77525 19.4958 7.97294 19.9053C9.22275 20.3341 10.5561 20.5511 11.9343 20.5511C12.4896 20.5511 13.0422 20.5145 13.5914 20.4417L14.1394 20.3568L14.8107 20.2234L14.8803 20.2017C14.9725 20.1605 15.061 20.0721 15.1279 19.9556C15.2261 19.7832 15.2668 19.5736 15.2456 19.367L15.218 19.2133L15.1812 19.0831L15.113 18.8097C14.8767 17.7124 15.0803 16.5791 15.6874 15.6545C16.3419 14.656 17.3932 14.0325 18.5344 13.9538L18.7803 13.9453H20.5511L20.6882 13.9362C21.2749 13.8574 21.7599 13.2801 21.8789 12.556L21.8997 12.3864L21.9065 12.1672L21.904 12.0813L21.8727 11.8052L21.812 11.4475C21.6471 10.6169 21.3208 9.81409 20.8385 9.05363C20.7056 8.84304 20.562 8.63758 20.4081 8.43756L21.6066 6.95692C21.9003 7.3069 22.168 7.67281 22.4088 8.05348C23.0239 9.02282 23.4394 10.0594 23.6452 11.1328L23.7125 11.537L23.7625 11.9699L23.7678 12.2098L23.7619 12.4286C23.6645 14.2349 22.3693 15.6809 20.7545 15.7937L20.5511 15.8008H18.783C18.1741 15.8037 17.6021 16.1281 17.2449 16.6725C16.9673 17.0978 16.8436 17.616 16.8886 18.1261L16.9183 18.344L17.008 18.6931C17.2128 19.4248 17.1175 20.2233 16.7484 20.8711C16.4542 21.3876 16.009 21.7678 15.4949 21.9535L15.299 22.0139L14.5767 22.1617C14.0551 22.2585 13.5318 22.3263 13.0072 22.365L12.4823 22.3941L11.9371 22.4038C10.3554 22.4038 8.81778 22.1529 7.37375 21.6586C5.97173 21.1783 4.70969 20.4896 3.61919 19.6105C2.51985 18.7221 1.6538 17.6841 1.04604 16.5269C0.407797 15.3087 0.0839844 14.0141 0.0839844 12.6791C0.0839844 11.3414 0.406226 10.0357 1.04352 8.79439C1.6519 7.60817 2.51573 6.53957 3.61179 5.61832C4.70342 4.70169 5.96498 3.9818 7.36635 3.47575C8.5066 3.06898 9.68504 2.81734 10.8754 2.72558L11.3862 2.69606L11.9244 2.68546L11.9487 2.68062ZM5.50119 13.0916C6.25906 13.0916 6.87257 13.7077 6.87515 14.4656C6.87515 15.2235 6.25906 15.8396 5.50119 15.8396C4.74074 15.8396 4.12723 15.2235 4.12723 14.4656C4.12723 13.7077 4.74332 13.0916 5.50119 13.0916ZM20.8492 1.83817C21.0646 1.56884 21.4576 1.52517 21.727 1.74064L22.2147 2.13078C22.484 2.34624 22.5277 2.73926 22.3122 3.00859L12.7099 15.0115L11.2799 15.6437C11.2324 15.6647 11.1796 15.6703 11.1287 15.6599C10.9936 15.6322 10.9065 15.5001 10.9342 15.365L11.2469 13.8411L20.8492 1.83817ZM6.75025 8.0954C7.50812 8.0954 8.12421 8.7115 8.12421 9.46937C8.12421 10.2272 7.50812 10.8433 6.75025 10.8433C5.9898 10.8433 5.37628 10.2272 5.37628 9.46937C5.37628 8.7115 5.99238 8.0954 6.75025 8.0954ZM11.9963 6.22182C12.7567 6.22182 13.3702 6.83791 13.3702 7.59578C13.3702 8.35365 12.7542 8.96974 11.9963 8.96974C11.2358 8.96974 10.6223 8.35365 10.6223 7.59578C10.6223 6.83791 11.2384 6.22182 11.9963 6.22182Z" fill="#1F2329"/>
</svg>
