<svg width="26" height="30" viewBox="0 0 26 30" fill="none" xmlns="http://www.w3.org/2000/svg">
<g clip-path="url(#clip0_17515_5823)">
<path d="M12.9835 0.398435L25.6058 7.68632V22.2608L12.9835 29.5487L0.361194 22.2608V7.68632L12.9835 0.398435ZM12.9835 0L0.015625 7.48646V22.4594L12.9835 29.9458L25.9513 22.4594V7.48646L12.9835 0Z" fill="#783887"/>
<path d="M2.0498 8.42262L12.9816 2.11084L23.9148 8.42262L12.9816 14.7344L2.0498 8.42262Z" fill="#783887"/>
<path d="M1.84375 8.78101V21.4046L12.7756 27.7164V15.0928L1.84375 8.78101ZM9.3431 23.0963L9.33666 18.6491L7.74034 22.155L6.36322 21.3478L5.62308 16.4699L4.77335 20.4143L2.87143 19.2822L4.41231 13.628L6.83644 15.0502L7.37672 18.4879L8.50755 16.0302L10.875 17.4189L11.2063 24.1885L9.3431 23.0963Z" fill="#783887"/>
<path d="M13.1895 15.0928V27.7164L24.1213 21.4046V8.78101L13.1895 15.0928ZM21.8055 19.384C21.7423 20.2312 21.3542 21.1248 20.7443 21.687C20.5199 21.901 20.244 22.1009 19.9164 22.284C19.7901 22.3549 19.6457 22.4284 19.4832 22.507L19.108 22.6824L18.8153 22.801C18.431 22.9558 18.0081 23.1015 17.5477 23.2382C17.3711 23.2897 17.1893 23.34 17.0036 23.389L16.2828 23.6108L16.2428 21.7759L17.375 21.4961C17.375 21.4961 17.8198 21.3801 18.0223 21.3182C18.2634 21.2434 18.4826 21.1673 18.6786 21.0887C19.3891 20.8024 19.7952 20.4775 19.8958 20.1139C19.9538 19.9565 19.9461 19.8289 19.8739 19.7309C19.8017 19.62 19.6521 19.5594 19.4277 19.5491C19.3323 19.5452 19.2111 19.5504 19.0667 19.562L18.6425 19.6058C18.4555 19.6355 18.2879 19.6574 18.1396 19.6716C17.9488 19.6896 17.7747 19.6987 17.6161 19.6961C17.2241 19.6909 16.9159 19.6252 16.6954 19.5001C16.484 19.3673 16.3434 19.1558 16.2751 18.867C16.2261 18.6619 16.2132 18.4105 16.2377 18.1139C16.3009 17.2603 16.6374 16.5563 17.2473 16.0006C17.4755 15.7852 17.7515 15.5841 18.0751 15.3984C18.2015 15.3275 18.3459 15.254 18.5084 15.1753L18.9274 14.9767L19.2111 14.862C19.5335 14.7317 19.8894 14.608 20.2788 14.4906L20.7546 14.3527L21.3077 14.2031L21.3671 15.8033C21.153 15.8368 20.8848 15.8974 20.5612 15.9864C20.146 16.0947 19.7694 16.2172 19.4342 16.3526C18.6915 16.6517 18.4387 16.9109 18.3188 17.2951C18.2737 17.4537 18.275 17.5943 18.293 17.7245C18.315 17.8793 18.3059 17.9257 18.6412 17.9631C18.7431 17.9669 18.872 17.9644 19.0267 17.954L20.0028 17.8496C20.1898 17.8328 20.3587 17.8251 20.507 17.8277C20.8667 17.8328 21.1401 17.8947 21.3284 18.0147C21.5502 18.141 21.6959 18.3512 21.7681 18.6439C21.8171 18.8579 21.83 19.1029 21.8055 19.384Z" fill="#783887"/>
</g>
<defs>
<clipPath id="clip0_17515_5823">
<rect width="25.9602" height="30" fill="white"/>
</clipPath>
</defs>
</svg>
