<svg width="78" height="60" viewBox="0 0 78 60" fill="none" xmlns="http://www.w3.org/2000/svg">
<path d="M4 0.5H74C75.933 0.5 77.5 2.067 77.5 4V56C77.5 57.933 75.933 59.5 74 59.5H4C2.067 59.5 0.5 57.933 0.5 56V4C0.5 2.067 2.067 0.5 4 0.5Z" fill="#F9F9FE" stroke="white"/>
<path d="M1 4C1 2.34315 2.34315 1 4 1H74C75.6569 1 77 2.34315 77 4V7H1V4Z" fill="#EDEDF1"/>
<ellipse cx="9.2623" cy="3.41245" rx="1.4625" ry="1.4625" fill="white"/>
<ellipse cx="14.1373" cy="3.41245" rx="1.4625" ry="1.4625" fill="white"/>
<circle cx="4.3873" cy="3.41245" r="1.4625" fill="white"/>
<rect x="2.67129" y="8.67141" width="72.6572" height="48.6571" rx="1.9" fill="white" stroke="#EDEDF1" stroke-width="0.2"/>
<rect x="5" y="10" width="50" height="4" rx="0.5" fill="#EBF1FF"/>
<rect x="65.8877" y="10" width="8" height="4" rx="0.5" fill="#EDEDF1"/>
<path d="M5 15.5C5 15.2239 5.22386 15 5.5 15H72.5C72.7761 15 73 15.2239 73 15.5V54.5C73 54.7761 72.7761 55 72.5 55H5.5C5.22386 55 5 54.7761 5 54.5V15.5Z" fill="#F9F9FE"/>
<rect x="6" y="17" width="31" height="36" rx="1" fill="white"/>
<rect x="37" y="17" width="35" height="36" rx="1" fill="white"/>
<rect x="7.80078" y="19.9126" width="2.925" height="1.4625" rx="0.5" fill="#AEAEB2"/>
<rect x="39" y="20" width="32" height="1" rx="0.5" fill="#E5F9EF"/>
<rect x="7.80078" y="39.8572" width="2.925" height="1.4625" rx="0.5" fill="#AEAEB2"/>
<rect x="7.80078" y="29.6624" width="6.825" height="1.4625" rx="0.5" fill="#D4D4D8"/>
<rect x="31.6875" y="29.6625" width="3.4125" height="1.4625" rx="0.5" fill="#D4D4D8"/>
<rect x="7.80078" y="22.8374" width="27.3" height="1.4625" rx="0.5" fill="#EDEDF1"/>
<rect x="39" y="24" width="32" height="23" rx="0.5" fill="#F9F9FE"/>
<rect x="7.80078" y="42.7822" width="27.3" height="1.4625" rx="0.5" fill="#EDEDF1"/>
<rect x="7.80078" y="32.5874" width="27.3" height="1.4625" rx="0.5" fill="#EDEDF1"/>
<rect x="7.80078" y="25.7625" width="27.3" height="1.4625" rx="0.5" fill="#EDEDF1"/>
<rect x="7.80078" y="45.7073" width="27.3" height="1.4625" rx="0.5" fill="#EDEDF1"/>
<rect x="57" y="10" width="8" height="4" rx="0.5" fill="#A762BF"/>
<path d="M59.232 11.98L59.39 11.424L59.532 11.448L59.418 11.842H59.768C59.808 11.686 59.84 11.524 59.864 11.352L60.01 11.37C59.984 11.538 59.952 11.694 59.916 11.842H60.852V11.98H59.878C59.854 12.06 59.83 12.136 59.802 12.208H60.62V12.332C60.566 12.504 60.458 12.66 60.294 12.8C60.456 12.896 60.654 12.984 60.886 13.064L60.812 13.198C60.556 13.104 60.344 13.002 60.176 12.892C60.012 13.008 59.808 13.112 59.566 13.206L59.49 13.072C59.714 12.99 59.9 12.9 60.05 12.802C59.894 12.682 59.784 12.552 59.718 12.412C59.572 12.728 59.384 12.978 59.156 13.164L59.082 13.032C59.374 12.776 59.588 12.426 59.728 11.98H59.232ZM59.826 12.34C59.894 12.476 60.008 12.602 60.168 12.718C60.316 12.602 60.418 12.476 60.474 12.34H59.826ZM60.346 11.368C60.49 11.478 60.608 11.588 60.704 11.698L60.602 11.8C60.518 11.694 60.4 11.582 60.25 11.462L60.346 11.368ZM61.252 11.398C61.39 11.502 61.506 11.604 61.6 11.708L61.496 11.81C61.414 11.712 61.3 11.606 61.154 11.492L61.252 11.398ZM62.422 13.164C62.312 13.164 62.192 13.162 62.064 13.16C61.934 13.158 61.828 13.146 61.748 13.124C61.668 13.1 61.596 13.05 61.534 12.978C61.506 12.944 61.48 12.928 61.456 12.928C61.408 12.928 61.328 13.018 61.218 13.202L61.11 13.106C61.216 12.938 61.31 12.836 61.392 12.8V12.192H61.108V12.06H61.526V12.808C61.542 12.82 61.558 12.834 61.576 12.854C61.624 12.912 61.676 12.954 61.732 12.98C61.796 13.008 61.886 13.024 62.006 13.028C62.112 13.03 62.244 13.032 62.402 13.032C62.494 13.032 62.59 13.03 62.688 13.028C62.784 13.026 62.858 13.024 62.91 13.02L62.876 13.164H62.422ZM61.712 12.154H62.196C62.208 12.068 62.216 11.97 62.22 11.858H61.78V11.726H62.384C62.446 11.61 62.5 11.486 62.544 11.354L62.68 11.402C62.636 11.524 62.586 11.632 62.53 11.726H62.79V11.858H62.362C62.358 11.97 62.352 12.07 62.34 12.154H62.858V12.29H62.314C62.258 12.532 62.082 12.732 61.786 12.89L61.694 12.774C61.946 12.65 62.104 12.49 62.164 12.29H61.712V12.154ZM61.986 11.37C62.052 11.458 62.114 11.556 62.174 11.662L62.052 11.722C61.992 11.614 61.926 11.516 61.856 11.432L61.986 11.37ZM62.406 12.408C62.572 12.524 62.722 12.65 62.856 12.786L62.756 12.894C62.616 12.746 62.472 12.616 62.32 12.504L62.406 12.408Z" fill="white"/>
</svg>
