<?xml version="1.0" encoding="utf-8"?>
<!-- Generator: Adobe Illustrator 23.0.0, SVG Export Plug-In . SVG Version: 6.00 Build 0)  -->
<svg version="1.1" id="图层_1" xmlns="http://www.w3.org/2000/svg" xmlns:xlink="http://www.w3.org/1999/xlink" x="0px" y="0px"
     viewBox="0 0 201.33 232.66" style="enable-background:new 0 0 201.33 232.66;" xml:space="preserve">
<style type="text/css">
	.st0{fill:#FFFFFF;}
</style>
  <g id="XMLID_702_">
	<path id="XMLID_703_" class="st0" d="M100.69,3.09l97.89,56.52v113.03l-97.89,56.52L2.8,172.64V59.61L100.69,3.09 M100.69,0
		L0.12,58.06v116.12l100.57,58.06l100.57-58.06V58.06L100.69,0L100.69,0z"/>
</g>
  <polygon id="XMLID_698_" class="st0" points="15.9,65.32 100.68,16.37 185.47,65.32 100.68,114.27 "/>
  <g id="XMLID_40_">
	<g>
		<path class="st0" d="M14.3,68.1V166l84.78,48.95v-97.9L14.3,68.1z M72.46,179.12l-0.05-34.49l-12.38,27.19l-10.68-6.26
			l-5.74-37.83l-6.59,30.59l-14.75-8.78l11.95-43.85l18.8,11.03l4.19,26.66l8.77-19.06l18.36,10.77l2.57,52.5L72.46,179.12z"/>
	</g>
</g>
  <g id="XMLID_37_">
	<g>
		<path class="st0" d="M102.29,117.05v97.9L187.07,166V68.1L102.29,117.05z M169.11,150.33c-0.49,6.57-3.5,13.5-8.23,17.86
			c-1.74,1.66-3.88,3.21-6.42,4.63c-0.98,0.55-2.1,1.12-3.36,1.73l-2.91,1.36l-2.27,0.92c-2.98,1.2-6.26,2.33-9.83,3.39
			c-1.37,0.4-2.78,0.79-4.22,1.17l-5.59,1.72l-0.31-14.23l8.78-2.17c0,0,3.45-0.9,5.02-1.38c1.87-0.58,3.57-1.17,5.09-1.78
			c5.51-2.22,8.66-4.74,9.44-7.56c0.45-1.22,0.39-2.21-0.17-2.97c-0.56-0.86-1.72-1.33-3.46-1.41c-0.74-0.03-1.68,0.01-2.8,0.1
			l-3.29,0.34c-1.45,0.23-2.75,0.4-3.9,0.51c-1.48,0.14-2.83,0.21-4.06,0.19c-3.04-0.04-5.43-0.55-7.14-1.52
			c-1.64-1.03-2.73-2.67-3.26-4.91c-0.38-1.59-0.48-3.54-0.29-5.84c0.49-6.62,3.1-12.08,7.83-16.39c1.77-1.67,3.91-3.23,6.42-4.67
			c0.98-0.55,2.1-1.12,3.36-1.73l3.25-1.54l2.2-0.89c2.5-1.01,5.26-1.97,8.28-2.88l3.69-1.07l4.29-1.16l0.46,12.41
			c-1.66,0.26-3.74,0.73-6.25,1.42c-3.22,0.84-6.14,1.79-8.74,2.84c-5.76,2.32-7.72,4.33-8.65,7.31c-0.35,1.23-0.34,2.32-0.2,3.33
			c0.17,1.2,0.1,1.56,2.7,1.85c0.79,0.03,1.79,0.01,2.99-0.07l7.57-0.81c1.45-0.13,2.76-0.19,3.91-0.17
			c2.79,0.04,4.91,0.52,6.37,1.45c1.72,0.98,2.85,2.61,3.41,4.88C169.2,146.25,169.3,148.15,169.11,150.33z"/>
	</g>
</g>
</svg>
