<?xml version="1.0" standalone="no"?><!DOCTYPE svg PUBLIC "-//W3C//DTD SVG 1.1//EN" "http://www.w3.org/Graphics/SVG/1.1/DTD/svg11.dtd"><svg t="1724755227948" class="icon" viewBox="0 0 1024 1024" version="1.1" xmlns="http://www.w3.org/2000/svg" p-id="14592" xmlns:xlink="http://www.w3.org/1999/xlink" width="200" height="200"><path d="M838.058667 425.685333a164.693333 164.693333 0 0 1-9.728 26.453334h0.085333l-0.512 1.066666c-28.416 63.829333-102.656 189.141333-102.656 189.141334l-0.341333-0.853334-21.674667 39.68h104.533333l-199.68 278.826667 45.312-189.653333h-82.346666l28.586666-125.44c-23.125333 5.845333-50.389333 13.952-82.773333 24.874666 0 0-43.776 26.88-126.208-51.84 0 0-55.552-51.328-23.338667-64.256 13.653333-5.418667 66.517333-12.373333 108.117334-18.346666 56.064-7.978667 90.624-12.245333 90.624-12.245334s-173.056 2.773333-214.144-4.053333c-41.088-6.784-93.056-78.762667-104.234667-141.994667 0 0-17.152-34.773333 36.821333-18.346666 54.101333 16.426667 277.845333 64 277.845334 64S271.445333 329.130667 252.074667 306.261333c-19.328-22.826667-56.96-124.8-52.053334-187.392 0 0 2.133333-15.658667 17.408-11.52 0 0 215.168 103.338667 362.24 159.744 147.072 56.618667 274.901333 85.418667 258.389334 158.592z" fill="#3296FA" p-id="14593"></path></svg>