<?xml version="1.0" standalone="no"?><!DOCTYPE svg PUBLIC "-//W3C//DTD SVG 1.1//EN" "http://www.w3.org/Graphics/SVG/1.1/DTD/svg11.dtd"><svg t="1724755431400" class="icon" viewBox="0 0 1024 1024" version="1.1" xmlns="http://www.w3.org/2000/svg" p-id="15115" xmlns:xlink="http://www.w3.org/1999/xlink" width="200" height="200"><path d="M689.92 778.88a13.184 13.184 0 0 0 1.877333 20.138667l3.797334 3.669333c24.661333 24.704 40.149333 55.04 46.506666 86.869333a49.408 49.408 0 0 0 1.877334 11.136 55.125333 55.125333 0 1 0 58.922666-69.376 169.301333 169.301333 0 0 1-94.293333-52.48 13.184 13.184 0 0 0-18.645333 0z" fill="#FB6500" p-id="15116"></path><path d="M914.005333 691.712a55.04 55.04 0 0 0-15.786666 33.194667 169.386667 169.386667 0 0 1-52.522667 94.293333 13.184 13.184 0 1 0 20.181333 16.853333 169.344 169.344 0 0 1 90.496-50.346666 50.218667 50.218667 0 0 0 11.178667-1.877334 55.125333 55.125333 0 1 0-53.546667-92.16z" fill="#3880E7" p-id="15117"></path><path d="M758.570667 535.850667a55.168 55.168 0 0 0 33.152 93.781333 169.386667 169.386667 0 0 1 94.336 52.48 13.226667 13.226667 0 1 0 16.810666-20.138667 169.472 169.472 0 0 1-50.346666-90.538666 48.768 48.768 0 0 0-1.834667-11.178667 55.168 55.168 0 0 0-92.16-24.405333z" fill="#2DBC00" p-id="15118"></path><path d="M731.349333 622.165333l-1.024 0.938667a13.226667 13.226667 0 0 0-1.536 1.834667l-3.669333 3.84a169.216 169.216 0 0 1-86.869333 46.506666 52.608 52.608 0 0 0-11.136 1.834667 55.125333 55.125333 0 1 0 69.376 58.922667 169.472 169.472 0 0 1 52.48-94.293334 13.184 13.184 0 0 0-17.621334-19.584z" fill="#FFCC00" p-id="15119"></path><path d="M398.08 145.834667c-98.986667 10.752-188.970667 53.12-253.354667 119.253333A338.176 338.176 0 0 0 83.2 351.786667c-20.949333 42.666667-31.573333 87.893333-31.573333 134.528 0 60.032 18.261333 119.210667 52.821333 171.136a470.613333 470.613333 0 0 0 72.448 82.858666l-11.861333 93.568c-0.512 1.28-1.024 2.56-1.28 3.882667-0.298667 1.237333-0.384 2.474667-0.512 3.754667-0.042667 0.938667-0.256 1.877333-0.256 2.858666 0 1.024 0.213333 2.005333 0.298666 3.072 1.578667 15.36 14.378667 27.434667 30.208 27.434667 5.504 0 10.581333-1.578667 15.061334-4.138667l0.426666-0.213333 1.92-1.152 28.458667-14.293333 84.693333-42.496c24.32 6.997333 48.512 11.434667 73.984 14.250666a458.624 458.624 0 0 0 102.101334-0.298666c34.773333-3.925333 68.181333-11.946667 99.882666-23.338667a55.082667 55.082667 0 0 1-37.546666-57.6 373.248 373.248 0 0 1-70.784 15.146667 384.384 384.384 0 0 1-85.504 0.256c-2.858667-0.341333-5.76-0.768-8.661334-1.194667a377.728 377.728 0 0 1-56.021333-11.733333 38.272 38.272 0 0 0-30.165333 3.072c-0.853333 0.426667-1.621333 0.768-2.432 1.237333l-69.546667 41.002667-3.029333 1.792h-0.085334c-1.493333 0.896-2.346667 1.28-3.114666 1.28a4.693333 4.693333 0 0 1-4.650667-4.864l2.688-10.794667 3.114667-11.818667 5.077333-19.328 5.632-21.546666a29.226667 29.226667 0 0 0-10.496-32.512 305.621333 305.621333 0 0 1-29.098667-24.405334 284.672 284.672 0 0 1-41.216-48.768 243.712 243.712 0 0 1-41.813333-134.997333c0-36.650667 8.362667-72.234667 24.874667-105.856a271.445333 271.445333 0 0 1 49.365333-69.504C249.514667 257.706667 323.968 222.805333 406.186667 213.888c14.293333-1.536 28.373333-2.346667 41.813333-2.346667 14.122667 0 28.8 0.853333 43.690667 2.56 81.834667 9.258667 155.818667 44.330667 208.341333 98.645334a271.061333 271.061333 0 0 1 49.152 69.674666c16.213333 33.365333 24.448 68.693333 24.448 104.96 0 3.797333-0.213333 7.552-0.426667 11.306667a55.04 55.04 0 0 1 67.669334 7.936c0.938667 0.938667 1.706667 1.962667 2.56 2.944a299.52 299.52 0 0 0-30.122667-156.714667 337.322667 337.322667 0 0 0-61.226667-86.912c-63.914667-66.090667-153.386667-108.672-251.946666-119.893333-17.706667-2.005333-35.242667-2.986667-52.138667-2.986667-16.085333 0-32.853333 0.896-49.92 2.773334z" fill="#0082EF" p-id="15120"></path></svg>