<?xml version="1.0" standalone="no"?><!DOCTYPE svg PUBLIC "-//W3C//DTD SVG 1.1//EN" "http://www.w3.org/Graphics/SVG/1.1/DTD/svg11.dtd"><svg t="1724755426418" class="icon" viewBox="0 0 1024 1024" version="1.1" xmlns="http://www.w3.org/2000/svg" p-id="14965" xmlns:xlink="http://www.w3.org/1999/xlink" width="200" height="200"><path d="M548.48 529.194667c0.682667-0.725333 1.450667-1.365333 2.133333-2.048 1.493333-1.365333 2.858667-2.773333 4.266667-4.181334l2.901333-2.858666 8.746667-8.661334 11.904-11.733333 10.197333-10.112 9.557334-9.472 10.026666-9.856 9.173334-9.088 12.8-12.629333a273.493333 273.493333 0 0 1 35.541333-29.696 290.645333 290.645333 0 0 1 80-39.808A504.533333 504.533333 0 0 0 650.410667 187.733333 45.568 45.568 0 0 0 614.656 170.666667h-368.213333c-6.656 0-9.429333 8.533333-4.053334 12.458666a1074.773333 1074.773333 0 0 1 305.237334 346.88l0.853333-0.853333z" fill="#00D6B9" p-id="14966"></path><path d="M402.432 853.333333a505.728 505.728 0 0 0 450.986667-276.522666 208.469333 208.469333 0 0 1-48.213334 61.184 187.733333 187.733333 0 0 1-31.658666 22.016 192.768 192.768 0 0 1-64.938667 22.314666 198.186667 198.186667 0 0 1-34.688 2.346667 207.786667 207.786667 0 0 1-34.730667-3.413333 216.149333 216.149333 0 0 1-19.797333-4.394667c-6.4-1.706667-12.672-3.456-18.944-5.290667-3.157333-0.853333-6.272-1.834667-9.386667-2.773333-4.693333-1.408-9.386667-2.816-13.994666-4.266667a966.698667 966.698667 0 0 1-22.186667-7.210666l-7.381333-2.432-8.874667-3.114667-6.4-2.218667-12.501333-4.608c-2.432-0.853333-4.821333-1.834667-7.253334-2.730666l-9.685333-3.754667-10.24-4.096-6.570667-2.688-8.192-3.413333-6.314666-2.688c-2.176-0.938667-4.394667-1.877333-6.528-2.858667l-5.674667-2.474667-5.162667-2.261333-5.248-2.389333-5.418666-2.474667-6.826667-3.2-7.125333-3.370667-7.594667-3.669333-6.4-3.2a1064.746667 1064.746667 0 0 1-301.184-224.682667 6.869333 6.869333 0 0 0-11.946667 4.693334l0.213334 324.949333v26.368c0 15.317333 7.594667 29.696 20.309333 38.186667A503.978667 503.978667 0 0 0 402.432 853.333333z" fill="#3370FF" p-id="14967"></path><path d="M844.672 593.322667a1.706667 1.706667 0 0 0-0.256 0.426666l0.256-0.426666 1.706667-3.2-1.706667 3.2zM852.565333 578.432l0.426667-0.853333 0.256-0.426667-0.682667 1.28z" fill="#133C92" p-id="14968"></path><path d="M960.853333 395.306667a288.298667 288.298667 0 0 0-127.744-29.653334 288.512 288.512 0 0 0-87.253333 13.397334l-6.016 1.962666a291.498667 291.498667 0 0 0-109.525333 67.541334l-12.8 12.629333-9.173334 9.088-9.984 9.813333-9.6 9.514667-10.197333 10.112-11.904 11.733333-8.704 8.661334-2.901333 2.858666-4.266667 4.181334c-0.725333 0.682667-1.450667 1.322667-2.133333 2.048l-3.242667 3.072-3.626667 3.413333a506.410667 506.410667 0 0 1-104.832 74.197333 303.573333 303.573333 0 0 0 12.245334 5.674667l5.205333 2.389333 5.205333 2.261334c1.877333 0.853333 3.797333 1.706667 5.674667 2.474666l6.528 2.858667 6.314667 2.688 8.192 3.413333a2542.08 2542.08 0 0 0 16.810666 6.784c3.2 1.28 6.442667 2.517333 9.685334 3.712l7.253333 2.773334 12.501333 4.565333 6.4 2.261333 8.874667 3.072 7.338667 2.517334 10.794666 3.541333 11.434667 3.626667a1278.464 1278.464 0 0 0 42.325333 12.330666 265.301333 265.301333 0 0 0 19.797334 4.437334 206.805333 206.805333 0 0 0 91.946666-3.84 179.925333 179.925333 0 0 0 27.818667-10.112 192.768 192.768 0 0 0 21.546667-11.392c2.218667-1.365333 4.352-2.773333 6.528-4.181334a216.405333 216.405333 0 0 0 18.133333-13.781333 201.002667 201.002667 0 0 0 48.128-61.013333l4.906667-9.813334 44.544-88.746666-0.085334 0.213333a275.498667 275.498667 0 0 1 57.898667-83.285333z" fill="#133C9A" p-id="14969"></path></svg>