<?xml version="1.0" encoding="utf-8"?>
<svg version="1.1" id="图层_1" xmlns="http://www.w3.org/2000/svg" xmlns:xlink="http://www.w3.org/1999/xlink" x="0px"
     y="0px"
     viewBox="0 0 24 24" style="enable-background:new 0 0 44 44;" xml:space="preserve">
  <g>
    <path class="st0" d="M4.222 4.222A10.969 10.969 0 0 1 12 1c3.037 0 5.789 1.232 7.778 3.222l-.707.707.707-.707A10.969 10.969 0 0 1 23 12c0 3.037-1.232 5.789-3.222 7.778A10.969 10.969 0 0 1 12 23a10.969 10.969 0 0 1-7.778-3.222l.707-.707-.707.707A10.969 10.969
     0 0 1 1 12c0-3.037 1.232-5.789 3.222-7.778ZM12 3a8.969 8.969 0 0 0-6.364 2.636A8.969
     8.969 0 0 0 3 12a8.969 8.969 0 0 0 2.636 6.364A8.969 8.969 0 0 0 12 21a8.968 8.968 0 0 0 6.364-2.636A8.968 8.968 0 0 0 21 12a8.969 8.969 0 0 0-2.636-6.364A8.969 8.969 0 0 0 12 3Z"/>
    <path class="st0"
          d="M8 9.312a4 4 0 1 1 5 3.874v1.126a1 1 0 1 1-2 0v-2a1 1 0 0 1 1-1 2 2 0 1 0-2-2 1 1 0 0 1-2 0ZM12 18.812a1.25 1.25 0 1 0 0-2.5 1.25 1.25 0 0 0 0 2.5Z"/>
  </g>
</svg>
