<svg width="24" height="24" viewBox="0 0 24 24" fill="none" xmlns="http://www.w3.org/2000/svg">
<path d="M1 4C1 1.79086 2.79086 0 5 0H19C21.2091 0 23 1.79086 23 4V20C23 22.2091 21.2091 24 19 24H5C2.79086 24 1 22.2091 1 20V4Z" fill="#04B49C"/>
<path fill-rule="evenodd" clip-rule="evenodd" d="M10.5398 12.3302H9.98563L8.95573 15.0042H9.55045L9.78495 14.3602H10.7369L10.9714 15.0042H11.5697L10.5398 12.3302ZM10.5576 13.8702H9.96468L10.2624 13.0622L10.5576 13.8702Z" fill="white"/>
<path fill-rule="evenodd" clip-rule="evenodd" d="M13.0143 12.3302H11.8908V15.0042H12.4473V14.0312H13.0073C13.3169 14.0312 13.5659 13.9654 13.7382 13.8187C13.9132 13.6698 13.9943 13.4503 13.9943 13.1772C13.9943 12.906 13.9141 12.6882 13.7403 12.5405C13.5692 12.3951 13.322 12.3302 13.0143 12.3302ZM13.4378 13.1772C13.4378 13.3138 13.3981 13.397 13.3404 13.4455C13.2757 13.4968 13.1635 13.5307 12.9828 13.5307H12.4473V12.8307H12.9828C13.1604 12.8307 13.2728 12.8649 13.3375 12.9166L13.3411 12.9192C13.3972 12.9596 13.4378 13.0387 13.4378 13.1772Z" fill="white"/>
<path d="M14.4726 12.3302H15.0256V15.0042H14.4726V12.3302Z" fill="white"/>
<path fill-rule="evenodd" clip-rule="evenodd" d="M12 6.16675C9.88683 6.16675 8.14857 7.77196 7.93806 9.82954C6.24037 10.3246 5 11.8925 5 13.7501C5 16.0052 6.82817 17.8334 9.08333 17.8334H14.9167C17.1718 17.8334 19 16.0052 19 13.7501C19 11.8925 17.7596 10.3246 16.0619 9.82954C15.8514 7.77196 14.1132 6.16675 12 6.16675ZM12 7.33341C10.3892 7.33341 9.08333 8.63925 9.08333 10.2501V10.8334C7.4725 10.8334 6.16667 12.1393 6.16667 13.7501C6.16667 15.3609 7.4725 16.6667 9.08333 16.6667H14.9167C16.5275 16.6667 17.8333 15.3609 17.8333 13.7501C17.8333 12.1393 16.5275 10.8334 14.9167 10.8334V10.2501C14.9167 8.63925 13.6108 7.33341 12 7.33341Z" fill="white"/>
<path fill-rule="evenodd" clip-rule="evenodd" d="M10.5398 12.3302H9.98563L8.95573 15.0042H9.55045L9.78495 14.3602H10.7369L10.9714 15.0042H11.5697L10.5398 12.3302ZM10.5576 13.8702H9.96468L10.2624 13.0622L10.5576 13.8702Z" fill="white"/>
<path fill-rule="evenodd" clip-rule="evenodd" d="M13.0143 12.3302H11.8908V15.0042H12.4473V14.0312H13.0073C13.3169 14.0312 13.5659 13.9654 13.7382 13.8187C13.9132 13.6698 13.9943 13.4503 13.9943 13.1772C13.9943 12.906 13.9141 12.6882 13.7403 12.5405C13.5692 12.3951 13.322 12.3302 13.0143 12.3302ZM13.4378 13.1772C13.4378 13.3138 13.3981 13.397 13.3404 13.4455C13.2757 13.4968 13.1635 13.5307 12.9828 13.5307H12.4473V12.8307H12.9828C13.1604 12.8307 13.2728 12.8649 13.3375 12.9166L13.3411 12.9192C13.3972 12.9596 13.4378 13.0387 13.4378 13.1772Z" fill="white"/>
<path d="M14.4726 12.3302H15.0256V15.0042H14.4726V12.3302Z" fill="white"/>
<path fill-rule="evenodd" clip-rule="evenodd" d="M12 6.16675C9.88683 6.16675 8.14857 7.77196 7.93806 9.82954C6.24037 10.3246 5 11.8925 5 13.7501C5 16.0052 6.82817 17.8334 9.08333 17.8334H14.9167C17.1718 17.8334 19 16.0052 19 13.7501C19 11.8925 17.7596 10.3246 16.0619 9.82954C15.8514 7.77196 14.1132 6.16675 12 6.16675ZM12 7.33341C10.3892 7.33341 9.08333 8.63925 9.08333 10.2501V10.8334C7.4725 10.8334 6.16667 12.1393 6.16667 13.7501C6.16667 15.3609 7.4725 16.6667 9.08333 16.6667H14.9167C16.5275 16.6667 17.8333 15.3609 17.8333 13.7501C17.8333 12.1393 16.5275 10.8334 14.9167 10.8334V10.2501C14.9167 8.63925 13.6108 7.33341 12 7.33341Z" fill="white"/>
</svg>
