<svg width="24" height="24" viewBox="0 0 24 24" fill="none" xmlns="http://www.w3.org/2000/svg">
  <path fill-rule="evenodd" clip-rule="evenodd" d="M4 2.5C4 1.94772 4.44772 1.5 5 1.5H14.7929C14.9255 1.5 15.0527 1.55268 15.1464 1.64645L19.8536 6.35355C19.9473 6.44732 20 6.5745 20 6.70711V21.5C20 22.0523 19.5523 22.5 19 22.5H5C4.44772 22.5 4 22.0523 4 21.5V2.5Z" fill="#D136D1"/>
  <path fill-rule="evenodd" clip-rule="evenodd" d="M4 2.5C4 1.94772 4.44772 1.5 5 1.5H14.7929C14.9255 1.5 15.0527 1.55268 15.1464 1.64645L19.8536 6.35355C19.9473 6.44732 20 6.5745 20 6.70711V21.5C20 22.0523 19.5523 22.5 19 22.5H5C4.44772 22.5 4 22.0523 4 21.5V2.5Z" fill="#3370FF"/>
  <path d="M15 1.54492C15.054 1.56949 15.1037 1.6037 15.1464 1.64646L19.8536 6.35357C19.8963 6.39632 19.9305 6.44602 19.9551 6.50001H16C15.4477 6.50001 15 6.0523 15 5.50001V1.54492Z" fill="#245BDB"/>
  <path d="M7.1377 16.2568V17.0008H10.7497V16.2088H8.3917L10.6897 13.4608V12.7168H7.3177V13.5088H9.4357L7.1377 16.2568Z" fill="white"/>
  <path d="M11.3043 12.7168V17.0008H12.2463V12.7168H11.3043Z" fill="white"/>
  <path d="M14.0159 14.7328V13.4488H14.7479C14.8559 13.4488 14.9599 13.4568 15.0599 13.4728C15.1599 13.4888 15.2479 13.5208 15.3239 13.5688C15.3999 13.6128 15.4599 13.6768 15.5039 13.7608C15.5519 13.8448 15.5759 13.9548 15.5759 14.0908C15.5759 14.2268 15.5519 14.3368 15.5039 14.4208C15.4599 14.5048 15.3999 14.5708 15.3239 14.6188C15.2479 14.6628 15.1599 14.6928 15.0599 14.7088C14.9599 14.7248 14.8559 14.7328 14.7479 14.7328H14.0159ZM13.0739 12.7168V17.0008H14.0159V15.4648H15.0059C15.2739 15.4648 15.5019 15.4268 15.6899 15.3508C15.8779 15.2708 16.0299 15.1668 16.1459 15.0388C16.2659 14.9108 16.3519 14.7648 16.4039 14.6008C16.4599 14.4328 16.4879 14.2628 16.4879 14.0908C16.4879 13.9148 16.4599 13.7448 16.4039 13.5808C16.3519 13.4168 16.2659 13.2708 16.1459 13.1428C16.0299 13.0148 15.8779 12.9128 15.6899 12.8368C15.5019 12.7568 15.2739 12.7168 15.0059 12.7168H13.0739Z" fill="white"/>
</svg>
