<svg width="24" height="24" viewBox="0 0 24 24" fill="none" xmlns="http://www.w3.org/2000/svg">
  <path fill-rule="evenodd" clip-rule="evenodd" d="M4 2.5C4 1.94772 4.44772 1.5 5 1.5H14.7929C14.9255 1.5 15.0527 1.55268 15.1464 1.64645L19.8536 6.35355C19.9473 6.44732 20 6.5745 20 6.70711V21.5C20 22.0523 19.5523 22.5 19 22.5H5C4.44772 22.5 4 22.0523 4 21.5V2.5Z" fill="#14C0FF"/>
  <path d="M15 1.54492C15.054 1.56949 15.1037 1.6037 15.1464 1.64646L19.8536 6.35357C19.8963 6.39632 19.9305 6.44602 19.9551 6.50001H16C15.4477 6.50001 15 6.0523 15 5.50001V1.54492Z" fill="#049FD7"/>
  <path d="M8.5 12C9.32843 12 10 11.3284 10 10.5C10 9.67157 9.32843 9 8.5 9C7.67157 9 7 9.67157 7 10.5C7 11.3284 7.67157 12 8.5 12Z" fill="white"/>
  <path d="M16.7088 11.1987C16.8162 11.0913 17 11.1674 17 11.3194V18.0483C17 18.1426 16.9236 18.2189 16.8294 18.2189H10.1004L10.0939 18.2188H7.17094C7.01895 18.2188 6.94284 18.0351 7.05031 17.9276L10.7744 14.2035C10.841 14.1369 10.9491 14.1369 11.0157 14.2035L12.3598 15.5477L16.7088 11.1987Z" fill="white"/>
</svg>
