<?xml version="1.0" standalone="no"?><!DOCTYPE svg PUBLIC "-//W3C//DTD SVG 1.1//EN" "http://www.w3.org/Graphics/SVG/1.1/DTD/svg11.dtd"><svg t="1724986460082" class="icon" viewBox="0 0 1024 1024" version="1.1" xmlns="http://www.w3.org/2000/svg" p-id="43327" xmlns:xlink="http://www.w3.org/1999/xlink" width="200" height="200"><path d="M320 85.333333a42.666667 42.666667 0 1 1 0 85.333334H170.666667v149.333333a42.666667 42.666667 0 0 1-37.674667 42.368L128 362.666667a42.666667 42.666667 0 0 1-42.666667-42.666667V128a42.666667 42.666667 0 0 1 42.666667-42.666667h192zM128 661.333333a42.666667 42.666667 0 0 1 42.666667 42.666667V853.333333h149.333333a42.666667 42.666667 0 0 1 42.368 37.674667L362.666667 896a42.666667 42.666667 0 0 1-42.666667 42.666667H128a42.666667 42.666667 0 0 1-42.666667-42.666667v-192a42.666667 42.666667 0 0 1 42.666667-42.666667zM896 85.333333a42.666667 42.666667 0 0 1 42.666667 42.666667v192a42.666667 42.666667 0 0 1-85.333334 0V170.666667h-149.333333a42.666667 42.666667 0 0 1-42.368-37.674667L661.333333 128a42.666667 42.666667 0 0 1 42.666667-42.666667H896z m-85.333333 384a42.666667 42.666667 0 0 1 0 85.333334H213.333333a42.666667 42.666667 0 0 1 0-85.333334h597.333334z m85.333333 192a42.666667 42.666667 0 0 1 42.666667 42.666667V896a42.666667 42.666667 0 0 1-42.666667 42.666667h-192a42.666667 42.666667 0 0 1 0-85.333334H853.333333v-149.333333a42.666667 42.666667 0 0 1 37.674667-42.368L896 661.333333z" p-id="43328"></path></svg>