<svg width="16" height="16" viewBox="0 0 16 16" fill="none" xmlns="http://www.w3.org/2000/svg">
  <g clip-path="url(#clip0_1896_218222)">
    <path d="M7.99935 15.3327C12.0494 15.3327 15.3327 12.0494 15.3327 7.99935C15.3327 3.94926 12.0494 0.666016 7.99935 0.666016C3.94926 0.666016 0.666016 3.94926 0.666016 7.99935C0.666016 12.0494 3.94926 15.3327 7.99935 15.3327Z" fill="#783887"/>
    <path d="M8.33268 11.332C8.51678 11.332 8.66602 11.1828 8.66602 10.9987V6.9987C8.66602 6.8146 8.51678 6.66536 8.33268 6.66536H7.66602C7.48192 6.66536 7.33268 6.8146 7.33268 6.9987V10.9987C7.33268 11.1828 7.48192 11.332 7.66602 11.332H8.33268Z" fill="white"/>
    <path d="M8.33268 5.9987C8.51678 5.9987 8.66602 5.84946 8.66602 5.66536V4.9987C8.66602 4.8146 8.51678 4.66537 8.33268 4.66537H7.66602C7.48192 4.66537 7.33268 4.8146 7.33268 4.9987V5.66536C7.33268 5.84946 7.48192 5.9987 7.66602 5.9987H8.33268Z" fill="white"/>
  </g>
  <defs>
    <clipPath id="clip0_1896_218222">
      <rect width="16" height="16" fill="white"/>
    </clipPath>
  </defs>
</svg>
