<svg width="24" height="24" viewBox="0 0 24 24" fill="none" xmlns="http://www.w3.org/2000/svg">
  <path fill-rule="evenodd" clip-rule="evenodd" d="M4 2.5C4 1.94772 4.44772 1.5 5 1.5H14.7929C14.9255 1.5 15.0527 1.55268 15.1464 1.64645L19.8536 6.35355C19.9473 6.44732 20 6.5745 20 6.70711V21.5C20 22.0523 19.5523 22.5 19 22.5H5C4.44772 22.5 4 22.0523 4 21.5V2.5Z" fill="#D136D1"/>
  <path fill-rule="evenodd" clip-rule="evenodd" d="M4 2.5C4 1.94772 4.44772 1.5 5 1.5H14.7929C14.9255 1.5 15.0527 1.55268 15.1464 1.64645L19.8536 6.35355C19.9473 6.44732 20 6.5745 20 6.70711V21.5C20 22.0523 19.5523 22.5 19 22.5H5C4.44772 22.5 4 22.0523 4 21.5V2.5Z" fill="#FF8800"/>
  <path d="M15 1.72408C15 1.6402 15.0871 1.58714 15.1464 1.64646L19.8536 6.35357C19.9129 6.41288 19.8598 6.50001 19.7759 6.50001H16C15.4477 6.50001 15 6.0523 15 5.50001V1.72408Z" fill="#FF8800"/>
  <path d="M10.0364 11C9.80989 11 9.59634 11.1055 9.45873 11.2854L8.14964 12.9966C7.94686 13.2617 7.95052 13.6307 8.1585 13.8917L11.4312 17.9987C11.5692 18.1719 11.7786 18.2727 12 18.2727C12.2214 18.2727 12.4308 18.1719 12.5688 17.9987L15.8415 13.8917C16.0495 13.6307 16.0531 13.2617 15.8504 12.9966L14.5413 11.2854C14.4037 11.1055 14.1901 11 13.9636 11H10.0364Z" fill="white"/>
</svg>
