<svg width="24" height="24" viewBox="0 0 24 24" fill="none" xmlns="http://www.w3.org/2000/svg">
<path d="M11 6.36219L9.19133 4.55353C8.98305 4.34525 8.64537 4.34525 8.43709 4.55353L7.77712 5.21349C7.56884 5.42177 7.56884 5.75946 7.77712 5.96774L11.5653 9.75597C11.6871 9.87775 11.8531 9.92832 12.0117 9.90769C12.1702 9.92832 12.3362 9.87775 12.458 9.75597L16.2462 5.96774C16.4545 5.75946 16.4545 5.42177 16.2462 5.21349L15.5863 4.55353C15.378 4.34525 15.0403 4.34525 14.832 4.55353L13 6.38554V1.53309C13 1.23854 12.7612 0.999756 12.4667 0.999756H11.5333C11.2388 0.999756 11 1.23854 11 1.53309V6.36219Z" fill="#1F2329"/>
<path d="M11 17.5501L9.19133 19.3587C8.98305 19.567 8.64537 19.567 8.43709 19.3587L7.77712 18.6987C7.56884 18.4905 7.56884 18.1528 7.77712 17.9445L11.5653 14.1563C11.6871 14.0345 11.8531 13.9839 12.0117 14.0045C12.1702 13.9839 12.3362 14.0345 12.458 14.1563L16.2462 17.9445C16.4545 18.1528 16.4545 18.4905 16.2462 18.6987L15.5863 19.3587C15.378 19.567 15.0403 19.567 14.832 19.3587L13 17.5267V22.3792C13 22.6737 12.7612 22.9125 12.4667 22.9125H11.5333C11.2388 22.9125 11 22.6737 11 22.3792V17.5501Z" fill="#1F2329"/>
<path d="M2.5 11.0001C2.22386 11.0001 2 11.2239 2 11.5001V12.5001C2 12.7762 2.22386 13.0001 2.5 13.0001H21.5C21.7761 13.0001 22 12.7762 22 12.5001V11.5001C22 11.2239 21.7761 11.0001 21.5 11.0001H2.5Z" fill="#1F2329"/>
</svg>
