<svg width="24" height="24" viewBox="0 0 24 24" fill="none" xmlns="http://www.w3.org/2000/svg">
<path d="M2.49999 8.41344C2.49999 8.54604 2.55267 8.67322 2.64643 8.76699C2.7402 8.86076 2.86738 8.91343 2.99999 8.91343H21.25C22.154 8.91343 22.594 7.80943 21.9375 7.18743L16.825 2.34394C16.7773 2.29875 16.7212 2.26339 16.6599 2.23989C16.5986 2.21639 16.5332 2.2052 16.4676 2.20697C16.4019 2.20873 16.3372 2.22341 16.2773 2.25018C16.2173 2.27694 16.1632 2.31525 16.118 2.36294L15.426 3.09344C15.3355 3.1889 15.2863 3.31617 15.289 3.44766C15.2918 3.57915 15.3462 3.70428 15.4405 3.79594L18.7405 7.00244H2.99999C2.93433 7.00244 2.86931 7.01537 2.80865 7.0405C2.74798 7.06562 2.69286 7.10245 2.64643 7.14888C2.60001 7.19531 2.56318 7.25043 2.53805 7.31109C2.51292 7.37176 2.49999 7.43677 2.49999 7.50244V8.41344V8.41344ZM2.74999 14.9999C1.84599 14.9999 1.40599 16.1039 2.06249 16.7259L7.17499 21.5699C7.22268 21.6151 7.27881 21.6504 7.34016 21.6739C7.4015 21.6973 7.46687 21.7085 7.53253 21.7067C7.59818 21.7048 7.66284 21.6901 7.7228 21.6633C7.78276 21.6365 7.83685 21.5981 7.88199 21.5504L8.56999 20.8249C8.61514 20.7772 8.65046 20.7211 8.67392 20.6598C8.69738 20.5984 8.70852 20.5331 8.70671 20.4674C8.7049 20.4017 8.69017 20.3371 8.66336 20.2771C8.63656 20.2172 8.5982 20.1631 8.55049 20.1179L5.25999 16.9999H21C21.1326 16.9999 21.2598 16.9473 21.3535 16.8535C21.4473 16.7597 21.5 16.6325 21.5 16.4999V15.4999C21.5 15.3673 21.4473 15.2401 21.3535 15.1464C21.2598 15.0526 21.1326 14.9999 21 14.9999H2.74999Z" fill="#1F2329"/>
</svg>
