<svg width="24" height="24" viewBox="0 0 24 24" fill="none" xmlns="http://www.w3.org/2000/svg">
<path d="M5.46056 11.3333C6.24448 10.2598 6.93835 8.35883 7.63054 5.59633C8.02571 4.01919 8.50632 3.33333 8.92325 3.33333C9.29144 3.33333 9.58992 3.03486 9.58992 2.66667C9.58992 2.29848 9.29144 2 8.92325 2C7.67896 2 6.86664 3.15923 6.33719 5.27226C5.74357 7.64138 5.14 9.30045 4.61099 10.217C4.38426 10.0793 4.11814 10 3.8335 10H2.8335C2.00507 10 1.3335 10.6716 1.3335 11.5V12.5C1.3335 13.3284 2.00507 14 2.8335 14H3.8335C4.08122 14 4.31493 13.9399 4.52084 13.8336C5.00808 14.8292 5.54834 16.4364 6.07945 18.6283C6.60769 20.8084 7.41517 22 8.66676 22C9.03495 22 9.33343 21.7015 9.33343 21.3333C9.33343 20.9651 9.03495 20.6667 8.66676 20.6667C8.25713 20.6667 7.77168 19.9503 7.37529 18.3144C6.73759 15.6826 6.09979 13.8104 5.39052 12.6667H9.70014C9.86582 12.6667 10.0001 12.5324 10.0001 12.3667V11.6333C10.0001 11.4676 9.86582 11.3333 9.70014 11.3333H5.46056Z" fill="#2B2F36"/>
<path d="M12.0002 3.16667C12.0002 2.89052 12.224 2.66667 12.5002 2.66667H22.1669C22.443 2.66667 22.6669 2.89052 22.6669 3.16667V4.83333C22.6669 5.10948 22.443 5.33333 22.1669 5.33333H12.5002C12.224 5.33333 12.0002 5.10948 12.0002 4.83333V3.16667Z" fill="#2B2F36"/>
<path d="M12.5002 10.6667C12.224 10.6667 12.0002 10.8905 12.0002 11.1667V12.8333C12.0002 13.1095 12.224 13.3333 12.5002 13.3333H22.1669C22.443 13.3333 22.6669 13.1095 22.6669 12.8333V11.1667C22.6669 10.8905 22.443 10.6667 22.1669 10.6667H12.5002Z" fill="#2B2F36"/>
<path d="M12.0002 19.1667C12.0002 18.8905 12.224 18.6667 12.5002 18.6667H22.1669C22.443 18.6667 22.6669 18.8905 22.6669 19.1667V20.8333C22.6669 21.1095 22.443 21.3333 22.1669 21.3333H12.5002C12.224 21.3333 12.0002 21.1095 12.0002 20.8333V19.1667Z" fill="#2B2F36"/>
</svg>
