<?xml version="1.0" standalone="no"?><!DOCTYPE svg PUBLIC "-//W3C//DTD SVG 1.1//EN" "http://www.w3.org/Graphics/SVG/1.1/DTD/svg11.dtd"><svg t="1725003061177" class="icon" viewBox="0 0 1024 1024" version="1.1" xmlns="http://www.w3.org/2000/svg" p-id="43474" xmlns:xlink="http://www.w3.org/1999/xlink" width="200" height="200"><path d="M512 85.333333a192 192 0 1 1 0 384 192 192 0 0 1 0-384z m0 85.333334a106.666667 106.666667 0 1 0 0 213.333333 106.666667 106.666667 0 0 0 0-213.333333z m110.933333 384c128.042667 0 158.506667 2.474667 199.253334 23.253333a213.333333 213.333333 0 0 1 93.226666 93.226667c20.778667 40.746667 23.253333 71.210667 23.253334 199.253333v25.6a42.666667 42.666667 0 0 1-42.666667 42.666667H128a42.666667 42.666667 0 0 1-42.666667-42.666667v-25.6c0-128.042667 2.474667-158.506667 23.253334-199.253333a213.333333 213.333333 0 0 1 93.226666-93.226667C242.56 557.141333 273.066667 554.666667 401.066667 554.666667h221.866666z m22.485334 85.333333H378.581333c-92.16 0.341333-116.522667 2.986667-138.026666 13.952a128 128 0 0 0-55.936 55.936c-10.965333 21.504-13.610667 45.866667-13.909334 138.026667L170.666667 853.333333h682.624v-5.418666c-0.298667-88.618667-2.773333-114.56-12.672-135.509334l-1.237334-2.517333a128 128 0 0 0-55.936-55.936c-21.504-10.965333-45.866667-13.610667-138.026666-13.909333z" p-id="43475"></path></svg>