<svg width="16" height="16" viewBox="0 0 16 16" fill="none" xmlns="http://www.w3.org/2000/svg">
  <path d="M8.17909 1.77868L14.8916 6.05024C15.0974 6.18122 15.0974 6.4817 14.8916 6.61268L8.17909 10.8842C8.06991 10.9537 7.93037 10.9537 7.82118 10.8842L1.10872 6.61268C0.902888 6.4817 0.902888 6.18122 1.10872 6.05024L7.82118 1.77868C7.93037 1.70919 8.06991 1.70919 8.17909 1.77868ZM3.15031 6.33146L8.00014 9.41771L12.85 6.33146L8.00014 3.24521L3.15031 6.33146Z" fill="#646A73"/>
  <path d="M1.73109 9.25553C1.57415 9.15931 1.36891 9.20852 1.27269 9.36547L0.924211 9.93381C0.827982 10.0907 0.877201 10.296 1.03414 10.3922L7.13758 14.1345C7.56582 14.3971 8.10108 14.3971 8.52933 14.1345L14.6328 10.3922C14.7897 10.296 14.8389 10.0907 14.7427 9.93381L14.3942 9.36547C14.298 9.20852 14.0928 9.15931 13.9358 9.25553L7.92057 12.9438C7.86712 12.9765 7.79979 12.9765 7.74634 12.9438L1.73109 9.25553Z" fill="#646A73"/>
</svg>
