<svg width="16" height="16" viewBox="0 0 16 16" fill="none" xmlns="http://www.w3.org/2000/svg">
  <path d="M8.00033 14.0013C11.314 14.0013 14.0003 11.315 14.0003 8.0013C14.0003 4.68759 11.314 2.0013 8.00033 2.0013C4.68662 2.0013 2.00033 4.68759 2.00033 8.0013C2.00033 11.315 4.68662 14.0013 8.00033 14.0013ZM8.00033 15.3346C3.95024 15.3346 0.666992 12.0514 0.666992 8.0013C0.666992 3.95121 3.95024 0.667969 8.00033 0.667969C12.0504 0.667969 15.3337 3.95121 15.3337 8.0013C15.3337 12.0514 12.0504 15.3346 8.00033 15.3346ZM7.22699 9.52127L10.7625 5.98573C10.8927 5.85556 11.1038 5.85556 11.2339 5.98573L11.7053 6.45714C11.8355 6.58731 11.8355 6.79837 11.7053 6.92854L7.4627 11.1712C7.33252 11.3014 7.12147 11.3014 6.99129 11.1712L4.55101 8.7309C4.42084 8.60073 4.42084 8.38967 4.55101 8.2595L5.02242 7.78809C5.15259 7.65792 5.36365 7.65792 5.49382 7.78809L7.22699 9.52127Z" fill="#34C724"/>
</svg>
