<svg width="24" height="24" viewBox="0 0 24 24" fill="none" xmlns="http://www.w3.org/2000/svg">
  <path fill-rule="evenodd" clip-rule="evenodd" d="M4 2.5C4 1.94772 4.44772 1.5 5 1.5H14.7929C14.9255 1.5 15.0527 1.55268 15.1464 1.64645L19.8536 6.35355C19.9473 6.44732 20 6.5745 20 6.70711V21.5C20 22.0523 19.5523 22.5 19 22.5H5C4.44772 22.5 4 22.0523 4 21.5V2.5Z" fill="#3370FF"/>
  <path d="M11.0095 16.5133L11.1055 16.9993H11.7055V14.6833H9.90554V15.3853H10.8535C10.8255 15.6853 10.7255 15.9153 10.5535 16.0753C10.3855 16.2313 10.1455 16.3093 9.83354 16.3093C9.62154 16.3093 9.44154 16.2693 9.29354 16.1893C9.14554 16.1053 9.02554 15.9953 8.93354 15.8593C8.84154 15.7233 8.77354 15.5713 8.72954 15.4033C8.68954 15.2313 8.66954 15.0553 8.66954 14.8753C8.66954 14.6873 8.68954 14.5053 8.72954 14.3293C8.77354 14.1533 8.84154 13.9973 8.93354 13.8613C9.02554 13.7213 9.14554 13.6113 9.29354 13.5313C9.44154 13.4473 9.62154 13.4053 9.83354 13.4053C10.0615 13.4053 10.2555 13.4653 10.4155 13.5853C10.5755 13.7053 10.6835 13.8853 10.7395 14.1253H11.6395C11.6155 13.8813 11.5495 13.6653 11.4415 13.4773C11.3335 13.2893 11.1955 13.1313 11.0275 13.0033C10.8635 12.8753 10.6775 12.7793 10.4695 12.7153C10.2655 12.6473 10.0535 12.6133 9.83354 12.6133C9.50554 12.6133 9.20954 12.6713 8.94554 12.7873C8.68554 12.9033 8.46554 13.0633 8.28554 13.2673C8.10554 13.4713 7.96754 13.7113 7.87154 13.9873C7.77554 14.2593 7.72754 14.5553 7.72754 14.8753C7.72754 15.1873 7.77554 15.4793 7.87154 15.7513C7.96754 16.0193 8.10554 16.2533 8.28554 16.4533C8.46554 16.6533 8.68554 16.8113 8.94554 16.9273C9.20954 17.0393 9.50554 17.0953 9.83354 17.0953C10.0415 17.0953 10.2475 17.0533 10.4515 16.9693C10.6555 16.8813 10.8415 16.7293 11.0095 16.5133Z" fill="white"/>
  <path d="M12.1903 16.2553V16.9993H15.8023V16.2073H13.4443L15.7423 13.4593V12.7153H12.3703V13.5073H14.4883L12.1903 16.2553Z" fill="white"/>
  <path d="M15 1.54492C15.054 1.56949 15.1037 1.6037 15.1464 1.64646L19.8536 6.35357C19.8963 6.39632 19.9305 6.44602 19.9551 6.50001H16C15.4477 6.50001 15 6.0523 15 5.50001V1.54492Z" fill="#245BDB"/>
</svg>
