<svg width="14" height="14" viewBox="0 0 14 14" fill="none" xmlns="http://www.w3.org/2000/svg">
  <path d="M6.4165 6.41602V1.53992C6.4165 1.4099 6.43004 1.36276 6.45546 1.31523C6.48088 1.26769 6.51818 1.23039 6.56571 1.20497C6.61324 1.17955 6.66039 1.16602 6.7904 1.16602H7.20927C7.33928 1.16602 7.38643 1.17955 7.43396 1.20497C7.48149 1.23039 7.51879 1.26769 7.54421 1.31523C7.56963 1.36276 7.58317 1.4099 7.58317 1.53992V6.41602H12.4593C12.5893 6.41602 12.6364 6.42955 12.684 6.45497C12.7315 6.48039 12.7688 6.51769 12.7942 6.56523C12.8196 6.61276 12.8332 6.6599 12.8332 6.78992V7.20878C12.8332 7.3388 12.8196 7.38594 12.7942 7.43347C12.7688 7.481 12.7315 7.51831 12.684 7.54373C12.6364 7.56915 12.5893 7.58268 12.4593 7.58268H7.58317V12.4588C7.58317 12.5888 7.56963 12.6359 7.54421 12.6835C7.51879 12.731 7.48149 12.7683 7.43396 12.7937C7.38643 12.8191 7.33928 12.8327 7.20927 12.8327H6.7904C6.66039 12.8327 6.61324 12.8191 6.56571 12.7937C6.51818 12.7683 6.48088 12.731 6.45546 12.6835C6.43004 12.6359 6.4165 12.5888 6.4165 12.4588V7.58268H1.5404C1.41039 7.58268 1.36324 7.56915 1.31571 7.54373C1.26818 7.51831 1.23088 7.481 1.20546 7.43347C1.18004 7.38594 1.1665 7.3388 1.1665 7.20878V6.78992C1.1665 6.6599 1.18004 6.61276 1.20546 6.56523C1.23088 6.51769 1.26818 6.48039 1.31571 6.45497C1.36324 6.42955 1.41039 6.41602 1.5404 6.41602H6.4165Z" fill="white"/>
</svg>
