<svg width="24" height="24" viewBox="0 0 24 24" fill="none" xmlns="http://www.w3.org/2000/svg">
<path d="M21.0027 2.66675C21.509 2.66675 21.9274 3.04295 21.9936 3.53105L22.0027 3.66675V20.3429C22.0027 20.8492 21.6265 21.2675 21.1384 21.3338L21.0027 21.3429H14.837C14.5954 21.3429 14.3938 21.1715 14.3472 20.9437L14.337 20.8429V19.8429C14.337 19.6013 14.5084 19.3997 14.7362 19.3531L14.837 19.3429H20.0027V4.66675H6.60796L6.60929 9.17061C6.60929 9.44676 6.38544 9.67061 6.10929 9.67061H5.10929C4.83315 9.67061 4.60929 9.44676 4.60929 9.17061V3.16675C4.60929 2.92512 4.78068 2.72353 5.00853 2.67691L5.10929 2.66675H21.0027ZM9.96121 11.39C10.1084 11.39 10.2508 11.4421 10.3631 11.5372L14.5554 15.0845C14.8177 15.3065 14.8505 15.6991 14.6285 15.9614C14.6062 15.9878 14.5818 16.0122 14.5554 16.0345L10.3631 19.5818C10.1008 19.8038 9.70819 19.7711 9.48622 19.5087C9.39115 19.3964 9.33899 19.254 9.33899 19.1068L9.33972 16.6753L3.16699 16.6753C2.89085 16.6753 2.66699 16.4515 2.66699 16.1753V15.1753C2.66699 14.8992 2.89085 14.6753 3.16699 14.6753L9.33972 14.6753L9.33899 12.0122C9.33899 11.6685 9.61757 11.39 9.96121 11.39Z" fill="#1F2329"/>
</svg>
