<svg width="24" height="24" viewBox="0 0 24 24" fill="none" xmlns="http://www.w3.org/2000/svg">
<path fill-rule="evenodd" clip-rule="evenodd" d="M1 4V20C1 20.5523 1.46904 21 2.04762 21H21.9524C22.531 21 23 20.5523 23 20V6C23 5.44772 22.531 5 21.9524 5H12L11.2764 3.55279C11.107 3.214 10.7607 3 10.382 3H2C1.44772 3 1 3.44772 1 4ZM3 19V7H21V19H3ZM12.4818 10.9624C12.4395 10.8155 12.4168 10.6604 12.4168 10.4999C12.4168 9.57944 13.163 8.83325 14.0835 8.83325C15.004 8.83325 15.7502 9.57944 15.7502 10.4999C15.7502 11.4204 15.004 12.1666 14.0835 12.1666C13.6239 12.1666 13.2077 11.9805 12.9062 11.6796L11.1018 12.7458C11.1442 12.8926 11.1668 13.0478 11.1668 13.2083C11.1668 13.3187 11.1561 13.4266 11.1356 13.5311L13.4339 14.6343C13.7397 14.2718 14.1972 14.0416 14.7085 14.0416C15.629 14.0416 16.3752 14.7878 16.3752 15.7083C16.3752 16.6287 15.629 17.3749 14.7085 17.3749C13.788 17.3749 13.0418 16.6287 13.0418 15.7083C13.0418 15.5978 13.0526 15.4899 13.0731 15.3854L10.7747 14.2822C10.469 14.6447 10.0115 14.8749 9.50016 14.8749C8.57969 14.8749 7.8335 14.1287 7.8335 13.2083C7.8335 12.2878 8.57969 11.5416 9.50016 11.5416C9.95981 11.5416 10.376 11.7277 10.6775 12.0286L12.4818 10.9624Z" fill="#1F2329"/>
</svg>
