<svg width="18" height="18" viewBox="0 0 18 18" fill="none" xmlns="http://www.w3.org/2000/svg">
  <path d="M1 3.66667C1 3.29848 1.32561 3 1.72727 3H7.82325C8.09872 3 8.35055 3.14267 8.47374 3.36852L9 4.33333H16.2727C16.6744 4.33333 17 4.63181 17 5V14.3333C17 14.7015 16.6744 15 16.2727 15H1.72727C1.32561 15 1 14.7015 1 14.3333V3.66667Z" fill="#8F959E"/>
  <path d="M9.48625 8.34685C9.45451 8.23672 9.4375 8.12035 9.4375 8C9.4375 7.30964 9.99714 6.75 10.6875 6.75C11.3779 6.75 11.9375 7.30964 11.9375 8C11.9375 8.69036 11.3779 9.25 10.6875 9.25C10.3428 9.25 10.0306 9.11045 9.80449 8.88476L8.45125 9.6844C8.48299 9.79453 8.5 9.9109 8.5 10.0312C8.5 10.1141 8.49194 10.195 8.47657 10.2734L10.2003 11.1008C10.4296 10.8289 10.7728 10.6563 11.1562 10.6563C11.8466 10.6563 12.4063 11.2159 12.4063 11.9062C12.4063 12.5966 11.8466 13.1563 11.1562 13.1563C10.4659 13.1563 9.90625 12.5966 9.90625 11.9062C9.90625 11.8234 9.91431 11.7425 9.92968 11.6641L8.20592 10.8367C7.97662 11.1086 7.63348 11.2813 7.25 11.2813C6.55964 11.2813 6 10.7216 6 10.0312C6 9.34089 6.55964 8.78125 7.25 8.78125C7.59473 8.78125 7.90687 8.9208 8.13301 9.14649L9.48625 8.34685Z" fill="white"/>
</svg>
