<svg width="16" height="16" viewBox="0 0 16 16" fill="none" xmlns="http://www.w3.org/2000/svg">
  <path d="M10.6667 11.6663C10.7551 11.6663 10.8399 11.7015 10.9024 11.764C10.9649 11.8265 11 11.9113 11 11.9997V13.333C11 13.3768 10.9914 13.4201 10.9746 13.4606C10.9579 13.501 10.9333 13.5378 10.9024 13.5687C10.8714 13.5997 10.8347 13.6242 10.7942 13.641C10.7538 13.6577 10.7104 13.6663 10.6667 13.6663H9.33333C9.28956 13.6663 9.24621 13.6577 9.20577 13.641C9.16533 13.6242 9.12858 13.5997 9.09763 13.5687C9.06668 13.5378 9.04213 13.501 9.02537 13.4606C9.00862 13.4201 9 13.3768 9 13.333V11.9997C9 11.9559 9.00862 11.9126 9.02537 11.8721C9.04213 11.8317 9.06668 11.7949 9.09763 11.764C9.12858 11.733 9.16533 11.7085 9.20577 11.6917C9.24621 11.675 9.28956 11.6663 9.33333 11.6663H10.6667ZM6.66667 11.6663C6.75507 11.6663 6.83986 11.7015 6.90237 11.764C6.96488 11.8265 7 11.9113 7 11.9997V13.333C7 13.3768 6.99138 13.4201 6.97463 13.4606C6.95788 13.501 6.93332 13.5378 6.90237 13.5687C6.87142 13.5997 6.83467 13.6242 6.79423 13.641C6.75379 13.6577 6.71044 13.6663 6.66667 13.6663H5.33333C5.28956 13.6663 5.24621 13.6577 5.20577 13.641C5.16533 13.6242 5.12858 13.5997 5.09763 13.5687C5.06668 13.5378 5.04213 13.501 5.02537 13.4606C5.00862 13.4201 5 13.3768 5 13.333V11.9997C5 11.9113 5.03512 11.8265 5.09763 11.764C5.16014 11.7015 5.24493 11.6663 5.33333 11.6663H6.66667ZM9.33333 6.99968H10.6667C10.7551 6.99968 10.8399 7.03479 10.9024 7.09731C10.9649 7.15982 11 7.2446 11 7.33301V8.66634C11 8.71012 10.9914 8.75346 10.9746 8.7939C10.9579 8.83434 10.9333 8.87109 10.9024 8.90204C10.8714 8.933 10.8347 8.95755 10.7942 8.9743C10.7538 8.99105 10.7104 8.99968 10.6667 8.99968H9.33333C9.28956 8.99968 9.24621 8.99105 9.20577 8.9743C9.16533 8.95755 9.12858 8.933 9.09763 8.90204C9.06668 8.87109 9.04213 8.83434 9.02537 8.7939C9.00862 8.75346 9 8.71012 9 8.66634V7.33301C9 7.28923 9.00862 7.24589 9.02537 7.20545C9.04213 7.16501 9.06668 7.12826 9.09763 7.09731C9.12858 7.06635 9.16533 7.0418 9.20577 7.02505C9.24621 7.0083 9.28956 6.99968 9.33333 6.99968ZM5.33333 6.99968H6.66667C6.75507 6.99968 6.83986 7.03479 6.90237 7.09731C6.96488 7.15982 7 7.2446 7 7.33301V8.66634C7 8.71012 6.99138 8.75346 6.97463 8.7939C6.95788 8.83434 6.93332 8.87109 6.90237 8.90204C6.87142 8.933 6.83467 8.95755 6.79423 8.9743C6.75379 8.99105 6.71044 8.99968 6.66667 8.99968H5.33333C5.28956 8.99968 5.24621 8.99105 5.20577 8.9743C5.16533 8.95755 5.12858 8.933 5.09763 8.90204C5.06668 8.87109 5.04213 8.83434 5.02537 8.7939C5.00862 8.75346 5 8.71012 5 8.66634V7.33301C5 7.2446 5.03512 7.15982 5.09763 7.09731C5.16014 7.03479 5.24493 6.99968 5.33333 6.99968ZM10.6667 2.33301C10.7104 2.33301 10.7538 2.34163 10.7942 2.35838C10.8347 2.37513 10.8714 2.39969 10.9024 2.43064C10.9333 2.46159 10.9579 2.49834 10.9746 2.53878C10.9914 2.57922 11 2.62257 11 2.66634V3.99967C11 4.08808 10.9649 4.17286 10.9024 4.23538C10.8399 4.29789 10.7551 4.33301 10.6667 4.33301H9.33333C9.28956 4.33301 9.24621 4.32439 9.20577 4.30763C9.16533 4.29088 9.12858 4.26633 9.09763 4.23538C9.06668 4.20442 9.04213 4.16768 9.02537 4.12724C9.00862 4.08679 9 4.04345 9 3.99967V2.66634C9 2.62257 9.00862 2.57922 9.02537 2.53878C9.04213 2.49834 9.06668 2.46159 9.09763 2.43064C9.12858 2.39969 9.16533 2.37513 9.20577 2.35838C9.24621 2.34163 9.28956 2.33301 9.33333 2.33301H10.6667ZM6.66667 2.33301C6.71044 2.33301 6.75379 2.34163 6.79423 2.35838C6.83467 2.37513 6.87142 2.39969 6.90237 2.43064C6.93332 2.46159 6.95788 2.49834 6.97463 2.53878C6.99138 2.57922 7 2.62257 7 2.66634V3.99967C7 4.08808 6.96488 4.17286 6.90237 4.23538C6.83986 4.29789 6.75507 4.33301 6.66667 4.33301H5.33333C5.28956 4.33301 5.24621 4.32439 5.20577 4.30763C5.16533 4.29088 5.12858 4.26633 5.09763 4.23538C5.06668 4.20442 5.04213 4.16768 5.02537 4.12724C5.00862 4.08679 5 4.04345 5 3.99967V2.66634C5 2.62257 5.00862 2.57922 5.02537 2.53878C5.04213 2.49834 5.06668 2.46159 5.09763 2.43064C5.12858 2.39969 5.16533 2.37513 5.20577 2.35838C5.24621 2.34163 5.28956 2.33301 5.33333 2.33301H6.66667Z" fill="#646A73"/>
</svg>
