<svg width="16" height="16" viewBox="0 0 16 16" fill="none" xmlns="http://www.w3.org/2000/svg">
  <path d="M7.98945 12.332C10.1481 12.332 12.1468 10.959 13.9996 7.99004C12.1944 5.03174 10.2003 3.66536 7.98945 3.66536C5.77935 3.66536 3.79241 5.03112 1.9996 7.99002C3.84004 10.9596 5.83157 12.332 7.98945 12.332ZM1.00123 8.59206C0.786561 8.22665 0.785108 7.77238 0.994814 7.4041C1.00229 7.39098 1.00945 7.37848 1.01623 7.36671C2.95161 4.01026 5.27578 2.33203 7.98874 2.33203C10.7128 2.33203 13.0513 4.02398 15.0044 7.40787C15.0102 7.418 15.0164 7.42871 15.0228 7.43992C15.2203 7.78592 15.2188 8.21303 15.0167 8.55641C13.0122 11.9624 10.6695 13.6654 7.98874 13.6654C5.31735 13.6654 2.98818 11.9743 1.00123 8.59206ZM7.9996 10.6654C6.52684 10.6654 5.33293 9.47146 5.33293 7.9987C5.33293 6.52594 6.52684 5.33203 7.9996 5.33203C9.47236 5.33203 10.6663 6.52594 10.6663 7.9987C10.6663 9.47146 9.47236 10.6654 7.9996 10.6654ZM7.9996 9.33203C8.73598 9.33203 9.33293 8.73508 9.33293 7.9987C9.33293 7.26232 8.73598 6.66536 7.9996 6.66536C7.26322 6.66536 6.66627 7.26232 6.66627 7.9987C6.66627 8.73508 7.26322 9.33203 7.9996 9.33203Z" fill="#646A73"/>
</svg>
