<svg width="24" height="24" viewBox="0 0 24 24" fill="none" xmlns="http://www.w3.org/2000/svg">
<path d="M16.5052 2.71041L21.4078 7.61302C21.6161 7.82129 21.6161 8.15898 21.4078 8.36726L16.0338 13.7413C15.8255 13.9496 15.4878 13.9496 15.2796 13.7413L14.6196 13.0813C14.4113 12.873 14.4113 12.5353 14.6196 12.3271L18.2785 8.6662L9.66651 8.66662C6.90508 8.66662 4.6665 10.9052 4.6665 13.6666C4.6665 16.428 6.90508 18.6666 9.66651 18.6666H13.4665C13.7611 18.6666 13.9998 18.9054 13.9998 19.2V20.1333C13.9998 20.4278 13.7611 20.6666 13.4665 20.6666H9.33317C5.62226 20.4851 2.6665 17.4211 2.6665 13.6666C2.6665 9.91218 5.62226 6.84809 9.33373 6.67439L9.33317 6.66662L17.6332 6.6662L15.091 4.12462C14.8827 3.91634 14.8827 3.57865 15.091 3.37038L15.751 2.71041C15.9593 2.50213 16.2969 2.50213 16.5052 2.71041Z" fill="#1F2329"/>
</svg>
