<svg width="24" height="24" viewBox="0 0 24 24" fill="none" xmlns="http://www.w3.org/2000/svg">
  <path fill-rule="evenodd" clip-rule="evenodd" d="M4 2.5C4 1.94772 4.44772 1.5 5 1.5H14.7929C14.9255 1.5 15.0527 1.55268 15.1464 1.64645L19.8536 6.35355C19.9473 6.44732 20 6.5745 20 6.70711V21.5C20 22.0523 19.5523 22.5 19 22.5H5C4.44772 22.5 4 22.0523 4 21.5V2.5Z" fill="#D136D1"/>
  <path fill-rule="evenodd" clip-rule="evenodd" d="M4 2.5C4 1.94772 4.44772 1.5 5 1.5H14.7929C14.9255 1.5 15.0527 1.55268 15.1464 1.64645L19.8536 6.35355C19.9473 6.44732 20 6.5745 20 6.70711V21.5C20 22.0523 19.5523 22.5 19 22.5H5C4.44772 22.5 4 22.0523 4 21.5V2.5Z" fill="#14C0FF"/>
  <path d="M15 1.54492C15.054 1.56949 15.1037 1.6037 15.1464 1.64646L19.8536 6.35357C19.8963 6.39632 19.9305 6.44602 19.9551 6.50001H16C15.4477 6.50001 15 6.0523 15 5.50001V1.54492Z" fill="#049FD7"/>
  <path d="M7.05579 15.5773H6.14379C6.13979 15.8413 6.18779 16.0693 6.28779 16.2613C6.38779 16.4533 6.52179 16.6113 6.68979 16.7353C6.86179 16.8593 7.05779 16.9493 7.27779 17.0053C7.50179 17.0653 7.73179 17.0953 7.96779 17.0953C8.25979 17.0953 8.51579 17.0613 8.73579 16.9933C8.95979 16.9253 9.14579 16.8313 9.29379 16.7113C9.44579 16.5873 9.55979 16.4413 9.63579 16.2733C9.71179 16.1053 9.74979 15.9233 9.74979 15.7273C9.74979 15.4873 9.69779 15.2913 9.59379 15.1393C9.49379 14.9833 9.37379 14.8593 9.23379 14.7673C9.09379 14.6753 8.95179 14.6093 8.80779 14.5693C8.66779 14.5253 8.55779 14.4953 8.47779 14.4793C8.20979 14.4113 7.99179 14.3553 7.82379 14.3113C7.65979 14.2673 7.52979 14.2233 7.43379 14.1793C7.34179 14.1353 7.27979 14.0873 7.24779 14.0353C7.21579 13.9833 7.19979 13.9153 7.19979 13.8313C7.19979 13.7393 7.21979 13.6633 7.25979 13.6033C7.29979 13.5433 7.34979 13.4933 7.40979 13.4533C7.47379 13.4133 7.54379 13.3853 7.61979 13.3693C7.69579 13.3533 7.77179 13.3453 7.84779 13.3453C7.96379 13.3453 8.06979 13.3553 8.16579 13.3753C8.26579 13.3953 8.35379 13.4293 8.42979 13.4773C8.50579 13.5253 8.56579 13.5913 8.60979 13.6753C8.65779 13.7593 8.68579 13.8653 8.69379 13.9933H9.60579C9.60579 13.7453 9.55779 13.5353 9.46179 13.3633C9.36979 13.1873 9.24379 13.0433 9.08379 12.9313C8.92379 12.8193 8.73979 12.7393 8.53179 12.6913C8.32779 12.6393 8.11379 12.6133 7.88979 12.6133C7.69779 12.6133 7.50579 12.6393 7.31379 12.6913C7.12179 12.7433 6.94979 12.8233 6.79779 12.9313C6.64579 13.0393 6.52179 13.1753 6.42579 13.3393C6.33379 13.4993 6.28779 13.6893 6.28779 13.9093C6.28779 14.1053 6.32379 14.2733 6.39579 14.4133C6.47179 14.5493 6.56979 14.6633 6.68979 14.7553C6.80979 14.8473 6.94579 14.9233 7.09779 14.9833C7.24979 15.0393 7.40579 15.0873 7.56579 15.1273C7.72179 15.1713 7.87579 15.2113 8.02779 15.2473C8.17979 15.2833 8.31579 15.3253 8.43579 15.3733C8.55579 15.4213 8.65179 15.4813 8.72379 15.5533C8.79979 15.6253 8.83779 15.7193 8.83779 15.8353C8.83779 15.9433 8.80979 16.0333 8.75379 16.1053C8.69779 16.1733 8.62779 16.2273 8.54379 16.2673C8.45979 16.3073 8.36979 16.3353 8.27379 16.3513C8.17779 16.3633 8.08779 16.3693 8.00379 16.3693C7.87979 16.3693 7.75979 16.3553 7.64379 16.3273C7.52779 16.2953 7.42579 16.2493 7.33779 16.1893C7.25379 16.1253 7.18579 16.0433 7.13379 15.9433C7.08179 15.8433 7.05579 15.7213 7.05579 15.5773Z" fill="white"/>
  <path d="M13.1303 15.8593C13.2103 15.7513 13.2743 15.6173 13.3223 15.4573C13.3703 15.2973 13.3943 15.1033 13.3943 14.8753C13.3943 14.6873 13.3723 14.5053 13.3283 14.3293C13.2883 14.1533 13.2223 13.9973 13.1303 13.8613C13.0383 13.7213 12.9183 13.6113 12.7703 13.5313C12.6223 13.4473 12.4423 13.4053 12.2303 13.4053C12.0183 13.4053 11.8383 13.4473 11.6903 13.5313C11.5423 13.6113 11.4223 13.7213 11.3303 13.8613C11.2383 13.9973 11.1703 14.1533 11.1263 14.3293C11.0863 14.5053 11.0663 14.6873 11.0663 14.8753C11.0663 15.0553 11.0863 15.2313 11.1263 15.4033C11.1703 15.5713 11.2383 15.7233 11.3303 15.8593C11.4223 15.9953 11.5423 16.1053 11.6903 16.1893C11.8383 16.2693 12.0183 16.3093 12.2303 16.3093C12.3303 16.3093 12.4063 16.3053 12.4583 16.2973C12.5103 16.2893 12.5603 16.2733 12.6083 16.2493L12.2063 15.8833L12.6443 15.4153L13.1303 15.8593ZM13.2683 16.8493C12.9843 17.0133 12.6383 17.0953 12.2303 17.0953C11.9023 17.0953 11.6063 17.0393 11.3423 16.9273C11.0823 16.8113 10.8623 16.6533 10.6823 16.4533C10.5023 16.2533 10.3643 16.0193 10.2683 15.7513C10.1723 15.4793 10.1243 15.1873 10.1243 14.8753C10.1243 14.5553 10.1723 14.2593 10.2683 13.9873C10.3643 13.7113 10.5023 13.4713 10.6823 13.2673C10.8623 13.0633 11.0823 12.9033 11.3423 12.7873C11.6063 12.6713 11.9023 12.6133 12.2303 12.6133C12.5623 12.6133 12.8583 12.6713 13.1183 12.7873C13.3783 12.9033 13.5983 13.0633 13.7783 13.2673C13.9583 13.4713 14.0963 13.7113 14.1923 13.9873C14.2883 14.2593 14.3363 14.5553 14.3363 14.8753C14.3363 15.1873 14.2883 15.4773 14.1923 15.7453C14.0963 16.0133 13.9583 16.2493 13.7783 16.4533L14.3123 16.9393L13.8743 17.3953L13.2683 16.8493Z" fill="white"/>
  <path d="M14.9802 12.7153V16.9993H18.0102V16.2073H15.9222V12.7153H14.9802Z" fill="white"/>
</svg>
