<svg width="24" height="24" viewBox="0 0 24 24" fill="none" xmlns="http://www.w3.org/2000/svg">
<path d="M19.1435 12.9998H7.49951C7.22337 12.9998 6.99951 12.7759 6.99951 12.4998V11.5003C6.99951 11.2241 7.22337 11.0003 7.49951 11.0003H19.1855L14.1614 5.97546C13.9662 5.78024 13.9662 5.46374 14.1614 5.26848L14.8682 4.56125C15.0635 4.3659 15.3801 4.36585 15.5754 4.56115L21.5788 10.5645L21.5855 10.557L22.9964 11.9679C22.9984 11.9699 22.9984 11.9731 22.9964 11.9752L22.9961 11.9754C22.9941 11.9774 22.9942 11.9805 22.9963 11.9824V11.9824C22.9983 11.9842 22.9984 11.9874 22.9964 11.9893L21.5855 13.4003L21.578 13.3928L15.5752 19.3963C15.38 19.5915 15.0635 19.5916 14.8682 19.3964L14.161 18.6896C13.9656 18.4943 13.9656 18.1777 14.1609 17.9824L19.1435 12.9998ZM2.49976 3.99976C2.7759 3.99976 2.99976 4.22361 2.99976 4.49976V19.5003C2.99976 19.7764 2.7759 20.0003 2.49976 20.0003H1.49951C1.22337 20.0003 0.999512 19.7764 0.999512 19.5003V4.49976C0.999512 4.22361 1.22337 3.99976 1.49951 3.99976H2.49976Z" fill="#1F2329"/>
</svg>
