<svg width="24" height="24" viewBox="0 0 24 24" fill="none" xmlns="http://www.w3.org/2000/svg">
  <path fill-rule="evenodd" clip-rule="evenodd" d="M4 2.5C4 1.94772 4.44772 1.5 5 1.5H14.7929C14.9255 1.5 15.0527 1.55268 15.1464 1.64645L19.8536 6.35355C19.9473 6.44732 20 6.5745 20 6.70711V21.5C20 22.0523 19.5523 22.5 19 22.5H5C4.44772 22.5 4 22.0523 4 21.5V2.5Z" fill="#D136D1"/>
  <path fill-rule="evenodd" clip-rule="evenodd" d="M4 2.5C4 1.94772 4.44772 1.5 5 1.5H14.7929C14.9255 1.5 15.0527 1.55268 15.1464 1.64645L19.8536 6.35355C19.9473 6.44732 20 6.5745 20 6.70711V21.5C20 22.0523 19.5523 22.5 19 22.5H5C4.44772 22.5 4 22.0523 4 21.5V2.5Z" fill="#3370FF"/>
  <path d="M15 1.72408C15 1.6402 15.0871 1.58714 15.1464 1.64646V1.64646L19.8536 6.35357V6.35357C19.9129 6.41288 19.8598 6.50001 19.7759 6.50001H16C15.4477 6.50001 15 6.0523 15 5.50001V1.72408Z" fill="#245BDB"/>
  <path d="M10.5347 6.53465H9.26733V7.80198H10.5347V9.06931H9.26733V10.3366H10.5347V11.604H9.26733V12.8317H10.5347V16H8V11.604H9.26733V10.3366H8V9.06931H9.26733V7.80198H8V6.53465H9.26733V5.26733H8V4H9.26733V5.26733H10.5347V6.53465Z" fill="white"/>
</svg>
