<svg width="24" height="24" viewBox="0 0 24 24" fill="none" xmlns="http://www.w3.org/2000/svg">
<path d="M2.5 21.0001C2.22386 21.0001 2 20.7762 2 20.5001V19.5001C2 19.2239 2.22386 19.0001 2.5 19.0001H21.5C21.7761 19.0001 22 19.2239 22 19.5001V20.5001C22 20.7762 21.7761 21.0001 21.5 21.0001H2.5Z" fill="#1F2329"/>
<path d="M6.19133 9.55352L11 14.3622V2.53309C11 2.23854 11.2388 1.99976 11.5333 1.99976H12.4667C12.7612 1.99976 13 2.23854 13 2.53309V14.3855L17.832 9.55352C18.0403 9.34525 18.378 9.34525 18.5863 9.55353L19.2462 10.2135C19.4545 10.4218 19.4545 10.7595 19.2462 10.9677L12.458 17.756C12.3362 17.8777 12.1702 17.9283 12.0117 17.9077C11.8531 17.9283 11.6871 17.8777 11.5653 17.756L4.77712 10.9677C4.56884 10.7595 4.56884 10.4218 4.77712 10.2135L5.43709 9.55353C5.64537 9.34525 5.98305 9.34525 6.19133 9.55352Z" fill="#1F2329"/>
</svg>
