<svg width="16" height="14" viewBox="0 0 16 14" fill="none" xmlns="http://www.w3.org/2000/svg">
  <path d="M11.9993 5.33301H3.99935V6.66634H11.9993V5.33301Z" fill="#1F2329"/>
  <path fill-rule="evenodd" clip-rule="evenodd" d="M1.33268 0.333008C0.964492 0.333008 0.666016 0.631485 0.666016 0.999674V10.9997C0.666016 11.3679 0.964492 11.6663 1.33268 11.6663H3.66602V12.6663C3.66602 12.8974 3.78565 13.112 3.98219 13.2334C4.17874 13.3549 4.42417 13.366 4.63082 13.2626L7.82339 11.6663H14.666C15.0342 11.6663 15.3327 11.3679 15.3327 10.9997V0.999674C15.3327 0.631485 15.0342 0.333008 14.666 0.333008H1.33268ZM1.99935 10.333V1.66634H13.9993V10.333H7.66602C7.56252 10.333 7.46044 10.3571 7.36787 10.4034L4.99935 11.5877V10.9997C4.99935 10.6315 4.70087 10.333 4.33268 10.333H1.99935Z" fill="#1F2329"/>
</svg>
