<svg width="14" height="14" viewBox="0 0 14 14" fill="none" xmlns="http://www.w3.org/2000/svg">
  <path d="M12.25 10.7923V12.2507C12.25 12.5728 11.9888 12.834 11.6667 12.834H2.33333C2.01117 12.834 1.75 12.5728 1.75 12.2507V10.7923C1.75 10.6312 1.88058 10.5007 2.04167 10.5007H2.625C2.78608 10.5007 2.91667 10.6312 2.91667 10.7923V11.6673H11.0833V10.7923C11.0833 10.6312 11.2139 10.5007 11.375 10.5007H11.9583C12.1194 10.5007 12.25 10.6312 12.25 10.7923ZM7.58334 8.18815L9.33944 6.43205C9.45334 6.31814 9.63802 6.31814 9.75192 6.43205L10.1644 6.84453C10.2783 6.95843 10.2783 7.1431 10.1644 7.257L7.27705 10.1444C7.2201 10.2013 7.14545 10.2298 7.07081 10.2298C6.99616 10.2298 6.92152 10.2013 6.86457 10.1444L3.97722 7.257C3.86331 7.1431 3.86331 6.95843 3.97722 6.84453L4.38969 6.43205C4.5036 6.31814 4.68827 6.31814 4.80217 6.43205L6.41667 8.04654V1.75065C6.41667 1.58957 6.54725 1.45898 6.70834 1.45898H7.29167C7.45275 1.45898 7.58334 1.58957 7.58334 1.75065V8.18815Z" fill="#1F2329"/>
</svg>
