<svg width="24" height="24" viewBox="0 0 24 24" fill="none" xmlns="http://www.w3.org/2000/svg">
<path fill-rule="evenodd" clip-rule="evenodd" d="M16 11C16 13.2091 14.2091 15 12 15C9.79086 15 8 13.2091 8 11C8 8.79086 9.79086 7 12 7C14.2091 7 16 8.79086 16 11ZM14 11C14 12.1046 13.1046 13 12 13C10.8954 13 10 12.1046 10 11C10 9.89543 10.8954 9 12 9C13.1046 9 14 9.89543 14 11Z" fill="#1F2329"/>
<path fill-rule="evenodd" clip-rule="evenodd" d="M22 11C22 17.051 14.5277 22.3547 12.5016 23.6816C12.1926 23.8839 11.8074 23.8839 11.4984 23.6816C9.47229 22.3547 2 17.051 2 11C2 5.47715 6.47715 1 12 1C17.5228 1 22 5.47715 22 11ZM20 11C20 13.2377 18.5806 15.594 16.5559 17.7397C14.9251 19.4681 13.1151 20.8347 12 21.6076C10.8849 20.8347 9.07491 19.4681 7.44406 17.7397C5.41938 15.594 4 13.2377 4 11C4 6.58172 7.58172 3 12 3C16.4183 3 20 6.58172 20 11Z" fill="#1F2329"/>
</svg>
