<svg width="16" height="16" viewBox="0 0 16 16" fill="none" xmlns="http://www.w3.org/2000/svg">
  <g clip-path="url(#clip0_4943_48305)">
    <path fill-rule="evenodd" clip-rule="evenodd" d="M0.666992 8.0013C0.666992 12.0518 3.9498 15.3346 8.00033 15.3346C12.0508 15.3346 15.3337 12.0518 15.3337 8.0013C15.3337 3.95078 12.0508 0.667969 8.00033 0.667969C3.9498 0.667969 0.666992 3.95078 0.666992 8.0013Z" fill="#34C724"/>
    <path d="M11.5978 6.54792C11.7768 6.36893 11.7768 6.07873 11.5978 5.89974L11.2737 5.57565C11.0947 5.39666 10.8045 5.39666 10.6256 5.57565L6.98194 9.21889L5.62995 7.86732C5.45096 7.68832 5.16076 7.68832 4.98177 7.86732L4.65768 8.19141C4.47869 8.3704 4.47869 8.6606 4.65768 8.83959L6.60222 10.7841C6.72914 10.911 6.91197 10.948 7.07159 10.8952C7.18518 10.8925 7.29796 10.8478 7.38465 10.7611L11.5978 6.54792Z" fill="white"/>
  </g>
  <defs>
    <clipPath id="clip0_4943_48305">
      <rect width="16" height="16" fill="white"/>
    </clipPath>
  </defs>
</svg>
