<svg width="24" height="24" viewBox="0 0 24 24" fill="none" xmlns="http://www.w3.org/2000/svg">
  <path d="M1 12C1 18.075 5.925 23 12 23C18.075 23 23 18.075 23 12C23 5.925 18.075 1 12 1C5.925 1 1 5.925 1 12ZM16.1435 8.97653C16.2373 8.8828 16.3644 8.83014 16.497 8.83014C16.6296 8.83014 16.7567 8.8828 16.8505 8.97653L17.5575 9.68403C17.6512 9.77779 17.7039 9.90495 17.7039 10.0375C17.7039 10.1701 17.6512 10.2973 17.5575 10.391L11.1935 16.755C11.0997 16.8488 10.9726 16.9014 10.84 16.9014C10.7074 16.9014 10.5803 16.8488 10.4865 16.755L6.82651 13.0945C6.73277 13.0008 6.68011 12.8736 6.68011 12.741C6.68011 12.6084 6.73277 12.4813 6.82651 12.3875L7.53301 11.68C7.62677 11.5863 7.75393 11.5336 7.88651 11.5336C8.01909 11.5336 8.14624 11.5863 8.24001 11.68L10.84 14.28L16.1435 8.97653Z" fill="#34C724"/>
</svg>
