<svg width="24" height="24" viewBox="0 0 24 24" fill="none" xmlns="http://www.w3.org/2000/svg">
  <path fill-rule="evenodd" clip-rule="evenodd" d="M4 2.5C4 1.94772 4.44772 1.5 5 1.5H14.7929C14.9255 1.5 15.0527 1.55268 15.1464 1.64645L19.8536 6.35355C19.9473 6.44732 20 6.5745 20 6.70711V21.5C20 22.0523 19.5523 22.5 19 22.5H5C4.44772 22.5 4 22.0523 4 21.5V2.5Z" fill="#34C724"/>
  <path d="M9.26954 14.1553H10.1815C10.1535 13.9073 10.0855 13.6873 9.97754 13.4953C9.86954 13.3033 9.73154 13.1433 9.56354 13.0153C9.39954 12.8833 9.21154 12.7833 8.99954 12.7153C8.79154 12.6473 8.56954 12.6133 8.33354 12.6133C8.00554 12.6133 7.70954 12.6713 7.44554 12.7873C7.18554 12.9033 6.96554 13.0633 6.78554 13.2673C6.60554 13.4713 6.46754 13.7113 6.37154 13.9873C6.27554 14.2593 6.22754 14.5553 6.22754 14.8753C6.22754 15.1873 6.27554 15.4793 6.37154 15.7513C6.46754 16.0193 6.60554 16.2533 6.78554 16.4533C6.96554 16.6533 7.18554 16.8113 7.44554 16.9273C7.70954 17.0393 8.00554 17.0953 8.33354 17.0953C8.59754 17.0953 8.83954 17.0553 9.05954 16.9753C9.27954 16.8953 9.47154 16.7793 9.63554 16.6273C9.79954 16.4753 9.93154 16.2913 10.0315 16.0753C10.1315 15.8593 10.1935 15.6173 10.2175 15.3493H9.30554C9.26954 15.6373 9.16954 15.8693 9.00554 16.0453C8.84554 16.2213 8.62154 16.3093 8.33354 16.3093C8.12154 16.3093 7.94154 16.2693 7.79354 16.1893C7.64554 16.1053 7.52554 15.9953 7.43354 15.8593C7.34154 15.7233 7.27354 15.5713 7.22954 15.4033C7.18954 15.2313 7.16954 15.0553 7.16954 14.8753C7.16954 14.6873 7.18954 14.5053 7.22954 14.3293C7.27354 14.1533 7.34154 13.9973 7.43354 13.8613C7.52554 13.7213 7.64554 13.6113 7.79354 13.5313C7.94154 13.4473 8.12154 13.4053 8.33354 13.4053C8.44954 13.4053 8.55954 13.4253 8.66354 13.4653C8.77154 13.5013 8.86754 13.5533 8.95154 13.6213C9.03554 13.6893 9.10554 13.7693 9.16154 13.8613C9.21754 13.9493 9.25354 14.0473 9.26954 14.1553Z" fill="white"/>
  <path d="M11.5028 15.5773H10.5908C10.5868 15.8413 10.6348 16.0693 10.7348 16.2613C10.8348 16.4533 10.9688 16.6113 11.1368 16.7353C11.3088 16.8593 11.5048 16.9493 11.7248 17.0053C11.9488 17.0653 12.1788 17.0953 12.4148 17.0953C12.7068 17.0953 12.9628 17.0613 13.1828 16.9933C13.4068 16.9253 13.5928 16.8313 13.7408 16.7113C13.8928 16.5873 14.0068 16.4413 14.0828 16.2733C14.1588 16.1053 14.1968 15.9233 14.1968 15.7273C14.1968 15.4873 14.1448 15.2913 14.0408 15.1393C13.9408 14.9833 13.8208 14.8593 13.6808 14.7673C13.5408 14.6753 13.3988 14.6093 13.2548 14.5693C13.1148 14.5253 13.0048 14.4953 12.9248 14.4793C12.6568 14.4113 12.4388 14.3553 12.2708 14.3113C12.1068 14.2673 11.9768 14.2233 11.8808 14.1793C11.7888 14.1353 11.7268 14.0873 11.6948 14.0353C11.6628 13.9833 11.6468 13.9153 11.6468 13.8313C11.6468 13.7393 11.6668 13.6633 11.7068 13.6033C11.7468 13.5433 11.7968 13.4933 11.8568 13.4533C11.9208 13.4133 11.9908 13.3853 12.0668 13.3693C12.1428 13.3533 12.2188 13.3453 12.2948 13.3453C12.4108 13.3453 12.5168 13.3553 12.6128 13.3753C12.7128 13.3953 12.8008 13.4293 12.8768 13.4773C12.9528 13.5253 13.0128 13.5913 13.0568 13.6753C13.1048 13.7593 13.1328 13.8653 13.1408 13.9933H14.0528C14.0528 13.7453 14.0048 13.5353 13.9088 13.3633C13.8168 13.1873 13.6908 13.0433 13.5308 12.9313C13.3708 12.8193 13.1868 12.7393 12.9788 12.6913C12.7748 12.6393 12.5608 12.6133 12.3368 12.6133C12.1448 12.6133 11.9528 12.6393 11.7608 12.6913C11.5688 12.7433 11.3968 12.8233 11.2448 12.9313C11.0928 13.0393 10.9688 13.1753 10.8728 13.3393C10.7808 13.4993 10.7348 13.6893 10.7348 13.9093C10.7348 14.1053 10.7708 14.2733 10.8428 14.4133C10.9188 14.5493 11.0168 14.6633 11.1368 14.7553C11.2568 14.8473 11.3928 14.9233 11.5448 14.9833C11.6968 15.0393 11.8528 15.0873 12.0128 15.1273C12.1688 15.1713 12.3228 15.2113 12.4748 15.2473C12.6268 15.2833 12.7628 15.3253 12.8828 15.3733C13.0028 15.4213 13.0988 15.4813 13.1708 15.5533C13.2468 15.6253 13.2848 15.7193 13.2848 15.8353C13.2848 15.9433 13.2568 16.0333 13.2008 16.1053C13.1448 16.1733 13.0748 16.2273 12.9908 16.2673C12.9068 16.3073 12.8168 16.3353 12.7208 16.3513C12.6248 16.3633 12.5348 16.3693 12.4508 16.3693C12.3268 16.3693 12.2068 16.3553 12.0908 16.3273C11.9748 16.2953 11.8728 16.2493 11.7848 16.1893C11.7008 16.1253 11.6328 16.0433 11.5808 15.9433C11.5288 15.8433 11.5028 15.7213 11.5028 15.5773Z" fill="white"/>
  <path d="M16.7493 16.9993L18.1713 12.7153H17.1993L16.2333 15.7273H16.2213L15.2673 12.7153H14.3013L15.6873 16.9993H16.7493Z" fill="white"/>
  <path d="M15 1.54492C15.054 1.56949 15.1037 1.6037 15.1464 1.64646L19.8536 6.35357C19.8963 6.39632 19.9305 6.44602 19.9551 6.50001H16C15.4477 6.50001 15 6.0523 15 5.50001V1.54492Z" fill="#2EA121"/>
</svg>
