<svg width="16" height="16" viewBox="0 0 16 16" fill="none" xmlns="http://www.w3.org/2000/svg">
  <path fill-rule="evenodd" clip-rule="evenodd" d="M5.33301 2.66683V2.00016C5.33301 1.63197 5.63148 1.3335 5.99967 1.3335H9.99967C10.3679 1.3335 10.6663 1.63197 10.6663 2.00016V2.66683H14.239C14.3876 2.66683 14.4415 2.6823 14.4958 2.71135C14.5501 2.7404 14.5928 2.78303 14.6218 2.83736C14.6509 2.89168 14.6663 2.94556 14.6663 3.09414V3.57285C14.6663 3.72144 14.6509 3.77532 14.6218 3.82964C14.5928 3.88396 14.5501 3.92659 14.4958 3.95564C14.4415 3.98469 14.3876 4.00016 14.239 4.00016H13.333V14.0002C13.333 14.3684 13.0345 14.6668 12.6663 14.6668H3.33301C2.96482 14.6668 2.66634 14.3684 2.66634 14.0002V4.00016H1.76032C1.61174 4.00016 1.55785 3.98469 1.50353 3.95564C1.44921 3.92659 1.40658 3.88396 1.37753 3.82964C1.34848 3.77532 1.33301 3.72144 1.33301 3.57285V3.09414C1.33301 2.94556 1.34848 2.89168 1.37753 2.83736C1.40658 2.78303 1.44921 2.7404 1.50353 2.71135C1.55785 2.6823 1.61174 2.66683 1.76032 2.66683H5.33301ZM3.99967 4.00016V13.3335H11.9997V4.00016H3.99967ZM6.33301 6.00016H6.99967C7.18377 6.00016 7.33301 6.1494 7.33301 6.3335V11.0002C7.33301 11.1843 7.18377 11.3335 6.99967 11.3335H6.33301C6.14891 11.3335 5.99967 11.1843 5.99967 11.0002V6.3335C5.99967 6.1494 6.14891 6.00016 6.33301 6.00016ZM8.99967 6.00016H9.66634C9.85044 6.00016 9.99967 6.1494 9.99967 6.3335V11.0002C9.99967 11.1843 9.85044 11.3335 9.66634 11.3335H8.99967C8.81558 11.3335 8.66634 11.1843 8.66634 11.0002V6.3335C8.66634 6.1494 8.81558 6.00016 8.99967 6.00016Z" fill="#646A73"/>
</svg>
