<svg width="16" height="16" viewBox="0 0 16 16" fill="none" xmlns="http://www.w3.org/2000/svg">
  <path d="M5.66684 2H14.3335C14.3773 2 14.4206 2.00862 14.4611 2.02537C14.5015 2.04212 14.5383 2.06667 14.5692 2.09762C14.6002 2.12858 14.6247 2.16532 14.6415 2.20577C14.6582 2.24621 14.6668 2.28955 14.6668 2.33333V3C14.6668 3.04377 14.6582 3.08712 14.6415 3.12756C14.6247 3.16801 14.6002 3.20475 14.5692 3.2357C14.5383 3.26666 14.5015 3.29121 14.4611 3.30796C14.4206 3.32471 14.3773 3.33333 14.3335 3.33333H5.66684C5.62307 3.33333 5.57972 3.32471 5.53928 3.30796C5.49883 3.29121 5.46208 3.26666 5.43113 3.2357C5.40018 3.20475 5.37562 3.16801 5.35887 3.12756C5.34212 3.08712 5.3335 3.04377 5.3335 3V2.33333C5.3335 2.28955 5.34212 2.24621 5.35887 2.20577C5.37562 2.16532 5.40018 2.12858 5.43113 2.09762C5.46208 2.06667 5.49883 2.04212 5.53928 2.02537C5.57972 2.00862 5.62307 2 5.66684 2V2ZM5.66684 7.33333H14.3335C14.3773 7.33333 14.4206 7.34195 14.4611 7.3587C14.5015 7.37545 14.5383 7.4 14.5692 7.43096C14.6002 7.46191 14.6247 7.49866 14.6415 7.5391C14.6582 7.57955 14.6668 7.6229 14.6668 7.66667V8.33333C14.6668 8.3771 14.6582 8.42045 14.6415 8.4609C14.6247 8.50134 14.6002 8.53809 14.5692 8.56904C14.5383 8.6 14.5015 8.62455 14.4611 8.6413C14.4206 8.65805 14.3773 8.66667 14.3335 8.66667H5.66684C5.62306 8.66667 5.57972 8.65805 5.53927 8.6413C5.49883 8.62455 5.46208 8.6 5.43113 8.56904C5.40017 8.53809 5.37562 8.50134 5.35887 8.4609C5.34211 8.42045 5.33349 8.3771 5.3335 8.33333V7.66667C5.33349 7.6229 5.34211 7.57955 5.35887 7.5391C5.37562 7.49866 5.40017 7.46191 5.43113 7.43096C5.46208 7.4 5.49883 7.37545 5.53927 7.3587C5.57972 7.34195 5.62306 7.33333 5.66684 7.33333V7.33333ZM1.66684 7.33333H3.66684C3.71061 7.33333 3.75396 7.34195 3.7944 7.3587C3.83485 7.37545 3.87159 7.40001 3.90254 7.43096C3.9335 7.46192 3.95805 7.49866 3.9748 7.53911C3.99155 7.57955 4.00017 7.6229 4.00017 7.66667V8.33333C4.00017 8.3771 3.99155 8.42045 3.9748 8.46089C3.95805 8.50133 3.9335 8.53808 3.90254 8.56904C3.87159 8.59999 3.83485 8.62455 3.7944 8.6413C3.75396 8.65805 3.71061 8.66667 3.66684 8.66667H1.66684C1.62306 8.66667 1.57972 8.65805 1.53927 8.6413C1.49883 8.62455 1.46208 8.6 1.43113 8.56904C1.40017 8.53809 1.37562 8.50134 1.35887 8.4609C1.34211 8.42045 1.33349 8.3771 1.3335 8.33333V7.66667C1.33349 7.6229 1.34211 7.57955 1.35887 7.5391C1.37562 7.49866 1.40017 7.46191 1.43113 7.43096C1.46208 7.4 1.49883 7.37545 1.53927 7.3587C1.57972 7.34195 1.62306 7.33333 1.66684 7.33333V7.33333ZM1.66684 2H3.66684C3.71061 2 3.75396 2.00862 3.7944 2.02537C3.83484 2.04212 3.87159 2.06668 3.90254 2.09763C3.93349 2.12858 3.95804 2.16533 3.9748 2.20577C3.99155 2.24621 4.00017 2.28955 4.00017 2.33333V3C4.00017 3.0884 3.96505 3.17319 3.90254 3.2357C3.84003 3.29821 3.75524 3.33333 3.66684 3.33333H1.66684C1.62307 3.33333 1.57972 3.32471 1.53928 3.30796C1.49883 3.29121 1.46209 3.26666 1.43113 3.2357C1.40018 3.20475 1.37562 3.16801 1.35887 3.12756C1.34212 3.08712 1.3335 3.04377 1.3335 3V2.33333C1.3335 2.28955 1.34212 2.24621 1.35887 2.20577C1.37562 2.16532 1.40018 2.12858 1.43113 2.09762C1.46209 2.06667 1.49883 2.04212 1.53928 2.02537C1.57972 2.00862 1.62307 2 1.66684 2ZM1.66684 12.6667H3.66684C3.71061 12.6667 3.75396 12.6753 3.7944 12.692C3.83484 12.7088 3.87159 12.7333 3.90254 12.7643C3.93349 12.7953 3.95804 12.832 3.9748 12.8724C3.99155 12.9129 4.00017 12.9562 4.00017 13V13.6667C4.00017 13.7551 3.96505 13.8399 3.90254 13.9024C3.84003 13.9649 3.75524 14 3.66684 14H1.66684C1.62307 14 1.57972 13.9914 1.53928 13.9746C1.49883 13.9579 1.46209 13.9333 1.43113 13.9024C1.40018 13.8714 1.37562 13.8347 1.35887 13.7942C1.34212 13.7538 1.3335 13.7104 1.3335 13.6667V13C1.3335 12.9562 1.34212 12.9129 1.35887 12.8724C1.37562 12.832 1.40018 12.7952 1.43113 12.7643C1.46209 12.7333 1.49883 12.7088 1.53928 12.692C1.57972 12.6753 1.62307 12.6667 1.66684 12.6667ZM5.66684 12.6667H14.3335C14.3773 12.6667 14.4206 12.6753 14.4611 12.692C14.5015 12.7088 14.5383 12.7333 14.5692 12.7643C14.6002 12.7952 14.6247 12.832 14.6415 12.8724C14.6582 12.9129 14.6668 12.9562 14.6668 13V13.6667C14.6668 13.7104 14.6582 13.7538 14.6415 13.7942C14.6247 13.8347 14.6002 13.8714 14.5692 13.9024C14.5383 13.9333 14.5015 13.9579 14.4611 13.9746C14.4206 13.9914 14.3773 14 14.3335 14H5.66684C5.62307 14 5.57972 13.9914 5.53928 13.9746C5.49883 13.9579 5.46208 13.9333 5.43113 13.9024C5.40018 13.8714 5.37562 13.8347 5.35887 13.7942C5.34212 13.7538 5.3335 13.7104 5.3335 13.6667V13C5.3335 12.9562 5.34212 12.9129 5.35887 12.8724C5.37562 12.832 5.40018 12.7952 5.43113 12.7643C5.46208 12.7333 5.49883 12.7088 5.53928 12.692C5.57972 12.6753 5.62307 12.6667 5.66684 12.6667Z" fill="#783887"/>
</svg>
