<svg width="100" height="100" viewBox="0 0 100 100" fill="none" xmlns="http://www.w3.org/2000/svg">
  <path fill-rule="evenodd" clip-rule="evenodd" d="M23.8394 11.2002H81.763C84.3246 11.2002 86.4012 13.265 86.4012 15.812V67.1548L66.6212 87.5741H23.8394C21.2778 87.5741 19.2012 85.5093 19.2012 82.9623V15.812C19.2012 13.265 21.2778 11.2002 23.8394 11.2002Z" fill="#D6DAE1"/>
  <path fill-rule="evenodd" clip-rule="evenodd" d="M66.6211 87.5414V68.6593C66.6211 67.8103 67.3133 67.1221 68.1672 67.1221H86.4011L66.6211 87.5414Z" fill="#B5BEC8"/>
  <rect x="60.5508" y="17.6001" width="20" height="25.6" rx="2" fill="#F4F5F9"/>
  <rect x="25.2812" y="17.6436" width="25.8" height="4" rx="1" fill="#F4F5F9"/>
  <rect x="25.2812" y="25.3135" width="25.8" height="4" rx="1" fill="#F4F5F9"/>
  <rect x="25.2812" y="33.3135" width="12.9" height="4" rx="1" fill="#F4F5F9"/>
  <rect x="25.2812" y="55.1392" width="55.04" height="3.4087" rx="1" fill="#F4F5F9"/>
  <rect x="25.2812" y="61.1045" width="55.04" height="3.4087" rx="1" fill="#F4F5F9"/>
  <path fill-rule="evenodd" clip-rule="evenodd" d="M39.7736 43.3125C30.6209 43.3125 23.2012 50.7689 23.2012 59.9669C23.2012 69.1649 30.6209 76.6214 39.7736 76.6214C42.0019 76.6214 44.1276 76.1794 46.0684 75.3779L54.6838 88.2974L59.1253 85.3051L50.6236 72.5561C54.1289 69.5024 56.346 64.9949 56.346 59.9669C56.346 50.7689 48.9263 43.3125 39.7736 43.3125ZM39.7736 48.6852C45.9738 48.6852 51 53.7363 51 59.9672C51 66.1981 45.9738 71.2492 39.7736 71.2492C33.5733 71.2492 28.5471 66.1981 28.5471 59.9672C28.5471 53.7363 33.5733 48.6852 39.7736 48.6852Z" fill="white"/>
  <path d="M19.6884 47.9915L19.3529 48.7749L11.9816 45.6134L12.3172 44.83L19.6884 47.9915Z" fill="#1F2329"/>
  <path d="M23.7013 45.2611L23.0465 45.8064L16.7053 38.187L17.3601 37.6416L23.7013 45.2611Z" fill="#1F2329"/>
  <path d="M19.8219 52.5229L19.8524 53.3757L9.75716 53.7193L9.72663 52.8665L19.8219 52.5229Z" fill="#1F2329"/>
</svg>
