<svg width="15" height="12" viewBox="0 0 15 12" fill="none" xmlns="http://www.w3.org/2000/svg">
  <path d="M8.24568 0.211889L7.77427 0.683294C7.6441 0.813468 7.6441 1.02452 7.77427 1.1547L11.9528 5.33293L0.56226 5.33321C0.378166 5.33321 0.228927 5.48245 0.228927 5.66654V6.33321C0.228927 6.51731 0.378166 6.66654 0.56226 6.66654L11.9532 6.66626L7.77427 10.8451C7.65411 10.9652 7.64487 11.1543 7.74654 11.2851L7.77427 11.3165L8.24568 11.7879C8.36584 11.908 8.55492 11.9173 8.68568 11.8156L8.71708 11.7879L14.2359 6.26908C14.3095 6.19542 14.3415 6.09587 14.3318 5.99972C14.3415 5.90374 14.3095 5.80428 14.2359 5.73067L8.71708 0.211889C8.58691 0.0817141 8.37585 0.0817141 8.24568 0.211889Z" fill="#646A73"/>
</svg>
