<svg width="24" height="24" viewBox="0 0 24 24" fill="none" xmlns="http://www.w3.org/2000/svg">
<path d="M5.3139 3.01931C5.5206 2.71224 5.99998 2.85856 5.99998 3.22872V21.6251C5.99998 21.8322 5.83209 22.0001 5.62498 22.0001H4.37498C4.16787 22.0001 3.99998 21.8322 3.99998 21.6251V9.00011H1.43927C1.25587 9.00011 1.14951 8.79248 1.25667 8.64364L5.23161 3.12283C5.24795 3.10013 5.2658 3.08006 5.28481 3.06252L5.3139 3.01931Z" fill="#1F2329"/>
<path d="M8.37498 5.33371C8.16787 5.33371 7.99998 5.5016 7.99998 5.70871V6.95871C7.99998 7.16581 8.16787 7.33371 8.37498 7.33371H15.625C15.8321 7.33371 16 7.16581 16 6.95871V5.70871C16 5.5016 15.8321 5.33371 15.625 5.33371H8.37498Z" fill="#1F2329"/>
<path d="M7.99998 12.0419C7.99998 11.8348 8.16787 11.6669 8.37498 11.6669H18.625C18.8321 11.6669 19 11.8348 19 12.0419V13.2919C19 13.499 18.8321 13.6669 18.625 13.6669H8.37498C8.16787 13.6669 7.99998 13.499 7.99998 13.2919V12.0419Z" fill="#1F2329"/>
<path d="M8.37498 18.0001C8.16787 18.0001 7.99998 18.168 7.99998 18.3751V19.6251C7.99998 19.8322 8.16787 20.0001 8.37498 20.0001H21.625C21.8321 20.0001 22 19.8322 22 19.6251V18.3751C22 18.168 21.8321 18.0001 21.625 18.0001H8.37498Z" fill="#1F2329"/>
</svg>
