<svg width="24" height="24" viewBox="0 0 24 24" fill="none" xmlns="http://www.w3.org/2000/svg">
<path fill-rule="evenodd" clip-rule="evenodd" d="M22 18C22 18.8519 21.4811 19.5044 20.9117 19.9531C20.331 20.4108 19.5528 20.7791 18.6802 21.07C16.9246 21.6552 14.5629 22 12 22C9.43715 22 7.07541 21.6552 5.31981 21.07C4.44724 20.7791 3.66896 20.4108 3.08829 19.9531C2.51889 19.5044 2 18.8519 2 18V6C2 5.14805 2.51889 4.49559 3.08829 4.04685C3.66896 3.58923 4.44724 3.22085 5.31981 2.93C7.07541 2.3448 9.43715 2 12 2C14.5629 2 16.9246 2.3448 18.6802 2.93C19.5528 3.22085 20.331 3.58923 20.9117 4.04685C21.4811 4.49559 22 5.14805 22 6V18ZM4 5.99994C4 5.99905 3.99998 5.99479 4.00305 5.98471C4.00645 5.97356 4.01483 5.95155 4.03507 5.91857C4.07752 5.84943 4.16408 5.74547 4.32624 5.61768C4.65642 5.35747 5.19616 5.0794 5.95227 4.82736C7.45402 4.32678 9.59229 4 12 4C14.4077 4 16.546 4.32678 18.0477 4.82736C18.8038 5.0794 19.3436 5.35747 19.6738 5.61768C19.8359 5.74547 19.9225 5.84943 19.9649 5.91857C19.9852 5.95155 19.9935 5.97356 19.9969 5.98471C20 5.99479 20 5.99905 20 5.99994C20 5.99998 20 5.99987 20 5.99994C20 6.00111 19.9999 6.00571 19.9969 6.01529C19.9935 6.02644 19.9852 6.04845 19.9649 6.08143C19.9225 6.15057 19.8359 6.25453 19.6738 6.38232C19.3436 6.64253 18.8038 6.9206 18.0477 7.17264C16.546 7.67322 14.4077 8 12 8C9.59229 8 7.45402 7.67322 5.95227 7.17264C5.19616 6.9206 4.65642 6.64253 4.32624 6.38232C4.16408 6.25453 4.07752 6.15057 4.03507 6.08143C4.01483 6.04845 4.00645 6.02644 4.00305 6.01529C4.00016 6.0058 4.00001 6.00115 4 5.99994ZM20 8.5266C19.5988 8.73177 19.1533 8.91229 18.6802 9.07C16.9246 9.6552 14.5629 10 12 10C9.43715 10 7.07541 9.6552 5.31981 9.07C4.84666 8.91229 4.40123 8.73177 4 8.5266V12C4.00001 12.0012 4.00016 12.0058 4.00305 12.0153C4.00645 12.0264 4.01483 12.0485 4.03507 12.0814C4.07752 12.1506 4.16408 12.2545 4.32624 12.3823C4.65642 12.6425 5.19616 12.9206 5.95227 13.1726C7.45402 13.6732 9.59229 14 12 14C14.4077 14 16.546 13.6732 18.0477 13.1726C18.8038 12.9206 19.3436 12.6425 19.6738 12.3823C19.8359 12.2545 19.9225 12.1506 19.9649 12.0814C19.9852 12.0485 19.9935 12.0264 19.9969 12.0153C19.9999 12.0057 20 12.0014 20 12.0002C20 12.0002 20 12.0003 20 12.0002V8.5266ZM20 14.5266C19.5988 14.7318 19.1533 14.9123 18.6802 15.07C16.9246 15.6552 14.5629 16 12 16C9.43715 16 7.07541 15.6552 5.31981 15.07C4.84666 14.9123 4.40123 14.7318 4 14.5266V18C4 18.0009 3.99998 18.0052 4.00305 18.0153C4.00645 18.0264 4.01483 18.0485 4.03507 18.0814C4.07752 18.1506 4.16408 18.2545 4.32624 18.3823C4.65642 18.6425 5.19616 18.9206 5.95227 19.1726C7.45402 19.6732 9.59229 20 12 20C14.4077 20 16.546 19.6732 18.0477 19.1726C18.8038 18.9206 19.3436 18.6425 19.6738 18.3823C19.8359 18.2545 19.9225 18.1506 19.9649 18.0814C19.9852 18.0485 19.9935 18.0264 19.9969 18.0153C20 18.0052 20 18.001 20 18.0001V14.5266Z" fill="#1F2329"/>
</svg>
