<svg width="14" height="14" viewBox="0 0 14 14" fill="none" xmlns="http://www.w3.org/2000/svg">
  <path d="M12.25 10.7917V12.25C12.25 12.5722 11.9888 12.8333 11.6667 12.8333H2.33333C2.01117 12.8333 1.75 12.5722 1.75 12.25V10.7917C1.75 10.6306 1.88058 10.5 2.04167 10.5H2.625C2.78608 10.5 2.91667 10.6306 2.91667 10.7917V11.6667H11.0833V10.7917C11.0833 10.6306 11.2139 10.5 11.375 10.5H11.9583C12.1194 10.5 12.25 10.6306 12.25 10.7917ZM7.58334 3.79163L9.33944 5.54774C9.45334 5.66164 9.63802 5.66164 9.75192 5.54774L10.1644 5.13526C10.2783 5.02136 10.2783 4.83668 10.1644 4.72278L7.27705 1.83543C7.2201 1.77848 7.14545 1.75 7.07081 1.75C6.99616 1.75 6.92152 1.77848 6.86457 1.83543L3.97722 4.72278C3.86331 4.83668 3.86331 5.02136 3.97722 5.13526L4.38969 5.54774C4.5036 5.66164 4.68827 5.66164 4.80217 5.54774L6.41667 3.93324V10.2291C6.41667 10.3902 6.54725 10.5208 6.70834 10.5208H7.29167C7.45275 10.5208 7.58334 10.3902 7.58334 10.2291V3.79163Z" fill="#1F2329"/>
</svg>
