<svg width="16" height="12" viewBox="0 0 16 12" fill="none" xmlns="http://www.w3.org/2000/svg">
  <path d="M0 0.666667C0 0.298477 0.325611 0 0.727273 0H6.82325C7.09872 0 7.35055 0.142668 7.47374 0.368524L8 1.33333H15.2727C15.6744 1.33333 16 1.63181 16 2V11.3333C16 11.7015 15.6744 12 15.2727 12H0.727273C0.325611 12 0 11.7015 0 11.3333V0.666667ZM1.81818 2.66667C1.61735 2.66667 1.45455 2.81591 1.45455 3V3.66667C1.45455 3.85076 1.61735 4 1.81818 4H14.1818C14.3826 4 14.5455 3.85076 14.5455 3.66667V3C14.5455 2.81591 14.3826 2.66667 14.1818 2.66667H1.81818Z" fill="#783887"/>
</svg>
