<svg width="24" height="24" viewBox="0 0 24 24" fill="none" xmlns="http://www.w3.org/2000/svg">
<path d="M2 21.0252C2 21.6173 2.47727 22.0973 3.06602 22.0973H9.99518V20.087H3.9988V4.01024L17.9904 4.01024V11.0461H19.9892V3.07213C19.9892 2.48001 19.5119 2 18.9231 2H3.06602C2.47727 2 2 2.48001 2 3.07213V21.0252Z" fill="#1F2329"/>
<path d="M5.99759 7.28851C5.99759 7.14048 6.11691 7.02048 6.2641 7.02048H15.7251C15.8722 7.02048 15.9916 7.14048 15.9916 7.28851V8.76269C15.9916 8.91072 15.8722 9.03072 15.7251 9.03072H6.2641C6.11691 9.03072 5.99759 8.91072 5.99759 8.76269V7.28851Z" fill="#1F2329"/>
<path d="M6.2641 11.0461C6.11691 11.0461 5.99759 11.1661 5.99759 11.3141V12.7883C5.99759 12.9363 6.11691 13.0563 6.2641 13.0563H10.3283C10.4755 13.0563 10.5948 12.9363 10.5948 12.7883V11.3141C10.5948 11.1661 10.4755 11.0461 10.3283 11.0461H6.2641Z" fill="#1F2329"/>
<path d="M20.8953 16.9983L12.6981 16.9983C12.422 16.9983 12.1981 16.7744 12.1981 16.4983V15.4983C12.1981 15.2221 12.422 14.9983 12.6981 14.9983H17.1982V13.621C17.1982 13.1881 17.711 12.9597 18.0327 13.2493L21.2297 16.1266C21.5704 16.4332 21.3535 16.9983 20.8953 16.9983Z" fill="#1F2329"/>
<path d="M16.198 20.9983V22.3756C16.198 22.8085 15.6853 23.0368 15.3635 22.7473L12.1665 19.8699C11.8259 19.5634 12.0428 18.9983 12.501 18.9983L20.6981 18.9983C20.9742 18.9983 21.1981 19.2221 21.1981 19.4983V20.4983C21.1981 20.7744 20.9742 20.9983 20.6981 20.9983H16.198Z" fill="#1F2329"/>
</svg>
