<svg width="24" height="24" viewBox="0 0 24 24" fill="none" xmlns="http://www.w3.org/2000/svg">
<path d="M12 23C18.0751 23 23 18.0751 23 12C23 5.92487 18.0751 1 12 1C5.92487 1 1 5.92487 1 12C1 18.0751 5.92487 23 12 23Z" fill="#1F2329"/>
<path d="M12.499 16.9995C12.7752 16.9995 12.999 16.7757 12.999 16.4995V10.4995C12.999 10.2234 12.7752 9.99951 12.499 9.99951H11.499C11.2229 9.99951 10.999 10.2234 10.999 10.4995V16.4995C10.999 16.7757 11.2229 16.9995 11.499 16.9995H12.499Z" fill="white"/>
<path d="M12.499 8.99951C12.7752 8.99951 12.999 8.77565 12.999 8.49951V7.49951C12.999 7.22337 12.7752 6.99951 12.499 6.99951H11.499C11.2229 6.99951 10.999 7.22337 10.999 7.49951V8.49951C10.999 8.77565 11.2229 8.99951 11.499 8.99951H12.499Z" fill="white"/>
</svg>
