<svg width="24" height="24" viewBox="0 0 24 24" fill="none" xmlns="http://www.w3.org/2000/svg">
<path d="M12.65 10.6423H3.36753V3.12289C3.36753 2.87097 3.15604 2.66675 2.89514 2.66675H1.80588C1.54499 2.66675 1.3335 2.87097 1.3335 3.12289V20.8605C1.3335 21.1124 1.54499 21.3166 1.80588 21.3166H2.89514C3.15604 21.3166 3.36753 21.1124 3.36753 20.8605V12.6431H12.65V20.8605C12.65 21.1124 12.8615 21.3166 13.1223 21.3166H14.219C14.4798 21.3166 14.6913 21.1124 14.6913 20.8605V3.12289C14.6913 2.87097 14.4798 2.66675 14.219 2.66675H13.1223C12.8615 2.66675 12.65 2.87097 12.65 3.12289V10.6423ZM18.2668 12.1155H17.1619C16.941 12.1155 16.7619 12.29 16.7619 12.5053V20.9437C16.7619 21.1589 16.941 21.3334 17.1619 21.3334H18.2668C18.4877 21.3334 18.6668 21.1589 18.6668 20.9437V15.8453C18.6668 15.2 18.8461 14.7086 19.2046 14.3712C19.2347 14.3419 19.2631 14.3138 19.2902 14.287C19.5811 13.9997 19.7265 13.8561 20.2267 13.8561C20.7736 13.8561 21.2202 14.0278 21.5666 14.3712C21.919 14.7086 22.0952 15.2 22.0952 15.8453V20.9437C22.0952 21.1589 22.2743 21.3334 22.4952 21.3334H23.6002C23.8211 21.3334 24.0002 21.1589 24.0002 20.9437V15.2059C23.9698 14.1521 23.6325 13.3529 22.9884 12.8082C22.3383 12.2695 21.6213 12.0001 20.8374 12.0001C19.8226 12.0001 19.3292 12.3642 18.7033 13.0924H18.6668V12.5053C18.6668 12.29 18.4877 12.1155 18.2668 12.1155Z" fill="#2B2F36"/>
</svg>
