<svg width="24" height="24" viewBox="0 0 24 24" fill="none" xmlns="http://www.w3.org/2000/svg">
  <path d="M4 2.5C4 1.94772 4.44772 1.5 5 1.5H14.7929C14.9255 1.5 15.0527 1.55268 15.1464 1.64645L19.8536 6.35355C19.9473 6.44732 20 6.5745 20 6.70711V21.5C20 22.0523 19.5523 22.5 19 22.5H5C4.44772 22.5 4 22.0523 4 21.5V2.5Z" fill="#F54A45"/>
  <path d="M15 1.54492C15.054 1.56949 15.1037 1.6037 15.1464 1.64646L19.8536 6.35357C19.8963 6.39632 19.9305 6.44602 19.9551 6.50001H16C15.4477 6.50001 15 6.0523 15 5.50001V1.54492Z" fill="#D83931"/>
  <path d="M10.1854 13.536V10.392H12.4174C13.0654 10.392 13.5374 10.528 13.8334 10.8C14.1374 11.064 14.2894 11.452 14.2894 11.964C14.2894 12.476 14.1374 12.868 13.8334 13.14C13.5374 13.412 13.0654 13.544 12.4174 13.536H10.1854ZM9.04538 9.432V18H10.1854V14.496H12.8014C13.6654 14.504 14.3174 14.284 14.7574 13.836C15.2054 13.388 15.4294 12.764 15.4294 11.964C15.4294 11.164 15.2054 10.544 14.7574 10.104C14.3174 9.656 13.6654 9.432 12.8014 9.432H9.04538Z" fill="white"/>
</svg>
