<svg width="24" height="24" viewBox="0 0 24 24" fill="none" xmlns="http://www.w3.org/2000/svg">
  <path fill-rule="evenodd" clip-rule="evenodd" d="M4 2.5C4 1.94772 4.44772 1.5 5 1.5H14.7929C14.9255 1.5 15.0527 1.55268 15.1464 1.64645L19.8536 6.35355C19.9473 6.44732 20 6.5745 20 6.70711V21.5C20 22.0523 19.5523 22.5 19 22.5H5C4.44772 22.5 4 22.0523 4 21.5V2.5Z" fill="#8F959E"/>
  <path d="M15 1.54492C15.054 1.56949 15.1037 1.6037 15.1464 1.64646L19.8536 6.35357C19.8963 6.39632 19.9305 6.44602 19.9551 6.50001H16C15.4477 6.50001 15 6.0523 15 5.50001V1.54492Z" fill="#646A73"/>
  <path d="M14.2875 9.86539C13.7417 9.34836 13.0255 9.0918 12.1348 9.0918C11.1342 9.0918 10.35 9.4126 9.78187 10.066C9.30059 10.6274 9.0413 11.1656 9.00422 12.014C9.00335 12.0339 9.0026 12.0707 9.00198 12.1131C8.99994 12.2517 9.11238 12.3645 9.25099 12.3645H9.84204C9.97951 12.3645 10.0909 12.2535 10.0931 12.1161C10.0938 12.0747 10.0946 12.039 10.0956 12.0199C10.1246 11.4338 10.2775 11.1272 10.5503 10.7861C10.8948 10.3269 11.4001 10.1009 12.0939 10.1009C12.7129 10.1009 13.1771 10.2588 13.4974 10.5791C13.8028 10.8973 13.962 11.3304 13.962 11.8736C13.962 12.2445 13.8276 12.5977 13.5544 12.949C13.4674 13.0578 13.342 13.1872 12.9383 13.5908C12.3007 14.1484 11.9068 14.6019 11.6988 15.0478C11.5277 15.3898 11.4405 15.7785 11.4405 16.1963V16.4782C11.4405 16.6162 11.5524 16.7282 11.6905 16.7282H12.2951C12.4331 16.7282 12.5451 16.6162 12.5451 16.4782V16.1963C12.5451 15.8423 12.6322 15.5247 12.8129 15.2151C12.9481 14.9851 13.1218 14.8048 13.4246 14.5399C14.0316 13.9907 14.3684 13.6635 14.5193 13.4715C14.8816 12.9933 15.0666 12.4455 15.0666 11.8463C15.0666 11.0194 14.807 10.356 14.2875 9.86539ZM11.7042 17.8191C11.5661 17.8191 11.4542 17.931 11.4542 18.0691V18.66C11.4542 18.798 11.5661 18.91 11.7042 18.91H12.2951C12.4331 18.91 12.5451 18.798 12.5451 18.66V18.0691C12.5451 17.931 12.4331 17.8191 12.2951 17.8191H11.7042Z" fill="white"/>
</svg>
