<svg width="12" height="12" viewBox="0 0 12 12" fill="none" xmlns="http://www.w3.org/2000/svg">
  <path d="M1.42869 2.42877L4.99456 5.99463L1.42869 9.5605C1.33106 9.65813 1.33106 9.81642 1.42869 9.91405L1.78225 10.2676C1.87988 10.3652 2.03817 10.3652 2.1358 10.2676L6.05522 6.34819C6.25048 6.15292 6.25048 5.83634 6.05522 5.64108L2.1358 1.72166C2.03817 1.62403 1.87988 1.62403 1.78225 1.72166L1.42869 2.07521C1.33106 2.17285 1.33106 2.33114 1.42869 2.42877Z" fill="#646A73"/>
  <path d="M5.87156 2.42877L9.43743 5.99463L5.87156 9.5605C5.77393 9.65813 5.77393 9.81642 5.87156 9.91405L6.22512 10.2676C6.32275 10.3652 6.48104 10.3652 6.57867 10.2676L10.4981 6.34819C10.6933 6.15292 10.6933 5.83634 10.4981 5.64108L6.57867 1.72166C6.48104 1.62403 6.32275 1.62403 6.22512 1.72166L5.87156 2.07521C5.77393 2.17285 5.77393 2.33114 5.87156 2.42877Z" fill="#646A73"/>
</svg>
