<svg width="24" height="24" viewBox="0 0 24 24" fill="none" xmlns="http://www.w3.org/2000/svg">
  <path d="M12 23C5.925 23 1 18.075 1 12C1 5.925 5.925 1 12 1C18.075 1 23 5.925 23 12C23 18.075 18.075 23 12 23ZM12 10.586L9.025 7.611C8.93124 7.51726 8.80409 7.46461 8.6715 7.46461C8.53892 7.46461 8.41177 7.51726 8.318 7.611L7.611 8.318C7.51727 8.41176 7.46461 8.53892 7.46461 8.6715C7.46461 8.80408 7.51727 8.93124 7.611 9.025L10.586 12L7.611 14.975C7.51727 15.0688 7.46461 15.1959 7.46461 15.3285C7.46461 15.4611 7.51727 15.5882 7.611 15.682L8.318 16.389C8.41177 16.4827 8.53892 16.5354 8.6715 16.5354C8.80409 16.5354 8.93124 16.4827 9.025 16.389L12 13.414L14.975 16.389C15.0688 16.4827 15.1959 16.5354 15.3285 16.5354C15.4611 16.5354 15.5882 16.4827 15.682 16.389L16.389 15.682C16.4827 15.5882 16.5354 15.4611 16.5354 15.3285C16.5354 15.1959 16.4827 15.0688 16.389 14.975L13.414 12L16.389 9.025C16.4827 8.93124 16.5354 8.80408 16.5354 8.6715C16.5354 8.53892 16.4827 8.41176 16.389 8.318L15.682 7.611C15.5882 7.51726 15.4611 7.46461 15.3285 7.46461C15.1959 7.46461 15.0688 7.51726 14.975 7.611L12 10.586Z" fill="#F54A45"/>
</svg>
