<svg width="16" height="16" viewBox="0 0 16 16" fill="none" xmlns="http://www.w3.org/2000/svg">
  <path d="M3.64005 7.55547C4.16266 6.83981 4.62524 5.57247 5.0867 3.73081C5.35015 2.67938 5.67056 2.22214 5.94851 2.22214C6.19397 2.22214 6.39296 2.02316 6.39296 1.7777C6.39296 1.53224 6.19397 1.33325 5.94851 1.33325C5.11898 1.33325 4.57743 2.10607 4.22446 3.51476C3.82872 5.09417 3.42634 6.20022 3.07367 6.81123C2.92252 6.71944 2.7451 6.66659 2.55534 6.66659H1.88867C1.33639 6.66659 0.888672 7.1143 0.888672 7.66659V8.33325C0.888672 8.88554 1.33639 9.33325 1.88867 9.33325H2.55534C2.72049 9.33325 2.87629 9.29322 3.01357 9.22232C3.33839 9.88602 3.69857 10.9575 4.05264 12.4188C4.4048 13.8722 4.94312 14.6666 5.77752 14.6666C6.02298 14.6666 6.22196 14.4676 6.22196 14.2221C6.22196 13.9767 6.02298 13.7777 5.77752 13.7777C5.50443 13.7777 5.18079 13.3001 4.91653 12.2095C4.4914 10.455 4.0662 9.20685 3.59336 8.44436H6.46643C6.57689 8.44436 6.66643 8.35482 6.66643 8.24436V7.75547C6.66643 7.64502 6.57689 7.55547 6.46643 7.55547H3.64005Z" fill="#783887"/>
  <path d="M7.9998 2.11103C7.9998 1.92694 8.14904 1.7777 8.33313 1.7777H14.7776C14.9617 1.7777 15.1109 1.92693 15.1109 2.11103V3.22214C15.1109 3.40624 14.9617 3.55547 14.7776 3.55547H8.33313C8.14904 3.55547 7.9998 3.40624 7.9998 3.22214V2.11103Z" fill="#783887"/>
  <path d="M8.33313 7.11103C8.14904 7.11103 7.9998 7.26027 7.9998 7.44436V8.55547C7.9998 8.73957 8.14904 8.88881 8.33313 8.88881H14.7776C14.9617 8.88881 15.1109 8.73957 15.1109 8.55547V7.44436C15.1109 7.26027 14.9617 7.11103 14.7776 7.11103H8.33313Z" fill="#783887"/>
  <path d="M7.9998 12.7777C7.9998 12.5936 8.14904 12.4444 8.33313 12.4444H14.7776C14.9617 12.4444 15.1109 12.5936 15.1109 12.7777V13.8888C15.1109 14.0729 14.9617 14.2221 14.7776 14.2221H8.33313C8.14904 14.2221 7.9998 14.0729 7.9998 13.8888V12.7777Z" fill="#783887"/>
</svg>
