<svg width="24" height="24" viewBox="0 0 24 24" fill="none" xmlns="http://www.w3.org/2000/svg">
  <path fill-rule="evenodd" clip-rule="evenodd" d="M4 2.5C4 1.94772 4.44772 1.5 5 1.5H14.7929C14.9255 1.5 15.0527 1.55268 15.1464 1.64645L19.8536 6.35355C19.9473 6.44732 20 6.5745 20 6.70711V21.5C20 22.0523 19.5523 22.5 19 22.5H5C4.44772 22.5 4 22.0523 4 21.5V2.5Z" fill="#3370FF"/>
  <path d="M8.92198 15.6508V12.7168H7.97998V15.6088C7.97998 15.6848 7.97598 15.7648 7.96798 15.8488C7.96398 15.9288 7.94598 16.0048 7.91398 16.0768C7.88598 16.1448 7.83798 16.2008 7.76998 16.2448C7.70198 16.2888 7.60598 16.3108 7.48198 16.3108C7.36998 16.3108 7.27798 16.2928 7.20598 16.2568C7.13798 16.2208 7.08398 16.1728 7.04398 16.1128C7.00398 16.0488 6.97598 15.9728 6.95998 15.8848C6.94398 15.7968 6.93598 15.7008 6.93598 15.5968V15.4048H6.08398V15.7768C6.08398 16.0128 6.12398 16.2148 6.20398 16.3828C6.28398 16.5468 6.38998 16.6828 6.52198 16.7908C6.65398 16.8948 6.80398 16.9708 6.97198 17.0188C7.13998 17.0708 7.31398 17.0968 7.49398 17.0968C7.81398 17.0968 8.06798 17.0488 8.25598 16.9528C8.44398 16.8528 8.58798 16.7308 8.68798 16.5868C8.78798 16.4388 8.85198 16.2808 8.87998 16.1128C8.90798 15.9448 8.92198 15.7908 8.92198 15.6508Z" fill="white"/>
  <path d="M10.828 15.3448L11.386 13.7728H11.398L11.938 15.3448H10.828ZM10.918 12.7168L9.29797 17.0008H10.246L10.582 16.0468H12.184L12.508 17.0008H13.486L11.884 12.7168H10.918Z" fill="white"/>
  <path d="M14.7974 14.6548V13.4488H15.8294C16.0454 13.4488 16.2074 13.4968 16.3154 13.5928C16.4234 13.6848 16.4774 13.8348 16.4774 14.0428C16.4774 14.2588 16.4234 14.4148 16.3154 14.5108C16.2074 14.6068 16.0454 14.6548 15.8294 14.6548H14.7974ZM13.8554 12.7168V17.0008H14.7974V15.3268H15.7394C15.9754 15.3268 16.1454 15.3788 16.2494 15.4828C16.3534 15.5868 16.4214 15.7508 16.4534 15.9748C16.4774 16.1468 16.4954 16.3268 16.5074 16.5148C16.5194 16.7028 16.5514 16.8648 16.6034 17.0008H17.5454C17.5014 16.9408 17.4674 16.8688 17.4434 16.7848C17.4234 16.6968 17.4074 16.6048 17.3954 16.5088C17.3874 16.4128 17.3814 16.3188 17.3774 16.2268C17.3734 16.1348 17.3694 16.0548 17.3654 15.9868C17.3574 15.8788 17.3414 15.7708 17.3174 15.6628C17.2974 15.5548 17.2634 15.4568 17.2154 15.3688C17.1674 15.2768 17.1054 15.1988 17.0294 15.1348C16.9534 15.0668 16.8574 15.0168 16.7414 14.9848V14.9728C16.9814 14.8768 17.1534 14.7368 17.2574 14.5528C17.3654 14.3688 17.4194 14.1508 17.4194 13.8988C17.4194 13.7348 17.3894 13.5828 17.3294 13.4428C17.2734 13.2988 17.1894 13.1728 17.0774 13.0648C16.9694 12.9568 16.8374 12.8728 16.6814 12.8128C16.5294 12.7488 16.3574 12.7168 16.1654 12.7168H13.8554Z" fill="white"/>
  <path d="M15 1.54492C15.054 1.56949 15.1037 1.6037 15.1464 1.64646L19.8536 6.35357C19.8963 6.39632 19.9305 6.44602 19.9551 6.50001H16C15.4477 6.50001 15 6.0523 15 5.50001V1.54492Z" fill="#245BDB"/>
</svg>
