<svg width="24" height="24" viewBox="0 0 24 24" fill="none" xmlns="http://www.w3.org/2000/svg">
<path d="M12.65 10.6589V3.13949C12.65 2.88757 12.8615 2.68335 13.1223 2.68335H14.219C14.4798 2.68335 14.6913 2.88757 14.6913 3.13949V20.8771C14.6913 21.129 14.4798 21.3332 14.219 21.3332H13.1223C12.8615 21.3332 12.65 21.129 12.65 20.8771V12.6597H3.36753V20.8771C3.36753 21.129 3.15604 21.3332 2.89514 21.3332H1.80588C1.54499 21.3332 1.3335 21.129 1.3335 20.8771V3.13949C1.3335 2.88757 1.54499 2.68335 1.80588 2.68335H2.89514C3.15604 2.68335 3.36753 2.88757 3.36753 3.13949V10.6589H12.65ZM17.797 13.8276C17.797 13.9919 17.9842 14.0861 18.1161 13.9883L20.0315 12.9903V20.9332C20.0315 21.1541 20.2106 21.3332 20.4315 21.3332H21.6643C21.8853 21.3332 22.0643 21.1541 22.0643 20.9332V11.0665C22.0643 10.8456 21.8853 10.6665 21.6643 10.6665H20.3339C20.2667 10.6665 20.2007 10.6835 20.1418 10.7157L18.0049 11.886C17.8767 11.9562 17.797 12.0907 17.797 12.2369V13.8276Z" fill="#1F2329"/>
</svg>
