<svg width="16" height="16" viewBox="0 0 16 16" fill="none" xmlns="http://www.w3.org/2000/svg">
<path fill-rule="evenodd" clip-rule="evenodd" d="M7.99984 14C11.3135 14 13.9998 11.3137 13.9998 8.00002C13.9998 4.68631 11.3135 2.00002 7.99984 2.00002C4.68613 2.00002 1.99984 4.68631 1.99984 8.00002C1.99984 11.3137 4.68613 14 7.99984 14ZM7.99984 15.3334C3.94975 15.3334 0.666504 12.0501 0.666504 8.00002C0.666504 3.94993 3.94975 0.666687 7.99984 0.666687C12.0499 0.666687 15.3332 3.94993 15.3332 8.00002C15.3332 12.0501 12.0499 15.3334 7.99984 15.3334ZM7.6665 10.6667H8.33317C8.51726 10.6667 8.6665 10.8159 8.6665 11V11.6667C8.6665 11.8508 8.51726 12 8.33317 12H7.6665C7.48241 12 7.33317 11.8508 7.33317 11.6667V11C7.33317 10.8159 7.48241 10.6667 7.6665 10.6667ZM5.36641 6.18783C5.37488 6.11331 5.38356 6.05133 5.39244 6.00187C5.5224 5.27814 5.85153 4.74591 6.37985 4.40516C6.79361 4.13507 7.30205 4.00002 7.90516 4.00002C8.69763 4.00002 9.35596 4.19193 9.88018 4.57575C10.4044 4.95957 10.6665 5.52819 10.6665 6.28161C10.6665 6.74362 10.5525 7.13277 10.3246 7.44906C10.1914 7.64097 9.93541 7.88619 9.55671 8.18472L9.18327 8.47791C8.97989 8.63784 8.84489 8.82442 8.77827 9.03765C8.76014 9.09584 8.7442 9.20402 8.73047 9.36218C8.71552 9.53446 8.57131 9.66669 8.39839 9.66669H7.65211C7.46802 9.66669 7.31878 9.51745 7.31878 9.33335C7.31878 9.3231 7.31925 9.31285 7.3202 9.30264C7.36312 8.83871 7.40909 8.54514 7.45809 8.42194C7.54925 8.19271 7.78419 7.92884 8.16289 7.63031L8.54684 7.32646C8.67308 7.2305 9.32355 6.77245 9.32355 6.36691C9.32355 5.96136 9.2529 5.8122 9.04928 5.58962C8.84566 5.36705 8.3873 5.29541 7.97354 5.29541C7.56678 5.29541 7.2192 5.40343 7.04914 5.67708C6.97037 5.80382 6.90596 5.93903 6.85951 6.07698C6.84123 6.13125 6.82504 6.19953 6.81093 6.28182C6.78349 6.44184 6.64475 6.55882 6.48239 6.55882H5.69762C5.51352 6.55882 5.36427 6.40958 5.36427 6.22548C5.36427 6.2129 5.36499 6.20033 5.36641 6.18783Z" fill="#8F959E"/>
</svg>
