<svg width="24" height="24" viewBox="0 0 24 24" fill="none" xmlns="http://www.w3.org/2000/svg">
<path d="M15.375 3.5C17.8845 3.5 19.9272 5.49866 19.9981 7.99102L20 8.125V15.3261H18V8.125C18 6.67525 16.8247 5.5 15.375 5.5C13.9615 5.5 12.8089 6.61722 12.7522 8.0168L12.75 8.125V16.375C12.75 18.9293 10.6793 21 8.125 21C5.6155 21 3.5728 19.0013 3.5019 16.509L3.5 16.375V9.15359H5.5V16.375C5.5 17.8247 6.67525 19 8.125 19C9.5385 19 10.6911 17.8828 10.7478 16.4832L10.75 16.375V8.125C10.75 5.57068 12.8207 3.5 15.375 3.5Z" fill="#1F2329"/>
<path fill-rule="evenodd" clip-rule="evenodd" d="M8 6.75C8 4.95507 6.54493 3.5 4.75 3.5C2.95507 3.5 1.5 4.95507 1.5 6.75C1.5 8.54493 2.95507 10 4.75 10C6.54493 10 8 8.54493 8 6.75ZM3.19971 6.74922C3.19971 5.89318 3.89367 5.19922 4.74971 5.19922C5.60575 5.19922 6.29971 5.89318 6.29971 6.74922C6.29971 7.60526 5.60575 8.29922 4.74971 8.29922C3.89367 8.29922 3.19971 7.60526 3.19971 6.74922Z" fill="#1F2329"/>
<path fill-rule="evenodd" clip-rule="evenodd" d="M22.5 18.25C22.5 16.4551 21.0449 15 19.25 15C17.4551 15 16 16.4551 16 18.25C16 20.0449 17.4551 21.5 19.25 21.5C21.0449 21.5 22.5 20.0449 22.5 18.25ZM17.6997 18.2492C17.6997 17.3932 18.3937 16.6992 19.2497 16.6992C20.1057 16.6992 20.7997 17.3932 20.7997 18.2492C20.7997 19.1053 20.1057 19.7992 19.2497 19.7992C18.3937 19.7992 17.6997 19.1053 17.6997 18.2492Z" fill="#1F2329"/>
</svg>
