<svg width="24" height="24" viewBox="0 0 24 24" fill="none" xmlns="http://www.w3.org/2000/svg">
  <path fill-rule="evenodd" clip-rule="evenodd" d="M4 2.5C4 1.94772 4.44772 1.5 5 1.5H14.7929C14.9255 1.5 15.0527 1.55268 15.1464 1.64645L19.8536 6.35355C19.9473 6.44732 20 6.5745 20 6.70711V21.5C20 22.0523 19.5523 22.5 19 22.5H5C4.44772 22.5 4 22.0523 4 21.5V2.5Z" fill="#D136D1"/>
  <path fill-rule="evenodd" clip-rule="evenodd" d="M4 2.5C4 1.94772 4.44772 1.5 5 1.5H14.7929C14.9255 1.5 15.0527 1.55268 15.1464 1.64645L19.8536 6.35355C19.9473 6.44732 20 6.5745 20 6.70711V21.5C20 22.0523 19.5523 22.5 19 22.5H5C4.44772 22.5 4 22.0523 4 21.5V2.5Z" fill="#14C0FF"/>
  <path fill-rule="evenodd" clip-rule="evenodd" d="M7.5 11.5C7.5 11.2239 7.72386 11 8 11H13.3971C13.6733 11 13.8971 11.2239 13.8971 11.5V12.1723L15.8207 11.4333C15.9744 11.3742 16.1474 11.3946 16.2831 11.4879C16.4189 11.5812 16.5 11.7353 16.5 11.9V16.3C16.5 16.4647 16.4189 16.6188 16.2831 16.7121C16.1474 16.8054 15.9744 16.8258 15.8207 16.7667L13.8971 16.0277V16.7C13.8971 16.9761 13.6733 17.2 13.3971 17.2H8C7.72386 17.2 7.5 16.9761 7.5 16.7V11.5ZM9 13C9.27614 13 9.5 12.7761 9.5 12.5C9.5 12.2239 9.27614 12 9 12C8.72386 12 8.5 12.2239 8.5 12.5C8.5 12.7761 8.72386 13 9 13Z" fill="white"/>
  <path d="M15 1.54492C15.054 1.56949 15.1037 1.6037 15.1464 1.64646L19.8536 6.35357C19.8963 6.39632 19.9305 6.44602 19.9551 6.50001H16C15.4477 6.50001 15 6.0523 15 5.50001V1.54492Z" fill="#049FD7"/>
</svg>
