<svg width="16" height="16" viewBox="0 0 16 16" fill="none" xmlns="http://www.w3.org/2000/svg">
  <g clip-path="url(#clip0_635_193612)">
    <path d="M1.236 0.765595L0.764618 1.23698C0.63445 1.36714 0.63445 1.57819 0.764618 1.70836L13.9633 14.907C14.0934 15.0372 14.3045 15.0372 14.4347 14.907L14.906 14.4356C15.0362 14.3055 15.0362 14.0944 14.906 13.9642L1.70738 0.765595C1.57721 0.635427 1.36617 0.635427 1.236 0.765595Z" fill="#646A73"/>
    <path d="M9.77789 6.95044V3.33469C9.77789 3.2256 9.69928 3.13486 9.59561 3.11605L9.55566 3.11247H5.93992L4.60658 1.77913H9.55566C10.3861 1.77913 11.0646 2.42992 11.1089 3.24934L11.1112 3.33469V8.28377L9.77789 6.95044Z" fill="#646A73"/>
    <path d="M0.888997 3.7184V8.66802L0.891299 8.75337C0.935608 9.57279 1.61408 10.2236 2.44455 10.2236H4.17789C4.32516 10.2236 4.44455 10.1042 4.44455 9.95691V9.15691C4.44455 9.00964 4.32516 8.89025 4.17789 8.89025H2.44455L2.40461 8.88667C2.30094 8.86785 2.22233 8.77712 2.22233 8.66802V5.05173L0.888997 3.7184Z" fill="#646A73"/>
    <path d="M5.33344 8.16285V12.668L5.33574 12.7534C5.38005 13.5728 6.05852 14.2236 6.889 14.2236H11.3942L10.0608 12.8902H6.889L6.84905 12.8867C6.74539 12.8678 6.66677 12.7771 6.66677 12.668V9.49618L5.33344 8.16285Z" fill="#646A73"/>
    <path d="M8.60658 5.77913L8.889 6.06155V6.0458C8.889 5.89853 8.76961 5.77913 8.62233 5.77913H8.60658Z" fill="#646A73"/>
    <path d="M15.5546 12.7271L14.2223 11.3949V7.33469C14.2223 7.2256 14.1437 7.13486 14.0401 7.11605L14.0001 7.11247H12.2668C12.1195 7.11247 12.0001 6.99308 12.0001 6.8458V6.0458C12.0001 5.89853 12.1195 5.77913 12.2668 5.77913H14.0001C14.8306 5.77913 15.5091 6.42992 15.5534 7.24934L15.5557 7.33469V12.668C15.5557 12.6878 15.5553 12.7075 15.5546 12.7271Z" fill="#646A73"/>
  </g>
  <defs>
    <clipPath id="clip0_635_193612">
      <rect width="16" height="16" fill="white"/>
    </clipPath>
  </defs>
</svg>
