<svg width="24" height="24" viewBox="0 0 24 24" fill="none" xmlns="http://www.w3.org/2000/svg">
<path d="M6.30418 16.5H17.6962C17.9462 16.35 18.2152 16.23 18.5002 16.145V14.5C18.5002 14.2347 18.3948 13.9804 18.2073 13.7929C18.0198 13.6053 17.7654 13.5 17.5002 13.5H6.50018C6.23497 13.5 5.98061 13.6053 5.79308 13.7929C5.60554 13.9804 5.50018 14.2347 5.50018 14.5V16.145C5.78518 16.23 6.05468 16.35 6.30418 16.5ZM3.50018 16.145V14.5C3.50018 13.7043 3.81625 12.9412 4.37886 12.3786C4.94147 11.816 5.70453 11.5 6.50018 11.5H11.0002V9.37396C10.0575 9.13057 9.23599 8.55173 8.68958 7.74595C8.14317 6.94017 7.90939 5.96277 8.03206 4.99696C8.15474 4.03115 8.62544 3.14323 9.35595 2.49964C10.0865 1.85605 11.0266 1.50098 12.0002 1.50098C12.9738 1.50098 13.9139 1.85605 14.6444 2.49964C15.3749 3.14323 15.8456 4.03115 15.9683 4.99696C16.091 5.96277 15.8572 6.94017 15.3108 7.74595C14.7644 8.55173 13.9428 9.13057 13.0002 9.37396V11.5H17.5002C18.2958 11.5 19.0589 11.816 19.6215 12.3786C20.1841 12.9412 20.5002 13.7043 20.5002 14.5V16.145C21.2696 16.3743 21.9367 16.8612 22.3898 17.524C22.8429 18.1868 23.0543 18.9852 22.9886 19.7854C22.923 20.5855 22.5842 21.3388 22.0291 21.9189C21.4741 22.4989 20.7365 22.8706 19.94 22.9714C19.1435 23.0722 18.3365 22.8962 17.6544 22.4727C16.9723 22.0493 16.4565 21.4042 16.1935 20.6457C15.9305 19.8871 15.9363 19.0612 16.2099 18.3064C16.4834 17.5516 17.0082 16.9138 17.6962 16.5H6.30418C6.99215 16.9138 7.51692 17.5516 7.79051 18.3064C8.0641 19.0612 8.06988 19.8871 7.80687 20.6457C7.54387 21.4042 7.02807 22.0493 6.34596 22.4727C5.66384 22.8962 4.85689 23.0722 4.0604 22.9714C3.2639 22.8706 2.52628 22.4989 1.97122 21.9189C1.41616 21.3388 1.0774 20.5855 1.01173 19.7854C0.946065 18.9852 1.15749 18.1868 1.61056 17.524C2.06362 16.8612 2.73078 16.3743 3.50018 16.145ZM12.0002 7.49996C12.5306 7.49996 13.0393 7.28925 13.4144 6.91417C13.7895 6.5391 14.0002 6.03039 14.0002 5.49996C14.0002 4.96953 13.7895 4.46082 13.4144 4.08575C13.0393 3.71067 12.5306 3.49996 12.0002 3.49996C11.4697 3.49996 10.961 3.71067 10.586 4.08575C10.2109 4.46082 10.0002 4.96953 10.0002 5.49996C10.0002 6.03039 10.2109 6.5391 10.586 6.91417C10.961 7.28925 11.4697 7.49996 12.0002 7.49996V7.49996ZM19.5002 21C19.898 21 20.2795 20.8419 20.5608 20.5606C20.8421 20.2793 21.0002 19.8978 21.0002 19.5C21.0002 19.1021 20.8421 18.7206 20.5608 18.4393C20.2795 18.158 19.898 18 19.5002 18C19.1024 18 18.7208 18.158 18.4395 18.4393C18.1582 18.7206 18.0002 19.1021 18.0002 19.5C18.0002 19.8978 18.1582 20.2793 18.4395 20.5606C18.7208 20.8419 19.1024 21 19.5002 21V21ZM4.50018 21C4.89801 21 5.27954 20.8419 5.56084 20.5606C5.84215 20.2793 6.00018 19.8978 6.00018 19.5C6.00018 19.1021 5.84215 18.7206 5.56084 18.4393C5.27954 18.158 4.89801 18 4.50018 18C4.10236 18 3.72083 18.158 3.43952 18.4393C3.15822 18.7206 3.00018 19.1021 3.00018 19.5C3.00018 19.8978 3.15822 20.2793 3.43952 20.5606C3.72083 20.8419 4.10236 21 4.50018 21V21Z" fill="#1F2329"/>
</svg>
