<svg width="24" height="24" viewBox="0 0 24 24" fill="none" xmlns="http://www.w3.org/2000/svg">
  <path d="M4 2.5C4 1.94772 4.44772 1.5 5 1.5H14.7929C14.9255 1.5 15.0527 1.55268 15.1464 1.64645L19.8536 6.35355C19.9473 6.44732 20 6.5745 20 6.70711V21.5C20 22.0523 19.5523 22.5 19 22.5H5C4.44772 22.5 4 22.0523 4 21.5V2.5Z" fill="#F54A45"/>
  <path d="M15 1.54492C15.054 1.56949 15.1037 1.6037 15.1464 1.64646L19.8536 6.35357C19.8963 6.39632 19.9305 6.44602 19.9551 6.50001H16C15.4477 6.50001 15 6.0523 15 5.50001V1.54492Z" fill="#D83931"/>
  <path d="M17.6081 15.2316C17.3598 14.9368 16.8507 14.7934 16.0516 14.7934C15.5871 14.7934 15.026 14.8425 14.383 14.9392C12.6266 13.6551 12.1362 12.2384 12.1362 12.2384C12.1362 12.2384 12.4362 11.4747 12.4552 10.2274C12.4672 9.43896 12.3451 8.9071 12.0297 8.59811C11.9071 8.478 11.7014 8.40039 11.5057 8.40039C11.3529 8.40039 11.2099 8.44525 11.0927 8.53102C10.1796 9.19913 11.1765 12.3487 11.2032 12.4326C10.7723 13.4931 10.2295 14.6165 9.67082 15.6037C9.4893 15.9244 9.507 15.8994 9.35396 16.1602C9.35396 16.1602 7.80886 16.8859 7.05939 17.7773C6.63594 18.281 6.58241 18.621 6.60489 18.8801L6.60545 18.8858C6.64112 19.1909 7.03175 19.4688 7.42501 19.4688C7.44132 19.4688 7.45773 19.4683 7.4738 19.4673C7.87348 19.4426 8.31146 19.1586 8.81276 18.5991C9.14364 18.2297 9.57364 17.5798 10.0914 16.6668C11.5769 16.2442 12.8842 15.9432 13.9797 15.7716C14.7832 16.204 15.9785 16.6936 16.7922 16.6936C17.0651 16.6936 17.2847 16.638 17.4448 16.5282C17.6363 16.397 17.7177 16.2334 17.7682 15.9306C17.8188 15.6278 17.7484 15.3982 17.6081 15.2316ZM15.8727 15.6003C16.5869 15.6003 16.9736 15.7041 17.1722 15.7912C17.2335 15.8181 17.278 15.844 17.3097 15.8657C17.2537 15.9014 17.1436 15.9466 16.9446 15.9466C16.6147 15.9466 16.1816 15.8314 15.6534 15.6034C15.7285 15.6013 15.8017 15.6003 15.8727 15.6003ZM11.6402 9.03253C11.6407 9.03159 11.6413 9.03062 11.6419 9.02961C11.7951 9.11028 11.8666 9.67679 11.8522 10.0053C11.8329 10.4461 11.8284 10.6164 11.751 10.8872C11.5412 10.3226 11.5263 9.30775 11.6402 9.03253ZM11.6962 13.5014C12.0565 14.0864 12.5908 14.7201 13.1055 15.1725C12.1008 15.3848 11.1362 15.651 10.536 15.8581C11.1794 14.7595 11.654 13.6103 11.6962 13.5014ZM7.56119 18.5462C7.64836 18.401 7.8865 18.1197 8.49046 17.5757C8.07648 18.1983 7.7724 18.5373 7.4639 18.7488C7.48944 18.6821 7.52158 18.6122 7.56119 18.5462Z" fill="white"/>
</svg>
