<svg width="14" height="14" viewBox="0 0 14 14" fill="none" xmlns="http://www.w3.org/2000/svg">
  <path fill-rule="evenodd" clip-rule="evenodd" d="M9.33366 6.66795V12.5415C9.33366 12.7026 9.20308 12.8332 9.04199 12.8332H8.45866C8.29758 12.8332 8.16699 12.7026 8.16699 12.5415V6.4165C8.16699 6.33078 8.18548 6.24937 8.2187 6.17605C8.26302 6.06603 8.34235 5.96912 8.45193 5.90371L11.667 3.98454V2.33317H2.33366V4.00489L5.4516 5.86883C5.67459 5.9508 5.83366 6.16508 5.83366 6.4165V10.4998C5.83366 10.6609 5.70307 10.7915 5.54199 10.7915H4.95866C4.79758 10.7915 4.66699 10.6609 4.66699 10.4998V6.68786L1.44339 4.76076C1.37103 4.7175 1.3119 4.66048 1.26737 4.59502C1.20587 4.54155 1.16699 4.46273 1.16699 4.37484V1.74984C1.16699 1.42767 1.42816 1.1665 1.75033 1.1665H12.2503C12.4114 1.1665 12.5572 1.2318 12.6628 1.33736C12.7684 1.44292 12.8337 1.58875 12.8337 1.74984V4.19581C12.8382 4.23677 12.8381 4.27788 12.8337 4.31839V4.37484C12.8337 4.47308 12.7851 4.55997 12.7107 4.61282C12.6703 4.66233 12.6208 4.70574 12.5629 4.74034L9.33366 6.66795Z" fill="#783887"/>
</svg>
