<svg width="16" height="16" viewBox="0 0 16 16" fill="none" xmlns="http://www.w3.org/2000/svg">
  <path d="M1.66634 13.9989C1.48225 13.9989 1.33301 13.8497 1.33301 13.6656V12.9989C1.33301 12.8148 1.48225 12.6656 1.66634 12.6656H14.333C14.5171 12.6656 14.6663 12.8148 14.6663 12.9989V13.6656C14.6663 13.8497 14.5171 13.9989 14.333 13.9989H1.66634Z" fill="#646A73"/>
  <path d="M4.12723 6.36788L7.33301 9.57365V1.68759C7.33301 1.49122 7.49219 1.33203 7.68856 1.33203H8.31078C8.50715 1.33203 8.66634 1.49122 8.66634 1.68759V9.58922L11.8877 6.36788C12.0265 6.22902 12.2517 6.22903 12.3905 6.36788L12.8305 6.80786C12.9693 6.94671 12.9693 7.17183 12.8305 7.31069L8.30501 11.8362C8.22382 11.9174 8.11314 11.9511 8.00746 11.9373C7.90177 11.9511 7.79109 11.9174 7.70991 11.8362L3.18442 7.31069C3.04557 7.17183 3.04557 6.94671 3.18442 6.80786L3.6244 6.36788C3.76325 6.22903 3.98838 6.22902 4.12723 6.36788Z" fill="#646A73"/>
</svg>
