<svg width="12" height="12" viewBox="0 0 12 12" fill="none" xmlns="http://www.w3.org/2000/svg">
  <path d="M6.12502 9.56782L2.55916 6.00196L6.12502 2.43609C6.22265 2.33846 6.22265 2.18017 6.12502 2.08254L5.77147 1.72898C5.67384 1.63135 5.51554 1.63135 5.41791 1.72898L1.4985 5.6484C1.30324 5.84367 1.30324 6.16025 1.4985 6.35551L5.41791 10.2749C5.51555 10.3726 5.67384 10.3726 5.77147 10.2749L6.12502 9.92137C6.22265 9.82374 6.22265 9.66545 6.12502 9.56782Z" fill="#646A73"/>
  <path d="M10.5751 9.56782L7.00923 6.00196L10.5751 2.43609C10.6727 2.33846 10.6727 2.18017 10.5751 2.08254L10.2215 1.72898C10.1239 1.63135 9.96562 1.63135 9.86799 1.72898L5.94857 5.6484C5.75331 5.84367 5.75331 6.16025 5.94857 6.35551L9.86799 10.2749C9.96562 10.3726 10.1239 10.3726 10.2215 10.2749L10.5751 9.92137C10.6727 9.82374 10.6727 9.66545 10.5751 9.56782Z" fill="#646A73"/>
</svg>
