<svg width="14" height="14" viewBox="0 0 14 14" fill="none" xmlns="http://www.w3.org/2000/svg">
  <path fill-rule="evenodd" clip-rule="evenodd" d="M9.33317 6.66795V12.5415C9.33317 12.7026 9.20259 12.8332 9.0415 12.8332H8.45817C8.29709 12.8332 8.1665 12.7026 8.1665 12.5415V6.4165C8.1665 6.33078 8.185 6.24937 8.21821 6.17605C8.26253 6.06603 8.34187 5.96912 8.45144 5.90371L11.6665 3.98454V2.33317H2.33317V4.00489L5.45111 5.86883C5.6741 5.9508 5.83317 6.16508 5.83317 6.4165V10.4998C5.83317 10.6609 5.70259 10.7915 5.5415 10.7915H4.95817C4.79709 10.7915 4.6665 10.6609 4.6665 10.4998V6.68786L1.4429 4.76076C1.37054 4.7175 1.31141 4.66048 1.26688 4.59502C1.20538 4.54155 1.1665 4.46273 1.1665 4.37484V1.74984C1.1665 1.42767 1.42767 1.1665 1.74984 1.1665H12.2498C12.4109 1.1665 12.5568 1.2318 12.6623 1.33736C12.7679 1.44292 12.8332 1.58875 12.8332 1.74984V4.19581C12.8377 4.23677 12.8376 4.27788 12.8332 4.31839V4.37484C12.8332 4.47308 12.7846 4.55997 12.7102 4.61282C12.6698 4.66233 12.6203 4.70574 12.5624 4.74034L9.33317 6.66795Z" fill="#1F2329"/>
</svg>
