<svg width="24" height="24" viewBox="0 0 24 24" fill="none" xmlns="http://www.w3.org/2000/svg">
<path d="M12.2496 19.1354L5.11783 12.0037L12.2496 4.87194C12.4448 4.67668 12.4448 4.36009 12.2496 4.16483L11.5424 3.45773C11.3472 3.26246 11.0306 3.26246 10.8353 3.45773L2.99651 11.2966C2.60598 11.6871 2.60598 12.3203 2.99651 12.7108L10.8353 20.5496C11.0306 20.7449 11.3472 20.7449 11.5424 20.5496L12.2496 19.8425C12.4448 19.6472 12.4448 19.3307 12.2496 19.1354Z" fill="#1F2329"/>
<path d="M21.1497 19.1354L14.018 12.0037L21.1497 4.87194C21.345 4.67668 21.345 4.36009 21.1497 4.16483L20.4426 3.45773C20.2473 3.26246 19.9307 3.26246 19.7355 3.45773L11.8967 11.2966C11.5061 11.6871 11.5061 12.3203 11.8967 12.7108L19.7355 20.5496C19.9307 20.7449 20.2473 20.7449 20.4426 20.5496L21.1497 19.8425C21.345 19.6472 21.345 19.3307 21.1497 19.1354Z" fill="#1F2329"/>
</svg>
