<svg width="14" height="14" viewBox="0 0 14 14" fill="none" xmlns="http://www.w3.org/2000/svg">
  <path d="M4.35384 10.2487H6.62451L13.3786 3.49447C13.6106 3.26241 13.6111 2.88631 13.3797 2.65363L11.334 0.597225C11.1015 0.364727 10.7246 0.364727 10.4921 0.597225L10.0722 1.01709L10.0738 1.01875L3.75849 7.38268V9.65336C3.75849 9.98216 4.02504 10.2487 4.35384 10.2487ZM10.8942 1.84338L12.0999 3.0554L11.0796 4.07666L9.88016 2.87724L10.8942 1.84338ZM10.238 4.91901L6.12234 9.03865H6.12053L4.96855 7.88486L9.04634 3.72734L10.238 4.91901Z" fill="#646A73"/>
  <path d="M7.76297 1.31588H1.44324C1.0779 1.31588 0.781738 1.61204 0.781738 1.97737V12.5614C0.781738 12.9267 1.0779 13.2229 1.44324 13.2229H12.0272C12.3926 13.2229 12.6887 12.9267 12.6887 12.5614V6.16128L11.3574 7.5006V11.898H2.11298V2.64068H6.46224L7.76297 1.31588Z" fill="#646A73"/>
</svg>
