<svg width="24" height="24" viewBox="0 0 24 24" fill="none" xmlns="http://www.w3.org/2000/svg">
<path d="M8.031 16.8731H11.437L21.5681 6.74171C21.9162 6.39361 21.9169 5.82946 21.5697 5.48045L18.5013 2.39584C18.1525 2.04709 17.5871 2.04709 17.2383 2.39584L16.6085 3.02564L16.611 3.02812L7.13798 12.574V15.98C7.13798 16.4732 7.5378 16.8731 8.031 16.8731ZM17.8415 4.26508L19.65 6.0831L18.1196 7.61499L16.3205 5.81586L17.8415 4.26508ZM16.8573 8.87852L10.6838 15.058H10.681L8.95307 13.3273L15.0698 7.09101L16.8573 8.87852Z" fill="#1F2329"/>
<path d="M13.1447 3.47381H3.6651C3.1171 3.47381 2.67285 3.91806 2.67285 4.46606V20.342C2.67285 20.89 3.1171 21.3343 3.6651 21.3343H19.5411C20.0891 21.3343 20.5333 20.89 20.5333 20.342V10.7419L18.5364 12.7509V19.3471H4.66971V5.46102H11.1936L13.1447 3.47381Z" fill="#1F2329"/>
</svg>
