<svg width="16" height="16" viewBox="0 0 16 16" fill="none" xmlns="http://www.w3.org/2000/svg">
  <path d="M8.20305 13.1413C8.07381 13.0839 7.9263 13.0839 7.79706 13.1413L4.08771 14.7892C3.73629 14.9453 3.34754 14.6628 3.38742 14.2804L3.80836 10.2434C3.82303 10.1027 3.77745 9.96243 3.68291 9.85726L0.969456 6.83867C0.712388 6.55269 0.86088 6.09568 1.23694 6.01542L5.20645 5.16826C5.34476 5.13874 5.46409 5.05204 5.5349 4.92963L7.56725 1.41619C7.75979 1.08333 8.24032 1.08333 8.43286 1.41619L10.4652 4.92963C10.536 5.05204 10.6554 5.13874 10.7937 5.16826L14.7632 6.01542C15.1392 6.09568 15.2877 6.55269 15.0307 6.83867L12.3172 9.85726C12.2227 9.96243 12.1771 10.1027 12.1917 10.2434L12.6127 14.2804C12.6526 14.6628 12.2638 14.9453 11.9124 14.7892L8.20305 13.1413Z" fill="#FF8800"/>
</svg>
