<svg width="24" height="24" viewBox="0 0 24 24" fill="none" xmlns="http://www.w3.org/2000/svg">
  <path d="M4 2.5C4 1.94772 4.44772 1.5 5 1.5H14.7929C14.9255 1.5 15.0527 1.55268 15.1464 1.64645L19.8536 6.35355C19.9473 6.44732 20 6.5745 20 6.70711V21.5C20 22.0523 19.5523 22.5 19 22.5H5C4.44772 22.5 4 22.0523 4 21.5V2.5Z" fill="#3370FF"/>
  <path d="M15 1.54492C15.054 1.56949 15.1037 1.6037 15.1464 1.64646L19.8536 6.35357C19.8963 6.39632 19.9305 6.44602 19.9551 6.50001H16C15.4477 6.50001 15 6.0523 15 5.50001V1.54492Z" fill="#245BDB"/>
  <path d="M15.1209 17.9996L17.4129 9.43164H16.2729L14.5329 16.5596H14.5089L12.6129 9.43164H11.3769L9.45687 16.5596H9.43287L7.75287 9.43164H6.58887L8.78487 17.9996H9.97287L11.9529 10.7996H11.9769L13.9329 17.9996H15.1209Z" fill="white"/>
</svg>
