<svg width="40" height="40" viewBox="0 0 40 40" fill="none" xmlns="http://www.w3.org/2000/svg">
  <path d="M33.3332 11.6673V34.8155C33.3332 35.8382 32.5372 36.6673 31.5554 36.6673H8.44428C7.46244 36.6673 6.6665 35.8382 6.6665 34.8155V5.18584C6.6665 4.16309 7.46244 3.33398 8.44428 3.33398H24.9998L33.3332 11.6673Z" fill="#D136D1"/>
  <path d="M20.6509 15.8128C20.3173 15.3957 19.683 15.3957 19.3494 15.8128L14.4166 21.9788C13.9801 22.5244 14.3686 23.3327 15.0673 23.3327H18.3335V26.666H21.6668V23.3327H24.9329C25.6317 23.3327 26.0202 22.5244 25.5837 21.9788L20.6509 15.8128Z" fill="white"/>
  <path d="M18.3335 29.9994V28.3327H21.6668V29.9994H18.3335Z" fill="white"/>
  <path opacity="0.6" d="M25 3.33398L33.3333 11.6673H26.6667C25.7462 11.6673 25 10.9211 25 10.0007V3.33398Z" fill="#B220B2"/>
</svg>
