<svg width="24" height="24" viewBox="0 0 24 24" fill="none" xmlns="http://www.w3.org/2000/svg">
  <path d="M4 2.5C4 1.94772 4.44772 1.5 5 1.5H14.7929C14.9255 1.5 15.0527 1.55268 15.1464 1.64645L19.8536 6.35355C19.9473 6.44732 20 6.5745 20 6.70711V21.5C20 22.0523 19.5523 22.5 19 22.5H5C4.44772 22.5 4 22.0523 4 21.5V2.5Z" fill="#F54A45"/>
  <path d="M15 1.54492C15.054 1.56949 15.1037 1.6037 15.1464 1.64646L19.8536 6.35357C19.8963 6.39632 19.9305 6.44602 19.9551 6.50001H16C15.4477 6.50001 15 6.0523 15 5.50001V1.54492Z" fill="#D83931"/>
  <path opacity="0.8" d="M8.43359 12.342C8.43832 12.3302 8.4431 12.3184 8.44792 12.3066C10.8219 12.6247 12.6527 14.6582 12.6527 17.1192C12.6527 17.7709 12.5244 18.3925 12.2916 18.9603C11.2667 18.823 10.3431 18.366 9.6243 17.6929C9.84804 17.1347 9.97114 16.5253 9.97114 15.8872C9.97114 14.4885 9.37984 13.228 8.43359 12.342Z" fill="white"/>
  <path d="M7.59039 15.309C7.21394 14.6191 7 13.8278 7 12.9865C7 12.7602 7.01547 12.5376 7.04542 12.3196C7.29044 12.2815 7.54153 12.2617 7.79723 12.2617C10.4791 12.2617 12.6531 14.4358 12.6531 17.1176C12.6531 17.2851 12.6446 17.4507 12.628 17.6139C11.7819 16.1886 10.2273 15.2332 8.44951 15.2332C8.15634 15.2332 7.86924 15.2592 7.59039 15.309Z" fill="white"/>
  <path opacity="0.8" fill-rule="evenodd" clip-rule="evenodd" d="M15.5668 15.6183C15.5621 15.6301 15.5573 15.6419 15.5525 15.6537C13.1785 15.3356 11.3477 13.3021 11.3477 10.8411C11.3477 10.1894 11.476 9.56777 11.7088 9C12.7337 9.13733 13.6573 9.59433 14.3761 10.2674C14.1524 10.8256 14.0293 11.435 14.0293 12.0731C14.0293 13.4718 14.6206 14.7323 15.5668 15.6183Z" fill="white"/>
  <path fill-rule="evenodd" clip-rule="evenodd" d="M16.4104 12.6506C16.7868 13.3405 17.0008 14.1318 17.0008 14.9731C17.0008 15.1994 16.9853 15.422 16.9553 15.64C16.7103 15.6781 16.4592 15.6979 16.2035 15.6979C13.5217 15.6979 11.3477 13.5238 11.3477 10.842C11.3477 10.6744 11.3561 10.5089 11.3727 10.3457C12.2188 11.771 13.7735 12.7264 15.5512 12.7264C15.8444 12.7264 16.1315 12.7004 16.4104 12.6506Z" fill="white"/>
</svg>
