<svg width="24" height="24" viewBox="0 0 24 24" fill="none" xmlns="http://www.w3.org/2000/svg">
<path d="M10.141 17.9883L5.86567 17.978C5.69999 17.9776 5.56599 17.843 5.56639 17.6773C5.56658 17.598 5.59818 17.522 5.65426 17.4659L9.78706 13.3331C9.94327 13.1769 10.1965 13.1769 10.3527 13.3331L12.2598 15.2402L17.3172 10.1829C17.4734 10.0266 17.7266 10.0266 17.8828 10.1829C17.9579 10.2579 18 10.3596 18 10.4657V17.7C18 17.8657 17.8657 18 17.7 18H10.2243C10.1954 18 10.1674 17.9959 10.141 17.9883ZM3 22C2.44772 22 2 21.5523 2 21V3C2 2.44772 2.44772 2 3 2H21C21.5523 2 22 2.44772 22 3V21C22 21.5523 21.5523 22 21 22H3ZM4 20H20V4H4V20ZM6 6H9V9H6V6Z" fill="#1F2329"/>
</svg>
