<svg width="24" height="24" viewBox="0 0 24 24" fill="none" xmlns="http://www.w3.org/2000/svg">
<path fill-rule="evenodd" clip-rule="evenodd" d="M1 12C1 18.0758 5.92422 23 12 23C18.0758 23 23 18.0758 23 12C23 5.92422 18.0758 1 12 1C5.92422 1 1 5.92422 1 12Z" fill="#1F2329"/>
<path d="M17.3967 9.81944C17.6652 9.55095 17.6652 9.11565 17.3967 8.84717L16.9106 8.36103C16.6421 8.09255 16.2068 8.09255 15.9383 8.36103L10.4729 13.8259L8.44493 11.7985C8.17644 11.53 7.74114 11.53 7.47266 11.7985L6.98652 12.2847C6.71803 12.5532 6.71803 12.9885 6.98652 13.2569L9.90334 16.1738C10.0937 16.3641 10.368 16.4195 10.6074 16.3404C10.7778 16.3363 10.9469 16.2692 11.077 16.1392L17.3967 9.81944Z" fill="white"/>
</svg>
