<svg width="37" height="37" viewBox="0 0 24 24" fill="none" xmlns="http://www.w3.org/2000/svg">
  <path fill-rule="evenodd" clip-rule="evenodd" d="M4 2.5C4 1.94772 4.44772 1.5 5 1.5H14.7929C14.9255 1.5 15.0527 1.55268 15.1464 1.64645L19.8536 6.35355C19.9473 6.44732 20 6.5745 20 6.70711V21.5C20 22.0523 19.5523 22.5 19 22.5H5C4.44772 22.5 4 22.0523 4 21.5V2.5Z" fill="#3370FF"/>
  <path d="M8.42198 15.6508V12.7168H7.47998V15.6088C7.47998 15.6848 7.47598 15.7648 7.46798 15.8488C7.46398 15.9288 7.44598 16.0048 7.41398 16.0768C7.38598 16.1448 7.33798 16.2008 7.26998 16.2448C7.20198 16.2888 7.10598 16.3108 6.98198 16.3108C6.86998 16.3108 6.77798 16.2928 6.70598 16.2568C6.63798 16.2208 6.58398 16.1728 6.54398 16.1128C6.50398 16.0488 6.47598 15.9728 6.45998 15.8848C6.44398 15.7968 6.43598 15.7008 6.43598 15.5968V15.4048H5.58398V15.7768C5.58398 16.0128 5.62398 16.2148 5.70398 16.3828C5.78398 16.5468 5.88998 16.6828 6.02198 16.7908C6.15398 16.8948 6.30398 16.9708 6.47198 17.0188C6.63998 17.0708 6.81398 17.0968 6.99398 17.0968C7.31398 17.0968 7.56798 17.0488 7.75598 16.9528C7.94398 16.8528 8.08798 16.7308 8.18798 16.5868C8.28798 16.4388 8.35198 16.2808 8.37998 16.1128C8.40798 15.9448 8.42198 15.7908 8.42198 15.6508Z" fill="white"/>
  <path d="M9.24797 12.7168V17.0008H10.13V13.9948H10.142L11.192 17.0008H11.918L12.968 13.9648H12.98V17.0008H13.862V12.7168H12.536L11.588 15.6628H11.576L10.574 12.7168H9.24797Z" fill="white"/>
  <path d="M15.7413 14.7568L14.2473 17.0008H15.3033L16.2573 15.5188L17.1933 17.0008H18.3153L16.8213 14.7628L18.1953 12.7168H17.1633L16.2933 14.0848L15.4533 12.7168H14.3613L15.7413 14.7568Z" fill="white"/>
  <path d="M15 1.54492C15.054 1.56949 15.1037 1.6037 15.1464 1.64646L19.8536 6.35357C19.8963 6.39632 19.9305 6.44602 19.9551 6.50001H16C15.4477 6.50001 15 6.0523 15 5.50001V1.54492Z" fill="#245BDB"/>
</svg>
