<svg width="24" height="24" viewBox="0 0 24 24" fill="none" xmlns="http://www.w3.org/2000/svg">
<path d="M12.5261 8.80143C12.9539 8.98064 13.3637 9.22285 13.7424 9.52947C15.8884 11.2673 16.2193 14.4158 14.4815 16.5618L11.6496 20.059C9.91175 22.205 6.76326 22.5359 4.61724 20.7981C2.47121 19.0603 2.14029 15.9118 3.87811 13.7658L6.58667 10.421L6.67299 11.2423C6.7337 11.8199 6.93166 12.3499 7.23106 12.8032L5.4324 15.0244C4.38971 16.312 4.58826 18.2011 5.87588 19.2438C7.16349 20.2865 9.05258 20.0879 10.0953 18.8003L12.9272 15.3032C13.9699 14.0155 13.7714 12.1264 12.4837 11.0838C12.0897 10.7647 11.6394 10.5619 11.1742 10.4709L12.5261 8.80143V8.80143ZM11.0184 15.1062C10.5906 14.927 10.1808 14.6848 9.80213 14.3782C7.6561 12.6404 7.32518 9.49187 9.063 7.34584L11.8949 3.84868C13.6328 1.70265 16.7812 1.37173 18.9273 3.10955C21.0733 4.84737 21.4042 7.99586 19.6664 10.1419L16.9578 13.4867L16.8715 12.6654C16.8108 12.0877 16.6128 11.5577 16.3134 11.1044L18.1121 8.88324C19.1548 7.59563 18.9563 5.70654 17.6686 4.66385C16.381 3.62115 14.4919 3.8197 13.4492 5.10732L10.6173 8.60448C9.5746 9.8921 9.77315 11.7812 11.0608 12.8239C11.4548 13.1429 11.9051 13.3458 12.3703 13.4368L11.0184 15.1062Z" fill="#1F2329"/>
</svg>
