<svg width="14" height="14" viewBox="0 0 14 14" fill="none" xmlns="http://www.w3.org/2000/svg">
  <path d="M2.5249 11.5112L2.34341 11.3135C1.70801 10.6214 1.2313 9.79591 0.951832 8.8944L0.873047 8.64026L2.06775 6.99987L0.873047 5.35948L0.951832 5.10533C1.2313 4.20382 1.70801 3.37835 2.34341 2.68626L2.5249 2.48858L4.53262 2.70802L5.3481 0.849039L5.60959 0.79017C6.06269 0.688161 6.52819 0.63623 7.00002 0.63623C7.47185 0.63623 7.93735 0.688161 8.39045 0.79017L8.65194 0.849039L9.46742 2.70802L11.4751 2.48858L11.6566 2.68626C12.292 3.37835 12.7687 4.20382 13.0482 5.10533L13.127 5.35948L11.9323 6.99987L13.127 8.64026L13.0482 8.8944C12.7687 9.79591 12.292 10.6214 11.6566 11.3135L11.4751 11.5112L9.46742 11.2917L8.65194 13.1507L8.39045 13.2096C7.93735 13.3116 7.47185 13.3635 7.00002 13.3635C6.52819 13.3635 6.06269 13.3116 5.60959 13.2096L5.3481 13.1507L4.53262 11.2917L2.5249 11.5112ZM4.55787 10.222C4.93477 10.1808 5.29481 10.389 5.44712 10.7362L6.10071 12.2261C6.39549 12.277 6.69598 12.3029 7.00002 12.3029C7.30407 12.3029 7.60455 12.277 7.89934 12.2261L8.55293 10.7362C8.70524 10.389 9.06527 10.1808 9.44218 10.222L11.0488 10.3976C11.4368 9.93055 11.7428 9.39984 11.9516 8.82794L10.9924 7.51087C10.7706 7.20629 10.7706 6.79338 10.9924 6.4888L11.9516 5.17173C11.7428 4.59983 11.4368 4.06912 11.0488 3.60207L9.44218 3.77767C9.06527 3.81887 8.70524 3.61068 8.55293 3.26347L7.89934 1.77353C7.60455 1.72263 7.30407 1.6968 7.00002 1.6968C6.69598 1.6968 6.39549 1.72263 6.10071 1.77353L5.44712 3.26347C5.29481 3.61068 4.93477 3.81887 4.55787 3.77767L2.95124 3.60207C2.56321 4.06912 2.25727 4.59983 2.04842 5.17173L3.00764 6.4888C3.22946 6.79338 3.22946 7.20629 3.00764 7.51087L2.04842 8.82794C2.25727 9.39984 2.56321 9.93055 2.95124 10.3976L4.55787 10.222ZM7.00002 9.65138C5.54064 9.65138 4.35861 8.46369 4.35861 6.99986C4.35861 5.53603 5.54064 4.34835 7.00002 4.34835C8.4594 4.34835 9.64144 5.53603 9.64144 6.99986C9.64144 8.46369 8.4594 9.65138 7.00002 9.65138ZM7.00002 8.59081C7.87251 8.59081 8.58083 7.8791 8.58083 6.9999C8.58083 6.1207 7.87251 5.40899 7.00002 5.40899C6.12753 5.40899 5.41921 6.1207 5.41921 6.9999C5.41921 7.8791 6.12753 8.59081 7.00002 8.59081Z" fill="#1F2329"/>
</svg>
