<?xml version="1.0" encoding="utf-8"?>
<!-- Generator: Adobe Illustrator 23.0.0, SVG Export Plug-In . SVG Version: 6.00 Build 0)  -->
<svg version="1.1" id="图层_1" xmlns="http://www.w3.org/2000/svg" xmlns:xlink="http://www.w3.org/1999/xlink" x="0px" y="0px"
     viewBox="0 0 40 40" style="enable-background:new 0 0 40 40;" xml:space="preserve">
<style type="text/css">
	.st0{clip-path:url(#SVGID_2_);fill:#C65EDB;}
	.st1{fill:#FFFFFF;}
	.st2{fill:#505266;}
	.st3{fill:#E5E5EA;}
	.st4{opacity:0.7;}
	.st5{opacity:0.5;}
	.st6{fill:#783887;}
</style>
  <path class="st1" d="M1,7.45v25.1C1,33.35,1.65,34,2.45,34h9.06V6H2.45C1.65,6,1,6.65,1,7.45z"/>
  <path class="st3" d="M37.55,5H12.51H2.45C1.1,5,0,6.1,0,7.45v25.1C0,33.9,1.1,35,2.45,35h10.06h25.04C38.9,35,40,33.9,40,32.55V7.45
	C40,6.1,38.9,5,37.55,5z M11.51,34H2.45C1.65,34,1,33.35,1,32.55V7.45C1,6.65,1.65,6,2.45,6h9.06V34z"/>
  <rect x="15.1" y="7.69" class="st1" width="22.32" height="6.76"/>
  <rect x="15.1" y="17.05" class="st1" width="22.32" height="15.1"/>
  <g>
	<g class="st5">
		<circle class="st2" cx="3.68" cy="10.23" r="0.79"/>
    <path class="st2" d="M9.24,10.88H5.67c-0.21,0-0.38-0.17-0.38-0.38V9.95c0-0.21,0.17-0.38,0.38-0.38h3.57
			c0.21,0,0.38,0.17,0.38,0.38v0.55C9.62,10.71,9.45,10.88,9.24,10.88z"/>
	</g>
    <g class="st5">
		<circle class="st2" cx="3.68" cy="14.46" r="0.79"/>
      <path class="st2" d="M9.24,15.11H5.67c-0.21,0-0.38-0.17-0.38-0.38v-0.55c0-0.21,0.17-0.38,0.38-0.38h3.57
			c0.21,0,0.38,0.17,0.38,0.38v0.55C9.62,14.94,9.45,15.11,9.24,15.11z"/>
	</g>
    <g class="st5">
		<circle class="st2" cx="3.68" cy="18.68" r="0.79"/>
      <path class="st2" d="M9.24,19.34H5.67c-0.21,0-0.38-0.17-0.38-0.38v-0.55c0-0.21,0.17-0.38,0.38-0.38h3.57
			c0.21,0,0.38,0.17,0.38,0.38v0.55C9.62,19.17,9.45,19.34,9.24,19.34z"/>
	</g>
</g>
</svg>
