<?xml version="1.0" encoding="utf-8"?>
<!-- Generator: Adobe Illustrator 23.0.0, SVG Export Plug-In . SVG Version: 6.00 Build 0)  -->
<svg version="1.1" id="图层_1" xmlns="http://www.w3.org/2000/svg" xmlns:xlink="http://www.w3.org/1999/xlink" x="0px" y="0px"
	 viewBox="0 0 44 44" style="enable-background:new 0 0 44 44;" xml:space="preserve">
<g>
	<polygon class="st0" points="15.98,10.36 8.96,19.11 5.91,19.11 5.91,21.92 10.3,21.92 15.84,15.03 25.11,28.18 32.11,19.52
		36.43,19.52 36.43,16.71 30.77,16.71 25.26,23.52 	"/>
	<path class="st0" d="M3.25,8.42h35.85v20.45h2.25V3.97c0-1.62-1.31-2.93-2.93-2.93H3.93C2.31,1.04,1,2.35,1,3.97v30.61
		c0,1.62,1.31,2.93,2.93,2.93h12.89v-4.66H3.25V8.42z M3.25,3.97c0-0.38,0.31-0.68,0.68-0.68h34.48c0.38,0,0.68,0.31,0.68,0.68v2.21
		H3.25V3.97z"/>
	<path class="st0" d="M26.61,31.26c-0.59-0.6-1.55-0.61-2.15-0.02l-4.65,4.56c-0.29,0.29-0.46,0.68-0.46,1.09
		c0,0.41,0.17,0.79,0.46,1.08l4.65,4.56c0.29,0.28,0.67,0.43,1.06,0.43c0.4-0.01,0.79-0.18,1.06-0.47c0.59-0.59,0.59-1.55,0-2.14
		l-3.54-3.47l3.54-3.47C27.19,32.83,27.2,31.86,26.61,31.26z"/>
	<path class="st0" d="M42.54,35.82l-4.65-4.56c-0.6-0.59-1.56-0.58-2.15,0.02c-0.59,0.6-0.58,1.56,0.02,2.15l3.54,3.47l-3.54,3.47
		c-0.59,0.59-0.59,1.55,0,2.14c0.28,0.29,0.67,0.45,1.08,0.46c0.39,0,0.76-0.14,1.05-0.41l4.65-4.56c0.29-0.28,0.45-0.67,0.46-1.08
		C43,36.5,42.84,36.1,42.54,35.82z"/>
	<path class="st0" d="M33.05,31.02c-0.56,0.06-1.05,0.44-1.25,0.97l-3.98,8.54c-0.35,0.76-0.02,1.65,0.73,2.01
		c0.2,0.1,0.42,0.15,0.64,0.15c0.59,0,1.13-0.34,1.38-0.88l3.98-8.54c0.27-0.5,0.25-1.11-0.07-1.58
		C34.16,31.21,33.61,30.96,33.05,31.02z"/>
</g>
</svg>
