<?xml version="1.0" encoding="utf-8"?>
<!-- Generator: Adobe Illustrator 23.0.0, SVG Export Plug-In . SVG Version: 6.00 Build 0)  -->
<svg version="1.1" id="图层_1" xmlns="http://www.w3.org/2000/svg" xmlns:xlink="http://www.w3.org/1999/xlink" x="0px" y="0px"
	 viewBox="0 0 44 44" style="enable-background:new 0 0 44 44;" xml:space="preserve">
<g>
	<path class="st0" d="M28.13,20.62c-0.03-0.72-0.63-1.29-1.35-1.29H15.92l-0.13,0.01c-0.72,0.07-1.26,0.69-1.22,1.42
		c0.03,0.72,0.63,1.29,1.35,1.29h10.85l0.13-0.01C27.63,21.96,28.16,21.34,28.13,20.62z"/>
	<path class="st0" d="M42.84,33.59c-0.09-0.47-0.38-0.78-0.74-0.78c0,0-0.01,0-0.01,0h-0.07c-1.03,0-1.88-0.84-1.88-1.88
		c0-0.34,0.16-0.71,0.16-0.72c0.19-0.42,0.04-0.93-0.33-1.19l-0.02-0.02l-1.9-1.06l-0.02-0.01c-0.12-0.05-0.26-0.08-0.4-0.08
		c-0.29,0-0.58,0.12-0.77,0.32c-0.21,0.22-0.93,0.83-1.48,0.83c-0.56,0-1.28-0.63-1.49-0.85c-0.19-0.2-0.48-0.32-0.78-0.32
		c-0.14,0-0.27,0.03-0.4,0.08l-0.02,0.01l-1.97,1.08l-0.02,0.02c-0.38,0.26-0.52,0.77-0.33,1.19c0,0,0.16,0.38,0.16,0.72
		c0,1.03-0.84,1.88-1.88,1.88h-0.06c0,0-0.01,0-0.01,0c-0.36,0-0.65,0.31-0.74,0.78c-0.01,0.03-0.16,0.86-0.16,1.5
		c0,0.64,0.15,1.47,0.16,1.5c0.09,0.47,0.38,0.78,0.74,0.78c0,0,0.01,0,0.01,0h0.07c1.03,0,1.88,0.84,1.88,1.88
		c0,0.34-0.16,0.71-0.16,0.72c-0.19,0.42-0.04,0.93,0.33,1.19l0.02,0.02l1.87,1.04l0.02,0.01c0.12,0.05,0.26,0.08,0.4,0.08
		c0.3,0,0.59-0.12,0.78-0.33c0.26-0.29,0.98-0.88,1.51-0.88c0.57,0,1.31,0.67,1.52,0.9c0.19,0.21,0.48,0.34,0.78,0.34h0
		c0.14,0,0.27-0.03,0.39-0.08l0.02-0.01l1.93-1.07l0.02-0.02c0.37-0.26,0.52-0.77,0.33-1.19c0,0-0.16-0.38-0.16-0.72
		c0-1.03,0.84-1.88,1.88-1.88h0.06c0,0,0.01,0,0.01,0c0.36,0,0.65-0.31,0.74-0.78c0-0.01,0.16-0.84,0.16-1.5
		C43,34.44,42.85,33.62,42.84,33.59z M35.34,38.66c-1.98,0-3.58-1.6-3.58-3.58c0-1.98,1.6-3.58,3.58-3.58s3.58,1.6,3.58,3.58
		C38.91,37.06,37.31,38.66,35.34,38.66z"/>
	<path class="st0" d="M26.01,35.09C26.01,35.09,26.01,35.08,26.01,35.09l-19.1-0.01l-0.08-0.01c-0.2-0.03-0.36-0.2-0.38-0.4
		L3.98,15.6h3.06h29.7h3.06L38.4,26.32c0.1,0.03,0.2,0.05,0.3,0.1l0.03,0.01l0,0l0.07,0.03l0.07,0.04l1.9,1.06l0.1,0.06l0.07,0.05
		c0.03,0.02,0.06,0.05,0.09,0.07l1.73-13.35c0.05-0.4-0.07-0.8-0.33-1.1c-0.26-0.3-0.64-0.47-1.05-0.47h-3.25v-2.75
		c0-0.86-0.34-1.69-0.95-2.3c-0.61-0.61-1.44-0.95-2.3-0.95h-14.1c-0.13,0-0.26-0.06-0.35-0.16l-3.35-3.86
		c-0.62-0.71-1.51-1.12-2.45-1.12H8.89c-1.79,0-3.25,1.45-3.25,3.25v7.89H2.39c-0.4,0-0.78,0.17-1.05,0.47s-0.39,0.7-0.34,1.1
		l2.67,20.65c0.21,1.62,1.59,2.83,3.22,2.83h19.67c-0.18-0.29-0.31-0.61-0.38-0.97C26.17,36.73,26.01,35.85,26.01,35.09z M8.42,4.92
		c0-0.26,0.21-0.46,0.46-0.46h5.73c0.13,0,0.26,0.06,0.35,0.16l3.35,3.86c0.62,0.71,1.51,1.12,2.45,1.12h14.1l0.08,0.01
		c0.22,0.04,0.38,0.23,0.38,0.46v2.75H8.42V4.92z"/>
</g>
</svg>
