<?xml version="1.0" encoding="utf-8"?>
<!-- Generator: Adobe Illustrator 23.0.0, SVG Export Plug-In . SVG Version: 6.00 Build 0)  -->
<svg version="1.1" id="图层_1" xmlns="http://www.w3.org/2000/svg" xmlns:xlink="http://www.w3.org/1999/xlink" x="0px" y="0px"
	 viewBox="0 0 44 44" style="enable-background:new 0 0 44 44;" xml:space="preserve">
<g>
	<rect x="8.69" y="6.27" class="st0" width="15.38" height="2.39"/>
	<rect x="8.69" y="11.15" class="st0" width="15.38" height="2.39"/>
	<rect x="8.69" y="16.03" class="st0" width="15.38" height="2.39"/>
	<path class="st0" d="M36.8,1H3.72v38.68H36.8V1z M34.43,37.31H6.09V3.37h28.34V37.31z"/>
	<polygon class="st0" points="38.5,5.1 38.5,41.22 8.75,41.22 8.75,43 40.28,43 40.28,5.1 	"/>
	<path class="st0" d="M18.4,27.99c0,3.6,2.92,6.51,6.51,6.51c3.6,0,6.51-2.92,6.51-6.51h-6.51v-6.51
		C21.32,21.47,18.4,24.39,18.4,27.99z"/>
	<path class="st0" d="M26.22,20.24v6.51h6.51C32.74,23.16,29.82,20.24,26.22,20.24z"/>
</g>
</svg>
