<?xml version="1.0" encoding="utf-8"?>
<!-- Generator: Adobe Illustrator 23.0.0, SVG Export Plug-In . SVG Version: 6.00 Build 0)  -->
<svg version="1.1" id="图层_1" xmlns="http://www.w3.org/2000/svg" xmlns:xlink="http://www.w3.org/1999/xlink" x="0px" y="0px"
     viewBox="0 0 44 44" style="enable-background:new 0 0 44 44;" xml:space="preserve">
  <g>
	<path class="st0" d="M27.26,14.66c-0.15-0.79-0.63-1.3-1.23-1.3c-0.01,0-0.02,0-0.02,0h-0.11c-1.73,0-3.14-1.41-3.14-3.14
		c0-0.56,0.27-1.19,0.27-1.2c0.31-0.7,0.07-1.56-0.55-1.99L22.43,7l-3.18-1.77l-0.04-0.02C19,5.12,18.77,5.08,18.53,5.08
		c-0.49,0-0.98,0.2-1.3,0.53c-0.35,0.36-1.55,1.39-2.48,1.39c-0.93,0-2.15-1.05-2.5-1.42c-0.32-0.34-0.81-0.54-1.31-0.54
		c-0.24,0-0.46,0.04-0.66,0.13l-0.04,0.02L6.96,7L6.92,7.02C6.29,7.46,6.05,8.32,6.36,9.02c0,0.01,0.27,0.63,0.27,1.2
		c0,1.73-1.41,3.14-3.14,3.14H3.38c-0.01,0-0.02,0-0.02,0c-0.6,0-1.08,0.51-1.23,1.3c-0.01,0.06-0.27,1.44-0.27,2.51
		c0,1.08,0.26,2.46,0.27,2.51c0.15,0.79,0.63,1.3,1.23,1.3c0.01,0,0.02,0,0.02,0h0.11c1.73,0,3.14,1.41,3.14,3.14
		c0,0.56-0.27,1.19-0.27,1.2c-0.31,0.7-0.07,1.55,0.55,1.99l0.04,0.03l3.12,1.75l0.04,0.02c0.21,0.09,0.43,0.14,0.67,0.14
		c0.5,0,0.99-0.21,1.31-0.55c0.44-0.48,1.65-1.48,2.54-1.48c0.96,0,2.2,1.12,2.55,1.51c0.32,0.35,0.81,0.56,1.31,0.56h0
		c0.23,0,0.46-0.04,0.66-0.13l0.04-0.02l3.24-1.79l0.04-0.03c0.63-0.44,0.87-1.29,0.56-1.99c0-0.01-0.27-0.64-0.27-1.2
		c0-1.73,1.41-3.14,3.14-3.14H26c0.01,0,0.01,0,0.02,0c0.6,0,1.08-0.51,1.23-1.3c0-0.01,0.27-1.41,0.27-2.51
		C27.52,16.09,27.27,14.72,27.26,14.66z M14.69,23.16c-3.31,0-5.99-2.68-5.99-5.99s2.68-5.99,5.99-5.99c3.31,0,5.99,2.68,5.99,5.99
		S18,23.16,14.69,23.16z"/>
    <path class="st0" d="M41.16,28.58c-0.01,0-0.01,0-0.01,0h-0.07c-1.13,0-2.05-0.92-2.05-2.05c0-0.37,0.18-0.78,0.18-0.78
		c0.2-0.46,0.05-1.01-0.36-1.3l-0.02-0.02l-2.07-1.15l-0.03-0.01c-0.14-0.06-0.28-0.09-0.44-0.09c-0.32,0-0.64,0.13-0.84,0.34
		c-0.23,0.23-1.01,0.91-1.62,0.91c-0.61,0-1.4-0.68-1.63-0.92c-0.21-0.22-0.53-0.35-0.85-0.35c-0.15,0-0.3,0.03-0.43,0.09
		l-0.03,0.01l-2.15,1.18l-0.03,0.02c-0.41,0.28-0.57,0.84-0.36,1.3c0,0,0.18,0.41,0.18,0.78c0,1.13-0.92,2.05-2.05,2.05h-0.07
		c0,0-0.01,0-0.01,0c-0.39,0-0.71,0.33-0.8,0.85c-0.01,0.04-0.17,0.94-0.17,1.64c0,0.7,0.17,1.6,0.17,1.64
		c0.1,0.52,0.41,0.85,0.8,0.85c0,0,0.01,0,0.01,0h0.07c1.13,0,2.05,0.92,2.05,2.05c0,0.37-0.18,0.78-0.18,0.78
		c-0.2,0.45-0.05,1.01,0.36,1.3l0.02,0.02l2.04,1.14l0.03,0.01c0.14,0.06,0.28,0.09,0.44,0.09c0.33,0,0.64-0.13,0.85-0.36
		c0.29-0.31,1.07-0.96,1.65-0.96c0.63,0,1.43,0.73,1.66,0.98c0.21,0.23,0.53,0.37,0.86,0.37h0c0.15,0,0.3-0.03,0.43-0.09l0.03-0.01
		l2.11-1.17l0.02-0.02c0.41-0.28,0.57-0.84,0.36-1.3c0,0-0.18-0.42-0.18-0.78c0-1.13,0.92-2.05,2.05-2.05h0.07c0,0,0.01,0,0.01,0
		c0.39,0,0.71-0.33,0.8-0.85c0-0.01,0.17-0.92,0.17-1.64c0-0.71-0.17-1.6-0.17-1.64C41.87,28.91,41.55,28.58,41.16,28.58z
		 M33.78,34.96c-2.16,0-3.91-1.75-3.91-3.91c0-2.16,1.75-3.91,3.91-3.91c2.16,0,3.91,1.75,3.91,3.91
		C37.68,33.22,35.93,34.96,33.78,34.96z"/>
</g>
</svg>
