<?xml version="1.0" encoding="utf-8"?>
<!-- Generator: Adobe Illustrator 23.0.0, SVG Export Plug-In . SVG Version: 6.00 Build 0)  -->
<svg version="1.1" id="图层_1" xmlns="http://www.w3.org/2000/svg" xmlns:xlink="http://www.w3.org/1999/xlink" x="0px" y="0px"
	 viewBox="0 0 44 44" style="enable-background:new 0 0 44 44;" xml:space="preserve">
<g>
	<rect x="13.3" y="16.16" class="st0" width="19.89" height="2.5"/>
	<rect x="13.3" y="23.11" class="st0" width="15.04" height="2.5"/>
	<rect x="13.3" y="30.06" class="st0" width="21.73" height="2.5"/>
	<path class="st0" d="M36.79,4.91h-4.51v2.32h4.51c0.41,0,0.74,0.33,0.74,0.74v31.98c0,0.41-0.33,0.74-0.74,0.74H7.21
		c-0.41,0-0.74-0.33-0.74-0.74V7.96c0-0.41,0.33-0.74,0.74-0.74h4.51V4.91H7.21c-1.68,0-3.05,1.37-3.05,3.05v31.98
		c0,1.68,1.37,3.05,3.05,3.05h29.58c1.68,0,3.05-1.37,3.05-3.05V7.96C39.84,6.28,38.47,4.91,36.79,4.91z"/>
	<polygon class="st0" points="29.9,2.81 25.7,2.81 25.7,1 18.3,1 18.3,2.81 14.1,2.81 14.1,7.63 29.9,7.63 	"/>
	<rect x="8.8" y="16.15" class="st0" width="2.51" height="2.51"/>
	<rect x="8.8" y="23.11" class="st0" width="2.51" height="2.51"/>
	<rect x="8.8" y="30.06" class="st0" width="2.51" height="2.51"/>
</g>
</svg>
