<?xml version="1.0" encoding="utf-8"?>
<!-- Generator: Adobe Illustrator 23.0.0, SVG Export Plug-In . SVG Version: 6.00 Build 0)  -->
<svg version="1.1" id="图层_1" xmlns="http://www.w3.org/2000/svg" xmlns:xlink="http://www.w3.org/1999/xlink" x="0px" y="0px"
	 viewBox="0 0 44 44" style="enable-background:new 0 0 44 44;" xml:space="preserve">
<g>
	<path class="st0" d="M22.26,24.45c0.31-0.7,0.46-1.47,0.46-2.34v-8.98H19.6V22c0,0.94-0.25,1.67-0.76,2.19
		c-0.51,0.52-1.19,0.78-2.05,0.78c-0.86,0-1.54-0.26-2.04-0.78c-0.5-0.52-0.75-1.25-0.75-2.19v-8.86h-3.15v8.98
		c0,0.86,0.15,1.64,0.47,2.34c0.31,0.7,0.73,1.29,1.27,1.78c0.54,0.49,1.16,0.87,1.88,1.15c0.72,0.27,1.49,0.41,2.32,0.41
		c0.83,0,1.61-0.14,2.33-0.41c0.72-0.27,1.35-0.65,1.88-1.15C21.53,25.74,21.95,25.15,22.26,24.45z"/>
	<rect x="26.24" y="13.14" class="st0" width="3.15" height="14.51"/>
	<path class="st0" d="M3.25,8.42h35.85v20.45h2.25V3.97c0-1.62-1.31-2.93-2.93-2.93H3.93C2.31,1.04,1,2.35,1,3.97v30.61
		c0,1.62,1.31,2.93,2.93,2.93h12.89v-4.66H3.25V8.42z M3.25,3.97c0-0.38,0.31-0.68,0.68-0.68h34.48c0.38,0,0.68,0.31,0.68,0.68v2.21
		H3.25V3.97z"/>
	<path class="st0" d="M26.61,31.26c-0.59-0.6-1.55-0.61-2.15-0.02l-4.65,4.56c-0.29,0.29-0.46,0.68-0.46,1.09
		c0,0.41,0.17,0.79,0.46,1.08l4.65,4.56c0.29,0.28,0.67,0.43,1.06,0.43c0.4-0.01,0.79-0.18,1.06-0.47c0.59-0.59,0.59-1.55,0-2.14
		l-3.54-3.47l3.54-3.47C27.19,32.83,27.2,31.86,26.61,31.26z"/>
	<path class="st0" d="M42.54,35.82l-4.65-4.56c-0.6-0.59-1.56-0.58-2.15,0.02c-0.59,0.6-0.58,1.56,0.02,2.15l3.54,3.47l-3.54,3.47
		c-0.59,0.59-0.59,1.55,0,2.14c0.28,0.29,0.67,0.45,1.08,0.46c0.39,0,0.76-0.14,1.05-0.41l4.65-4.56c0.29-0.28,0.45-0.67,0.46-1.08
		C43,36.5,42.84,36.1,42.54,35.82z"/>
	<path class="st0" d="M33.05,31.02c-0.56,0.06-1.05,0.44-1.25,0.97l-3.98,8.54c-0.35,0.76-0.02,1.65,0.73,2.01
		c0.2,0.1,0.42,0.15,0.64,0.15c0.59,0,1.13-0.34,1.38-0.88l3.98-8.54c0.27-0.5,0.25-1.11-0.07-1.58
		C34.16,31.21,33.61,30.96,33.05,31.02z"/>
</g>
</svg>
